<svg width="24" height="25" viewBox="0 0 24 25" fill="none" xmlns="http://www.w3.org/2000/svg">
<path d="M5 10.4706H7C9 10.4706 10 9.47059 10 7.47059V5.47059C10 3.47059 9 2.47059 7 2.47059H5C3 2.47059 2 3.47059 2 5.47059V7.47059C2 9.47059 3 10.4706 5 10.4706Z" stroke="#1C1C1C" stroke-width="1.5" stroke-miterlimit="10" stroke-linecap="round" stroke-linejoin="round"/>
<path d="M17 10.4706H19C21 10.4706 22 9.47059 22 7.47059V5.47059C22 3.47059 21 2.47059 19 2.47059H17C15 2.47059 14 3.47059 14 5.47059V7.47059C14 9.47059 15 10.4706 17 10.4706Z" stroke="#1C1C1C" stroke-width="1.5" stroke-miterlimit="10" stroke-linecap="round" stroke-linejoin="round"/>
<path d="M17 22.4706H19C21 22.4706 22 21.4706 22 19.4706V17.4706C22 15.4706 21 14.4706 19 14.4706H17C15 14.4706 14 15.4706 14 17.4706V19.4706C14 21.4706 15 22.4706 17 22.4706Z" stroke="#1C1C1C" stroke-width="1.5" stroke-miterlimit="10" stroke-linecap="round" stroke-linejoin="round"/>
<path d="M5 22.4706H7C9 22.4706 10 21.4706 10 19.4706V17.4706C10 15.4706 9 14.4706 7 14.4706H5C3 14.4706 2 15.4706 2 17.4706V19.4706C2 21.4706 3 22.4706 5 22.4706Z" stroke="#1C1C1C" stroke-width="1.5" stroke-miterlimit="10" stroke-linecap="round" stroke-linejoin="round"/>
</svg>
