<svg width="26" height="27" viewBox="0 0 26 27" fill="none" xmlns="http://www.w3.org/2000/svg">
<path opacity="0.4" d="M22.209 11.7714H19.0781C16.5107 11.7714 14.4198 9.68059 14.4198 7.11309V3.98226C14.4198 3.38643 13.9323 2.89893 13.3365 2.89893H8.74315C5.40648 2.89893 2.70898 5.06559 2.70898 8.93309V18.5314C2.70898 22.3989 5.40648 24.5656 8.74315 24.5656H17.2582C20.5948 24.5656 23.2923 22.3989 23.2923 18.5314V12.8548C23.2923 12.2589 22.8048 11.7714 22.209 11.7714Z" fill="url(#paint0_linear_2327_19548)"/>
<path d="M17.1176 3.12662C16.6735 2.68246 15.9043 2.98579 15.9043 3.60329V7.38412C15.9043 8.96579 17.2476 10.2766 18.8835 10.2766C19.9126 10.2875 21.3426 10.2875 22.5668 10.2875C23.1843 10.2875 23.5093 9.56162 23.076 9.12829C21.516 7.55746 18.721 4.72996 17.1176 3.12662Z" fill="url(#paint1_linear_2327_19548)"/>
<defs>
<linearGradient id="paint0_linear_2327_19548" x1="2.70898" y1="4.70448" x2="28.0309" y2="10.8829" gradientUnits="userSpaceOnUse">
<stop stop-color="#1CCFBD"/>
<stop offset="1" stop-color="#2C9BF0"/>
</linearGradient>
<linearGradient id="paint1_linear_2327_19548" x1="15.9043" y1="3.52985" x2="24.9165" y2="5.84394" gradientUnits="userSpaceOnUse">
<stop stop-color="#1CCFBD"/>
<stop offset="1" stop-color="#2C9BF0"/>
</linearGradient>
</defs>
</svg>
