<svg width="24" height="25" viewBox="0 0 24 25" fill="none" xmlns="http://www.w3.org/2000/svg">
<path d="M10.7509 2.92053C11.4509 2.33053 12.5809 2.33053 13.2609 2.92053L14.8409 4.27053C15.1409 4.52053 15.7109 4.73053 16.1109 4.73053H17.8109C18.8709 4.73053 19.7409 5.60053 19.7409 6.66053V8.36053C19.7409 8.76053 19.9509 9.32053 20.2009 9.62053L21.5509 11.2005C22.1409 11.9005 22.1409 13.0305 21.5509 13.7105L20.2009 15.2905C19.9509 15.5905 19.7409 16.1505 19.7409 16.5505V18.2505C19.7409 19.3105 18.8709 20.1805 17.8109 20.1805H16.1109C15.7109 20.1805 15.1509 20.3905 14.8509 20.6405L13.2709 21.9905C12.5709 22.5805 11.4409 22.5805 10.7609 21.9905L9.18086 20.6405C8.88086 20.3905 8.31086 20.1805 7.92086 20.1805H6.17086C5.11086 20.1805 4.24086 19.3105 4.24086 18.2505V16.5405C4.24086 16.1505 4.04086 15.5805 3.79086 15.2905L2.44086 13.7005C1.86086 13.0105 1.86086 11.8905 2.44086 11.2005L3.79086 9.61053C4.04086 9.31053 4.24086 8.75053 4.24086 8.36053V6.67053C4.24086 5.61053 5.11086 4.74053 6.17086 4.74053H7.90086C8.30086 4.74053 8.86086 4.53053 9.16086 4.28053L10.7509 2.92053Z" stroke="#292D32" stroke-width="1.5" stroke-linecap="round" stroke-linejoin="round"/>
<path d="M12 8.60059V13.4306" stroke="#292D32" stroke-width="1.5" stroke-linecap="round" stroke-linejoin="round"/>
<path d="M11.9941 16.4706H12.0031" stroke="#292D32" stroke-width="2" stroke-linecap="round" stroke-linejoin="round"/>
</svg>
