<svg width="24" height="25" viewBox="0 0 24 25" fill="none" xmlns="http://www.w3.org/2000/svg">
<path d="M9.16055 11.3407C9.06055 11.3307 8.94055 11.3307 8.83055 11.3407C6.45055 11.2607 4.56055 9.3107 4.56055 6.9107C4.56055 4.4607 6.54055 2.4707 9.00055 2.4707C11.4505 2.4707 13.4405 4.4607 13.4405 6.9107C13.4305 9.3107 11.5405 11.2607 9.16055 11.3407Z" stroke="#1C1C1C" stroke-width="1.5" stroke-linecap="round" stroke-linejoin="round"/>
<path d="M16.4093 4.4707C18.3493 4.4707 19.9093 6.0407 19.9093 7.9707C19.9093 9.8607 18.4093 11.4007 16.5393 11.4707C16.4593 11.4607 16.3693 11.4607 16.2793 11.4707" stroke="#1C1C1C" stroke-width="1.5" stroke-linecap="round" stroke-linejoin="round"/>
<path d="M4.1607 15.0307C1.7407 16.6507 1.7407 19.2907 4.1607 20.9007C6.9107 22.7407 11.4207 22.7407 14.1707 20.9007C16.5907 19.2807 16.5907 16.6407 14.1707 15.0307C11.4307 13.2007 6.9207 13.2007 4.1607 15.0307Z" stroke="#1C1C1C" stroke-width="1.5" stroke-linecap="round" stroke-linejoin="round"/>
<path d="M18.3398 20.4707C19.0598 20.3207 19.7398 20.0307 20.2998 19.6007C21.8598 18.4307 21.8598 16.5007 20.2998 15.3307C19.7498 14.9107 19.0798 14.6307 18.3698 14.4707" stroke="#1C1C1C" stroke-width="1.5" stroke-linecap="round" stroke-linejoin="round"/>
</svg>
