<svg width="24" height="25" viewBox="0 0 24 25" fill="none" xmlns="http://www.w3.org/2000/svg">
<path d="M12 12.4706C14.7614 12.4706 17 10.232 17 7.47058C17 4.70916 14.7614 2.47058 12 2.47058C9.23858 2.47058 7 4.70916 7 7.47058C7 10.232 9.23858 12.4706 12 12.4706Z" stroke="#292D32" stroke-width="1.5" stroke-linecap="round" stroke-linejoin="round"/>
<path d="M19.2091 16.2106L15.669 19.7506C15.529 19.8906 15.3991 20.1506 15.3691 20.3406L15.1791 21.6906C15.1091 22.1806 15.4491 22.5206 15.9391 22.4506L17.289 22.2606C17.479 22.2306 17.7491 22.1006 17.8791 21.9606L21.419 18.4206C22.029 17.8106 22.319 17.1006 21.419 16.2006C20.529 15.3106 19.8191 15.6006 19.2091 16.2106Z" stroke="#292D32" stroke-width="1.5" stroke-miterlimit="10" stroke-linecap="round" stroke-linejoin="round"/>
<path d="M18.6992 16.7206C18.9992 17.8006 19.8392 18.6406 20.9192 18.9406" stroke="#292D32" stroke-width="1.5" stroke-miterlimit="10" stroke-linecap="round" stroke-linejoin="round"/>
<path d="M3.41016 22.4706C3.41016 18.6006 7.26018 15.4706 12.0002 15.4706C13.0402 15.4706 14.0402 15.6206 14.9702 15.9006" stroke="#292D32" stroke-width="1.5" stroke-linecap="round" stroke-linejoin="round"/>
</svg>
