<svg width="34" height="34" viewBox="0 0 34 34" fill="none" xmlns="http://www.w3.org/2000/svg">
<g clip-path="url(#clip0_1359_18888)">
<path d="M25.875 10.4688H7.125C6.5034 10.4688 5.90726 10.7157 5.46772 11.1552C5.02818 11.5948 4.78125 12.1909 4.78125 12.8125V26.875C4.78125 27.4966 5.02818 28.0927 5.46772 28.5323C5.90726 28.9718 6.5034 29.2188 7.125 29.2188H25.875C26.4966 29.2188 27.0927 28.9718 27.5323 28.5323C27.9718 28.0927 28.2188 27.4966 28.2188 26.875V22.9688H25.0938C24.2649 22.9688 23.4701 22.6395 22.884 22.0535C22.298 21.4674 21.9688 20.6726 21.9688 19.8438C21.9688 19.0149 22.298 18.2201 22.884 17.634C23.4701 17.048 24.2649 16.7188 25.0938 16.7188H28.2188V12.8125C28.2188 12.1909 27.9718 11.5948 27.5323 11.1552C27.0927 10.7157 26.4966 10.4688 25.875 10.4688ZM11.8125 26.0938H8.6875C8.4803 26.0938 8.28159 26.0114 8.13507 25.8649C7.98856 25.7184 7.90625 25.5197 7.90625 25.3125C7.90625 25.1053 7.98856 24.9066 8.13507 24.7601C8.28159 24.6136 8.4803 24.5312 8.6875 24.5312H11.8125C12.0197 24.5312 12.2184 24.6136 12.3649 24.7601C12.5114 24.9066 12.5938 25.1053 12.5938 25.3125C12.5938 25.5197 12.5114 25.7184 12.3649 25.8649C12.2184 26.0114 12.0197 26.0938 11.8125 26.0938Z" fill="white"/>
<path d="M23.5312 19.8436C23.5312 20.258 23.6959 20.6555 23.9889 20.9485C24.2819 21.2415 24.6793 21.4061 25.0938 21.4061H28.2188V18.2811H25.0938C24.6793 18.2811 24.2819 18.4458 23.9889 18.7388C23.6959 19.0318 23.5312 19.4292 23.5312 19.8436ZM14.9375 6.0077C14.7911 5.86219 14.5931 5.78052 14.3867 5.78052C14.1803 5.78052 13.9823 5.86219 13.8359 6.0077L10.9531 8.90614H17.8438L14.9375 6.0077ZM22.0469 8.90614L19.1484 6.0077C19.0021 5.86219 18.8041 5.78052 18.5977 5.78052C18.3913 5.78052 18.1933 5.86219 18.0469 6.0077L17.6016 6.45301L20.0547 8.90614H22.0469Z" fill="white"/>
</g>
<defs>
<clipPath id="clip0_1359_18888">
<rect width="25" height="25" fill="white" transform="translate(4 5)"/>
</clipPath>
</defs>
</svg>
