<svg width="24" height="25" viewBox="0 0 24 25" fill="none" xmlns="http://www.w3.org/2000/svg">
<path d="M5 10.4707H7C9 10.4707 10 9.4707 10 7.4707V5.4707C10 3.4707 9 2.4707 7 2.4707H5C3 2.4707 2 3.4707 2 5.4707V7.4707C2 9.4707 3 10.4707 5 10.4707Z" stroke="#FDFFF7" stroke-width="1.5" stroke-miterlimit="10" stroke-linecap="round" stroke-linejoin="round"/>
<path d="M17 10.4707H19C21 10.4707 22 9.4707 22 7.4707V5.4707C22 3.4707 21 2.4707 19 2.4707H17C15 2.4707 14 3.4707 14 5.4707V7.4707C14 9.4707 15 10.4707 17 10.4707Z" stroke="#FDFFF7" stroke-width="1.5" stroke-miterlimit="10" stroke-linecap="round" stroke-linejoin="round"/>
<path d="M17 22.4707H19C21 22.4707 22 21.4707 22 19.4707V17.4707C22 15.4707 21 14.4707 19 14.4707H17C15 14.4707 14 15.4707 14 17.4707V19.4707C14 21.4707 15 22.4707 17 22.4707Z" stroke="#FDFFF7" stroke-width="1.5" stroke-miterlimit="10" stroke-linecap="round" stroke-linejoin="round"/>
<path d="M5 22.4707H7C9 22.4707 10 21.4707 10 19.4707V17.4707C10 15.4707 9 14.4707 7 14.4707H5C3 14.4707 2 15.4707 2 17.4707V19.4707C2 21.4707 3 22.4707 5 22.4707Z" stroke="#FDFFF7" stroke-width="1.5" stroke-miterlimit="10" stroke-linecap="round" stroke-linejoin="round"/>
</svg>
