<svg width="26" height="27" viewBox="0 0 26 27" fill="none" xmlns="http://www.w3.org/2000/svg">
<path opacity="0.4" d="M22.209 11.5391H19.0781C16.5107 11.5391 14.4198 9.44829 14.4198 6.88079V3.74996C14.4198 3.15413 13.9323 2.66663 13.3365 2.66663H8.74315C5.40648 2.66663 2.70898 4.83329 2.70898 8.70079V18.2991C2.70898 22.1666 5.40648 24.3333 8.74315 24.3333H17.2582C20.5948 24.3333 23.2923 22.1666 23.2923 18.2991V12.6225C23.2923 12.0266 22.8048 11.5391 22.209 11.5391Z" fill="url(#paint0_linear_3270_8655)"/>
<path d="M17.1176 2.8942C16.6735 2.45003 15.9043 2.75337 15.9043 3.37087V7.1517C15.9043 8.73337 17.2476 10.0442 18.8835 10.0442C19.9126 10.055 21.3426 10.055 22.5668 10.055C23.1843 10.055 23.5093 9.3292 23.076 8.89587C21.516 7.32503 18.721 4.49753 17.1176 2.8942Z" fill="url(#paint1_linear_3270_8655)"/>
<path d="M12.4907 14.0091L10.3241 11.8425C10.3132 11.8316 10.3024 11.8316 10.3024 11.8208C10.2374 11.7558 10.1507 11.7016 10.0641 11.6583C10.0532 11.6583 10.0532 11.6583 10.0424 11.6583C9.95573 11.6258 9.86906 11.615 9.7824 11.6041C9.7499 11.6041 9.72823 11.6041 9.69573 11.6041C9.63073 11.6041 9.5549 11.6258 9.4899 11.6475C9.4574 11.6583 9.43573 11.6691 9.41406 11.68C9.3274 11.7233 9.24073 11.7666 9.17573 11.8425L7.00906 14.0091C6.6949 14.3233 6.6949 14.8433 7.00906 15.1575C7.32323 15.4716 7.84323 15.4716 8.1574 15.1575L8.9374 14.3775V18.9166C8.9374 19.3608 9.30573 19.7291 9.7499 19.7291C10.1941 19.7291 10.5624 19.3608 10.5624 18.9166V14.3775L11.3424 15.1575C11.5049 15.32 11.7107 15.3958 11.9166 15.3958C12.1224 15.3958 12.3282 15.32 12.4907 15.1575C12.8049 14.8433 12.8049 14.3233 12.4907 14.0091Z" fill="url(#paint2_linear_3270_8655)"/>
<defs>
<linearGradient id="paint0_linear_3270_8655" x1="2.70898" y1="4.47218" x2="28.0309" y2="10.6506" gradientUnits="userSpaceOnUse">
<stop stop-color="#1CCFBD"/>
<stop offset="1" stop-color="#2C9BF0"/>
</linearGradient>
<linearGradient id="paint1_linear_3270_8655" x1="15.9043" y1="3.29743" x2="24.9165" y2="5.61152" gradientUnits="userSpaceOnUse">
<stop stop-color="#1CCFBD"/>
<stop offset="1" stop-color="#2C9BF0"/>
</linearGradient>
<linearGradient id="paint2_linear_3270_8655" x1="6.77344" y1="12.2812" x2="14.2674" y2="13.6914" gradientUnits="userSpaceOnUse">
<stop stop-color="#1CCFBD"/>
<stop offset="1" stop-color="#2C9BF0"/>
</linearGradient>
</defs>
</svg>
