<svg width="38" height="38" viewBox="0 0 38 38" fill="none" xmlns="http://www.w3.org/2000/svg">
<path d="M34.6055 25.8427C34.6055 31.4515 31.2618 34.7952 25.653 34.7952H23.8193C22.9718 34.7952 22.2784 34.1018 22.2784 33.2543V24.3634C22.2784 23.9474 22.6174 23.593 23.0334 23.593L25.7454 23.5468C25.9611 23.5314 26.1461 23.3773 26.1923 23.1615L26.7316 20.2185C26.7778 19.9411 26.5621 19.6791 26.2693 19.6791L22.9872 19.7254C22.5558 19.7254 22.2168 19.3864 22.2014 18.9703L22.1398 15.1952C22.1398 14.9486 22.3401 14.7329 22.602 14.7329L26.3001 14.6713C26.5621 14.6713 26.7624 14.471 26.7624 14.209L26.7008 10.5109C26.7008 10.2489 26.5005 10.0486 26.2385 10.0486L22.0781 10.1103C19.5202 10.1565 17.4863 12.2521 17.5325 14.8099L17.6096 19.0474C17.625 19.4788 17.286 19.8178 16.8545 19.8332L15.0055 19.864C14.7435 19.864 14.5432 20.0643 14.5432 20.3263L14.5894 23.254C14.5894 23.5159 14.7897 23.7162 15.0517 23.7162L16.9008 23.6854C17.3322 23.6854 17.6712 24.0244 17.6866 24.4405L17.8253 33.2235C17.8407 34.0864 17.1473 34.7952 16.2844 34.7952H12.7404C7.13155 34.7952 3.78784 31.4515 3.78784 25.8272L3.78784 12.9301C3.78784 7.32125 7.13155 3.97754 12.7404 3.97754L25.653 3.97754C31.2618 3.97754 34.6055 7.32125 34.6055 12.9301V25.8427Z" fill="white" fill-opacity="0.8"/>
</svg>
