<svg width="22" height="22" viewBox="0 0 22 22" fill="none" xmlns="http://www.w3.org/2000/svg">
<path d="M19.92 14.7356C19.92 17.9206 18.0212 19.8193 14.8362 19.8193H13.795C13.3137 19.8193 12.92 19.4256 12.92 18.9443L12.92 13.8956C12.92 13.6593 13.1125 13.4581 13.3487 13.4581L14.8887 13.4318C15.0112 13.4231 15.1162 13.3356 15.1425 13.2131L15.4487 11.5418C15.475 11.3843 15.3525 11.2356 15.1862 11.2356L13.3225 11.2618C13.0775 11.2618 12.885 11.0693 12.8762 10.8331L12.8412 8.68934C12.8412 8.54934 12.955 8.42685 13.1037 8.42685L15.2037 8.39184C15.3525 8.39184 15.4662 8.2781 15.4662 8.12935L15.4312 6.02933C15.4312 5.88058 15.3175 5.76684 15.1687 5.76684L12.8062 5.80185C11.3537 5.8281 10.1987 7.01809 10.225 8.47059L10.2687 10.8768C10.2775 11.1218 10.085 11.3143 9.83999 11.3231L8.78998 11.3406C8.64123 11.3406 8.52749 11.4543 8.52749 11.6031L8.55374 13.2656C8.55374 13.4143 8.66748 13.5281 8.81623 13.5281L9.86624 13.5106C10.1112 13.5106 10.3037 13.7031 10.3125 13.9393L10.3912 18.9268C10.4 19.4168 10.0062 19.8193 9.51622 19.8193H7.50373C4.31873 19.8193 2.41998 17.9206 2.41998 14.7268L2.41998 7.40308C2.41998 4.21808 4.31873 2.31934 7.50373 2.31934L14.8362 2.31934C18.0212 2.31934 19.92 4.21808 19.92 7.40308V14.7356Z" fill="white" fill-opacity="0.8"/>
</svg>
