<svg width="24" height="25" viewBox="0 0 24 25" fill="none" xmlns="http://www.w3.org/2000/svg">
<path d="M22 12.6353C22 7.11525 17.52 2.63525 12 2.63525C6.48 2.63525 2 7.11525 2 12.6353C2 18.1553 6.48 22.6353 12 22.6353" stroke="#FDFFF7" stroke-width="1.5" stroke-linecap="round" stroke-linejoin="round"/>
<path d="M8.0001 3.63525H9.0001C7.0501 9.47525 7.0501 15.7953 9.0001 21.6353H8.0001" stroke="#FDFFF7" stroke-width="1.5" stroke-linecap="round" stroke-linejoin="round"/>
<path d="M15 3.63525C15.97 6.55525 16.46 9.59525 16.46 12.6353" stroke="#FDFFF7" stroke-width="1.5" stroke-linecap="round" stroke-linejoin="round"/>
<path d="M3 16.6353V15.6353C5.92 16.6053 8.96 17.0953 12 17.0953" stroke="#FDFFF7" stroke-width="1.5" stroke-linecap="round" stroke-linejoin="round"/>
<path d="M3 9.63535C8.84 7.68535 15.16 7.68535 21 9.63535" stroke="#FDFFF7" stroke-width="1.5" stroke-linecap="round" stroke-linejoin="round"/>
<path d="M18.2 22.0353C19.9673 22.0353 21.4 20.6026 21.4 18.8353C21.4 17.068 19.9673 15.6353 18.2 15.6353C16.4327 15.6353 15 17.068 15 18.8353C15 20.6026 16.4327 22.0353 18.2 22.0353Z" stroke="#FDFFF7" stroke-width="1.5" stroke-linecap="round" stroke-linejoin="round"/>
<path d="M22 22.6353L21 21.6353" stroke="#FDFFF7" stroke-width="1.5" stroke-linecap="round" stroke-linejoin="round"/>
</svg>
