<svg width="22" height="22" viewBox="0 0 22 22" fill="none" xmlns="http://www.w3.org/2000/svg">
<path d="M14.5062 2.31934L7.17372 2.31934C3.98872 2.31934 2.08997 4.21809 2.08997 7.40309L2.08997 14.7268C2.08997 17.9206 3.98872 19.8193 7.17372 19.8193H14.4975C17.6825 19.8193 19.5812 17.9206 19.5812 14.7356V7.40309C19.59 4.21809 17.6912 2.31934 14.5062 2.31934ZM10.84 14.4643C8.96747 14.4643 7.44497 12.9418 7.44497 11.0693C7.44497 9.19684 8.96747 7.67434 10.84 7.67434C12.7125 7.67434 14.235 9.19684 14.235 11.0693C14.235 12.9418 12.7125 14.4643 10.84 14.4643ZM16.02 6.58934C15.9762 6.69434 15.915 6.79059 15.8362 6.87809C15.7487 6.95684 15.6525 7.01809 15.5475 7.06184C15.4425 7.10559 15.3287 7.13184 15.215 7.13184C14.9787 7.13184 14.76 7.04434 14.5937 6.87809C14.515 6.79059 14.4537 6.69434 14.41 6.58934C14.3662 6.48434 14.34 6.37059 14.34 6.25684C14.34 6.14309 14.3662 6.02934 14.41 5.92434C14.4537 5.81059 14.515 5.72309 14.5937 5.63559C14.795 5.43434 15.1012 5.33809 15.3812 5.39934C15.4425 5.40809 15.495 5.42559 15.5475 5.45184C15.6 5.46934 15.6525 5.49559 15.705 5.53059C15.7487 5.55684 15.7925 5.60059 15.8362 5.63559C15.915 5.72309 15.9762 5.81059 16.02 5.92434C16.0637 6.02934 16.09 6.14309 16.09 6.25684C16.09 6.37059 16.0637 6.48434 16.02 6.58934Z" fill="white" fill-opacity="0.8"/>
</svg>
