<svg width="38" height="38" viewBox="0 0 38 38" fill="none" xmlns="http://www.w3.org/2000/svg">
<path d="M25.0466 3.97754L12.134 3.97754C6.52523 3.97754 3.18152 7.32125 3.18152 12.9301L3.18152 25.8273C3.18152 31.4515 6.52523 34.7952 12.134 34.7952H25.0312C30.64 34.7952 33.9838 31.4515 33.9838 25.8427V12.9301C33.9992 7.32125 30.6555 3.97754 25.0466 3.97754ZM18.5903 25.365C15.2929 25.365 12.6117 22.6839 12.6117 19.3864C12.6117 16.0889 15.2929 13.4077 18.5903 13.4077C21.8878 13.4077 24.569 16.0889 24.569 19.3864C24.569 22.6839 21.8878 25.365 18.5903 25.365ZM27.7124 11.497C27.6353 11.682 27.5275 11.8514 27.3888 12.0055C27.2347 12.1442 27.0652 12.2521 26.8803 12.3291C26.6954 12.4062 26.4951 12.4524 26.2948 12.4524C25.8787 12.4524 25.4935 12.2983 25.2007 12.0055C25.0621 11.8514 24.9542 11.682 24.8771 11.497C24.8001 11.3121 24.7539 11.1118 24.7539 10.9115C24.7539 10.7112 24.8001 10.5109 24.8771 10.326C24.9542 10.1257 25.0621 9.97157 25.2007 9.81748C25.5551 9.46308 26.0944 9.29358 26.5875 9.40145C26.6954 9.41685 26.7878 9.44767 26.8803 9.4939C26.9727 9.52472 27.0652 9.57094 27.1576 9.63258C27.2347 9.6788 27.3117 9.75585 27.3888 9.81748C27.5275 9.97157 27.6353 10.1257 27.7124 10.326C27.7894 10.5109 27.8356 10.7112 27.8356 10.9115C27.8356 11.1118 27.7894 11.3121 27.7124 11.497Z" fill="white" fill-opacity="0.8"/>
</svg>
