<svg width="22" height="21" viewBox="0 0 22 21" fill="none" xmlns="http://www.w3.org/2000/svg">
<path d="M8.8125 12.0312C8.8125 12.88 9.46876 13.5625 10.2738 13.5625H11.9187C12.6187 13.5625 13.1875 12.9675 13.1875 12.2237C13.1875 11.4275 12.8375 11.1387 12.3213 10.955L9.6875 10.0362C9.17125 9.85246 8.82126 9.57246 8.82126 8.76746C8.82126 8.03246 9.38999 7.42871 10.09 7.42871H11.735C12.54 7.42871 13.1963 8.11121 13.1963 8.95996" stroke="#FDFFF7" stroke-width="1.5" stroke-linecap="round" stroke-linejoin="round"/>
<path d="M11 6.5625V14.4375" stroke="#FDFFF7" stroke-width="1.5" stroke-linecap="round" stroke-linejoin="round"/>
<path d="M19.75 10.5C19.75 15.33 15.83 19.25 11 19.25C6.17 19.25 2.25 15.33 2.25 10.5C2.25 5.67 6.17 1.75 11 1.75" stroke="#FDFFF7" stroke-width="1.5" stroke-linecap="round" stroke-linejoin="round"/>
<path d="M19.75 5.25V1.75H16.25" stroke="#FDFFF7" stroke-width="1.5" stroke-linecap="round" stroke-linejoin="round"/>
<path d="M15.375 6.125L19.75 1.75" stroke="#FDFFF7" stroke-width="1.5" stroke-linecap="round" stroke-linejoin="round"/>
</svg>
