<svg width="24" height="25" viewBox="0 0 24 25" fill="none" xmlns="http://www.w3.org/2000/svg">
<path d="M9.5 13.8853C9.5 14.8553 10.25 15.6353 11.17 15.6353H13.05C13.85 15.6353 14.5 14.9553 14.5 14.1053C14.5 13.1953 14.1 12.8653 13.51 12.6553L10.5 11.6053C9.91 11.3953 9.51001 11.0753 9.51001 10.1553C9.51001 9.3153 10.16 8.62531 10.96 8.62531H12.84C13.76 8.62531 14.51 9.40531 14.51 10.3753" stroke="#FDFFF7" stroke-width="1.5" stroke-linecap="round" stroke-linejoin="round"/>
<path d="M12 7.63531V16.6353" stroke="#FDFFF7" stroke-width="1.5" stroke-linecap="round" stroke-linejoin="round"/>
<path d="M22 12.1353C22 17.6553 17.52 22.1353 12 22.1353C6.48 22.1353 2 17.6553 2 12.1353C2 6.61531 6.48 2.13531 12 2.13531" stroke="#FDFFF7" stroke-width="1.5" stroke-linecap="round" stroke-linejoin="round"/>
<path d="M22 6.13531V2.13531H18" stroke="#FDFFF7" stroke-width="1.5" stroke-linecap="round" stroke-linejoin="round"/>
<path d="M17 7.13531L22 2.13531" stroke="#FDFFF7" stroke-width="1.5" stroke-linecap="round" stroke-linejoin="round"/>
</svg>
