<svg width="23" height="25" viewBox="0 0 23 25" fill="none" xmlns="http://www.w3.org/2000/svg">
<path d="M11.0206 3.67456C7.71058 3.67456 5.02058 6.36456 5.02058 9.67456V12.5646C5.02058 13.1746 4.76058 14.1046 4.45058 14.6246L3.30058 16.5346C2.59058 17.7146 3.08058 19.0246 4.38058 19.4646C8.69058 20.9046 13.3406 20.9046 17.6506 19.4646C18.8606 19.0646 19.3906 17.6346 18.7306 16.5346L17.5806 14.6246C17.2806 14.1046 17.0206 13.1746 17.0206 12.5646V9.67456C17.0206 6.37456 14.3206 3.67456 11.0206 3.67456Z" stroke="#292D32" stroke-width="1.5" stroke-miterlimit="10" stroke-linecap="round"/>
<path d="M12.8699 3.96459C12.5599 3.87459 12.2399 3.80459 11.9099 3.76459C10.9499 3.64459 10.0299 3.71459 9.16992 3.96459C9.45992 3.22459 10.1799 2.70459 11.0199 2.70459C11.8599 2.70459 12.5799 3.22459 12.8699 3.96459Z" stroke="#292D32" stroke-width="1.5" stroke-miterlimit="10" stroke-linecap="round" stroke-linejoin="round"/>
<path d="M14.0195 19.8247C14.0195 21.4747 12.6695 22.8247 11.0195 22.8247C10.1995 22.8247 9.43953 22.4847 8.89953 21.9447C8.35953 21.4047 8.01953 20.6447 8.01953 19.8247" stroke="#292D32" stroke-width="1.5" stroke-miterlimit="10"/>
</svg>
