<svg width="32" height="32" viewBox="0 0 32 32" fill="none" xmlns="http://www.w3.org/2000/svg">
  <path d="M2.6665 16.8135H25.3332" stroke="#292D32" stroke-width="1.5" stroke-miterlimit="10" stroke-linecap="round" stroke-linejoin="round"/>
  <path d="M25.3332 13.7067V23.2401C25.2932 27.0401 24.2531 28.0001 20.2931 28.0001H7.70654C3.67988 28.0001 2.6665 27.0001 2.6665 23.0267V13.7067C2.6665 10.1067 3.5065 8.94673 6.6665 8.76007C6.9865 8.74673 7.33321 8.7334 7.70654 8.7334H20.2931C24.3198 8.7334 25.3332 9.7334 25.3332 13.7067Z" stroke="#292D32" stroke-width="1.5" stroke-linecap="round" stroke-linejoin="round"/>
  <path d="M29.3332 8.97333V18.2933C29.3332 21.8933 28.4932 23.0533 25.3332 23.24V13.7067C25.3332 9.73333 24.3198 8.73333 20.2931 8.73333H7.70654C7.33321 8.73333 6.9865 8.74667 6.6665 8.76C6.7065 4.96 7.74654 4 11.7065 4H24.2931C28.3198 4 29.3332 5 29.3332 8.97333Z" stroke="#292D32" stroke-width="1.5" stroke-linecap="round" stroke-linejoin="round"/>
  <path d="M7 23.7471H9.29329" stroke="#292D32" stroke-width="1.5" stroke-miterlimit="10" stroke-linecap="round" stroke-linejoin="round"/>
  <path d="M12.1465 23.7471H16.7332" stroke="#292D32" stroke-width="1.5" stroke-miterlimit="10" stroke-linecap="round" stroke-linejoin="round"/>
</svg>
