<svg width="32" height="32" viewBox="0 0 32 32" fill="none" xmlns="http://www.w3.org/2000/svg">
  <path d="M15.9997 16.0003C19.6816 16.0003 22.6663 13.0156 22.6663 9.33366C22.6663 5.65176 19.6816 2.66699 15.9997 2.66699C12.3178 2.66699 9.33301 5.65176 9.33301 9.33366C9.33301 13.0156 12.3178 16.0003 15.9997 16.0003Z" stroke="#292D32" stroke-width="1.5" stroke-linecap="round" stroke-linejoin="round"/>
  <path d="M25.6131 20.9867L20.893 25.7067C20.7064 25.8934 20.5331 26.24 20.4931 26.4934L20.2397 28.2933C20.1464 28.9467 20.5997 29.4 21.2531 29.3067L23.053 29.0533C23.3064 29.0133 23.6664 28.84 23.8397 28.6534L28.5597 23.9334C29.373 23.1201 29.7597 22.1733 28.5597 20.9733C27.373 19.7867 26.4264 20.1734 25.6131 20.9867Z" stroke="#292D32" stroke-width="1.5" stroke-miterlimit="10" stroke-linecap="round" stroke-linejoin="round"/>
  <path d="M24.9331 21.667C25.3331 23.107 26.4531 24.227 27.8931 24.627" stroke="#292D32" stroke-width="1.5" stroke-miterlimit="10" stroke-linecap="round" stroke-linejoin="round"/>
  <path d="M4.54688 29.3333C4.54688 24.1733 9.68024 20 16.0002 20C17.3869 20 18.7202 20.2 19.9602 20.5733" stroke="#292D32" stroke-width="1.5" stroke-linecap="round" stroke-linejoin="round"/>
</svg>
