<svg width="35" height="34" viewBox="0 0 35 34" fill="none" xmlns="http://www.w3.org/2000/svg">
<g clip-path="url(#clip0_1359_18919)">
<path d="M27.1706 15.5592C27.5146 15.5592 27.7934 15.2804 27.7934 14.9365C27.7934 14.5925 27.5146 14.3137 27.1706 14.3137C26.8267 14.3137 26.5479 14.5925 26.5479 14.9365C26.5479 15.2804 26.8267 15.5592 27.1706 15.5592Z" fill="#FDFFF7"/>
<path d="M33.4942 16.3173H31.184C30.3461 13.8385 28.4642 11.8388 26.0764 10.7868L26.0683 10.7842C26.0363 9.48314 26.403 8.09113 26.8473 6.53052C24.9627 7.14351 23.6377 8.45789 22.757 9.96771H21.8949C21.6754 10.7735 21.2793 11.5284 20.7305 12.1735L20.5726 12.3609C20.594 12.3609 20.6074 12.3609 20.6074 12.3609C20.7546 12.3609 20.8751 12.4814 20.8751 12.6285C20.8751 12.7784 20.7546 12.8962 20.6074 12.8962H12.1055C11.9556 12.8962 11.8378 12.7784 11.8378 12.6285C11.8378 12.4814 11.9556 12.3609 12.1055 12.3609C12.1055 12.3609 12.1188 12.3609 12.1429 12.3609L11.9824 12.1708C11.5701 11.6836 11.2409 11.1348 11.0133 10.5459C9.75246 11.0144 8.62016 11.7505 7.68589 12.6847C6.01013 14.3632 4.96875 16.684 4.96875 19.2485C4.96875 23.2157 7.45832 26.6021 10.9624 27.9271V30.0874C10.9624 30.4542 11.2595 30.7513 11.6263 30.7513H15.0314C15.3981 30.7513 15.6952 30.4542 15.6952 30.0874V28.5268H20.7172V30.0874C20.7172 30.4542 21.0143 30.7513 21.3811 30.7513H24.655C25.0217 30.7513 25.3188 30.4542 25.3188 30.0874V28.053C26.7055 27.5978 27.9449 26.8189 28.9541 25.8096C29.9445 24.8192 30.7129 23.6066 31.176 22.2493H32.2949C32.7311 22.2493 33.1194 21.9603 33.2559 21.5427L34.4552 17.6103C34.6533 16.9679 34.1714 16.3173 33.4942 16.3173ZM27.1709 16.0944C26.5323 16.0944 26.0129 15.5749 26.0129 14.9364C26.0129 14.2977 26.5324 13.7783 27.1709 13.7783C27.8096 13.7783 28.329 14.2978 28.329 14.9364C28.329 15.5749 27.8096 16.0944 27.1709 16.0944Z" fill="#FDFFF7"/>
<path d="M20.3208 12.361L20.5697 12.3636L20.5724 12.361C20.5269 12.361 20.4412 12.3583 20.3208 12.361ZM15.3566 7.57222C15.5073 7.86852 15.7757 8.07584 16.0883 8.15321V5.98511C15.3783 6.1577 15.0407 6.94229 15.3566 7.57222Z" fill="#FDFFF7"/>
<path d="M16.0988 11.824C16.0953 11.8065 16.0883 11.7903 16.0883 11.7718V11.4704C15.5849 11.3869 15.1257 11.0751 14.8785 10.5853C14.8119 10.4533 14.8649 10.2926 14.997 10.2259C15.1287 10.1587 15.2897 10.2123 15.3564 10.3444C15.5092 10.647 15.7826 10.8459 16.0883 10.922V8.69927C15.5704 8.61394 15.1216 8.29154 14.8788 7.81361C14.3796 6.81958 14.9864 5.6161 16.0883 5.43726V5.13883C16.0883 4.99088 16.2081 4.87115 16.356 4.87115C16.504 4.87115 16.6237 4.99088 16.6237 5.13883V5.43992C17.1276 5.52353 17.5866 5.83583 17.833 6.32478C17.8996 6.4568 17.8466 6.61783 17.7145 6.68424C17.5823 6.75091 17.4215 6.69759 17.3551 6.56577C17.2028 6.26369 16.9294 6.06533 16.6237 5.98923V8.21231C17.1419 8.29731 17.5906 8.61905 17.8327 9.09684C18.3269 10.0773 17.7428 11.2884 16.6237 11.4711V11.7719C16.6237 11.7902 16.6167 11.8064 16.6133 11.8237C17.3417 11.8233 17.8681 11.823 17.8847 11.823C19.2848 11.823 19.9755 11.823 20.3234 11.8256C21.097 10.9182 21.5629 9.74026 21.5629 8.45271C21.5629 5.58037 19.2313 3.24878 16.3589 3.24878C13.4786 3.24878 11.1523 5.58037 11.1523 8.45271C11.1523 9.74032 11.6181 10.9182 12.3891 11.8256C13.0554 11.8256 14.7622 11.8247 16.0988 11.824Z" fill="#FDFFF7"/>
<path d="M17.4182 10.1917C17.5117 9.90804 17.4895 9.60482 17.3552 9.33807C17.2049 9.0417 16.9365 8.83484 16.6238 8.75781V10.9251C17.0152 10.8286 17.301 10.5465 17.4182 10.1917ZM6.07951 14.2962C5.89211 14.4408 5.69396 14.5719 5.48783 14.6791C5.02471 14.9146 4.55363 14.9896 4.15473 14.8906C4.77144 14.4177 5.22626 13.6164 4.80531 13.0087C4.47872 12.5376 3.79341 12.5269 3.36243 12.8132C2.70627 13.2538 2.54756 14.1559 3.1081 14.837C2.94753 14.8853 2.78151 14.9147 2.61291 14.9254C2.0106 14.9628 1.39223 14.738 0.950492 14.3231C0.843446 14.2213 0.674774 14.2267 0.573039 14.3337C0.471305 14.4435 0.47675 14.6121 0.583731 14.7139C1.12986 15.2278 1.90608 15.5089 2.64491 15.4607C2.96612 15.4393 3.28202 15.3616 3.57918 15.2305C4.18746 15.5781 4.91866 15.516 5.55749 15.2332C5.71282 14.9092 5.88687 14.5961 6.07951 14.2962ZM3.62474 14.6042C3.15452 14.1662 3.22371 13.5492 3.6596 13.2603C3.864 13.1222 4.22645 13.1105 4.36357 13.3138C4.63199 13.6951 4.10545 14.3181 3.62474 14.6042Z" fill="#FDFFF7"/>
</g>
<defs>
<clipPath id="clip0_1359_18919">
<rect width="34" height="34" fill="white" transform="translate(0.5)"/>
</clipPath>
</defs>
</svg>
