<svg width="24" height="25" viewBox="0 0 24 25" fill="none" xmlns="http://www.w3.org/2000/svg">
<path d="M12 15.6353C13.6569 15.6353 15 14.2921 15 12.6353C15 10.9784 13.6569 9.63525 12 9.63525C10.3431 9.63525 9 10.9784 9 12.6353C9 14.2921 10.3431 15.6353 12 15.6353Z" stroke="#FDFFF7" stroke-width="1.5" stroke-miterlimit="10" stroke-linecap="round" stroke-linejoin="round"/>
<path d="M2 13.5152V11.7552C2 10.7152 2.85 9.85519 3.9 9.85519C5.71 9.85519 6.45 8.57519 5.54 7.00519C5.02 6.10519 5.33 4.93519 6.24 4.41519L7.97 3.42519C8.76 2.95519 9.78 3.23519 10.25 4.02519L10.36 4.21519C11.26 5.78519 12.74 5.78519 13.65 4.21519L13.76 4.02519C14.23 3.23519 15.25 2.95519 16.04 3.42519L17.77 4.41519C18.68 4.93519 18.99 6.10519 18.47 7.00519C17.56 8.57519 18.3 9.85519 20.11 9.85519C21.15 9.85519 22.01 10.7052 22.01 11.7552V13.5152C22.01 14.5552 21.16 15.4152 20.11 15.4152C18.3 15.4152 17.56 16.6952 18.47 18.2652C18.99 19.1752 18.68 20.3352 17.77 20.8552L16.04 21.8452C15.25 22.3152 14.23 22.0352 13.76 21.2452L13.65 21.0552C12.75 19.4852 11.27 19.4852 10.36 21.0552L10.25 21.2452C9.78 22.0352 8.76 22.3152 7.97 21.8452L6.24 20.8552C5.33 20.3352 5.02 19.1652 5.54 18.2652C6.45 16.6952 5.71 15.4152 3.9 15.4152C2.85 15.4152 2 14.5552 2 13.5152Z" stroke="#FDFFF7" stroke-width="1.5" stroke-miterlimit="10" stroke-linecap="round" stroke-linejoin="round"/>
</svg>
