<svg width="35" height="34" viewBox="0 0 35 34" fill="none" xmlns="http://www.w3.org/2000/svg">
<g clip-path="url(#clip0_1359_18900)">
<path d="M0.956853 14.1648C0.863004 14.1651 0.770156 14.1841 0.683687 14.2206C0.597217 14.2571 0.518845 14.3103 0.453109 14.3773C0.387373 14.4443 0.33558 14.5236 0.300729 14.6108C0.265879 14.6979 0.248664 14.7911 0.250081 14.885V30.4607C0.250081 30.8516 0.563309 31.1702 0.956853 31.1728H27.8731C27.9667 31.1732 28.0595 31.155 28.146 31.1193C28.2326 31.0837 28.3112 31.0312 28.3774 30.965C28.4436 30.8988 28.4961 30.8202 28.5317 30.7336C28.5674 30.6471 28.5856 30.5543 28.5852 30.4607V29.7539H3.78394C3.22239 29.7455 2.68649 29.5175 2.29112 29.1186C1.89576 28.7197 1.67242 28.1818 1.66898 27.6202V14.1648H0.956853Z" fill="#FDFFF7"/>
<path d="M27.8732 3.54591C27.2215 3.54424 26.5759 3.67126 25.9734 3.9197C25.371 4.16814 24.8235 4.53311 24.3624 4.99365C23.9013 5.4542 23.5357 6.00126 23.2866 6.60345C23.0375 7.20563 22.9097 7.85109 22.9106 8.50277C22.9097 9.15445 23.0375 9.79991 23.2866 10.4021C23.5357 11.0043 23.9013 11.5513 24.3624 12.0119C24.8235 12.4724 25.371 12.8374 25.9734 13.0858C26.5759 13.3343 27.2215 13.4613 27.8732 13.4596C28.5245 13.4611 29.1698 13.3339 29.7718 13.0853C30.3739 12.8368 30.9209 12.4717 31.3815 12.0111C31.8421 11.5505 32.2072 11.0035 32.4558 10.4014C32.7043 9.79937 32.8315 9.15413 32.83 8.50277C32.8315 7.85141 32.7043 7.20616 32.4558 6.6041C32.2072 6.00203 31.8421 5.455 31.3815 4.99441C30.9209 4.53383 30.3739 4.16877 29.7718 3.92019C29.1698 3.67161 28.5245 3.54442 27.8732 3.54591ZM27.8583 4.95123C27.953 4.94961 28.0472 4.96702 28.135 5.00243C28.2229 5.03783 28.3028 5.09052 28.37 5.15736C28.4372 5.2242 28.4903 5.30384 28.5261 5.39156C28.5619 5.47928 28.5798 5.5733 28.5787 5.66805V8.20952L29.7878 9.41722C30.5011 10.083 29.4584 11.1314 28.789 10.4216L27.371 9.00355C27.3048 8.93801 27.2523 8.86001 27.2164 8.77406C27.1806 8.6881 27.1621 8.5959 27.162 8.50277V5.66805C27.1599 5.48085 27.232 5.30042 27.3624 5.16613C27.4928 5.03184 27.6711 4.95459 27.8583 4.95123Z" fill="#FDFFF7"/>
<path d="M3.79002 11.3303C3.69652 11.3307 3.60401 11.3496 3.51785 11.3859C3.43168 11.4222 3.35355 11.4751 3.28796 11.5418C3.22238 11.6084 3.17063 11.6874 3.13572 11.7741C3.1008 11.8609 3.0834 11.9537 3.08452 12.0471V27.6232C3.08415 27.7162 3.1021 27.8084 3.13736 27.8945C3.17261 27.9806 3.22447 28.0589 3.28998 28.1249C3.35549 28.1909 3.43337 28.2434 3.51917 28.2794C3.60496 28.3153 3.697 28.334 3.79002 28.3344H30.7078C30.8013 28.3347 30.8939 28.3166 30.9804 28.281C31.0668 28.2454 31.1453 28.193 31.2115 28.1269C31.2776 28.0608 31.3299 27.9822 31.3655 27.8958C31.4012 27.8093 31.4193 27.7167 31.4189 27.6232V13.7946C30.3712 14.5005 29.1364 14.8771 27.873 14.8762C25.3776 14.8762 23.2151 13.4277 22.1675 11.3317L3.79002 11.3303ZM17.2496 14.8762C19.9795 14.8762 22.2064 17.1032 22.2064 19.833C22.2064 22.5629 19.9795 24.7899 17.2496 24.7899C14.5197 24.7899 12.2927 22.5629 12.2927 19.833C12.2927 17.1032 14.5197 14.8762 17.2496 14.8762Z" fill="#FDFFF7"/>
<path d="M17.2497 16.293C16.7844 16.2915 16.3233 16.382 15.8931 16.5594C15.463 16.7368 15.0721 16.9975 14.7431 17.3266C14.414 17.6556 14.1533 18.0465 13.9759 18.4766C13.7985 18.9068 13.708 19.3679 13.7095 19.8332C13.708 20.2985 13.7985 20.7594 13.9759 21.1895C14.1533 21.6196 14.4141 22.0104 14.7431 22.3393C15.0722 22.6683 15.4631 22.9288 15.8933 23.1061C16.3234 23.2833 16.7844 23.3737 17.2497 23.372C17.7152 23.3738 18.1766 23.2835 18.6071 23.1064C19.0376 22.9292 19.4289 22.6688 19.7585 22.3399C20.088 22.011 20.3492 21.6203 20.5272 21.1901C20.7052 20.7599 20.7964 20.2988 20.7956 19.8332C20.7965 19.3676 20.7054 18.9063 20.5275 18.476C20.3495 18.0457 20.0883 17.6548 19.7587 17.3258C19.4292 16.9968 19.0379 16.7362 18.6073 16.5589C18.1767 16.3817 17.7153 16.2913 17.2497 16.293ZM17.2384 16.6897C17.3337 16.6879 17.4283 16.7054 17.5167 16.7411C17.605 16.7769 17.6853 16.83 17.7526 16.8975C17.8199 16.9649 17.873 17.0453 17.9085 17.1337C17.944 17.2222 17.9614 17.3169 17.9594 17.4121V17.5113H18.0586C19.0035 17.5113 19.0035 18.928 18.0586 18.928H17.2483C17.2483 18.928 17.1491 18.928 17.1491 19.0278C17.1491 19.1256 17.2483 19.127 17.2483 19.127C17.2483 19.127 17.5996 19.1135 17.9708 19.2991C18.3412 19.4847 18.7641 19.9047 18.7641 20.6379C18.7641 21.3887 18.3412 21.796 17.9708 21.9815L17.9594 21.9858V22.2542C17.9594 23.1992 16.5428 23.1992 16.5428 22.2542V22.1551H16.4436C15.4987 22.1551 15.4987 20.7384 16.4436 20.7384H17.2483C17.2483 20.7384 17.3474 20.7448 17.3474 20.6386C17.3482 20.5415 17.2483 20.5444 17.2483 20.5444C17.2483 20.5444 16.8984 20.5514 16.5272 20.3659C16.1568 20.1803 15.7318 19.7694 15.7318 19.0278C15.7318 18.2862 16.1568 17.869 16.5272 17.6834C16.5329 17.6806 16.5378 17.6806 16.5428 17.6778V17.4121C16.5357 17.0211 16.8474 16.6967 17.2384 16.6897Z" fill="#FDFFF7"/>
</g>
<defs>
<clipPath id="clip0_1359_18900">
<rect width="34" height="34" fill="white" transform="translate(0.25)"/>
</clipPath>
</defs>
</svg>
