<svg width="18" height="17" viewBox="0 0 18 17" fill="none" xmlns="http://www.w3.org/2000/svg">
<path d="M17.6521 3.72102L15.1993 6.17375C14.7039 11.9176 9.85992 16.3817 4.06277 16.3817C2.87168 16.3817 1.88976 16.193 1.1441 15.8206C0.542809 15.5196 0.296715 15.1972 0.235192 15.1053C0.180333 15.023 0.144775 14.9294 0.131175 14.8315C0.117576 14.7336 0.126286 14.6338 0.156656 14.5397C0.187025 14.4456 0.238267 14.3596 0.306555 14.288C0.374843 14.2165 0.45841 14.1614 0.551012 14.1267C0.57234 14.1185 2.53945 13.363 3.78879 11.925C3.09594 11.3553 2.49111 10.6864 1.99394 9.93981C0.976754 8.42961 -0.16184 5.80625 0.189254 1.88598C0.200382 1.76141 0.246874 1.64261 0.323254 1.54358C0.399634 1.44455 0.502721 1.36941 0.620376 1.327C0.738031 1.28459 0.865354 1.27669 0.98735 1.30422C1.10935 1.33175 1.22094 1.39356 1.30898 1.48238C1.33769 1.51109 4.03898 4.19762 7.34156 5.06879V4.56922C7.3403 4.04536 7.44387 3.52655 7.64618 3.04333C7.84848 2.56011 8.14543 2.12226 8.51953 1.75555C8.88284 1.39274 9.31514 1.10639 9.79093 0.913368C10.2667 0.720351 10.7763 0.624584 11.2897 0.631719C11.9784 0.638512 12.6536 0.823387 13.2498 1.16837C13.8459 1.51336 14.3426 2.00671 14.6916 2.60047H17.1878C17.3176 2.60037 17.4446 2.6388 17.5526 2.7109C17.6606 2.78301 17.7448 2.88554 17.7946 3.00551C17.8443 3.12549 17.8573 3.25752 17.8319 3.38489C17.8065 3.51226 17.7439 3.62924 17.6521 3.72102Z" fill="white" fill-opacity="0.8"/>
</svg>
