<svg width="31" height="31" viewBox="0 0 31 31" fill="none" xmlns="http://www.w3.org/2000/svg">
<path d="M28.9011 9.93298L25.4215 13.4126C24.7186 21.5611 17.8467 27.8941 9.62253 27.8941C7.93278 27.8941 6.53978 27.6265 5.48194 27.0981C4.62892 26.6711 4.2798 26.2137 4.19252 26.0834C4.11469 25.9667 4.06425 25.8339 4.04496 25.6949C4.02566 25.556 4.03802 25.4144 4.0811 25.2809C4.12419 25.1474 4.19688 25.0254 4.29376 24.9239C4.39064 24.8225 4.50919 24.7442 4.64056 24.695C4.67082 24.6834 7.46147 23.6116 9.23384 21.5715C8.25093 20.7634 7.3929 19.8144 6.68758 18.7553C5.24454 16.6128 3.62927 12.8912 4.12735 7.32969C4.14314 7.15297 4.20909 6.98444 4.31745 6.84395C4.42581 6.70346 4.57205 6.59686 4.73896 6.5367C4.90587 6.47654 5.0865 6.46532 5.25957 6.50437C5.43264 6.54343 5.59095 6.63112 5.71586 6.75713C5.75659 6.79786 9.58878 10.6091 14.274 11.845V11.1363C14.2722 10.3931 14.4192 9.6571 14.7062 8.97158C14.9932 8.28606 15.4144 7.66489 15.9451 7.14466C16.4606 6.62996 17.0738 6.22372 17.7488 5.94989C18.4238 5.67607 19.1468 5.54021 19.8751 5.55033C20.8521 5.55997 21.81 5.82224 22.6557 6.31166C23.5014 6.80107 24.206 7.50097 24.7011 8.34331H28.2424C28.4266 8.34316 28.6068 8.39769 28.76 8.49998C28.9132 8.60226 29.0327 8.74772 29.1032 8.91793C29.1737 9.08813 29.1922 9.27544 29.1562 9.45613C29.1202 9.63682 29.0314 9.80277 28.9011 9.93298Z" fill="white" fill-opacity="0.8"/>
</svg>
