<svg width="42" height="42" viewBox="0 0 42 42" fill="none" xmlns="http://www.w3.org/2000/svg">
<path d="M19.3223 41.4185L41.4016 20.6649C42.0922 20.0158 42.107 18.9238 41.4342 18.2562L24.4199 1.37361C23.5552 0.515556 22.0924 0.837524 21.6683 1.97926L9.26125 35.3788C8.97677 36.1446 9.28654 37.0038 9.99437 37.4123L17.1818 41.6075C17.9017 42.0572 18.7836 41.9248 19.3223 41.4185Z" fill="url(#paint0_linear_817_11607)"/>
<path fill-rule="evenodd" clip-rule="evenodd" d="M27.5017 24.9595L19.6318 40.9502C19.2038 41.8197 18.1292 42.146 17.2897 41.6612L0.837616 32.1607C0.165095 31.7724 -0.152294 30.973 0.0707732 30.2295L7.38109 5.86074C7.75064 4.62885 9.31386 4.2556 10.2006 5.18753L27.2123 23.066C27.696 23.5743 27.8115 24.33 27.5017 24.9595ZM16.9221 24.6661C16.3241 25.8398 15.0213 26.4196 13.7915 26.1526L12.1067 31.706C11.7885 32.7547 10.5901 33.2506 9.62387 32.7333C8.70068 32.2391 8.4219 31.0467 9.03028 30.1943L12.4305 25.4303C11.5481 24.5876 11.2813 23.2354 11.8638 22.0922C12.5752 20.6958 14.2843 20.14 15.6811 20.8508C17.0779 21.5616 17.6335 23.2697 16.9221 24.6661Z" fill="#102634"/>
<defs>
<linearGradient id="paint0_linear_817_11607" x1="17.8714" y1="41.7844" x2="32.5179" y2="3.13583" gradientUnits="userSpaceOnUse">
<stop stop-color="#2C9BF0"/>
<stop offset="0.9999" stop-color="#1CCFBD"/>
</linearGradient>
</defs>
</svg>
