<svg width="54" height="55" viewBox="0 0 54 55" fill="none" xmlns="http://www.w3.org/2000/svg">
<path opacity="0.6" d="M31.0642 36.2618C31.0642 40.1892 29.3557 43.7394 26.6265 46.158C24.2744 48.2881 21.168 49.575 17.751 49.575C10.4065 49.575 4.43774 43.6063 4.43774 36.2618C4.43774 30.1377 8.60922 24.9456 14.2452 23.4146C15.7762 27.2754 19.0601 30.2487 23.1206 31.3581C24.2301 31.6688 25.4061 31.8241 26.6265 31.8241C27.8468 31.8241 29.0228 31.6688 30.1323 31.3581C30.7314 32.8669 31.0642 34.5311 31.0642 36.2618Z" fill="url(#paint0_linear_776_3129)"/>
<path d="M39.9397 18.511C39.9397 20.2417 39.6069 21.9059 39.0078 23.4147C37.4767 27.2755 34.1928 30.2488 30.1323 31.3582C29.0228 31.6689 27.8468 31.8242 26.6265 31.8242C25.4061 31.8242 24.2301 31.6689 23.1206 31.3582C19.0601 30.2488 15.7762 27.2755 14.2452 23.4147C13.6461 21.9059 13.3132 20.2417 13.3132 18.511C13.3132 11.1665 19.282 5.19775 26.6265 5.19775C33.9709 5.19775 39.9397 11.1665 39.9397 18.511Z" fill="url(#paint1_linear_776_3129)"/>
<path opacity="0.4" d="M48.8152 36.2618C48.8152 43.6063 42.8464 49.575 35.5019 49.575C32.0849 49.575 28.9785 48.2881 26.6265 46.158C29.3557 43.7394 31.0642 40.1892 31.0642 36.2618C31.0642 34.5311 30.7314 32.8669 30.1323 31.3581C34.1928 30.2487 37.4767 27.2754 39.0078 23.4146C44.6437 24.9456 48.8152 30.1377 48.8152 36.2618Z" fill="url(#paint2_linear_776_3129)"/>
<defs>
<linearGradient id="paint0_linear_776_3129" x1="4.43774" y1="25.5946" x2="36.9241" y2="34.087" gradientUnits="userSpaceOnUse">
<stop stop-color="#1CCFBD"/>
<stop offset="1" stop-color="#2C9BF0"/>
</linearGradient>
<linearGradient id="paint1_linear_776_3129" x1="13.3132" y1="7.41662" x2="45.8718" y2="15.7789" gradientUnits="userSpaceOnUse">
<stop stop-color="#1CCFBD"/>
<stop offset="1" stop-color="#2C9BF0"/>
</linearGradient>
<linearGradient id="paint2_linear_776_3129" x1="26.6265" y1="25.5946" x2="54.2381" y2="31.6096" gradientUnits="userSpaceOnUse">
<stop stop-color="#1CCFBD"/>
<stop offset="1" stop-color="#2C9BF0"/>
</linearGradient>
</defs>
</svg>
