<svg width="24" height="25" viewBox="0 0 24 25" fill="none" xmlns="http://www.w3.org/2000/svg">
  <path d="M9 22.5H15C20 22.5 22 20.5 22 15.5V9.5C22 4.5 20 2.5 15 2.5H9C4 2.5 2 4.5 2 9.5V15.5C2 20.5 4 22.5 9 22.5Z" stroke="url(#paint0_linear_1183_14847)" stroke-width="1.5" stroke-linecap="round" stroke-linejoin="round"/>
  <path d="M18.3801 15.7702V8.08023C18.3801 7.31023 17.7601 6.75024 17.0001 6.81024H16.9601C15.6201 6.92024 13.5901 7.61025 12.4501 8.32025L12.3401 8.39026C12.1601 8.50026 11.8501 8.50026 11.6601 8.39026L11.5001 8.29025C10.3701 7.58025 8.34012 6.91023 7.00012 6.80023C6.24012 6.74023 5.62012 7.31025 5.62012 8.07025V15.7702C5.62012 16.3802 6.1201 16.9602 6.7301 17.0302L6.9101 17.0602C8.2901 17.2402 10.4301 17.9502 11.6501 18.6202L11.6801 18.6302C11.8501 18.7302 12.1301 18.7302 12.2901 18.6302C13.5101 17.9502 15.6601 17.2502 17.0501 17.0602L17.2601 17.0302C17.8801 16.9602 18.3801 16.3902 18.3801 15.7702Z" stroke="url(#paint1_linear_1183_14847)" stroke-width="1.5" stroke-linecap="round" stroke-linejoin="round"/>
  <path d="M12 8.6001V18.1601" stroke="url(#paint2_linear_1183_14847)" stroke-width="1.5" stroke-linecap="round" stroke-linejoin="round"/>
  <defs>
    <linearGradient id="paint0_linear_1183_14847" x1="2" y1="4.16667" x2="26.4558" y2="10.4479" gradientUnits="userSpaceOnUse">
      <stop stop-color="#1CCFBD"/>
      <stop offset="1" stop-color="#2C9BF0"/>
    </linearGradient>
    <linearGradient id="paint1_linear_1183_14847" x1="5.62012" y1="7.78834" x2="21.0814" y2="12.043" gradientUnits="userSpaceOnUse">
      <stop stop-color="#1CCFBD"/>
      <stop offset="1" stop-color="#2C9BF0"/>
    </linearGradient>
    <linearGradient id="paint2_linear_1183_14847" x1="12" y1="9.39676" x2="13.3025" y2="9.43176" gradientUnits="userSpaceOnUse">
      <stop stop-color="#1CCFBD"/>
      <stop offset="1" stop-color="#2C9BF0"/>
    </linearGradient>
  </defs>
</svg>
