<svg width="116" height="116" viewBox="0 0 116 116" fill="none" xmlns="http://www.w3.org/2000/svg">
  <path fill-rule="evenodd" clip-rule="evenodd" d="M112.546 109.807C112.774 111.405 111.406 112.774 109.807 112.546L85.471 109.094C77.294 113.5 67.9387 116 58 116C25.9672 116 0 90.0328 0 58C0 25.9672 25.9672 0 58 0C90.0328 0 116 25.9672 116 58C116 67.9387 113.5 77.294 109.094 85.471L112.546 109.807ZM57.0165 75.094C55.9307 75.094 55.0146 75.4624 54.2694 76.1969C53.5231 76.9313 53.1505 77.8527 53.1505 78.9611C53.1505 80.0468 53.523 80.9629 54.2694 81.7092C55.0146 82.4554 55.9306 82.8281 57.0165 82.8281C58.1247 82.8281 59.0461 82.4555 59.7807 81.7092C60.5152 80.9629 60.8835 80.0468 60.8835 78.9611C60.8835 77.8529 60.5152 76.9315 59.7807 76.1969C59.0461 75.4622 58.1247 75.094 57.0165 75.094ZM65.7166 34.7832C67.8754 35.8572 69.5601 37.3155 70.7698 39.1583C71.9795 41.001 72.5849 43.0989 72.5846 45.4497V45.4839C72.5846 48.1295 71.945 50.4079 70.6682 52.319C69.3903 54.2301 67.6659 55.8412 65.4965 57.1522C64.0712 57.9894 62.9576 58.7912 62.1548 59.5598C61.352 60.3286 60.7872 61.1538 60.4594 62.0357C60.1307 62.9175 59.9673 63.9585 59.9673 65.1564V67.3611H54.0324V64.2405C54.0324 62.749 54.2747 61.3983 54.7615 60.1876C55.2472 58.9781 55.9936 57.8645 56.9993 56.847C58.0051 55.8296 59.2776 54.8569 60.8151 53.9302C62.1261 53.1166 63.1842 52.3192 63.987 51.5387C64.7898 50.7593 65.3716 49.9053 65.7336 48.9786C66.0945 48.0518 66.2759 46.9885 66.2759 45.7896V45.7554C66.2759 44.3311 65.9311 43.0713 65.2414 41.9738C64.5517 40.8774 63.5844 40.0178 62.3417 39.3965C61.098 38.7751 59.6395 38.4633 57.9666 38.4633C56.2702 38.4633 54.7947 38.7805 53.5402 39.4136C52.2846 40.0467 51.296 40.9232 50.5722 42.0421C49.8483 43.1609 49.4074 44.4784 49.2494 45.9934L49.2162 46.3318H43.4158L43.4499 45.8909C43.6303 43.5848 44.2805 41.4655 45.3994 39.532C46.5183 37.5985 48.1412 36.0547 50.2668 34.9016C52.3924 33.7487 55.038 33.1721 58.2036 33.1721C61.0521 33.1721 63.5568 33.7092 65.7166 34.7832Z" fill="url(#paint0_linear_1119_12380)" fill-opacity="0.38"/>
  <defs>
    <linearGradient id="paint0_linear_1119_12380" x1="116" y1="9.66666" x2="-25.8437" y2="46.0976" gradientUnits="userSpaceOnUse">
      <stop stop-color="#1CCFBD"/>
      <stop offset="1" stop-color="#2C9BF0"/>
    </linearGradient>
  </defs>
</svg>
