<svg width="77" height="77" viewBox="0 0 77 77" fill="none" xmlns="http://www.w3.org/2000/svg">
<g clip-path="url(#clip0_1497_16086)">
<path d="M38.9596 14.2837C33.8833 14.2837 28.9209 15.789 24.7 18.6093C20.4791 21.4296 17.1894 25.4382 15.2467 30.1281C13.3041 34.8181 12.7958 39.9788 13.7862 44.9577C14.7765 49.9365 17.221 54.5099 20.8106 58.0994C24.4001 61.689 28.9735 64.1335 33.9523 65.1239C38.9312 66.1142 44.0919 65.6059 48.7819 63.6633C53.4718 61.7206 57.4804 58.4309 60.3007 54.21C63.121 49.9891 64.6263 45.0267 64.6263 39.9504C64.6187 33.1455 61.9121 26.6215 57.1003 21.8097C52.2885 16.9979 45.7645 14.2913 38.9596 14.2837ZM38.9596 63.7837C34.2459 63.7837 29.6379 62.3859 25.7186 59.7671C21.7992 57.1482 18.7444 53.426 16.9405 49.071C15.1366 44.716 14.6646 39.9239 15.5843 35.3007C16.5039 30.6775 18.7738 26.4308 22.1069 23.0976C25.4401 19.7645 29.6868 17.4946 34.31 16.575C38.9332 15.6554 43.7253 16.1273 48.0803 17.9312C52.4352 19.7351 56.1575 22.7899 58.7763 26.7093C61.3952 30.6286 62.793 35.2366 62.793 39.9504C62.7858 46.2692 60.2725 52.3271 55.8045 56.7952C51.3364 61.2632 45.2784 63.7765 38.9596 63.7837Z" fill="url(#paint0_linear_1497_16086)"/>
<path d="M52.9826 28.2966L31.2906 49.6421L24.956 42.9848C24.7881 42.8103 24.5579 42.7094 24.3157 42.704C24.0736 42.6987 23.8392 42.7894 23.6638 42.9563C23.4883 43.1233 23.386 43.3529 23.3793 43.595C23.3725 43.837 23.4619 44.072 23.6278 44.2484L30.605 51.5817C30.6888 51.67 30.7894 51.7406 30.9008 51.7896C31.0122 51.8385 31.1323 51.8648 31.254 51.8668H31.2695C31.51 51.8667 31.7408 51.772 31.9121 51.6033L54.2678 29.6033C54.357 29.5197 54.4286 29.4191 54.4783 29.3075C54.5281 29.1958 54.555 29.0753 54.5575 28.9531C54.56 28.8309 54.538 28.7094 54.4929 28.5958C54.4477 28.4822 54.3803 28.3788 54.2946 28.2916C54.2089 28.2044 54.1066 28.1353 53.9937 28.0883C53.8809 28.0412 53.7598 28.0172 53.6376 28.0177C53.5153 28.0182 53.3944 28.0431 53.2819 28.091C53.1694 28.1389 53.0677 28.2088 52.9826 28.2966Z" fill="#2D4356"/>
<path d="M69.0806 67.3356H48.7031C55.1542 64.9423 60.5586 60.3573 63.9712 54.3825C67.3838 48.4076 68.5875 41.4233 67.3717 34.6508C66.1559 27.8784 62.598 21.7489 57.3202 17.3342C52.0424 12.9195 45.3806 10.5007 38.4999 10.5007C31.6192 10.5007 24.9574 12.9195 19.6796 17.3342C14.4019 21.7489 10.844 27.8784 9.62814 34.6508C8.41233 41.4233 9.61599 48.4076 13.0286 54.3825C16.4413 60.3573 21.8457 64.9423 28.2967 67.3356H7.91923C7.78882 67.3186 7.65628 67.3296 7.53046 67.3678C7.40463 67.4061 7.28842 67.4708 7.18958 67.5575C7.09075 67.6443 7.01156 67.7512 6.95731 67.871C6.90306 67.9908 6.875 68.1208 6.875 68.2523C6.875 68.3838 6.90306 68.5138 6.95731 68.6336C7.01156 68.7534 7.09075 68.8603 7.18958 68.947C7.28842 69.0338 7.40463 69.0985 7.53046 69.1367C7.65628 69.175 7.78882 69.186 7.91923 69.169H69.0806C69.211 69.186 69.3436 69.175 69.4694 69.1367C69.5952 69.0985 69.7114 69.0338 69.8102 68.947C69.9091 68.8603 69.9883 68.7534 70.0425 68.6336C70.0968 68.5138 70.1248 68.3838 70.1248 68.2523C70.1248 68.1208 70.0968 67.9908 70.0425 67.871C69.9883 67.7512 69.9091 67.6443 69.8102 67.5575C69.7114 67.4708 69.5952 67.4061 69.4694 67.3678C69.3436 67.3296 69.211 67.3186 69.0806 67.3356ZM11.0001 39.8356C11.0001 34.3966 12.613 29.0798 15.6347 24.5574C18.6565 20.0351 22.9514 16.5103 27.9764 14.4289C33.0013 12.3475 38.5307 11.8029 43.8651 12.864C49.1996 13.9251 54.0996 16.5442 57.9456 20.3902C61.7915 24.2361 64.4106 29.1362 65.4717 34.4706C66.5328 39.8051 65.9882 45.3344 63.9068 50.3594C61.8254 55.3844 58.3007 59.6793 53.7783 62.701C49.256 65.7228 43.9391 67.3356 38.5001 67.3356C31.2092 67.3274 24.2193 64.4274 19.0638 59.2719C13.9084 54.1165 11.0084 47.1265 11.0001 39.8356ZM40.5626 8.09604C40.8346 8.09604 41.1004 8.01539 41.3266 7.86431C41.5527 7.71322 41.7289 7.49847 41.833 7.24723C41.937 6.99598 41.9643 6.71951 41.9112 6.45279C41.8582 6.18606 41.7272 5.94106 41.5349 5.74876C41.3426 5.55647 41.0976 5.42551 40.8309 5.37246C40.5642 5.3194 40.2877 5.34663 40.0365 5.4507C39.7852 5.55477 39.5705 5.73101 39.4194 5.95713C39.2683 6.18324 39.1876 6.44909 39.1876 6.72104C39.188 7.0856 39.333 7.43512 39.5908 7.69291C39.8486 7.95069 40.1981 8.09567 40.5626 8.09604ZM40.5626 6.03354C40.6986 6.03354 40.8315 6.07386 40.9446 6.1494C41.0577 6.22494 41.1458 6.33232 41.1978 6.45794C41.2498 6.58357 41.2635 6.7218 41.2369 6.85516C41.2104 6.98852 41.1449 7.11102 41.0488 7.20717C40.9526 7.30332 40.8301 7.3688 40.6968 7.39533C40.5634 7.42185 40.4252 7.40824 40.2995 7.3562C40.1739 7.30417 40.0666 7.21605 39.991 7.10299C39.9155 6.98993 39.8751 6.85701 39.8751 6.72104C39.8753 6.53874 39.9477 6.36394 40.0766 6.23503C40.2055 6.10613 40.3803 6.03366 40.5626 6.03354ZM72.5566 31.1273C72.3753 31.1273 72.1981 31.181 72.0473 31.2818C71.8966 31.3825 71.7791 31.5257 71.7097 31.6932C71.6403 31.8607 71.6222 32.045 71.6575 32.2228C71.6929 32.4006 71.7802 32.5639 71.9084 32.6921C72.0366 32.8203 72.2 32.9076 72.3778 32.943C72.5556 32.9784 72.7399 32.9602 72.9074 32.8908C73.0749 32.8215 73.2181 32.704 73.3188 32.5532C73.4195 32.4025 73.4733 32.2253 73.4733 32.044C73.473 31.8009 73.3764 31.5679 73.2045 31.396C73.0327 31.2242 72.7996 31.1275 72.5566 31.1273ZM72.5566 32.5023C72.466 32.5023 72.3773 32.4754 72.302 32.425C72.2266 32.3747 72.1678 32.3031 72.1332 32.2193C72.0985 32.1356 72.0894 32.0434 72.1071 31.9545C72.1248 31.8656 72.1684 31.784 72.2325 31.7199C72.2966 31.6558 72.3783 31.6121 72.4672 31.5944C72.5561 31.5767 72.6482 31.5858 72.732 31.6205C72.8158 31.6552 72.8873 31.7139 72.9377 31.7893C72.9881 31.8647 73.0149 31.9533 73.0149 32.044C73.0148 32.1655 72.9665 32.282 72.8806 32.3679C72.7946 32.4538 72.6781 32.5022 72.5566 32.5023ZM59.5835 1.64087C59.4022 1.64087 59.2249 1.69463 59.0742 1.79536C58.9235 1.89608 58.806 2.03924 58.7366 2.20674C58.6672 2.37424 58.6491 2.55855 58.6844 2.73637C58.7198 2.91418 58.8071 3.07752 58.9353 3.20572C59.0635 3.33392 59.2268 3.42122 59.4046 3.45659C59.5825 3.49196 59.7668 3.47381 59.9343 3.40443C60.1018 3.33505 60.2449 3.21755 60.3457 3.06681C60.4464 2.91606 60.5001 2.73884 60.5001 2.55754C60.4999 2.3145 60.4033 2.08148 60.2314 1.90962C60.0595 1.73777 59.8265 1.64111 59.5835 1.64087ZM59.5835 3.01587C59.4928 3.01587 59.4042 2.98899 59.3288 2.93863C59.2535 2.88826 59.1947 2.81668 59.16 2.73293C59.1253 2.64918 59.1163 2.55703 59.1339 2.46812C59.1516 2.37921 59.1953 2.29754 59.2594 2.23345C59.3235 2.16935 59.4052 2.12569 59.4941 2.10801C59.583 2.09032 59.6751 2.0994 59.7589 2.13409C59.8426 2.16878 59.9142 2.22753 59.9646 2.3029C60.0149 2.37827 60.0418 2.46689 60.0418 2.55754C60.0417 2.67906 59.9934 2.79556 59.9074 2.88149C59.8215 2.96742 59.705 3.01575 59.5835 3.01587ZM73.9444 6.98824C73.7631 6.98824 73.5859 7.04201 73.4352 7.14273C73.2844 7.24345 73.1669 7.38662 73.0975 7.55412C73.0282 7.72162 73.01 7.90593 73.0454 8.08374C73.0807 8.26156 73.1681 8.42489 73.2963 8.55309C73.4245 8.68129 73.5878 8.76859 73.7656 8.80396C73.9434 8.83933 74.1277 8.82118 74.2952 8.7518C74.4627 8.68242 74.6059 8.56493 74.7066 8.41418C74.8073 8.26344 74.8611 8.08621 74.8611 7.90491C74.8609 7.66187 74.7642 7.42885 74.5923 7.257C74.4205 7.08514 74.1875 6.98849 73.9444 6.98824ZM73.9444 8.36324C73.8538 8.36324 73.7652 8.33636 73.6898 8.286C73.6144 8.23564 73.5557 8.16406 73.521 8.08031C73.4863 7.99656 73.4772 7.9044 73.4949 7.8155C73.5126 7.72659 73.5563 7.64492 73.6203 7.58082C73.6844 7.51672 73.7661 7.47307 73.855 7.45538C73.9439 7.4377 74.0361 7.44678 74.1198 7.48147C74.2036 7.51616 74.2752 7.5749 74.3255 7.65027C74.3759 7.72565 74.4028 7.81426 74.4028 7.90491C74.4026 8.02643 74.3543 8.14294 74.2684 8.22887C74.1825 8.3148 74.066 8.36312 73.9444 8.36324ZM13.8899 14.0159C13.8899 13.8346 13.8362 13.6573 13.7355 13.5066C13.6347 13.3559 13.4916 13.2384 13.3241 13.169C13.1566 13.0996 12.9723 13.0814 12.7944 13.1168C12.6166 13.1522 12.4533 13.2395 12.3251 13.3677C12.1969 13.4959 12.1096 13.6592 12.0742 13.837C12.0388 14.0149 12.057 14.1992 12.1264 14.3667C12.1958 14.5342 12.3133 14.6773 12.464 14.778C12.6147 14.8788 12.792 14.9325 12.9733 14.9325C13.2163 14.9323 13.4493 14.8356 13.6212 14.6638C13.793 14.4919 13.8897 14.2589 13.8899 14.0159ZM12.5149 14.0159C12.5149 13.9252 12.5418 13.8366 12.5922 13.7612C12.6425 13.6859 12.7141 13.6271 12.7979 13.5924C12.8816 13.5577 12.9738 13.5487 13.0627 13.5663C13.1516 13.584 13.2333 13.6277 13.2974 13.6918C13.3615 13.7559 13.4051 13.8375 13.4228 13.9265C13.4405 14.0154 13.4314 14.1075 13.3967 14.1913C13.362 14.275 13.3033 14.3466 13.2279 14.397C13.1525 14.4473 13.0639 14.4742 12.9733 14.4742C12.8518 14.4741 12.7352 14.4258 12.6493 14.3398C12.5634 14.2539 12.5151 14.1374 12.5149 14.0159Z" fill="#2D4356"/>
<path d="M4.9908 31.1324L5.67234 30.2359L5.24197 29.9921L4.80426 30.9958H4.79005L4.34547 29.9994L3.90776 30.2501L4.58197 31.1256V31.1398L3.52734 31.0032V31.4908L4.58884 31.3547V31.3689L3.90776 32.2439L4.31614 32.5024L4.78272 31.4908H4.79693L5.2273 32.4951L5.67922 32.237L4.9908 31.3763V31.3616L6.07339 31.4908V31.0032L4.9908 31.1466V31.1324ZM5.57472 2.85922L5.18239 3.36293L5.41751 3.51188L5.68609 2.92934H5.69434L5.9423 3.50776L6.20264 3.3588L5.80618 2.86334V2.85509L6.42951 2.92934V2.64838L5.80618 2.73134V2.72309L6.19851 2.20655L5.95055 2.0663L5.69893 2.64426H5.69022L5.43447 2.07043L5.18239 2.2148L5.57059 2.71897V2.72722L4.9633 2.64838V2.92934L5.57472 2.85097V2.85922ZM29.9319 2.88488V2.40638L28.87 2.54709V2.53288L29.5382 1.6538L29.1161 1.41455L28.6871 2.39951H28.6729L28.237 1.42143L27.8076 1.66801L28.4689 2.52601V2.54022L27.4345 2.40638V2.88488L28.4758 2.75105V2.76526L27.8076 3.62326L28.2086 3.87672L28.666 2.88488H28.6798L29.1019 3.86938L29.5451 3.61638L28.87 2.77213V2.75793L29.9319 2.88488ZM63.6437 16.4263L64.2203 15.6678L63.8559 15.4616L63.4861 16.3108H63.4737L63.0978 15.4675L62.7271 15.6797L63.2977 16.4204V16.4323L62.4058 16.3168V16.7293L63.3036 16.6143V16.6266L62.7271 17.3664L63.0731 17.585L63.4677 16.7293H63.4796L63.8436 17.5791L64.2263 17.3604L63.6437 16.6326V16.6202L64.5595 16.7293V16.3168L63.6437 16.4383V16.4263Z" fill="url(#paint1_linear_1497_16086)"/>
<path d="M0.916667 69.1689C1.42293 69.1689 1.83333 68.7585 1.83333 68.2522C1.83333 67.746 1.42293 67.3356 0.916667 67.3356C0.410406 67.3356 0 67.746 0 68.2522C0 68.7585 0.410406 69.1689 0.916667 69.1689Z" fill="#2D4356"/>
<path d="M5.04167 67.3356H3.66667C3.42355 67.3356 3.19039 67.4321 3.01849 67.6041C2.84658 67.776 2.75 68.0091 2.75 68.2522C2.75 68.4954 2.84658 68.7285 3.01849 68.9004C3.19039 69.0723 3.42355 69.1689 3.66667 69.1689H5.04167C5.28478 69.1689 5.51794 69.0723 5.68985 68.9004C5.86176 68.7285 5.95833 68.4954 5.95833 68.2522C5.95833 68.0091 5.86176 67.776 5.68985 67.6041C5.51794 67.4321 5.28478 67.3356 5.04167 67.3356ZM73.3333 67.3356H71.9583C71.7152 67.3356 71.4821 67.4321 71.3102 67.6041C71.1382 67.776 71.0417 68.0091 71.0417 68.2522C71.0417 68.4954 71.1382 68.7285 71.3102 68.9004C71.4821 69.0723 71.7152 69.1689 71.9583 69.1689H73.3333C73.5764 69.1689 73.8096 69.0723 73.9815 68.9004C74.1534 68.7285 74.25 68.4954 74.25 68.2522C74.25 68.0091 74.1534 67.776 73.9815 67.6041C73.8096 67.4321 73.5764 67.3356 73.3333 67.3356Z" fill="#2D4356"/>
<path d="M76.0846 69.1688C76.5909 69.1688 77.0013 68.7584 77.0013 68.2521C77.0013 67.7459 76.5909 67.3354 76.0846 67.3354C75.5784 67.3354 75.168 67.7459 75.168 68.2521C75.168 68.7584 75.5784 69.1688 76.0846 69.1688Z" fill="#2D4356"/>
<path d="M54.1542 71.0024H50.3464C50.1156 71.0203 49.9 71.1247 49.7427 71.2946C49.5854 71.4645 49.498 71.6876 49.498 71.9191C49.498 72.1507 49.5854 72.3737 49.7427 72.5436C49.9 72.7135 50.1156 72.8179 50.3464 72.8358H54.1542C54.3851 72.8179 54.6007 72.7135 54.758 72.5436C54.9152 72.3737 55.0026 72.1507 55.0026 71.9191C55.0026 71.6876 54.9152 71.4645 54.758 71.2946C54.6007 71.1247 54.3851 71.0203 54.1542 71.0024ZM26.6542 71.0024H22.8464C22.6156 71.0203 22.4 71.1247 22.2427 71.2946C22.0854 71.4645 21.998 71.6876 21.998 71.9191C21.998 72.1507 22.0854 72.3737 22.2427 72.5436C22.4 72.7135 22.6156 72.8179 22.8464 72.8358H26.6542C26.8851 72.8179 27.1007 72.7135 27.258 72.5436C27.4152 72.3737 27.5026 72.1507 27.5026 71.9191C27.5026 71.6876 27.4152 71.4645 27.258 71.2946C27.1007 71.1247 26.8851 71.0203 26.6542 71.0024ZM47.667 71.0024H29.3337C29.0905 71.0024 28.8574 71.099 28.6855 71.2709C28.5136 71.4428 28.417 71.676 28.417 71.9191C28.417 72.1622 28.5136 72.3954 28.6855 72.5673C28.8574 72.7392 29.0905 72.8358 29.3337 72.8358H36.6395V73.7524H33.0003C32.7572 73.7524 32.524 73.849 32.3521 74.0209C32.1802 74.1928 32.0837 74.426 32.0837 74.6691C32.0837 74.9122 32.1802 75.1454 32.3521 75.3173C32.524 75.4892 32.7572 75.5858 33.0003 75.5858H44.4587C44.7018 75.5858 44.9349 75.4892 45.1068 75.3173C45.2787 75.1454 45.3753 74.9122 45.3753 74.6691C45.3753 74.426 45.2787 74.1928 45.1068 74.0209C44.9349 73.849 44.7018 73.7524 44.4587 73.7524H40.3612V72.8358H47.667C47.9101 72.8358 48.1433 72.7392 48.3152 72.5673C48.4871 72.3954 48.5837 72.1622 48.5837 71.9191C48.5837 71.676 48.4871 71.4428 48.3152 71.2709C48.1433 71.099 47.9101 71.0024 47.667 71.0024Z" fill="url(#paint2_linear_1497_16086)"/>
</g>
<defs>
<linearGradient id="paint0_linear_1497_16086" x1="13.293" y1="18.5615" x2="76.0629" y2="34.6832" gradientUnits="userSpaceOnUse">
<stop stop-color="#1CCFBD"/>
<stop offset="1" stop-color="#2C9BF0"/>
</linearGradient>
<linearGradient id="paint1_linear_1497_16086" x1="3.52734" y1="4.0052" x2="66.9538" y2="35.9867" gradientUnits="userSpaceOnUse">
<stop stop-color="#1CCFBD"/>
<stop offset="1" stop-color="#2C9BF0"/>
</linearGradient>
<linearGradient id="paint2_linear_1497_16086" x1="21.998" y1="71.3844" x2="31.7297" y2="89.383" gradientUnits="userSpaceOnUse">
<stop stop-color="#1CCFBD"/>
<stop offset="1" stop-color="#2C9BF0"/>
</linearGradient>
<clipPath id="clip0_1497_16086">
<rect width="77" height="77" fill="white"/>
</clipPath>
</defs>
</svg>
