<svg width="343" height="16" viewBox="0 0 343 16" fill="none" xmlns="http://www.w3.org/2000/svg">
<path d="M0.166667 8C0.166667 10.9455 2.55448 13.3333 5.5 13.3333C8.44552 13.3333 10.8333 10.9455 10.8333 8C10.8333 5.05448 8.44552 2.66667 5.5 2.66667C2.55448 2.66667 0.166667 5.05448 0.166667 8ZM342.207 8.70711C342.598 8.31658 342.598 7.68342 342.207 7.29289L335.843 0.928932C335.453 0.538408 334.819 0.538408 334.429 0.928932C334.038 1.31946 334.038 1.95262 334.429 2.34315L340.086 8L334.429 13.6569C334.038 14.0474 334.038 14.6805 334.429 15.0711C334.819 15.4616 335.453 15.4616 335.843 15.0711L342.207 8.70711ZM5.5 9H341.5V7H5.5V9Z" fill="url(#paint0_linear_641_5636)"/>
<defs>
<linearGradient id="paint0_linear_641_5636" x1="5.50001" y1="8.08333" x2="5.55881" y2="13.1576" gradientUnits="userSpaceOnUse">
<stop stop-color="#1CCFBD"/>
<stop offset="1" stop-color="#2C9BF0"/>
</linearGradient>
</defs>
</svg>
