<svg width="77" height="77" viewBox="0 0 77 77" fill="none" xmlns="http://www.w3.org/2000/svg">
  <g clip-path="url(#clip0_630_5818)">
    <path d="M38.9587 14.2837C33.8823 14.2837 28.9199 15.789 24.699 18.6093C20.4782 21.4296 17.1884 25.4382 15.2458 30.1281C13.3031 34.8181 12.7948 39.9788 13.7852 44.9577C14.7755 49.9365 17.22 54.5099 20.8096 58.0994C24.3991 61.689 28.9725 64.1335 33.9514 65.1239C38.9302 66.1142 44.0909 65.6059 48.7809 63.6633C53.4708 61.7206 57.4794 58.4309 60.2997 54.21C63.12 49.9891 64.6253 45.0267 64.6253 39.9504C64.6177 33.1455 61.9111 26.6215 57.0993 21.8097C52.2875 16.9979 45.7635 14.2913 38.9587 14.2837ZM38.9587 63.7837C34.2449 63.7837 29.637 62.3859 25.7176 59.7671C21.7982 57.1482 18.7434 53.426 16.9395 49.071C15.1357 44.716 14.6637 39.9239 15.5833 35.3007C16.5029 30.6775 18.7728 26.4308 22.106 23.0976C25.4391 19.7645 29.6858 17.4946 34.309 16.575C38.9322 15.6554 43.7243 16.1273 48.0793 17.9312C52.4343 19.7351 56.1565 22.7899 58.7754 26.7093C61.3942 30.6286 62.792 35.2366 62.792 39.9504C62.7848 46.2692 60.2715 52.3271 55.8035 56.7952C51.3354 61.2632 45.2775 63.7765 38.9587 63.7837Z" fill="url(#paint0_linear_630_5818)"/>
    <path d="M52.9826 28.2965L31.2906 49.642L24.956 42.9847C24.7881 42.8102 24.5579 42.7092 24.3157 42.7039C24.0736 42.6986 23.8392 42.7893 23.6638 42.9562C23.4883 43.1232 23.386 43.3527 23.3793 43.5948C23.3725 43.8369 23.4619 44.0718 23.6278 44.2483L30.605 51.5816C30.6888 51.6698 30.7894 51.7405 30.9008 51.7894C31.0122 51.8384 31.1323 51.8647 31.254 51.8667H31.2695C31.51 51.8665 31.7408 51.7719 31.9121 51.6032L54.2678 29.6032C54.357 29.5196 54.4286 29.419 54.4783 29.3073C54.5281 29.1957 54.555 29.0752 54.5575 28.953C54.56 28.8307 54.538 28.7093 54.4929 28.5957C54.4477 28.4821 54.3803 28.3786 54.2946 28.2915C54.2089 28.2043 54.1066 28.1352 53.9937 28.0881C53.8809 28.0411 53.7598 28.0171 53.6376 28.0176C53.5153 28.018 53.3944 28.043 53.2819 28.0909C53.1694 28.1387 53.0677 28.2086 52.9826 28.2965Z" fill="#2D4356"/>
    <path d="M69.0806 67.3354H48.7031C55.1542 64.942 60.5586 60.357 63.9712 54.3822C67.3838 48.4074 68.5875 41.4231 67.3717 34.6506C66.1559 27.8781 62.598 21.7486 57.3202 17.3339C52.0424 12.9193 45.3806 10.5004 38.4999 10.5004C31.6192 10.5004 24.9574 12.9193 19.6796 17.3339C14.4019 21.7486 10.844 27.8781 9.62814 34.6506C8.41233 41.4231 9.61599 48.4074 13.0286 54.3822C16.4413 60.357 21.8457 64.942 28.2967 67.3354H7.91923C7.78882 67.3183 7.65628 67.3293 7.53046 67.3676C7.40463 67.4059 7.28842 67.4705 7.18958 67.5573C7.09075 67.6441 7.01156 67.7509 6.95731 67.8707C6.90306 67.9905 6.875 68.1205 6.875 68.252C6.875 68.3836 6.90306 68.5136 6.95731 68.6334C7.01156 68.7532 7.09075 68.86 7.18958 68.9468C7.28842 69.0336 7.40463 69.0982 7.53046 69.1365C7.65628 69.1748 7.78882 69.1857 7.91923 69.1687H69.0806C69.211 69.1857 69.3436 69.1748 69.4694 69.1365C69.5952 69.0982 69.7114 69.0336 69.8102 68.9468C69.9091 68.86 69.9883 68.7532 70.0425 68.6334C70.0968 68.5136 70.1248 68.3836 70.1248 68.252C70.1248 68.1205 70.0968 67.9905 70.0425 67.8707C69.9883 67.7509 69.9091 67.6441 69.8102 67.5573C69.7114 67.4705 69.5952 67.4059 69.4694 67.3676C69.3436 67.3293 69.211 67.3183 69.0806 67.3354ZM11.0001 39.8354C11.0001 34.3964 12.613 29.0795 15.6347 24.5572C18.6565 20.0348 22.9514 16.5101 27.9764 14.4287C33.0013 12.3473 38.5307 11.8027 43.8651 12.8638C49.1996 13.9249 54.0996 16.544 57.9456 20.3899C61.7915 24.2359 64.4106 29.1359 65.4717 34.4704C66.5328 39.8049 65.9882 45.3342 63.9068 50.3592C61.8254 55.3841 58.3007 59.679 53.7783 62.7008C49.256 65.7225 43.9391 67.3354 38.5001 67.3354C31.2092 67.3271 24.2193 64.4272 19.0638 59.2717C13.9084 54.1162 11.0084 47.1263 11.0001 39.8354ZM40.5626 8.09579C40.8346 8.09579 41.1004 8.01515 41.3266 7.86406C41.5527 7.71298 41.7289 7.49823 41.833 7.24698C41.937 6.99573 41.9643 6.71927 41.9112 6.45254C41.8582 6.18582 41.7272 5.94082 41.5349 5.74852C41.3426 5.55622 41.0976 5.42527 40.8309 5.37221C40.5642 5.31916 40.2877 5.34639 40.0365 5.45046C39.7852 5.55453 39.5705 5.73077 39.4194 5.95688C39.2683 6.183 39.1876 6.44884 39.1876 6.72079C39.188 7.08535 39.333 7.43488 39.5908 7.69266C39.8486 7.95045 40.1981 8.09543 40.5626 8.09579ZM40.5626 6.03329C40.6986 6.03329 40.8315 6.07361 40.9446 6.14916C41.0577 6.2247 41.1458 6.33207 41.1978 6.4577C41.2498 6.58332 41.2635 6.72155 41.2369 6.85492C41.2104 6.98828 41.1449 7.11078 41.0488 7.20693C40.9526 7.30308 40.8301 7.36855 40.6968 7.39508C40.5634 7.42161 40.4252 7.40799 40.2995 7.35596C40.1739 7.30392 40.0666 7.21581 39.991 7.10275C39.9155 6.98969 39.8751 6.85677 39.8751 6.72079C39.8753 6.53849 39.9477 6.36369 40.0766 6.23479C40.2055 6.10589 40.3803 6.03341 40.5626 6.03329ZM72.5566 31.127C72.3753 31.127 72.1981 31.1808 72.0473 31.2815C71.8966 31.3823 71.7791 31.5254 71.7097 31.6929C71.6403 31.8604 71.6222 32.0447 71.6575 32.2225C71.6929 32.4004 71.7802 32.5637 71.9084 32.6919C72.0366 32.8201 72.2 32.9074 72.3778 32.9428C72.5556 32.9781 72.7399 32.96 72.9074 32.8906C73.0749 32.8212 73.2181 32.7037 73.3188 32.553C73.4195 32.4022 73.4733 32.225 73.4733 32.0437C73.473 31.8007 73.3764 31.5677 73.2045 31.3958C73.0327 31.2239 72.7996 31.1273 72.5566 31.127ZM72.5566 32.502C72.466 32.502 72.3773 32.4752 72.302 32.4248C72.2266 32.3744 72.1678 32.3029 72.1332 32.2191C72.0985 32.1354 72.0894 32.0432 72.1071 31.9543C72.1248 31.8654 72.1684 31.7837 72.2325 31.7196C72.2966 31.6555 72.3783 31.6119 72.4672 31.5942C72.5561 31.5765 72.6482 31.5856 72.732 31.6203C72.8158 31.655 72.8873 31.7137 72.9377 31.7891C72.9881 31.8644 73.0149 31.9531 73.0149 32.0437C73.0148 32.1652 72.9665 32.2817 72.8806 32.3677C72.7946 32.4536 72.6781 32.5019 72.5566 32.502ZM59.5835 1.64062C59.4022 1.64063 59.2249 1.69439 59.0742 1.79511C58.9235 1.89584 58.806 2.039 58.7366 2.2065C58.6672 2.374 58.6491 2.55831 58.6844 2.73612C58.7198 2.91394 58.8071 3.07727 58.9353 3.20547C59.0635 3.33367 59.2268 3.42098 59.4046 3.45634C59.5825 3.49171 59.7668 3.47356 59.9343 3.40418C60.1018 3.3348 60.2449 3.21731 60.3457 3.06656C60.4464 2.91582 60.5001 2.73859 60.5001 2.55729C60.4999 2.31425 60.4033 2.08123 60.2314 1.90938C60.0595 1.73752 59.8265 1.64087 59.5835 1.64062ZM59.5835 3.01562C59.4928 3.01562 59.4042 2.98874 59.3288 2.93838C59.2535 2.88802 59.1947 2.81644 59.16 2.73269C59.1253 2.64894 59.1163 2.55678 59.1339 2.46788C59.1516 2.37897 59.1953 2.2973 59.2594 2.2332C59.3235 2.1691 59.4052 2.12545 59.4941 2.10777C59.583 2.09008 59.6751 2.09916 59.7589 2.13385C59.8426 2.16854 59.9142 2.22728 59.9646 2.30266C60.0149 2.37803 60.0418 2.46664 60.0418 2.55729C60.0417 2.67881 59.9934 2.79532 59.9074 2.88125C59.8215 2.96718 59.705 3.0155 59.5835 3.01562ZM73.9444 6.988C73.7631 6.988 73.5859 7.04176 73.4352 7.14249C73.2844 7.24321 73.1669 7.38637 73.0975 7.55387C73.0282 7.72137 73.01 7.90568 73.0454 8.0835C73.0807 8.26132 73.1681 8.42465 73.2963 8.55285C73.4245 8.68105 73.5878 8.76835 73.7656 8.80372C73.9434 8.83909 74.1277 8.82094 74.2952 8.75156C74.4627 8.68218 74.6059 8.56468 74.7066 8.41394C74.8073 8.26319 74.8611 8.08597 74.8611 7.90467C74.8609 7.66163 74.7642 7.42861 74.5923 7.25675C74.4205 7.0849 74.1875 6.98824 73.9444 6.988ZM73.9444 8.363C73.8538 8.363 73.7652 8.33612 73.6898 8.28576C73.6144 8.23539 73.5557 8.16381 73.521 8.08006C73.4863 7.99631 73.4772 7.90416 73.4949 7.81525C73.5126 7.72634 73.5563 7.64468 73.6203 7.58058C73.6844 7.51648 73.7661 7.47283 73.855 7.45514C73.9439 7.43746 74.0361 7.44653 74.1198 7.48122C74.2036 7.51591 74.2752 7.57466 74.3255 7.65003C74.3759 7.7254 74.4028 7.81402 74.4028 7.90467C74.4026 8.02619 74.3543 8.14269 74.2684 8.22862C74.1825 8.31455 74.066 8.36288 73.9444 8.363ZM13.8899 14.0156C13.8899 13.8343 13.8362 13.6571 13.7355 13.5064C13.6347 13.3556 13.4916 13.2381 13.3241 13.1687C13.1566 13.0994 12.9723 13.0812 12.7944 13.1166C12.6166 13.1519 12.4533 13.2392 12.3251 13.3674C12.1969 13.4956 12.1096 13.659 12.0742 13.8368C12.0388 14.0146 12.057 14.1989 12.1264 14.3664C12.1958 14.5339 12.3133 14.6771 12.464 14.7778C12.6147 14.8785 12.792 14.9323 12.9733 14.9323C13.2163 14.932 13.4493 14.8354 13.6212 14.6635C13.793 14.4917 13.8897 14.2587 13.8899 14.0156ZM12.5149 14.0156C12.5149 13.925 12.5418 13.8364 12.5922 13.761C12.6425 13.6856 12.7141 13.6269 12.7979 13.5922C12.8816 13.5575 12.9738 13.5484 13.0627 13.5661C13.1516 13.5838 13.2333 13.6274 13.2974 13.6915C13.3615 13.7556 13.4051 13.8373 13.4228 13.9262C13.4405 14.0151 13.4314 14.1073 13.3967 14.191C13.362 14.2748 13.3033 14.3464 13.2279 14.3967C13.1525 14.4471 13.0639 14.474 12.9733 14.474C12.8518 14.4738 12.7352 14.4255 12.6493 14.3396C12.5634 14.2537 12.5151 14.1371 12.5149 14.0156Z" fill="#2D4356"/>
    <path d="M4.9908 31.1324L5.67234 30.2359L5.24197 29.9921L4.80426 30.9958H4.79005L4.34547 29.9994L3.90776 30.2501L4.58197 31.1256V31.1398L3.52734 31.0032V31.4908L4.58884 31.3547V31.3689L3.90776 32.2439L4.31614 32.5024L4.78272 31.4908H4.79693L5.2273 32.4951L5.67922 32.237L4.9908 31.3763V31.3616L6.07339 31.4908V31.0032L4.9908 31.1466V31.1324ZM5.57472 2.85922L5.18239 3.36293L5.41751 3.51188L5.68609 2.92934H5.69434L5.9423 3.50776L6.20264 3.3588L5.80618 2.86334V2.85509L6.42951 2.92934V2.64838L5.80618 2.73134V2.72309L6.19851 2.20655L5.95055 2.0663L5.69893 2.64426H5.69022L5.43447 2.07043L5.18239 2.2148L5.57059 2.71897V2.72722L4.9633 2.64838V2.92934L5.57472 2.85097V2.85922ZM29.9319 2.88488V2.40638L28.87 2.54709V2.53288L29.5382 1.6538L29.1161 1.41455L28.6871 2.39951H28.6729L28.237 1.42143L27.8076 1.66801L28.4689 2.52601V2.54022L27.4345 2.40638V2.88488L28.4758 2.75105V2.76526L27.8076 3.62326L28.2086 3.87672L28.666 2.88488H28.6798L29.1019 3.86938L29.5451 3.61638L28.87 2.77213V2.75793L29.9319 2.88488ZM63.6437 16.4263L64.2203 15.6678L63.8559 15.4616L63.4861 16.3108H63.4737L63.0978 15.4675L62.7271 15.6797L63.2977 16.4204V16.4323L62.4058 16.3168V16.7293L63.3036 16.6143V16.6266L62.7271 17.3664L63.0731 17.585L63.4677 16.7293H63.4796L63.8436 17.5791L64.2263 17.3604L63.6437 16.6326V16.6202L64.5595 16.7293V16.3168L63.6437 16.4383V16.4263Z" fill="url(#paint1_linear_630_5818)"/>
    <path d="M0.916667 69.1688C1.42293 69.1688 1.83333 68.7584 1.83333 68.2521C1.83333 67.7459 1.42293 67.3354 0.916667 67.3354C0.410406 67.3354 0 67.7459 0 68.2521C0 68.7584 0.410406 69.1688 0.916667 69.1688Z" fill="#2D4356"/>
    <path d="M5.04167 67.3354H3.66667C3.42355 67.3354 3.19039 67.432 3.01849 67.6039C2.84658 67.7758 2.75 68.009 2.75 68.2521C2.75 68.4952 2.84658 68.7284 3.01849 68.9003C3.19039 69.0722 3.42355 69.1688 3.66667 69.1688H5.04167C5.28478 69.1688 5.51794 69.0722 5.68985 68.9003C5.86176 68.7284 5.95833 68.4952 5.95833 68.2521C5.95833 68.009 5.86176 67.7758 5.68985 67.6039C5.51794 67.432 5.28478 67.3354 5.04167 67.3354ZM73.3333 67.3354H71.9583C71.7152 67.3354 71.4821 67.432 71.3102 67.6039C71.1382 67.7758 71.0417 68.009 71.0417 68.2521C71.0417 68.4952 71.1382 68.7284 71.3102 68.9003C71.4821 69.0722 71.7152 69.1688 71.9583 69.1688H73.3333C73.5764 69.1688 73.8096 69.0722 73.9815 68.9003C74.1534 68.7284 74.25 68.4952 74.25 68.2521C74.25 68.009 74.1534 67.7758 73.9815 67.6039C73.8096 67.432 73.5764 67.3354 73.3333 67.3354Z" fill="#2D4356"/>
    <path d="M76.0837 69.1688C76.5899 69.1688 77.0003 68.7584 77.0003 68.2521C77.0003 67.7459 76.5899 67.3354 76.0837 67.3354C75.5774 67.3354 75.167 67.7459 75.167 68.2521C75.167 68.7584 75.5774 69.1688 76.0837 69.1688Z" fill="#2D4356"/>
    <path d="M54.1542 71.0024H50.3464C50.1156 71.0203 49.9 71.1247 49.7427 71.2946C49.5854 71.4645 49.498 71.6876 49.498 71.9191C49.498 72.1507 49.5854 72.3737 49.7427 72.5436C49.9 72.7135 50.1156 72.8179 50.3464 72.8358H54.1542C54.3851 72.8179 54.6007 72.7135 54.758 72.5436C54.9152 72.3737 55.0026 72.1507 55.0026 71.9191C55.0026 71.6876 54.9152 71.4645 54.758 71.2946C54.6007 71.1247 54.3851 71.0203 54.1542 71.0024ZM26.6542 71.0024H22.8464C22.6156 71.0203 22.4 71.1247 22.2427 71.2946C22.0854 71.4645 21.998 71.6876 21.998 71.9191C21.998 72.1507 22.0854 72.3737 22.2427 72.5436C22.4 72.7135 22.6156 72.8179 22.8464 72.8358H26.6542C26.8851 72.8179 27.1007 72.7135 27.258 72.5436C27.4152 72.3737 27.5026 72.1507 27.5026 71.9191C27.5026 71.6876 27.4152 71.4645 27.258 71.2946C27.1007 71.1247 26.8851 71.0203 26.6542 71.0024ZM47.667 71.0024H29.3337C29.0905 71.0024 28.8574 71.099 28.6855 71.2709C28.5136 71.4428 28.417 71.676 28.417 71.9191C28.417 72.1622 28.5136 72.3954 28.6855 72.5673C28.8574 72.7392 29.0905 72.8358 29.3337 72.8358H36.6395V73.7524H33.0003C32.7572 73.7524 32.524 73.849 32.3521 74.0209C32.1802 74.1928 32.0837 74.426 32.0837 74.6691C32.0837 74.9122 32.1802 75.1454 32.3521 75.3173C32.524 75.4892 32.7572 75.5858 33.0003 75.5858H44.4587C44.7018 75.5858 44.9349 75.4892 45.1068 75.3173C45.2787 75.1454 45.3753 74.9122 45.3753 74.6691C45.3753 74.426 45.2787 74.1928 45.1068 74.0209C44.9349 73.849 44.7018 73.7524 44.4587 73.7524H40.3612V72.8358H47.667C47.9101 72.8358 48.1433 72.7392 48.3152 72.5673C48.4871 72.3954 48.5837 72.1622 48.5837 71.9191C48.5837 71.676 48.4871 71.4428 48.3152 71.2709C48.1433 71.099 47.9101 71.0024 47.667 71.0024Z" fill="url(#paint2_linear_630_5818)"/>
  </g>
  <defs>
    <linearGradient id="paint0_linear_630_5818" x1="13.292" y1="18.5615" x2="76.0619" y2="34.6832" gradientUnits="userSpaceOnUse">
      <stop stop-color="#1CCFBD"/>
      <stop offset="1" stop-color="#2C9BF0"/>
    </linearGradient>
    <linearGradient id="paint1_linear_630_5818" x1="3.52734" y1="4.0052" x2="66.9538" y2="35.9867" gradientUnits="userSpaceOnUse">
      <stop stop-color="#1CCFBD"/>
      <stop offset="1" stop-color="#2C9BF0"/>
    </linearGradient>
    <linearGradient id="paint2_linear_630_5818" x1="21.998" y1="71.3844" x2="31.7297" y2="89.383" gradientUnits="userSpaceOnUse">
      <stop stop-color="#1CCFBD"/>
      <stop offset="1" stop-color="#2C9BF0"/>
    </linearGradient>
    <clipPath id="clip0_630_5818">
      <rect width="77" height="77" fill="white"/>
    </clipPath>
  </defs>
</svg>
