<svg width="139" height="81" viewBox="0 0 139 81" fill="none" xmlns="http://www.w3.org/2000/svg">
<path d="M129.368 42.9266C111.924 26.3891 72.2761 8.52805 40.8466 3.07596C35.0244 2.0711 29.8857 1.55271 25.4769 1.49735C16.0188 1.36147 10.003 3.31922 7.97728 6.94612L3.26392 21.4453C5.28794 17.8201 11.3038 15.8607 20.7801 15.9983C25.179 16.062 30.3094 16.5703 36.1498 17.5769C67.5793 23.029 107.209 40.89 124.661 57.4358C132.001 64.4095 134.304 70.0511 132.183 73.8592L136.896 59.36C139.019 55.5519 136.717 49.9086 129.368 42.9266Z" fill="#464545" fill-opacity="0.1"/>
<path d="M129.368 42.9266C111.924 26.3891 72.2761 8.52805 40.8466 3.07596C35.0244 2.0711 29.8858 1.55271 25.4769 1.49735C16.0188 1.36147 10.003 3.31922 7.97728 6.94612L3.26392 21.4453C5.28794 17.8201 11.3037 15.8607 20.7801 15.9983C25.179 16.062 30.3094 16.5703 36.1498 17.5769C67.5793 23.029 107.209 40.89 124.661 57.4358C132.001 64.4095 134.304 70.0511 132.183 73.8592L136.896 59.36C139.019 55.5519 136.717 49.9086 129.368 42.9266Z" stroke="#263238" stroke-opacity="0.1" stroke-width="2.5" stroke-miterlimit="10" stroke-linecap="round" stroke-linejoin="round"/>
<path d="M20.7834 15.9965L26.3657 2.83765" stroke="#263238" stroke-opacity="0.1" stroke-width="2.5" stroke-miterlimit="10" stroke-linecap="round" stroke-linejoin="round"/>
<path d="M80.4633 31.0863L85.9875 17.8855" stroke="#263238" stroke-opacity="0.1" stroke-width="2.5" stroke-miterlimit="10" stroke-linecap="round" stroke-linejoin="round"/>
<path d="M50.3743 20.7256L55.5229 7.44263" stroke="#263238" stroke-opacity="0.1" stroke-width="2.5" stroke-miterlimit="10" stroke-linecap="round" stroke-linejoin="round"/>
<path d="M110.589 46.0317L115.56 33.1396" stroke="#263238" stroke-opacity="0.1" stroke-width="2.5" stroke-miterlimit="10" stroke-linecap="round" stroke-linejoin="round"/>
<path d="M126.513 59.276L131.727 45.738" stroke="#263238" stroke-opacity="0.1" stroke-width="2.5" stroke-miterlimit="10" stroke-linecap="round" stroke-linejoin="round"/>
<path d="M125.478 57.7593C108.836 41.5305 69.3846 23.7484 37.3759 18.0648C31.4395 17.0129 26.1767 16.4526 21.6338 16.3319C1.6683 15.8202 -4.14228 23.9664 9.41521 37.246C26.1138 53.5805 65.5616 71.3694 97.6978 77.0614C103.619 78.1082 108.864 78.6702 113.394 78.786C133.39 79.301 139.191 71.1262 125.478 57.7593Z" fill="#464545" fill-opacity="0.1"/>
<path d="M15.1415 16.5164C6.30228 19.2189 5.73131 26.0533 15.5221 35.6406C31.807 51.5741 70.285 68.9185 101.64 74.4746C107.421 75.4946 112.54 76.0465 116.945 76.1522C123.547 76.3233 128.56 75.5231 131.797 73.8875C129.331 77.2711 123.004 79.0292 113.392 78.7893C108.862 78.6685 103.623 78.1133 97.7029 77.0648C65.5535 71.3628 26.1172 53.5822 9.41198 37.2427C-2.53689 25.5417 0.561191 17.8215 15.1415 16.5164Z" fill="white"/>
<path d="M125.478 57.7593C108.836 41.5305 69.3846 23.7484 37.3759 18.0648C31.4395 17.0129 26.1767 16.4526 21.6338 16.3319C1.6683 15.8202 -4.14228 23.9664 9.41521 37.246C26.1138 53.5805 65.5616 71.3694 97.6978 77.0614C103.619 78.1082 108.864 78.6702 113.394 78.786C133.39 79.301 139.191 71.1262 125.478 57.7593Z" stroke="#263238" stroke-opacity="0.1" stroke-width="2.5" stroke-miterlimit="10" stroke-linecap="round" stroke-linejoin="round"/>
<path d="M106.678 71.7671C102.987 71.4081 98.6777 70.7018 93.7939 69.6265C67.3144 63.7969 34.0992 49.3329 19.5007 37.2746C7.6412 27.4742 11.8448 22.3342 28.1231 23.9195C31.822 24.2802 36.1447 24.9865 41.0418 26.0651C67.4253 31.8796 100.64 46.3368 115.191 58.318C127.175 68.1905 122.968 73.354 106.678 71.7671Z" stroke="white" stroke-width="2" stroke-miterlimit="10" stroke-linecap="round" stroke-linejoin="round"/>
<path d="M60.0871 51.4905C60.3254 51.6264 60.8898 51.8864 61.7785 52.2722C62.6672 52.6581 63.7578 53.1077 65.0487 53.6176C66.3412 54.1276 67.7314 54.651 69.2242 55.1879C70.717 55.7247 72.1502 56.1927 73.5221 56.5937L68.2792 51.3144L65.7918 50.4957C63.1173 49.5932 60.6399 48.7125 58.3544 47.8502C56.0705 46.9896 53.967 46.0904 52.0423 45.1544C50.1192 44.2183 48.3567 43.2151 46.753 42.1465C45.151 41.0762 43.7178 39.9069 42.4584 38.6387C40.9937 37.1624 40.1993 36.0133 40.0802 35.1896C39.9594 34.3659 40.3317 33.8006 41.1956 33.4969C42.0595 33.1916 43.3123 33.101 44.9524 33.2251C46.5925 33.3493 48.4758 33.6395 50.6025 34.0958L46.1291 29.5916L50.8259 30.687L55.3373 35.2298C58.6225 36.1156 62.0797 37.1993 65.7074 38.4843C69.3367 39.7693 72.8403 41.1634 76.2148 42.6665L76.8271 47.0751C76.5176 46.904 75.8176 46.5752 74.7269 46.0938C73.638 45.6106 72.3206 45.0654 70.7732 44.4548C69.2258 43.8458 67.5344 43.2117 65.6958 42.5541C63.8571 41.8965 62.0565 41.311 60.294 40.8011L65.421 45.9646L69.2275 47.2697C71.8374 48.1756 74.1841 49.048 76.2661 49.8817C78.3497 50.7155 80.2214 51.5543 81.878 52.3998C83.5347 53.2436 85.0109 54.1159 86.3035 55.0134C87.596 55.9109 88.7561 56.8788 89.7855 57.9139C91.121 59.2593 91.9039 60.3615 92.1273 61.2187C92.3507 62.076 92.1455 62.7201 91.505 63.1462C90.8662 63.574 89.8169 63.782 88.3589 63.7703C86.9009 63.7585 85.145 63.5623 83.0961 63.1848L86.9902 67.1053L82.2935 66.0098L78.3993 62.0894C75.2963 61.2456 72.1551 60.2239 68.9776 59.0261C65.7984 57.8267 62.9485 56.6943 60.4264 55.6291L60.0871 51.4905ZM79.2897 56.2397C78.6459 55.5922 77.7406 54.9882 76.5755 54.4279C75.4088 53.8676 73.8895 53.2586 72.0178 52.6044L76.7593 57.3788C79.7829 57.9642 80.6252 57.5851 79.2897 56.2397ZM53.823 40.8111C54.4916 41.4838 55.4879 42.1196 56.8136 42.7168C58.1409 43.3141 59.7511 43.9532 61.6477 44.636L57.0204 39.9757C53.6046 39.2392 52.5371 39.516 53.823 40.8111Z" fill="white"/>
</svg>
