<svg width="97" height="157" viewBox="0 0 97 157" fill="none" xmlns="http://www.w3.org/2000/svg">
<path d="M15.9579 17.3199C-0.969104 42.574 -3.579 90.3512 10.1854 123.976C12.7439 130.203 15.6716 135.518 18.8922 139.89C25.7719 149.276 33.8647 154.246 41.9823 154.471L56.819 154.681C48.7014 154.456 40.6103 149.484 33.719 140.081C30.5216 135.716 27.5807 130.413 25.0122 124.168C11.2479 90.5424 13.8677 42.7821 30.8063 17.5162C37.9557 6.88213 46.4805 1.85952 55.0019 2.09271L40.1651 1.88132C31.6437 1.65149 23.1189 6.67243 15.9579 17.3199Z" fill="#464545" fill-opacity="0.1"/>
<path d="M15.9579 17.3199C-0.969104 42.574 -3.579 90.3512 10.1854 123.976C12.7439 130.203 15.6716 135.518 18.8922 139.89C25.7719 149.276 33.8647 154.246 41.9823 154.471L56.819 154.681C48.7014 154.456 40.6103 149.484 33.719 140.081C30.5216 135.716 27.5807 130.413 25.0122 124.168C11.2479 90.5424 13.8677 42.7821 30.8063 17.5162C37.9557 6.88213 46.4805 1.85952 55.0019 2.09271L40.1651 1.88132C31.6437 1.65149 23.119 6.67243 15.9579 17.3199Z" stroke="#263238" stroke-opacity="0.1" stroke-width="2.5" stroke-miterlimit="10" stroke-linecap="round" stroke-linejoin="round"/>
<path d="M33.7207 140.083L18.8938 139.89" stroke="#263238" stroke-opacity="0.1" stroke-width="2.5" stroke-miterlimit="10" stroke-linecap="round" stroke-linejoin="round"/>
<path d="M16.1962 73.9209L1.33789 73.8069" stroke="#263238" stroke-opacity="0.1" stroke-width="2.5" stroke-miterlimit="10" stroke-linecap="round" stroke-linejoin="round"/>
<path d="M20.0241 108.621L5.30151 108.915" stroke="#263238" stroke-opacity="0.1" stroke-width="2.5" stroke-miterlimit="10" stroke-linecap="round" stroke-linejoin="round"/>
<path d="M20.6744 36.9492L6.79419 37.2277" stroke="#263238" stroke-opacity="0.1" stroke-width="2.5" stroke-miterlimit="10" stroke-linecap="round" stroke-linejoin="round"/>
<path d="M32.7591 14.7986L17.5251 15.1509" stroke="#263238" stroke-opacity="0.1" stroke-width="2.5" stroke-miterlimit="10" stroke-linecap="round" stroke-linejoin="round"/>
<path d="M30.783 16.5568C13.813 40.8732 11.1998 88.4154 24.9807 122.725C27.541 129.086 30.4851 134.545 33.6892 139.08C47.8011 158.999 66.9888 160.749 80.9219 140.913C98.0442 116.491 100.669 68.9473 86.8103 34.5068C84.2534 28.1623 81.3208 22.7202 78.1201 18.2025C63.99 -1.74879 44.7543 -3.47499 30.783 16.5568Z" fill="#464545" fill-opacity="0.1"/>
<path d="M38.9124 145.387C50.4855 152.777 63.343 150.006 73.3986 135.681C90.1022 111.863 92.6508 65.4881 79.1331 31.8864C76.6341 25.6929 73.7809 20.3817 70.6547 15.9881C65.9926 9.40034 60.7612 4.85245 55.3478 2.46191C63.3579 3.24031 71.3199 8.61687 78.1252 18.2025C81.3193 22.7235 84.2552 28.1572 86.8088 34.5001C100.661 68.9573 98.041 116.486 80.9171 140.917C68.6438 158.4 52.2746 159.115 38.9124 145.387Z" fill="white"/>
<path d="M30.783 16.5568C13.813 40.8732 11.1998 88.4154 24.9807 122.725C27.541 129.086 30.4851 134.545 33.6892 139.08C47.8011 158.999 66.9888 160.749 80.9219 140.913C98.0442 116.491 100.669 68.9473 86.8103 34.5068C84.2534 28.1623 81.3208 22.7202 78.1201 18.2025C63.99 -1.74879 44.7543 -3.47499 30.783 16.5568Z" stroke="#263238" stroke-opacity="0.1" stroke-width="2.5" stroke-miterlimit="10" stroke-linecap="round" stroke-linejoin="round"/>
<path d="M74.5072 28.033C77.1866 31.8159 79.6459 36.3822 81.7825 41.695C93.3871 70.5123 91.1794 110.341 76.8441 130.782C65.1898 147.39 49.13 145.939 37.3135 129.254C34.6292 125.463 32.1616 120.885 30.0168 115.555C18.4684 86.8401 20.6645 47.013 34.8625 26.659C46.5648 9.89343 62.6808 11.3361 74.5072 28.033Z" stroke="white" stroke-width="2.5" stroke-miterlimit="10" stroke-linecap="round" stroke-linejoin="round"/>
<path d="M68.6454 84.0403C68.7116 83.74 68.7612 83.0556 68.7943 81.992C68.8274 80.9267 68.8208 79.635 68.7761 78.1134C68.7298 76.5919 68.6338 74.9663 68.4865 73.2334C68.3392 71.5005 68.1108 69.8615 67.803 68.3131L62.1529 76.0551L62.5369 78.9052C62.9109 81.9802 63.1757 84.8522 63.3313 87.5246C63.4868 90.1936 63.4372 92.7066 63.1856 95.0586C62.9341 97.4105 62.4359 99.6349 61.6995 101.737C60.9597 103.839 59.9138 105.82 58.5567 107.679C56.9778 109.843 55.4834 111.185 54.0767 111.703C52.67 112.225 51.3625 112.133 50.1577 111.43C48.9512 110.727 47.8424 109.539 46.8329 107.862C45.8234 106.186 44.933 104.188 44.1601 101.871L39.3392 108.476L37.7935 103.312L42.6557 96.6505C41.7919 92.9817 41.1597 89.0478 40.7608 84.8455C40.362 80.6432 40.2594 76.5114 40.4497 72.4533L48.0046 69.6988C47.9252 70.088 47.8573 70.9385 47.801 72.247C47.7431 73.5555 47.7431 75.1207 47.801 76.9425C47.8573 78.7643 47.9814 80.7405 48.1701 82.871C48.3588 85.0032 48.6533 87.0633 49.0538 89.0478L54.5798 81.477L54.0866 77.0901C53.7689 74.0772 53.5852 71.3394 53.5322 68.8818C53.4792 66.4225 53.5951 64.1695 53.8831 62.1228C54.1694 60.0796 54.641 58.199 55.3014 56.4879C55.96 54.7751 56.8438 53.1613 57.9526 51.6431C59.3924 49.6703 60.8074 48.3618 62.1993 47.7226C63.5894 47.0835 64.9151 46.9727 66.1728 47.3938C67.4323 47.8132 68.6007 48.746 69.6764 50.1887C70.7521 51.6314 71.7186 53.4565 72.5759 55.6592L76.7729 49.9102L78.3187 55.0737L74.1216 60.8227C74.9259 64.2919 75.4357 67.8836 75.6492 71.6011C75.8627 75.3169 75.952 78.6788 75.914 81.6833L68.6454 84.0403ZM62.8149 62.8039C62.1215 63.7534 61.7061 64.9395 61.5654 66.3621C61.4247 67.7846 61.4645 69.5796 61.6829 71.742L66.7934 64.7399C65.5804 61.477 64.2547 60.8311 62.8149 62.8039ZM53.9476 95.4242C54.6675 94.4378 55.073 93.1444 55.1607 91.5474C55.2484 89.9487 55.1971 88.0496 55.0068 85.8487L50.0203 92.6814C51.2533 96.4056 52.5607 97.3216 53.9476 95.4242Z" fill="white"/>
</svg>
