<svg width="142" height="138" viewBox="0 0 142 138" fill="none" xmlns="http://www.w3.org/2000/svg">
<path d="M1.97449 64.0242C7.10986 97.1058 39.9941 129.005 75.422 135.178C81.9905 136.311 88.1834 136.502 93.9162 135.811C106.198 134.365 116.205 128.958 122.766 120.625L131.934 108.981C125.376 117.314 115.368 122.721 103.065 124.167C97.3536 124.836 91.1607 124.667 84.5706 123.533C49.1427 117.359 16.28 85.4618 11.1446 52.3584C8.99815 38.4061 12.04 26.445 18.923 17.6965L9.75448 29.3405C2.87147 38.0907 -0.170347 50.0518 1.97449 64.0242Z" fill="#464545" fill-opacity="0.1"/>
<path d="M1.97449 64.0242C7.10986 97.1058 39.9941 129.005 75.422 135.178C81.9905 136.311 88.1834 136.502 93.9162 135.811C106.198 134.365 116.205 128.958 122.766 120.625L131.934 108.981C125.376 117.314 115.368 122.721 103.065 124.167C97.3536 124.836 91.1607 124.667 84.5706 123.533C49.1427 117.359 16.28 85.4618 11.1446 52.3584C8.99815 38.4061 12.04 26.445 18.923 17.6965L9.75448 29.3405C2.87147 38.0907 -0.170347 50.0518 1.97449 64.0242Z" stroke="#263238" stroke-opacity="0.1" stroke-width="2.5" stroke-miterlimit="10" stroke-linecap="round" stroke-linejoin="round"/>
<path d="M103.065 124.165L93.9161 135.81" stroke="#263238" stroke-opacity="0.1" stroke-width="2.5" stroke-miterlimit="10" stroke-linecap="round" stroke-linejoin="round"/>
<path d="M40.8811 102.046L31.7821 113.751" stroke="#263238" stroke-opacity="0.1" stroke-width="2.5" stroke-miterlimit="10" stroke-linecap="round" stroke-linejoin="round"/>
<path d="M69.2722 119.243L60.572 131.061" stroke="#263238" stroke-opacity="0.1" stroke-width="2.5" stroke-miterlimit="10" stroke-linecap="round" stroke-linejoin="round"/>
<path d="M17.3722 74.7974L9.29932 85.7636" stroke="#263238" stroke-opacity="0.1" stroke-width="2.5" stroke-miterlimit="10" stroke-linecap="round" stroke-linejoin="round"/>
<path d="M10.6928 48.6611L1.60034 61.0969" stroke="#263238" stroke-opacity="0.1" stroke-width="2.5" stroke-miterlimit="10" stroke-linecap="round" stroke-linejoin="round"/>
<path d="M11.158 52.3635C16.2818 85.4619 49.1528 117.346 84.584 123.526C91.1575 124.667 97.357 124.841 103.072 124.175C128.212 121.199 143.837 101.66 139.724 74.5644C134.635 41.2379 101.774 9.34058 66.1873 3.16546C59.6287 2.0331 53.4507 1.85193 47.7494 2.52631C22.574 5.50064 6.92955 25.1047 11.158 52.3635Z" fill="#464545" fill-opacity="0.1"/>
<path d="M11.1597 52.3638C16.2785 85.4672 49.1561 117.336 84.5906 123.524C91.1542 124.662 97.3504 124.836 103.083 124.177C105.683 123.88 108.174 123.394 110.531 122.736C108.995 123.068 107.399 123.342 105.769 123.535C100.424 124.149 94.6313 123.979 88.5046 122.926C55.4201 117.14 24.7172 87.3746 19.9293 56.4553C15.9723 31.0201 30.584 12.7111 54.0945 9.91462C59.4169 9.2956 65.1861 9.46168 71.3128 10.5152C104.543 16.281 135.243 46.0695 139.992 77.1985C140.07 77.6715 140.145 78.1681 140.199 78.6361C140.09 77.3142 139.938 75.9587 139.721 74.568C134.647 41.2314 101.771 9.3392 66.1923 3.17079C59.6287 2.0334 53.4557 1.8623 47.7444 2.52829C22.5608 5.50765 6.92624 25.0916 11.1597 52.3638Z" fill="white"/>
<path d="M11.158 52.3635C16.2818 85.4619 49.1528 117.346 84.584 123.526C91.1575 124.667 97.357 124.841 103.072 124.175C128.212 121.199 143.837 101.66 139.724 74.5644C134.635 41.2379 101.774 9.34058 66.1873 3.16546C59.6287 2.0331 53.4507 1.85193 47.7494 2.52631C22.574 5.50064 6.92955 25.1047 11.158 52.3635Z" stroke="#263238" stroke-opacity="0.1" stroke-width="2.5" stroke-miterlimit="10" stroke-linecap="round" stroke-linejoin="round"/>
<path d="M52.249 12.419C57.022 11.8553 62.2053 12.0063 67.6949 12.9609C97.476 18.1194 125 44.8514 129.256 72.7493C132.71 95.4233 119.641 111.786 98.5849 114.274C93.8004 114.839 88.6037 114.688 83.096 113.732C53.4324 108.575 25.902 81.8585 21.6057 54.1619C18.0756 31.3369 31.178 14.9085 52.249 12.419Z" stroke="white" stroke-width="2.5" stroke-miterlimit="10" stroke-linecap="round" stroke-linejoin="round"/>
<path d="M68.1186 40.6859C67.8802 40.7446 67.4367 41.0566 66.7897 41.622C66.1409 42.1873 65.3978 42.9539 64.5604 43.9253C63.723 44.8966 62.8756 46.0222 62.0134 47.2972C61.1528 48.5755 60.4213 49.9393 59.8222 51.3921L69.752 56.8996L71.033 54.5476C72.4546 52.0833 73.8613 49.9293 75.2598 48.089C76.6565 46.2487 78.1576 44.8647 79.7646 43.937C81.3699 43.0093 83.1374 42.5882 85.0655 42.6671C86.9952 42.751 89.1516 43.4505 91.5364 44.7741C94.3118 46.3141 96.5278 48.1812 98.1844 50.3772C99.8427 52.5714 101.049 54.9486 101.804 57.5035C102.56 60.0601 102.939 62.7258 102.941 65.5038C102.942 68.2785 102.645 71.0314 102.047 73.7625L110.517 78.4613L109.016 84.2322L100.473 79.493C99.1807 83.177 97.5108 86.6042 95.4619 89.7732C93.4131 92.9421 91.1193 95.5457 88.5856 97.5839L79.71 85.7705C80.0112 85.6833 80.5706 85.3075 81.3832 84.6398C82.1974 83.9755 83.1027 83.0595 84.1039 81.892C85.1052 80.7244 86.1296 79.3488 87.1822 77.7635C88.2347 76.1798 89.145 74.4503 89.9096 72.5781L80.1982 67.1914L78.1328 70.6372C76.693 72.9656 75.2846 74.8948 73.9126 76.4298C72.539 77.9648 71.1223 79.077 69.661 79.7648C68.2013 80.4543 66.6572 80.7143 65.0304 80.5449C63.4036 80.3754 61.6162 79.7514 59.6683 78.6694C57.1379 77.2652 55.0162 75.5172 53.3066 73.4186C51.5954 71.3216 50.2548 69.0317 49.2867 66.5473C48.3169 64.0645 47.731 61.4424 47.5291 58.6828C47.3289 55.9249 47.4546 53.1401 47.9048 50.3269L40.5303 46.237L42.0313 40.4661L49.4059 44.556C50.6405 41.0969 52.2309 38.0873 54.1771 35.529C56.1234 32.9724 57.9852 30.847 59.761 29.1543L68.1186 40.6859ZM61.4375 63.484C62.6555 64.1601 63.7428 64.2054 64.7027 63.6216C65.6609 63.0378 66.6639 61.9172 67.7065 60.2631L58.7266 55.2807C58.0018 59.3455 58.907 62.0799 61.4375 63.484ZM88.8768 60.1423C87.6108 59.4394 86.4722 59.478 85.4626 60.2581C84.4515 61.0381 83.4022 62.2409 82.3099 63.8682L91.073 68.7298C92.0412 64.3547 91.3113 61.4928 88.8768 60.1423Z" fill="white"/>
</svg>
