<svg width="134" height="144" viewBox="0 0 134 144" fill="none" xmlns="http://www.w3.org/2000/svg">
<path d="M47.9483 141.443C78.2822 134.902 113.811 101.28 127.221 66.348C129.697 59.8726 131.258 53.8065 131.938 48.232C133.422 36.2877 130.904 26.7474 125.03 20.7165L114.152 9.84253C120.027 15.8751 122.546 25.4137 121.055 37.3798C120.361 42.9342 118.821 48.9986 116.338 55.4958C102.928 90.4278 67.4041 124.029 37.052 130.572C24.2624 133.311 14.3971 130.886 8.22742 124.556L19.1055 135.43C25.2752 141.756 35.1405 144.182 47.9483 141.443Z" fill="#464545" fill-opacity="0.1"/>
<path d="M47.9483 141.443C78.2822 134.902 113.811 101.28 127.221 66.348C129.697 59.8726 131.258 53.8065 131.938 48.232C133.422 36.2877 130.904 26.7474 125.03 20.7165L114.152 9.84253C120.027 15.8751 122.546 25.4137 121.055 37.3798C120.361 42.9342 118.821 48.9986 116.338 55.4958C102.928 90.4278 67.4041 124.029 37.052 130.572C24.2624 133.311 14.3971 130.886 8.22742 124.556L19.1055 135.43C25.2752 141.756 35.1405 144.182 47.9483 141.443Z" stroke="#263238" stroke-opacity="0.1" stroke-width="2.5" stroke-miterlimit="10" stroke-linecap="round" stroke-linejoin="round"/>
<path d="M121.053 37.3782L131.938 48.232" stroke="#263238" stroke-opacity="0.1" stroke-width="2.5" stroke-miterlimit="10" stroke-linecap="round" stroke-linejoin="round"/>
<path d="M87.5634 99.2065L98.5259 110.025" stroke="#263238" stroke-opacity="0.1" stroke-width="2.5" stroke-miterlimit="10" stroke-linecap="round" stroke-linejoin="round"/>
<path d="M109.114 70.6526L120.262 81.0686" stroke="#263238" stroke-opacity="0.1" stroke-width="2.5" stroke-miterlimit="10" stroke-linecap="round" stroke-linejoin="round"/>
<path d="M58.2422 123.449L68.7545 133.268" stroke="#263238" stroke-opacity="0.1" stroke-width="2.5" stroke-miterlimit="10" stroke-linecap="round" stroke-linejoin="round"/>
<path d="M33.6875 131.181L45.259 141.924" stroke="#263238" stroke-opacity="0.1" stroke-width="2.5" stroke-miterlimit="10" stroke-linecap="round" stroke-linejoin="round"/>
<path d="M36.3948 131.302C66.1015 125.489 101.468 92.0433 115.347 56.5913C117.917 50.0153 119.565 43.8301 120.373 38.1465C123.89 13.1474 110.86 -2.01279 86.5602 2.66426C56.6665 8.44516 21.2899 41.8824 7.37824 77.4904C4.818 84.0531 3.17133 90.2148 2.37364 95.885C-1.15475 120.918 11.9261 136.096 36.3948 131.302Z" fill="#464545" fill-opacity="0.1"/>
<path d="M120.924 29.685C117.518 15.8316 106.015 8.60464 88.4702 11.9866C59.3113 17.6216 24.8151 50.2452 11.2378 84.9826C8.74043 91.3909 7.12686 97.3999 6.36226 102.922C5.19551 111.186 5.88561 118.344 8.22739 124.031C2.82226 117.667 0.684055 107.918 2.3655 95.8784C3.16982 90.2116 4.80821 84.0532 7.3701 77.4939C21.3 41.8792 56.6617 8.45032 86.5637 2.66439C107.976 -1.46242 120.646 9.83095 120.924 29.685Z" fill="white"/>
<path d="M36.3948 131.302C66.1015 125.489 101.468 92.0433 115.347 56.5913C117.917 50.0153 119.565 43.8301 120.373 38.1465C123.89 13.1474 110.86 -2.01279 86.5602 2.66426C56.6665 8.44516 21.2899 41.8824 7.37824 77.4904C4.818 84.0531 3.17133 90.2148 2.37364 95.885C-1.15475 120.918 11.9261 136.096 36.3948 131.302Z" stroke="#263238" stroke-opacity="0.1" stroke-width="2.5" stroke-miterlimit="10" stroke-linecap="round" stroke-linejoin="round"/>
<path d="M11.9677 91.1879C12.6363 86.4421 14.0182 81.2718 16.1663 75.7778C27.8007 45.9792 57.4429 17.9739 82.4693 13.1375C102.807 9.21196 113.722 21.891 110.773 42.8304C110.102 47.588 108.717 52.7716 106.564 58.2825C94.9593 87.9636 65.3271 115.977 40.4662 120.849C19.981 124.853 9.01851 112.139 11.9677 91.1879Z" stroke="white" stroke-width="2.5" stroke-miterlimit="10" stroke-linecap="round" stroke-linejoin="round"/>
<path d="M55.6986 53.7984C55.4388 53.9745 54.9207 54.4459 54.1479 55.2142C53.375 55.9826 52.4697 56.9472 51.4354 58.1097C50.3994 59.2739 49.3286 60.5506 48.2198 61.9446C47.111 63.3404 46.1279 64.7227 45.269 66.0949L54.9108 64.4224L56.6287 62.0268C58.5137 59.4719 60.3341 57.1451 62.0983 55.0482C63.8592 52.9512 65.6615 51.1193 67.5035 49.5558C69.3455 47.9923 71.2785 46.6955 73.3025 45.6655C75.3298 44.6389 77.5011 43.9208 79.8164 43.5199C82.5107 43.0519 84.5645 43.1341 85.9745 43.7648C87.3862 44.3939 88.2932 45.4055 88.6953 46.7995C89.0975 48.1936 89.0859 49.8779 88.6589 51.8541C88.2303 53.8286 87.4888 55.9557 86.433 58.2372L94.6582 56.8113L92.1774 61.7651L83.881 63.2028C81.9431 66.5546 79.6476 69.9349 76.9897 73.3454C74.3319 76.7559 71.5035 79.9013 68.5097 82.78L60.958 79.3695C61.2907 79.1363 61.9378 78.5559 62.901 77.6232C63.8642 76.6921 64.9631 75.5296 66.2027 74.1338C67.4406 72.7398 68.738 71.1813 70.0951 69.4601C71.4538 67.739 72.6835 65.996 73.7808 64.2312L64.3508 65.8668L61.6333 69.4836C59.75 71.9513 57.9626 74.1204 56.2745 75.9842C54.5848 77.8513 52.9132 79.4417 51.2632 80.7535C49.6149 82.067 47.9401 83.1222 46.2471 83.9174C44.554 84.7142 42.7617 85.2746 40.8701 85.6034C38.4141 86.0295 36.4414 85.9791 34.9585 85.449C33.4757 84.9189 32.4132 84.0449 31.7743 82.822C31.1339 81.6007 30.9204 80.064 31.1356 78.2137C31.3507 76.3633 31.915 74.31 32.8269 72.0536L25.6659 73.2951L28.1467 68.3412L35.3077 67.0998C37.1497 63.9409 39.2962 60.9029 41.7505 57.9856C44.2048 55.0683 46.5019 52.5083 48.6418 50.3006L55.6986 53.7984ZM45.1018 73.7933C46.2851 73.5886 47.4287 73.0065 48.5326 72.052C49.6364 71.0958 50.8694 69.7336 52.2281 67.9688L43.5081 69.4803C42.1129 72.7817 42.6458 74.2194 45.1018 73.7933ZM74.6248 55.9557C73.3951 56.1688 72.187 56.8364 70.9988 57.9604C69.8105 59.086 68.513 60.5338 67.1063 62.307L75.6161 60.8307C77.3174 57.1719 76.9897 55.5464 74.6248 55.9557Z" fill="white"/>
</svg>
