<svg width="146" height="105" viewBox="0 0 146 105" fill="none" xmlns="http://www.w3.org/2000/svg">
<path d="M9.2912 36.1374C26.1686 56.862 66.8775 83.9681 100.185 96.6254C106.357 98.9656 111.846 100.657 116.603 101.712C126.806 103.995 133.538 103.373 136.158 100.155L142.976 86.5214C140.358 89.739 133.626 90.3597 123.403 88.0715C118.658 87.0079 113.175 85.3303 106.986 82.9834C73.6777 70.3262 32.987 43.2268 16.1014 22.4887C8.99993 13.7536 7.18443 7.50801 9.93002 4.12939L3.11155 17.763C0.36596 21.145 2.18312 27.3889 9.2912 36.1374Z" fill="#464545" fill-opacity="0.1"/>
<path d="M9.2912 36.1374C26.1686 56.862 66.8775 83.9681 100.185 96.6254C106.357 98.9656 111.846 100.657 116.603 101.712C126.806 103.995 133.538 103.373 136.158 100.155L142.976 86.5214C140.358 89.739 133.626 90.3597 123.403 88.0715C118.658 87.0079 113.175 85.3303 106.986 82.9834C73.6777 70.3262 32.987 43.2268 16.1014 22.4887C8.99993 13.7536 7.18443 7.50801 9.93002 4.12939L3.11155 17.763C0.36596 21.145 2.18312 27.3889 9.2912 36.1374Z" stroke="#263238" stroke-opacity="0.1" stroke-width="2.5" stroke-miterlimit="10" stroke-linecap="round" stroke-linejoin="round"/>
<path d="M123.403 88.0715L115.805 100.15" stroke="#263238" stroke-opacity="0.1" stroke-width="2.5" stroke-miterlimit="10" stroke-linecap="round" stroke-linejoin="round"/>
<path d="M60.7192 59.2341L53.1792 71.368" stroke="#263238" stroke-opacity="0.1" stroke-width="2.5" stroke-miterlimit="10" stroke-linecap="round" stroke-linejoin="round"/>
<path d="M91.9948 76.5667L84.8503 88.8666" stroke="#263238" stroke-opacity="0.1" stroke-width="2.5" stroke-miterlimit="10" stroke-linecap="round" stroke-linejoin="round"/>
<path d="M29.9501 37.2478L23.0439 49.1938" stroke="#263238" stroke-opacity="0.1" stroke-width="2.5" stroke-miterlimit="10" stroke-linecap="round" stroke-linejoin="round"/>
<path d="M14.3224 20.2056L7.0769 32.7487" stroke="#263238" stroke-opacity="0.1" stroke-width="2.5" stroke-miterlimit="10" stroke-linecap="round" stroke-linejoin="round"/>
<path d="M15.259 21.977C31.3089 42.2084 71.8142 69.187 105.72 82.21C112.007 84.6223 117.627 86.3838 122.521 87.538C144.03 92.5841 151.277 85.6423 138.213 69.1015C122.117 48.7492 81.6149 21.7639 47.5706 8.70405C41.2983 6.3001 35.6979 4.54033 30.819 3.39623C9.27631 -1.66164 2.03417 5.31369 15.259 21.977Z" fill="#464545" fill-opacity="0.1"/>
<path d="M129.559 88.8245C139.431 88.0881 140.863 81.2889 131.425 69.3446C115.727 49.494 76.2182 23.178 43.0046 10.4318C36.8796 8.08492 31.4165 6.36542 26.6684 5.25822C19.5554 3.58737 14.0443 3.26192 10.3538 4.18626C13.4204 1.31426 20.4673 0.967009 30.8224 3.38942C35.7013 4.53855 41.2967 6.2916 47.5674 8.69555C81.6233 21.7688 122.114 48.7441 138.217 69.1014C149.733 83.6811 145.469 90.8074 129.559 88.8245Z" fill="white"/>
<path d="M15.259 21.977C31.3089 42.2084 71.8142 69.187 105.72 82.21C112.007 84.6223 117.627 86.3838 122.521 87.538C144.03 92.5841 151.277 85.6423 138.213 69.1015C122.117 48.7492 81.6149 21.7639 47.5706 8.70405C41.2983 6.3001 35.6979 4.54033 30.819 3.39623C9.27631 -1.66164 2.03417 5.31369 15.259 21.977Z" stroke="#263238" stroke-opacity="0.1" stroke-width="2.5" stroke-miterlimit="10" stroke-linecap="round" stroke-linejoin="round"/>
<path d="M37.2386 12.0355C41.1824 13.2367 45.755 14.931 50.9036 17.1286C78.818 29.0444 112.983 51.2453 127.32 66.7846C138.966 79.4116 133.814 83.671 116.414 78.3715C112.462 77.1671 107.874 75.4693 102.712 73.265C74.9007 61.3862 40.7355 39.1903 26.4399 23.7416C14.6698 11.0139 19.8283 6.73273 37.2386 12.0355Z" stroke="white" stroke-width="2" stroke-miterlimit="10" stroke-linecap="round" stroke-linejoin="round"/>
<path d="M85.1632 43.1663C84.9215 42.9751 84.3423 42.5825 83.4288 41.9887C82.5136 41.3948 81.3898 40.6936 80.0559 39.8834C78.7204 39.0731 77.2805 38.2276 75.7315 37.3435C74.1824 36.4594 72.6913 35.6609 71.2548 34.9446L76.2909 41.4871L78.8809 42.8828C81.6629 44.4044 84.2347 45.8605 86.6013 47.2512C88.9663 48.6419 91.1326 50.031 93.0987 51.4166C95.0648 52.8023 96.8489 54.2182 98.4559 55.6676C100.06 57.117 101.468 58.6268 102.678 60.1987C104.084 62.0272 104.804 63.3726 104.836 64.2349C104.869 65.0972 104.399 65.5853 103.429 65.6994C102.458 65.8135 101.096 65.6222 99.338 65.124C97.5804 64.6258 95.5812 63.9044 93.337 62.96L97.6334 68.5412L92.6883 66.3637L88.3556 60.7338C84.9116 59.0898 81.3071 57.2076 77.5387 55.0821C73.7704 52.9566 70.1526 50.7489 66.6855 48.4591L66.5481 43.8491C66.8625 44.094 67.5791 44.5856 68.6996 45.322C69.8183 46.0585 71.177 46.9107 72.7774 47.8803C74.3761 48.8499 76.1287 49.8749 78.0352 50.9586C79.9434 52.0423 81.8201 53.0439 83.6621 53.9615L78.7369 47.5616L74.7799 45.374C72.0691 43.8625 69.6363 42.4467 67.4865 41.1298C65.335 39.8112 63.4136 38.5362 61.7222 37.3032C60.0325 36.0719 58.5414 34.8523 57.2521 33.6495C55.9613 32.445 54.8243 31.2019 53.8363 29.9186C52.5537 28.2511 51.8387 26.956 51.6997 26.035C51.559 25.114 51.8586 24.5084 52.6017 24.2216C53.3431 23.933 54.4999 23.9599 56.0754 24.3021C57.6493 24.646 59.5227 25.2432 61.6924 26.0904L57.9522 21.2305L62.8972 23.408L66.6375 28.2679C69.8895 29.8263 73.1613 31.5744 76.4531 33.5119C79.7448 35.4495 82.689 37.2428 85.2873 38.8969L85.1632 43.1663ZM64.9808 33.9951C65.5981 34.7986 66.5051 35.6156 67.6983 36.4477C68.8915 37.2798 70.4621 38.2427 72.405 39.3314L67.8505 33.413C64.6532 32.133 63.6982 32.3276 64.9808 33.9951ZM90.6593 55.4159C90.0172 54.5822 89.0159 53.7115 87.6539 52.804C86.2919 51.8964 84.6286 50.8831 82.6592 49.7625L87.1045 55.5367C90.709 57.0599 91.8956 57.0214 90.6593 55.4159Z" fill="white"/>
</svg>
