<svg width="133" height="147" viewBox="0 0 133 147" fill="none" xmlns="http://www.w3.org/2000/svg">
<path d="M64.918 3.86469C32.9192 12.1955 4.72353 48.4141 2.0342 84.7502C1.54764 91.4857 1.94983 97.7531 3.17285 103.472C5.76288 115.727 12.0253 125.31 20.833 131.135L33.141 139.278C24.3333 133.453 18.0708 123.869 15.4792 111.593C14.2776 105.894 13.854 99.6286 14.3406 92.8713C17.0299 56.5336 45.2272 20.3384 77.2459 12.0042C90.7438 8.50985 102.779 10.4407 112.027 16.5521L99.7187 8.40922C90.4724 2.29952 78.4375 0.36864 64.918 3.86469Z" fill="#464545" fill-opacity="0.1"/>
<path d="M64.918 3.86469C32.9192 12.1955 4.72353 48.4141 2.0342 84.7502C1.54764 91.4857 1.94983 97.7531 3.17285 103.472C5.76288 115.727 12.0253 125.31 20.833 131.135L33.141 139.278C24.3333 133.453 18.0708 123.869 15.4792 111.593C14.2776 105.894 13.854 99.6286 14.3406 92.8713C17.0299 56.5336 45.2272 20.3384 77.2459 12.0042C90.7438 8.50985 102.779 10.4407 112.027 16.5521L99.7187 8.40922C90.4724 2.29952 78.4375 0.36864 64.918 3.86469Z" stroke="#263238" stroke-opacity="0.1" stroke-width="2.5" stroke-miterlimit="10" stroke-linecap="round" stroke-linejoin="round"/>
<path d="M15.4808 111.593L3.17444 103.472" stroke="#263238" stroke-opacity="0.1" stroke-width="2.5" stroke-miterlimit="10" stroke-linecap="round" stroke-linejoin="round"/>
<path d="M31.2825 46.7415L18.9232 38.6741" stroke="#263238" stroke-opacity="0.1" stroke-width="2.5" stroke-miterlimit="10" stroke-linecap="round" stroke-linejoin="round"/>
<path d="M17.0977 77.0266L4.66394 69.3735" stroke="#263238" stroke-opacity="0.1" stroke-width="2.5" stroke-miterlimit="10" stroke-linecap="round" stroke-linejoin="round"/>
<path d="M55.8059 20.4256L44.2675 13.3245" stroke="#263238" stroke-opacity="0.1" stroke-width="2.5" stroke-miterlimit="10" stroke-linecap="round" stroke-linejoin="round"/>
<path d="M80.8372 11.1973L67.7581 3.20703" stroke="#263238" stroke-opacity="0.1" stroke-width="2.5" stroke-miterlimit="10" stroke-linecap="round" stroke-linejoin="round"/>
<path d="M77.2442 12.0195C45.2289 20.3419 17.0465 56.5438 14.3505 92.8849C13.8557 99.6254 14.2743 105.898 15.4725 111.603C20.7883 136.688 41.4638 150.593 67.6818 143.865C99.9255 135.557 128.123 99.362 130.799 62.8649C131.287 56.1395 130.877 49.8889 129.67 44.2003C124.353 19.077 103.611 5.15827 77.2442 12.0195Z" fill="#464545" fill-opacity="0.1"/>
<path d="M77.2459 12.0211C45.224 20.3368 17.0564 56.547 14.3538 92.8915C13.8623 99.6219 14.2794 105.891 15.4742 111.615C16.0138 114.21 16.7287 116.678 17.5976 118.993C17.1259 117.475 16.7055 115.891 16.3597 114.265C15.2475 108.931 14.8635 103.069 15.3154 96.7869C17.8475 62.8531 44.1549 29.0383 74.0651 21.2628C98.6662 14.8478 118.039 27.8506 123.024 51.3064C124.138 56.6175 124.525 62.4555 124.073 68.738C121.574 102.818 95.2437 136.631 65.125 144.386C64.6682 144.51 64.1882 144.633 63.7331 144.732C65.0207 144.495 66.3364 144.213 67.6819 143.863C99.9372 135.569 128.126 99.3603 130.797 62.8715C131.289 56.1411 130.87 49.8955 129.674 44.1968C124.345 19.0652 103.624 5.15481 77.2459 12.0211Z" fill="white"/>
<path d="M77.2442 12.0195C45.2289 20.3419 17.0465 56.5438 14.3505 92.8849C13.8557 99.6254 14.2743 105.898 15.4725 111.603C20.7883 136.688 41.4638 150.593 67.6818 143.865C99.9255 135.557 128.123 99.362 130.799 62.8649C131.287 56.1395 130.877 49.8889 129.67 44.2003C124.353 19.077 103.611 5.15827 77.2442 12.0195Z" stroke="#263238" stroke-opacity="0.1" stroke-width="2.5" stroke-miterlimit="10" stroke-linecap="round" stroke-linejoin="round"/>
<path d="M120.384 49.6806C121.392 54.4432 121.738 59.6873 121.323 65.3172C119.092 95.859 95.4606 126.176 68.468 133.128C46.5298 138.771 29.2172 127.142 24.7686 106.132C23.7574 101.36 23.4115 96.1006 23.8253 90.4522C26.0661 60.0278 49.6808 29.7058 76.4731 22.7338C98.552 16.9982 115.932 28.6556 120.384 49.6806Z" stroke="white" stroke-width="2.5" stroke-miterlimit="10" stroke-linecap="round" stroke-linejoin="round"/>
<path d="M94.1348 68.3839C94.0553 68.1491 93.7045 67.7313 93.0889 67.1308C92.4716 66.5302 91.6474 65.8525 90.6147 65.1009C89.5803 64.3477 88.3954 63.5995 87.0615 62.8513C85.7243 62.1048 84.3142 61.4975 82.8314 61.0294L78.3679 71.573L80.7991 72.6416C83.3544 73.841 85.6034 75.0573 87.543 76.292C89.4827 77.5266 90.9854 78.9106 92.0479 80.4423C93.112 81.9739 93.6946 83.7169 93.8005 85.6696C93.9014 87.6239 93.4199 89.8685 92.3474 92.3999C91.0996 95.3474 89.4761 97.7615 87.4769 99.6403C85.4793 101.523 83.26 102.965 80.8239 103.97C78.3845 104.977 75.8027 105.612 73.077 105.879C70.3529 106.144 67.6206 106.106 64.8816 105.763L61.0735 114.759L55.2629 113.794L59.1041 104.722C55.3622 103.767 51.8388 102.41 48.5305 100.644C45.2222 98.877 42.4485 96.8103 40.2043 94.4483L50.9616 84.3678C51.0758 84.663 51.4978 85.1915 52.231 85.9481C52.9608 86.7063 53.9472 87.5333 55.1884 88.4308C56.4297 89.33 57.8794 90.2342 59.536 91.1435C61.1926 92.0544 62.9767 92.8093 64.8882 93.4015L69.254 83.0895L65.6727 81.3331C63.2498 80.1017 61.2192 78.8653 59.5824 77.6256C57.944 76.3859 56.7176 75.0606 55.9017 73.6531C55.0858 72.2457 54.6837 70.7124 54.6953 69.0549C54.7068 67.3975 55.1504 65.5337 56.0258 63.467C57.1628 60.7812 58.6787 58.4728 60.577 56.547C62.4736 54.6211 64.5936 53.0509 66.942 51.8364C69.2871 50.6218 71.8076 49.7814 74.4986 49.3133C77.1879 48.8486 79.9351 48.7094 82.7403 48.8973L86.0553 41.0664L91.8658 42.031L88.5509 49.8619C92.0661 50.7778 95.1725 52.0964 97.8684 53.8159C100.564 55.5371 102.828 57.213 104.66 58.8436L94.1348 68.3839ZM71.1109 63.8125C70.5631 65.1059 70.6227 66.2081 71.2863 67.1207C71.9499 68.0333 73.1465 68.9375 74.871 69.8316L78.9091 60.2964C74.8478 59.9524 72.2479 61.1268 71.1109 63.8125ZM77.0042 91.1821C77.5736 89.8383 77.4279 88.6926 76.5657 87.7481C75.7034 86.8019 74.4225 85.8574 72.7212 84.9096L68.7807 94.2151C73.1696 94.7754 75.9103 93.7672 77.0042 91.1821Z" fill="white"/>
</svg>
