<svg width="144" height="137" viewBox="0 0 144 137" fill="none" xmlns="http://www.w3.org/2000/svg">
<path d="M94.4268 134.879C61.5591 138.268 22.7551 114.156 7.84381 80.9993C5.08994 74.8493 3.33237 68.8269 2.53136 63.0326C0.783715 50.6253 3.3936 39.4375 9.67421 30.887L18.4488 18.9343C12.1699 27.4849 9.56001 38.6726 11.3126 51.1C12.1269 56.8692 13.8662 62.8966 16.6251 69.0667C31.5347 102.224 70.3337 126.315 103.221 122.92C117.078 121.471 127.715 115.445 134.31 106.47L125.535 118.422C118.94 127.397 108.304 133.425 94.4268 134.879Z" fill="#464545" fill-opacity="0.1"/>
<path d="M94.4268 134.879C61.5591 138.268 22.7551 114.156 7.84381 80.9993C5.08994 74.8493 3.33237 68.8269 2.53136 63.0326C0.783715 50.6253 3.3936 39.4375 9.67421 30.887L18.4488 18.9343C12.1699 27.4849 9.56001 38.6726 11.3126 51.1C12.1269 56.8692 13.8662 62.8966 16.6251 69.0667C31.5347 102.224 70.3337 126.315 103.221 122.92C117.078 121.471 127.715 115.445 134.31 106.47L125.535 118.422C118.94 127.397 108.304 133.425 94.4268 134.879Z" stroke="#263238" stroke-opacity="0.1" stroke-width="2.5" stroke-miterlimit="10" stroke-linecap="round" stroke-linejoin="round"/>
<path d="M11.3126 51.1001L2.53296 63.0326" stroke="#263238" stroke-opacity="0.1" stroke-width="2.5" stroke-miterlimit="10" stroke-linecap="round" stroke-linejoin="round"/>
<path d="M48.2466 106.423L39.3992 118.322" stroke="#263238" stroke-opacity="0.1" stroke-width="2.5" stroke-miterlimit="10" stroke-linecap="round" stroke-linejoin="round"/>
<path d="M24.612 82.9722L15.5527 94.5071" stroke="#263238" stroke-opacity="0.1" stroke-width="2.5" stroke-miterlimit="10" stroke-linecap="round" stroke-linejoin="round"/>
<path d="M80.2305 122.529L71.8232 133.234" stroke="#263238" stroke-opacity="0.1" stroke-width="2.5" stroke-miterlimit="10" stroke-linecap="round" stroke-linejoin="round"/>
<path d="M106.865 122.422L97.3145 134.502" stroke="#263238" stroke-opacity="0.1" stroke-width="2.5" stroke-miterlimit="10" stroke-linecap="round" stroke-linejoin="round"/>
<path d="M103.213 122.908C70.3322 126.312 31.5463 102.21 16.6285 69.0514C13.8663 62.8981 12.1203 56.8656 11.3011 51.0931C7.73798 25.6914 22.401 5.40117 49.2975 2.53421C82.387 -0.963518 121.184 23.1264 136.137 56.4378C138.888 62.5777 140.632 68.5884 141.441 74.3492C145.016 99.7861 130.297 120.112 103.213 122.908Z" fill="#464545" fill-opacity="0.1"/>
<path d="M141.446 74.3511C142.989 85.3073 141.122 95.299 136.351 103.358C138.519 96.8893 139.134 89.5986 138.047 81.8365C137.238 76.0656 135.483 70.0666 132.736 63.9251C117.777 30.6069 78.9828 6.5221 45.89 10.0282C30.5866 11.6555 19.2484 18.9294 12.9827 29.5819C17.84 14.9217 30.6296 4.53085 49.3042 2.53958C82.3804 -0.961505 121.191 23.1183 136.134 56.4415C138.883 62.5813 140.637 68.5803 141.446 74.3511Z" fill="white"/>
<path d="M103.213 122.908C70.3322 126.312 31.5463 102.21 16.6285 69.0514C13.8663 62.8981 12.1203 56.8656 11.3011 51.0931C7.73798 25.6914 22.401 5.40117 49.2975 2.53421C82.387 -0.963518 121.184 23.1264 136.137 56.4378C138.888 62.5777 140.632 68.5884 141.441 74.3492C145.016 99.7861 130.297 120.112 103.213 122.908Z" stroke="#263238" stroke-opacity="0.1" stroke-width="2.5" stroke-miterlimit="10" stroke-linecap="round" stroke-linejoin="round"/>
<path d="M98.8388 113.124C71.32 115.966 38.8247 95.7818 26.3512 68.0164C24.0376 62.8595 22.5696 57.8034 21.8911 52.9703C18.9039 31.6954 31.1871 14.7201 53.6979 12.3312C81.3971 9.40051 113.907 29.5733 126.412 57.4527C128.721 62.5911 130.184 67.6339 130.861 72.4553C133.848 93.7469 121.512 110.774 98.8388 113.124Z" stroke="white" stroke-width="2.5" stroke-miterlimit="10" stroke-linecap="round" stroke-linejoin="round"/>
<path d="M93.222 78.6993C93.3378 78.498 93.4305 77.9159 93.5 76.958C93.5695 75.9984 93.5795 74.7788 93.5248 73.2975C93.4702 71.8145 93.3296 70.1705 93.1061 68.3671C92.8811 66.5604 92.5219 64.7436 92.0271 62.9184L82.4068 63.2874L83.0125 66.4296C83.5984 69.7696 84.0038 72.7876 84.2272 75.4851C84.4507 78.1793 84.3332 80.4758 83.8731 82.3748C83.413 84.2722 82.5474 85.7551 81.2781 86.8288C80.0038 87.8974 78.2131 88.4795 75.9044 88.5684C73.2167 88.6724 70.683 88.1088 68.3081 86.8791C65.9332 85.6528 63.7354 83.9718 61.7147 81.8413C59.6923 79.7091 57.8454 77.2415 56.1689 74.4366C54.4957 71.6334 53.0228 68.6725 51.7551 65.5556L43.5498 65.8709L41.021 59.1405L49.2975 58.8218C47.8957 54.3242 46.8879 49.8636 46.2755 45.4348C45.6632 41.006 45.549 37.0034 45.9263 33.4285L58.6812 40.0615C58.5421 40.3299 58.4147 41.0446 58.3022 42.2038C58.1863 43.3613 58.1648 44.8292 58.2343 46.6091C58.3038 48.3873 58.4826 50.392 58.7722 52.6232C59.0601 54.8543 59.5252 57.1459 60.1706 59.4945L69.5791 59.1338L68.8112 54.4148C68.3197 51.2006 68.0483 48.4074 67.9953 46.037C67.9407 43.6633 68.1691 41.6922 68.6805 40.1236C69.1902 38.5551 70.0127 37.3674 71.148 36.5672C72.2817 35.7653 73.7927 35.3275 75.6793 35.2553C78.1303 35.1614 80.5317 35.6613 82.8818 36.7584C85.2318 37.8555 87.4627 39.367 89.5761 41.2996C91.6878 43.2288 93.6424 45.5287 95.4347 48.1977C97.2254 50.8651 98.8257 53.7555 100.236 56.8674L107.38 56.5923L109.909 63.3227L102.765 63.5978C104.069 67.832 104.875 71.8246 105.182 75.574C105.49 79.3216 105.591 82.5828 105.485 85.3558L93.222 78.6993ZM83.7092 51.6619C82.5292 51.7072 81.8127 52.3128 81.5561 53.4754C81.2996 54.6379 81.341 56.3692 81.6769 58.6658L90.3771 58.3319C88.3845 53.7908 86.1602 51.568 83.7092 51.6619ZM68.323 71.4472C69.5493 71.4002 70.2477 70.6805 70.4198 69.2898C70.5903 67.8957 70.5307 66.0538 70.2428 63.7555L61.7528 64.081C63.7752 69.0801 65.9647 71.5361 68.323 71.4472Z" fill="white"/>
</svg>
