<svg width="165" height="166" viewBox="0 0 165 166" fill="none" xmlns="http://www.w3.org/2000/svg">
<path d="M82.4988 164.606C126.86 164.606 162.821 128.153 162.821 83.1866C162.821 38.2201 126.86 1.76758 82.4988 1.76758C38.1381 1.76758 2.17664 38.2201 2.17664 83.1866C2.17664 128.153 38.1381 164.606 82.4988 164.606Z" fill="#464545" fill-opacity="0.1"/>
<path d="M147.475 131.093C154.71 118.868 158.877 104.562 158.877 89.2443C158.877 44.2637 122.915 7.81016 78.56 7.81016C51.8472 7.81016 28.1845 21.0059 13.5728 41.333C27.6267 17.6306 53.2423 1.76758 82.5071 1.76758C126.862 1.76758 162.824 38.2211 162.824 83.1816C162.824 101.085 157.123 117.656 147.475 131.093Z" fill="white"/>
<path d="M82.4988 151.522C119.731 151.522 149.914 120.927 149.914 83.1865C149.914 45.4458 119.731 14.8508 82.4988 14.8508C45.2665 14.8508 15.0837 45.4458 15.0837 83.1865C15.0837 120.927 45.2665 151.522 82.4988 151.522Z" stroke="white" stroke-width="2.5" stroke-miterlimit="10" stroke-linecap="round" stroke-linejoin="round"/>
<path d="M82.4988 164.606C126.86 164.606 162.821 128.153 162.821 83.1866C162.821 38.2201 126.86 1.76758 82.4988 1.76758C38.1381 1.76758 2.17664 38.2201 2.17664 83.1866C2.17664 128.153 38.1381 164.606 82.4988 164.606Z" stroke="#263238" stroke-opacity="0.1" stroke-width="2.5" stroke-miterlimit="10" stroke-linecap="round" stroke-linejoin="round"/>
<path d="M102.881 68.3904C101.293 67.3688 99.5649 66.4176 97.6899 65.5403C96.1044 64.7367 94.3203 63.9885 92.3377 63.294C90.355 62.5995 88.3542 62.0711 86.3368 61.7037V71.5678C86.9855 71.7154 87.669 71.915 88.3906 72.17C89.1105 72.4284 89.8668 72.6632 90.6612 72.883C94.1913 73.9784 97.3821 75.1846 100.23 76.4998C103.077 77.815 105.51 79.3685 107.529 81.1584C109.546 82.9501 111.097 85.1225 112.179 87.6791C113.26 90.2374 113.801 93.3426 113.801 96.9946C113.801 101.308 113.06 104.978 111.583 108.01C110.105 111.043 108.161 113.527 105.745 115.461C103.328 117.397 100.571 118.86 97.473 119.845C94.3733 120.831 91.1643 121.435 87.8494 121.653V134.916H79.1989V121.435C74.2257 120.997 69.2873 120.011 64.3853 118.476C59.4833 116.941 55.086 115.007 51.1952 112.666L60.2777 93.9247C62.2223 95.1678 64.3125 96.3354 66.5467 97.4308C68.4218 98.382 70.603 99.3131 73.0888 100.226C75.5762 101.14 78.1182 101.779 80.7116 102.143V92.4988C78.4757 91.915 76.2415 91.2205 74.0089 90.4152C70.6196 89.246 67.7002 87.9878 65.2508 86.634C62.7982 85.2819 60.7791 83.7486 59.1953 82.0324C57.6098 80.3163 56.4398 78.3602 55.6818 76.1676C54.9255 73.9751 54.5465 71.4554 54.5465 68.6052C54.5465 64.6595 55.1936 61.1719 56.4911 58.1388C57.7886 55.1092 59.5561 52.4955 61.7903 50.3029C64.0228 48.1103 66.636 46.3573 69.6282 45.0421C72.6204 43.7269 75.8095 42.8881 79.1972 42.5207V31.4504H87.8478V42.6297C90.2276 42.9233 92.533 43.3612 94.7688 43.945C97.0014 44.5304 99.1479 45.2048 101.203 45.9731C103.257 46.7398 105.185 47.545 106.986 48.3838C108.788 49.2242 110.446 50.011 111.959 50.7408L102.881 68.3904ZM76.3888 65.1024C76.3888 66.1979 76.7495 67.0937 77.4711 67.7865C78.191 68.4827 79.2701 69.1219 80.7132 69.704V61.3749C77.8302 61.7423 76.3888 62.9853 76.3888 65.1024ZM91.0948 99.0799C91.0948 98.0582 90.6612 97.1607 89.7973 96.3941C88.9334 95.6274 87.7782 94.9531 86.3368 94.3676V102.477C88.0679 102.333 89.2909 101.967 90.0125 101.381C90.734 100.796 91.0948 100.029 91.0948 99.0799Z" fill="white"/>
</svg>
