<svg width="155" height="127" viewBox="0 0 155 127" fill="none" xmlns="http://www.w3.org/2000/svg">
<path d="M36.7623 124.622C68.3771 128.388 113.837 107.558 138.22 78.0731C142.73 72.6043 146.217 67.2277 148.689 62.0356C154.013 50.9184 154.662 40.8043 150.91 32.9801L143.867 18.7778C147.619 26.602 146.968 36.7161 141.634 47.8518C139.157 53.0204 135.688 58.402 131.165 63.8893C106.782 93.3726 61.3336 114.184 29.7005 110.413C16.378 108.808 7.5736 103.158 3.63147 94.9461L10.675 109.148C14.6171 117.36 23.4216 123.012 36.7623 124.622Z" fill="#464545" fill-opacity="0.1"/>
<path d="M36.7623 124.622C68.3771 128.388 113.837 107.558 138.22 78.0731C142.73 72.6043 146.217 67.2277 148.689 62.0356C154.013 50.9184 154.662 40.8043 150.91 32.9801L143.867 18.7778C147.619 26.602 146.968 36.7161 141.634 47.8518C139.157 53.0204 135.688 58.402 131.165 63.8893C106.782 93.3726 61.3336 114.184 29.7005 110.413C16.378 108.808 7.5736 103.158 3.63147 94.9461L10.675 109.148C14.6171 117.36 23.4216 123.012 36.7623 124.622Z" stroke="#263238" stroke-opacity="0.1" stroke-width="2.5" stroke-miterlimit="10" stroke-linecap="round" stroke-linejoin="round"/>
<path d="M141.633 47.8535L148.688 62.0374" stroke="#263238" stroke-opacity="0.1" stroke-width="2.5" stroke-miterlimit="10" stroke-linecap="round" stroke-linejoin="round"/>
<path d="M88.993 96.783L96.1359 110.96" stroke="#263238" stroke-opacity="0.1" stroke-width="2.5" stroke-miterlimit="10" stroke-linecap="round" stroke-linejoin="round"/>
<path d="M119.218 76.2178L126.672 90.0627" stroke="#263238" stroke-opacity="0.1" stroke-width="2.5" stroke-miterlimit="10" stroke-linecap="round" stroke-linejoin="round"/>
<path d="M52.6135 110.566L59.6438 123.619" stroke="#263238" stroke-opacity="0.1" stroke-width="2.5" stroke-miterlimit="10" stroke-linecap="round" stroke-linejoin="round"/>
<path d="M26.2317 109.887L33.9918 124.193" stroke="#263238" stroke-opacity="0.1" stroke-width="2.5" stroke-miterlimit="10" stroke-linecap="round" stroke-linejoin="round"/>
<path d="M28.8234 110.908C59.5909 115.173 104.836 94.4597 129.844 64.6259C134.478 59.0899 138.089 53.6278 140.722 48.372C152.261 25.2433 144.517 6.15599 119.375 2.59284C88.4353 -1.76381 43.1819 18.9373 18.0925 48.9087C13.4719 54.4346 9.86901 59.875 7.2525 65.1208C-4.30745 88.2829 3.4792 107.404 28.8234 110.908Z" fill="#464545" fill-opacity="0.1"/>
<path d="M144.004 40.3314C145.192 25.7265 136.357 14.8626 118.202 12.2959C88.0248 8.04325 43.8918 28.2445 19.4099 57.4845C14.9001 62.8812 11.38 68.184 8.84291 73.2973C5.0249 80.9419 3.36994 88.1303 3.80023 94.4413C0.612763 86.4494 1.70008 76.2598 7.24588 65.1157C9.869 59.875 13.4619 54.4347 18.0826 48.9121C43.1918 18.939 88.4287 -1.75876 119.377 2.59453C141.535 5.7299 150.184 20.937 144.004 40.3314Z" fill="white"/>
<path d="M28.8234 110.908C59.5909 115.173 104.836 94.4597 129.844 64.6259C134.478 59.0899 138.089 53.6278 140.722 48.372C152.261 25.2433 144.517 6.15599 119.375 2.59284C88.4353 -1.76381 43.1819 18.9373 18.0925 48.9087C13.4719 54.4346 9.86901 59.875 7.2525 65.1207C-4.30745 88.2829 3.4792 107.404 28.8234 110.908Z" stroke="#263238" stroke-opacity="0.1" stroke-width="2.5" stroke-miterlimit="10" stroke-linecap="round" stroke-linejoin="round"/>
<path d="M18.1058 63.7584C20.2969 59.3666 23.3206 54.8036 27.1916 50.1785C48.1815 25.0922 86.0952 7.75955 111.994 11.4099C133.04 14.3809 139.532 30.3514 129.866 49.7222C127.67 54.1225 124.639 58.7006 120.755 63.3407C99.8314 88.3231 61.9277 105.667 36.1747 102.106C14.9613 99.1602 8.43248 83.1427 18.1058 63.7584Z" stroke="white" stroke-width="2.5" stroke-miterlimit="10" stroke-linecap="round" stroke-linejoin="round"/>
<path d="M72.7627 42.0055C72.4516 42.0894 71.7962 42.3763 70.795 42.8644C69.7937 43.3526 68.6005 43.9884 67.2169 44.7735C65.8317 45.5586 64.3754 46.4444 62.8445 47.4291C61.3137 48.4155 59.9086 49.4321 58.6277 50.4789L68.5442 52.0709L70.9936 50.3162C73.6547 48.4608 76.1819 46.8084 78.5766 45.3573C80.9697 43.9062 83.3164 42.7286 85.6152 41.821C87.9139 40.9151 90.2144 40.2994 92.5164 39.974C94.8201 39.6519 97.1652 39.6787 99.5451 40.0612C102.317 40.5058 104.287 41.2708 105.453 42.3545C106.622 43.4365 107.174 44.7232 107.113 46.2129C107.052 47.7025 106.494 49.3365 105.435 51.1147C104.376 52.8912 102.964 54.7131 101.198 56.5769L109.659 57.9357L105.639 61.9233L97.1057 60.5527C94.1333 63.1647 90.8035 65.6844 87.1113 68.1135C83.4191 70.5427 79.649 72.6564 75.8029 74.4547L69.5686 68.6185C69.9675 68.5027 70.7867 68.1538 72.0246 67.5683C73.2625 66.9845 74.7106 66.2212 76.3672 65.2784C78.0239 64.3356 79.7914 63.2553 81.6698 62.034C83.5498 60.8144 85.3107 59.5294 86.9524 58.1823L77.2543 56.6255L73.438 59.2358C70.8066 61.0073 68.3638 62.5172 66.1164 63.767C63.8673 65.0184 61.7274 66.0065 59.6951 66.7312C57.6644 67.4576 55.6951 67.9256 53.7918 68.1337C51.887 68.3433 49.9622 68.2896 48.016 67.9776C45.4888 67.5716 43.589 66.8654 42.3196 65.8555C41.0502 64.8456 40.3005 63.6411 40.0771 62.2387C39.852 60.8379 40.1433 59.2727 40.9526 57.5448C41.7618 55.8186 42.9782 54.0102 44.5985 52.1213L37.2339 50.9386L41.2538 46.951L48.6184 48.1337C51.4335 45.6777 54.5084 43.4399 57.8415 41.4234C61.1746 39.407 64.2396 37.6841 67.0365 36.2532L72.7627 42.0055ZM55.9681 57.9072C57.1845 58.1018 58.4853 57.9189 59.8689 57.3586C61.2524 56.7983 62.8941 55.8857 64.7874 54.6225L55.8191 53.1815C53.3897 55.926 53.441 57.5012 55.9681 57.9072ZM90.4626 50.4186C89.1982 50.2156 87.8064 50.4622 86.2855 51.1567C84.7646 51.8529 83.0335 52.8275 81.0889 54.0823L89.8403 55.4882C92.6836 52.5004 92.8938 50.8094 90.4626 50.4186Z" fill="white"/>
</svg>
