<svg width="133" height="147" viewBox="0 0 133 147" fill="none" xmlns="http://www.w3.org/2000/svg">
<path d="M64.918 3.86457C32.9192 12.1954 4.72353 48.414 2.0342 84.7501C1.54764 91.4855 1.94983 97.7529 3.17285 103.472C5.76288 115.726 12.0253 125.31 20.833 131.135L33.141 139.278C24.3333 133.453 18.0708 123.869 15.4792 111.593C14.2776 105.894 13.854 99.6285 14.3406 92.8712C17.0299 56.5334 45.2272 20.3383 77.2459 12.0041C90.7438 8.50973 102.779 10.4406 112.027 16.552L99.7187 8.4091C90.4724 2.2994 78.4375 0.368518 64.918 3.86457Z" fill="#464545" fill-opacity="0.1"/>
<path d="M64.918 3.86457C32.9192 12.1954 4.72353 48.414 2.0342 84.7501C1.54764 91.4855 1.94983 97.7529 3.17285 103.472C5.76288 115.726 12.0253 125.31 20.833 131.135L33.141 139.278C24.3333 133.453 18.0708 123.869 15.4792 111.593C14.2776 105.894 13.854 99.6285 14.3406 92.8712C17.0299 56.5334 45.2272 20.3383 77.2459 12.0041C90.7438 8.50973 102.779 10.4406 112.027 16.552L99.7187 8.4091C90.4724 2.2994 78.4375 0.368518 64.918 3.86457Z" stroke="#263238" stroke-opacity="0.1" stroke-width="2.5" stroke-miterlimit="10" stroke-linecap="round" stroke-linejoin="round"/>
<path d="M15.4808 111.593L3.17444 103.472" stroke="#263238" stroke-opacity="0.1" stroke-width="2.5" stroke-miterlimit="10" stroke-linecap="round" stroke-linejoin="round"/>
<path d="M31.2825 46.7414L18.9232 38.674" stroke="#263238" stroke-opacity="0.1" stroke-width="2.5" stroke-miterlimit="10" stroke-linecap="round" stroke-linejoin="round"/>
<path d="M17.0977 77.0266L4.66394 69.3735" stroke="#263238" stroke-opacity="0.1" stroke-width="2.5" stroke-miterlimit="10" stroke-linecap="round" stroke-linejoin="round"/>
<path d="M55.8059 20.4255L44.2675 13.3243" stroke="#263238" stroke-opacity="0.1" stroke-width="2.5" stroke-miterlimit="10" stroke-linecap="round" stroke-linejoin="round"/>
<path d="M80.8372 11.1971L67.7581 3.20685" stroke="#263238" stroke-opacity="0.1" stroke-width="2.5" stroke-miterlimit="10" stroke-linecap="round" stroke-linejoin="round"/>
<path d="M77.2442 12.0193C45.2289 20.3417 17.0465 56.5436 14.3505 92.8847C13.8557 99.6252 14.2743 105.898 15.4725 111.603C20.7883 136.688 41.4638 150.593 67.6818 143.864C99.9255 135.557 128.123 99.3618 130.799 62.8647C131.287 56.1393 130.877 49.8887 129.67 44.2C124.353 19.0768 103.611 5.15803 77.2442 12.0193Z" fill="#464545" fill-opacity="0.1"/>
<path d="M77.2459 12.0208C45.224 20.3365 17.0564 56.5468 14.3538 92.8913C13.8623 99.6217 14.2794 105.891 15.4742 111.615C16.0138 114.21 16.7287 116.678 17.5976 118.993C17.1259 117.474 16.7055 115.891 16.3597 114.265C15.2475 108.931 14.8635 103.069 15.3154 96.7866C17.8475 62.8528 44.1549 29.0381 74.0651 21.2625C98.6662 14.8475 118.039 27.8504 123.024 51.3061C124.138 56.6173 124.525 62.4552 124.073 68.7377C121.574 102.817 95.2437 136.631 65.125 144.386C64.6682 144.51 64.1882 144.632 63.7331 144.731C65.0207 144.495 66.3364 144.213 67.6819 143.862C99.9372 135.569 128.126 99.36 130.797 62.8712C131.289 56.1409 130.87 49.8953 129.674 44.1966C124.345 19.0649 103.624 5.15457 77.2459 12.0208Z" fill="white"/>
<path d="M77.2442 12.0193C45.2289 20.3417 17.0465 56.5436 14.3505 92.8847C13.8557 99.6252 14.2743 105.898 15.4725 111.603C20.7883 136.688 41.4638 150.593 67.6818 143.864C99.9255 135.557 128.123 99.3618 130.799 62.8647C131.287 56.1393 130.877 49.8887 129.67 44.2C124.353 19.0768 103.611 5.15803 77.2442 12.0193Z" stroke="#263238" stroke-opacity="0.1" stroke-width="2.5" stroke-miterlimit="10" stroke-linecap="round" stroke-linejoin="round"/>
<path d="M120.384 49.6805C121.392 54.4431 121.738 59.6872 121.323 65.3171C119.092 95.8589 95.4606 126.176 68.468 133.128C46.5298 138.771 29.2172 127.142 24.7686 106.132C23.7574 101.36 23.4115 96.1004 23.8253 90.4521C26.0661 60.0277 49.6808 29.7057 76.4731 22.7337C98.552 16.9981 115.932 28.6555 120.384 49.6805Z" stroke="white" stroke-width="2.5" stroke-miterlimit="10" stroke-linecap="round" stroke-linejoin="round"/>
<path d="M94.1348 68.3837C94.0553 68.1488 93.7045 67.7311 93.0889 67.1305C92.4716 66.53 91.6474 65.8522 90.6147 65.1007C89.5803 64.3475 88.3954 63.5992 87.0615 62.851C85.7243 62.1045 84.3142 61.4972 82.8314 61.0292L78.3679 71.5727L80.7991 72.6413C83.3544 73.8408 85.6034 75.057 87.543 76.2917C89.4827 77.5264 90.9854 78.9104 92.0479 80.442C93.112 81.9736 93.6946 83.7166 93.8005 85.6693C93.9014 87.6237 93.4199 89.8682 92.3474 92.3997C91.0996 95.3472 89.4761 97.7612 87.4769 99.6401C85.4793 101.522 83.26 102.965 80.8239 103.97C78.3845 104.976 75.8027 105.612 73.077 105.879C70.3529 106.144 67.6206 106.105 64.8816 105.763L61.0735 114.758L55.2629 113.794L59.1041 104.721C55.3622 103.767 51.8388 102.41 48.5305 100.643C45.2222 98.8768 42.4485 96.81 40.2043 94.448L50.9616 84.3675C51.0758 84.6628 51.4978 85.1912 52.231 85.9478C52.9608 86.7061 53.9472 87.5331 55.1884 88.4306C56.4297 89.3298 57.8794 90.234 59.536 91.1432C61.1926 92.0541 62.9767 92.809 64.8882 93.4012L69.254 83.0892L65.6727 81.3328C63.2498 80.1015 61.2192 78.8651 59.5824 77.6254C57.944 76.3856 56.7176 75.0604 55.9017 73.6529C55.0858 72.2454 54.6837 70.7121 54.6953 69.0547C54.7068 67.3973 55.1504 65.5335 56.0258 63.4667C57.1628 60.7809 58.6787 58.4726 60.577 56.5467C62.4736 54.6209 64.5936 53.0507 66.942 51.8361C69.2871 50.6216 71.8076 49.7811 74.4986 49.3131C77.1879 48.8484 79.9351 48.7092 82.7403 48.897L86.0553 41.0662L91.8658 42.0308L88.5509 49.8616C92.0661 50.7776 95.1725 52.0962 97.8684 53.8157C100.564 55.5369 102.828 57.2127 104.66 58.8433L94.1348 68.3837ZM71.1109 63.8123C70.5631 65.1057 70.6227 66.2078 71.2863 67.1204C71.9499 68.033 73.1465 68.9372 74.871 69.8314L78.9091 60.2961C74.8478 59.9522 72.2479 61.1265 71.1109 63.8123ZM77.0042 91.1818C77.5736 89.8381 77.4279 88.6923 76.5657 87.7478C75.7034 86.8017 74.4225 85.8572 72.7212 84.9094L68.7807 94.2148C73.1696 94.7751 75.9103 93.7669 77.0042 91.1818Z" fill="white"/>
</svg>
