<svg width="435" height="240" viewBox="0 0 435 240" fill="none" xmlns="http://www.w3.org/2000/svg">
<g clip-path="url(#clip0_2102_19980)">
<rect width="435" height="240" rx="10" fill="url(#paint0_linear_2102_19980)"/>
<g opacity="0.1">
<path d="M12.3833 183.297V122.884" stroke="white" stroke-opacity="0.39" stroke-width="2.5" stroke-miterlimit="10" stroke-linecap="round" stroke-linejoin="round"/>
<path d="M289.853 246.947V186.532" stroke="white" stroke-opacity="0.39" stroke-width="2.5" stroke-miterlimit="10" stroke-linecap="round" stroke-linejoin="round"/>
<path d="M283.629 235.866V204.393" stroke="white" stroke-opacity="0.39" stroke-width="2.5" stroke-miterlimit="10" stroke-linecap="round" stroke-linejoin="round"/>
<path d="M165.643 56.1872V0.147461" stroke="white" stroke-opacity="0.39" stroke-width="2.5" stroke-miterlimit="10" stroke-linecap="round" stroke-linejoin="round"/>
<path d="M157.463 68.9333V37.4602" stroke="white" stroke-opacity="0.39" stroke-width="2.5" stroke-miterlimit="10" stroke-linecap="round" stroke-linejoin="round"/>
<path d="M207.257 75.4289V43.9558" stroke="white" stroke-opacity="0.39" stroke-width="2.5" stroke-miterlimit="10" stroke-linecap="round" stroke-linejoin="round"/>
<path d="M283.629 189.134V169.446" stroke="white" stroke-opacity="0.39" stroke-width="2.5" stroke-miterlimit="10" stroke-linecap="round" stroke-linejoin="round"/>
<path d="M327.365 44.5279V24.8401" stroke="white" stroke-opacity="0.39" stroke-width="2.5" stroke-miterlimit="10" stroke-linecap="round" stroke-linejoin="round"/>
<path d="M144.079 243.06V223.373" stroke="white" stroke-opacity="0.39" stroke-width="2.5" stroke-miterlimit="10" stroke-linecap="round" stroke-linejoin="round"/>
<path d="M92.5254 2.56176V-40.9495" stroke="white" stroke-opacity="0.39" stroke-width="2.5" stroke-miterlimit="10" stroke-linecap="round" stroke-linejoin="round"/>
<path d="M270.594 261.279V217.769" stroke="white" stroke-opacity="0.39" stroke-width="2.5" stroke-miterlimit="10" stroke-linecap="round" stroke-linejoin="round"/>
<path d="M334.528 81.4471V37.9368" stroke="white" stroke-opacity="0.39" stroke-width="2.5" stroke-miterlimit="10" stroke-linecap="round" stroke-linejoin="round"/>
<path d="M202.004 -71.9999L180.085 4.39087L193.121 8.1312L215.04 -68.2595L202.004 -71.9999Z" fill="#464545" fill-opacity="0.1"/>
<path d="M210.632 -69.5238L188.713 6.86694L193.121 8.1318L215.04 -68.2589L210.632 -69.5238Z" fill="white"/>
<path d="M202.004 -71.9999L180.085 4.39087L193.121 8.1312L215.04 -68.2595L202.004 -71.9999Z" stroke="#263238" stroke-opacity="0.1" stroke-width="2.5" stroke-miterlimit="10" stroke-linecap="round" stroke-linejoin="round"/>
<path d="M194.952 1.71713L187.125 -0.528809" stroke="#263238" stroke-opacity="0.1" stroke-width="2.5" stroke-miterlimit="10" stroke-linecap="round" stroke-linejoin="round"/>
<path d="M250.25 89.7065C266.862 86.1727 286.32 68.0076 293.664 49.1346C295.02 45.6361 295.875 42.3587 296.247 39.3469C297.06 32.8937 295.681 27.7393 292.464 24.4809L286.507 18.606C289.724 21.8652 291.104 27.0187 290.287 33.4837C289.907 36.4847 289.064 39.7611 287.704 43.2714C280.36 62.1444 260.905 80.2986 244.283 83.8334C237.278 85.3134 231.875 84.0028 228.497 80.5832L234.454 86.4582C237.833 89.876 243.236 91.1866 250.25 89.7065Z" fill="#464545" fill-opacity="0.1"/>
<path d="M250.25 89.7065C266.862 86.1727 286.32 68.0076 293.664 49.1346C295.02 45.6361 295.875 42.3587 296.247 39.3469C297.06 32.8937 295.681 27.7393 292.464 24.4809L286.507 18.606C289.724 21.8652 291.104 27.0187 290.287 33.4837C289.907 36.4847 289.064 39.7611 287.704 43.2714C280.36 62.1444 260.905 80.2986 244.283 83.8334C237.278 85.3134 231.875 84.0028 228.497 80.5832L234.454 86.4582C237.833 89.876 243.236 91.1866 250.25 89.7065Z" stroke="#263238" stroke-opacity="0.1" stroke-width="2.5" stroke-miterlimit="10" stroke-linecap="round" stroke-linejoin="round"/>
<path d="M290.287 33.4827L296.248 39.3468" stroke="#263238" stroke-opacity="0.1" stroke-width="2.5" stroke-miterlimit="10" stroke-linecap="round" stroke-linejoin="round"/>
<path d="M271.945 66.8875L277.949 72.7325" stroke="#263238" stroke-opacity="0.1" stroke-width="2.5" stroke-miterlimit="10" stroke-linecap="round" stroke-linejoin="round"/>
<path d="M283.748 51.4602L289.853 57.0877" stroke="#263238" stroke-opacity="0.1" stroke-width="2.5" stroke-miterlimit="10" stroke-linecap="round" stroke-linejoin="round"/>
<path d="M255.888 79.9849L261.645 85.2897" stroke="#263238" stroke-opacity="0.1" stroke-width="2.5" stroke-miterlimit="10" stroke-linecap="round" stroke-linejoin="round"/>
<path d="M242.44 84.1621L248.778 89.9664" stroke="#263238" stroke-opacity="0.1" stroke-width="2.5" stroke-miterlimit="10" stroke-linecap="round" stroke-linejoin="round"/>
<path d="M243.923 84.2273C260.192 81.0868 279.56 63.0168 287.161 43.8629C288.569 40.31 289.471 36.9683 289.914 33.8976C291.84 20.3911 284.704 12.2004 271.396 14.7273C255.025 17.8506 235.65 35.916 228.032 55.1542C226.63 58.6999 225.728 62.0289 225.291 65.0924C223.359 78.617 230.522 86.8176 243.923 84.2273Z" fill="#464545" fill-opacity="0.1"/>
<path d="M290.216 29.3264C288.35 21.8418 282.05 17.9372 272.442 19.7644C256.473 22.8088 237.581 40.4347 230.145 59.2025C228.778 62.6648 227.894 65.9113 227.475 68.895C226.836 73.3597 227.214 77.2271 228.497 80.2996C225.536 76.8609 224.365 71.5941 225.286 65.0893C225.727 62.0276 226.624 58.7004 228.027 55.1565C235.656 35.9147 255.022 17.8538 271.398 14.7278C283.124 12.4982 290.063 18.5998 290.216 29.3264Z" fill="white"/>
<path d="M243.923 84.2273C260.192 81.0868 279.56 63.0168 287.161 43.8629C288.569 40.31 289.471 36.9683 289.914 33.8976C291.84 20.3911 284.704 12.2004 271.396 14.7273C255.025 17.8506 235.65 35.916 228.032 55.1542C226.63 58.6999 225.728 62.0289 225.291 65.0924C223.359 78.617 230.522 86.8176 243.923 84.2273Z" stroke="#263238" stroke-opacity="0.1" stroke-width="2.5" stroke-miterlimit="10" stroke-linecap="round" stroke-linejoin="round"/>
<path d="M230.545 62.5552C230.911 59.9911 231.668 57.1978 232.844 54.2295C239.216 38.1299 255.45 22.9993 269.155 20.3863C280.294 18.2654 286.271 25.1156 284.656 36.4287C284.289 38.9991 283.53 41.7997 282.351 44.7771C275.996 60.8132 259.767 75.9484 246.152 78.5804C234.933 80.7439 228.93 73.8746 230.545 62.5552Z" stroke="white" stroke-width="2.5" stroke-miterlimit="10" stroke-linecap="round" stroke-linejoin="round"/>
<path d="M254.494 42.3545C254.352 42.4497 254.068 42.7044 253.645 43.1195C253.222 43.5346 252.726 44.0557 252.16 44.6838C251.592 45.3128 251.006 46.0026 250.399 46.7557C249.791 47.5098 249.253 48.2567 248.783 48.9981L254.063 48.0944L255.004 46.8002C256.036 45.4198 257.033 44.1627 257.999 43.0297C258.964 41.8968 259.951 40.9071 260.959 40.0623C261.968 39.2176 263.027 38.517 264.135 37.9605C265.246 37.4058 266.435 37.0179 267.703 36.8013C269.178 36.5484 270.303 36.5928 271.075 36.9336C271.848 37.2735 272.345 37.82 272.565 38.5732C272.786 39.3264 272.779 40.2364 272.545 41.304C272.311 42.3708 271.905 43.5201 271.326 44.7527L275.831 43.9823L274.472 46.6588L269.929 47.4355C268.867 49.2464 267.61 51.0727 266.155 52.9153C264.699 54.7579 263.15 56.4573 261.511 58.0126L257.375 56.17C257.557 56.044 257.911 55.7304 258.439 55.2265C258.966 54.7235 259.568 54.0954 260.247 53.3413C260.925 52.5881 261.636 51.7461 262.379 50.8162C263.123 49.8863 263.796 48.9446 264.397 47.9911L259.233 48.8748L257.745 50.8289C256.713 52.1621 255.734 53.334 254.81 54.341C253.884 55.3498 252.969 56.209 252.065 56.9178C251.163 57.6274 250.245 58.1975 249.318 58.6271C248.391 59.0577 247.409 59.3604 246.374 59.538C245.028 59.7682 243.948 59.741 243.136 59.4546C242.324 59.1682 241.742 58.696 241.392 58.0353C241.041 57.3755 240.925 56.5452 241.042 55.5455C241.16 54.5458 241.469 53.4365 241.969 52.2174L238.047 52.8881L239.405 50.2117L243.327 49.541C244.336 47.8343 245.512 46.1929 246.856 44.6167C248.2 43.0406 249.458 41.6575 250.63 40.4648L254.494 42.3545ZM248.691 53.1573C249.339 53.0467 249.965 52.7322 250.57 52.2165C251.174 51.6999 251.85 50.9639 252.594 50.0105L247.818 50.8271C247.054 52.6108 247.346 53.3875 248.691 53.1573ZM264.859 43.5201C264.186 43.6352 263.524 43.9959 262.874 44.6032C262.223 45.2113 261.512 45.9935 260.742 46.9515L265.402 46.1539C266.334 44.1772 266.155 43.2989 264.859 43.5201Z" fill="white"/>
<path d="M194.287 228.655C211.601 230.69 236.498 219.436 249.851 203.506C252.321 200.551 254.231 197.646 255.585 194.841C258.5 188.835 258.856 183.37 256.801 179.143L252.944 171.47C254.998 175.697 254.642 181.161 251.721 187.178C250.364 189.97 248.464 192.878 245.987 195.842C232.634 211.772 207.744 223.016 190.42 220.978C183.124 220.111 178.302 217.058 176.143 212.622L180 220.295C182.159 224.731 186.981 227.785 194.287 228.655Z" fill="#464545" fill-opacity="0.1"/>
<path d="M194.287 228.655C211.601 230.69 236.498 219.436 249.851 203.506C252.321 200.551 254.231 197.646 255.585 194.841C258.5 188.835 258.856 183.37 256.801 179.143L252.944 171.47C254.998 175.697 254.642 181.161 251.721 187.178C250.364 189.97 248.464 192.878 245.987 195.842C232.634 211.772 207.744 223.016 190.42 220.978C183.124 220.111 178.302 217.058 176.143 212.622L180 220.295C182.159 224.731 186.981 227.785 194.287 228.655Z" stroke="#263238" stroke-opacity="0.1" stroke-width="2.5" stroke-miterlimit="10" stroke-linecap="round" stroke-linejoin="round"/>
<path d="M251.72 187.178L255.584 194.841" stroke="#263238" stroke-opacity="0.1" stroke-width="2.5" stroke-miterlimit="10" stroke-linecap="round" stroke-linejoin="round"/>
<path d="M222.892 213.614L226.804 221.273" stroke="#263238" stroke-opacity="0.1" stroke-width="2.5" stroke-miterlimit="10" stroke-linecap="round" stroke-linejoin="round"/>
<path d="M239.445 202.503L243.527 209.983" stroke="#263238" stroke-opacity="0.1" stroke-width="2.5" stroke-miterlimit="10" stroke-linecap="round" stroke-linejoin="round"/>
<path d="M202.969 221.061L206.819 228.113" stroke="#263238" stroke-opacity="0.1" stroke-width="2.5" stroke-miterlimit="10" stroke-linecap="round" stroke-linejoin="round"/>
<path d="M188.521 220.693L192.77 228.423" stroke="#263238" stroke-opacity="0.1" stroke-width="2.5" stroke-miterlimit="10" stroke-linecap="round" stroke-linejoin="round"/>
<path d="M189.939 221.245C206.789 223.549 231.568 212.359 245.264 196.24C247.802 193.249 249.779 190.298 251.221 187.458C257.541 174.962 253.3 164.65 239.53 162.725C222.586 160.371 197.803 171.555 184.063 187.748C181.532 190.734 179.559 193.673 178.126 196.507C171.795 209.021 176.06 219.352 189.939 221.245Z" fill="#464545" fill-opacity="0.1"/>
<path d="M253.019 183.114C253.67 175.223 248.831 169.354 238.888 167.967C222.362 165.669 198.192 176.584 184.784 192.381C182.315 195.297 180.387 198.162 178.997 200.925C176.906 205.055 176 208.939 176.236 212.348C174.49 208.03 175.086 202.525 178.123 196.504C179.559 193.673 181.527 190.734 184.058 187.75C197.809 171.556 222.583 160.373 239.532 162.725C251.667 164.419 256.403 172.636 253.019 183.114Z" fill="white"/>
<path d="M189.939 221.245C206.789 223.549 231.568 212.359 245.264 196.24C247.802 193.249 249.779 190.298 251.221 187.458C257.541 174.962 253.3 164.65 239.53 162.725C222.586 160.371 197.803 171.555 184.063 187.748C181.532 190.734 179.559 193.673 178.126 196.507C171.795 209.021 176.06 219.352 189.939 221.245Z" stroke="#263238" stroke-opacity="0.1" stroke-width="2.5" stroke-miterlimit="10" stroke-linecap="round" stroke-linejoin="round"/>
<path d="M184.07 195.772C185.27 193.399 186.926 190.933 189.046 188.435C200.541 174.881 221.305 165.517 235.488 167.489C247.014 169.094 250.57 177.722 245.276 188.188C244.073 190.565 242.414 193.039 240.286 195.546C228.827 209.043 208.069 218.414 193.966 216.49C182.348 214.898 178.772 206.244 184.07 195.772Z" stroke="white" stroke-width="2.5" stroke-miterlimit="10" stroke-linecap="round" stroke-linejoin="round"/>
<path d="M214.003 184.019C213.833 184.064 213.474 184.219 212.926 184.483C212.377 184.747 211.724 185.09 210.966 185.514C210.208 185.939 209.41 186.417 208.572 186.949C207.733 187.482 206.964 188.031 206.262 188.597L211.693 189.457L213.035 188.509C214.492 187.507 215.876 186.614 217.187 185.83C218.498 185.046 219.783 184.41 221.042 183.919C222.301 183.43 223.561 183.097 224.822 182.921C226.083 182.747 227.368 182.762 228.671 182.969C230.189 183.209 231.268 183.622 231.907 184.208C232.546 184.792 232.849 185.487 232.816 186.292C232.782 187.097 232.477 187.98 231.897 188.94C231.317 189.9 230.543 190.885 229.576 191.892L234.21 192.626L232.008 194.78L227.335 194.04C225.707 195.451 223.884 196.812 221.862 198.125C219.839 199.437 217.775 200.579 215.668 201.551L212.254 198.397C212.473 198.335 212.921 198.146 213.599 197.83C214.277 197.515 215.07 197.102 215.977 196.593C216.885 196.083 217.853 195.5 218.881 194.84C219.911 194.181 220.875 193.487 221.775 192.759L216.463 191.918L214.373 193.328C212.932 194.285 211.594 195.101 210.364 195.776C209.132 196.452 207.96 196.986 206.847 197.378C205.735 197.77 204.656 198.023 203.614 198.135C202.571 198.249 201.517 198.22 200.451 198.051C199.067 197.832 198.026 197.45 197.331 196.905C196.636 196.359 196.225 195.708 196.103 194.951C195.98 194.194 196.139 193.348 196.582 192.415C197.026 191.482 197.692 190.505 198.579 189.484L194.546 188.845L196.747 186.691L200.781 187.33C202.322 186.003 204.006 184.794 205.832 183.705C207.657 182.615 209.336 181.684 210.867 180.911L214.003 184.019ZM204.806 192.61C205.472 192.715 206.184 192.617 206.942 192.314C207.7 192.011 208.599 191.518 209.636 190.836L204.724 190.057C203.394 191.54 203.422 192.391 204.806 192.61ZM223.697 188.564C223.004 188.455 222.242 188.588 221.409 188.963C220.576 189.339 219.628 189.866 218.563 190.544L223.356 191.303C224.913 189.689 225.028 188.776 223.697 188.564Z" fill="white"/>
<path d="M43.4245 10.6609C52.6675 21.8579 74.9619 36.5028 93.2031 43.3412C96.5829 44.6055 99.5893 45.5191 102.194 46.0892C107.782 47.3228 111.469 46.9865 112.904 45.2481L116.638 37.8822C115.204 39.6206 111.517 39.956 105.918 38.7197C103.32 38.1451 100.317 37.2387 96.9273 35.9707C78.6861 29.1323 56.4016 14.4911 47.1541 3.28678C43.265 -1.43259 42.2707 -4.80693 43.7744 -6.63232L40.0402 0.733594C38.5365 2.5608 39.5317 5.93424 43.4245 10.6609Z" fill="#464545" fill-opacity="0.1"/>
<path d="M43.4245 10.6609C52.6675 21.8579 74.9619 36.5028 93.2031 43.3412C96.5829 44.6055 99.5893 45.5191 102.194 46.0892C107.782 47.3228 111.469 46.9865 112.904 45.2481L116.638 37.8822C115.204 39.6206 111.517 39.956 105.918 38.7197C103.32 38.1451 100.317 37.2387 96.9273 35.9707C78.6861 29.1323 56.4016 14.4911 47.1541 3.28678C43.265 -1.43259 42.2707 -4.80693 43.7744 -6.63232L40.0402 0.733594C38.5365 2.5608 39.5317 5.93424 43.4245 10.6609Z" stroke="#263238" stroke-opacity="0.1" stroke-width="2.5" stroke-miterlimit="10" stroke-linecap="round" stroke-linejoin="round"/>
<path d="M105.918 38.72L101.757 45.2457" stroke="#263238" stroke-opacity="0.1" stroke-width="2.5" stroke-miterlimit="10" stroke-linecap="round" stroke-linejoin="round"/>
<path d="M71.5893 23.1396L67.46 29.6953" stroke="#263238" stroke-opacity="0.1" stroke-width="2.5" stroke-miterlimit="10" stroke-linecap="round" stroke-linejoin="round"/>
<path d="M88.7174 32.5039L84.8047 39.1493" stroke="#263238" stroke-opacity="0.1" stroke-width="2.5" stroke-miterlimit="10" stroke-linecap="round" stroke-linejoin="round"/>
<path d="M54.7383 11.261L50.9561 17.7151" stroke="#263238" stroke-opacity="0.1" stroke-width="2.5" stroke-miterlimit="10" stroke-linecap="round" stroke-linejoin="round"/>
<path d="M46.1799 2.05322L42.2119 8.83002" stroke="#263238" stroke-opacity="0.1" stroke-width="2.5" stroke-miterlimit="10" stroke-linecap="round" stroke-linejoin="round"/>
<path d="M46.6926 3.01049C55.4824 13.9411 77.6653 28.517 96.2338 35.553C99.677 36.8564 102.755 37.808 105.435 38.4316C117.215 41.1579 121.184 37.4074 114.029 28.4708C105.214 17.475 83.0327 2.89538 64.3882 -4.16057C60.9531 -5.45937 57.886 -6.41013 55.2141 -7.02826C43.4161 -9.76091 39.4499 -5.9923 46.6926 3.01049Z" fill="#464545" fill-opacity="0.1"/>
<path d="M109.289 39.1267C114.696 38.7288 115.48 35.0554 110.311 28.6022C101.714 17.8773 80.0768 3.65938 61.8873 -3.22708C58.5329 -4.49507 55.541 -5.42408 52.9407 -6.02227C49.0452 -6.925 46.027 -7.10083 44.0059 -6.60143C45.6853 -8.1531 49.5446 -8.34072 55.2156 -7.03194C57.8875 -6.41109 60.9519 -5.46396 64.3861 -4.16516C83.037 2.89804 105.212 17.4722 114.031 28.4707C120.338 36.3479 118.002 40.198 109.289 39.1267Z" fill="white"/>
<path d="M46.6926 3.01049C55.4824 13.9411 77.6653 28.517 96.2338 35.553C99.677 36.8564 102.755 37.8081 105.435 38.4316C117.215 41.1579 121.184 37.4074 114.029 28.4708C105.214 17.475 83.0327 2.89538 64.3882 -4.16057C60.9531 -5.45937 57.886 -6.41013 55.2141 -7.02826C43.4161 -9.76091 39.4499 -5.9923 46.6926 3.01049Z" stroke="#263238" stroke-opacity="0.1" stroke-width="2.5" stroke-miterlimit="10" stroke-linecap="round" stroke-linejoin="round"/>
<path d="M58.7298 -2.36051C60.8897 -1.71156 63.3939 -0.796149 66.2136 0.391171C81.501 6.82899 100.212 18.8237 108.063 27.2192C114.441 34.0413 111.62 36.3425 102.091 33.4794C99.9262 32.8286 97.4138 31.9114 94.5869 30.7204C79.3557 24.3025 60.645 12.3106 52.8159 3.96401C46.3699 -2.91248 49.195 -5.22549 58.7298 -2.36051Z" stroke="white" stroke-width="2" stroke-miterlimit="10" stroke-linecap="round" stroke-linejoin="round"/>
<path d="M84.9757 14.4586C84.8434 14.3553 84.5262 14.1432 84.0259 13.8224C83.5247 13.5015 82.9093 13.1227 82.1787 12.6849C81.4473 12.2471 80.6588 11.7903 79.8104 11.3127C78.9621 10.835 78.1455 10.4036 77.3588 10.0166L80.1168 13.5514L81.5352 14.3055C83.0588 15.1275 84.4673 15.9142 85.7634 16.6656C87.0585 17.417 88.245 18.1674 89.3217 18.9161C90.3984 19.6647 91.3755 20.4297 92.2556 21.2128C93.1338 21.9959 93.9051 22.8116 94.5677 23.6608C95.3381 24.6487 95.7323 25.3756 95.7495 25.8415C95.7677 26.3074 95.5103 26.5711 94.9791 26.6327C94.4471 26.6944 93.7012 26.5911 92.7386 26.3219C91.7761 26.0527 90.6812 25.663 89.4522 25.1527L91.8051 28.1681L89.0969 26.9917L86.7241 23.9499C84.838 23.0617 82.8639 22.0448 80.8002 20.8965C78.7364 19.7481 76.7551 18.5553 74.8563 17.3182L74.7811 14.8275C74.9533 14.9599 75.3458 15.2254 75.9594 15.6233C76.5721 16.0212 77.3162 16.4816 78.1926 17.0055C79.0682 17.5294 80.028 18.0831 81.0721 18.6686C82.1171 19.2541 83.1449 19.7952 84.1537 20.291L81.4564 16.8333L79.2893 15.6514C77.8047 14.8348 76.4724 14.0698 75.295 13.3583C74.1167 12.6459 73.0645 11.9571 72.1382 11.2909C71.2128 10.6257 70.3962 9.96675 69.6901 9.3169C68.9832 8.66614 68.3605 7.99453 67.8194 7.30117C67.117 6.40026 66.7254 5.70056 66.6493 5.20297C66.5723 4.70539 66.7363 4.37819 67.1433 4.22321C67.5493 4.06731 68.1829 4.08181 69.0457 4.26671C69.9076 4.45251 70.9336 4.77517 72.1219 5.23288L70.0735 2.60718L72.7817 3.78363L74.83 6.40933C76.611 7.25133 78.4029 8.19575 80.2056 9.24258C82.0083 10.2894 83.6207 11.2583 85.0437 12.152L84.9757 14.4586ZM73.9228 9.50361C74.2608 9.93775 74.7575 10.3791 75.411 10.8287C76.0645 11.2782 76.9246 11.7985 77.9887 12.3867L75.4944 9.1891C73.7433 8.49756 73.2204 8.60269 73.9228 9.50361ZM87.9857 21.0768C87.6341 20.6263 87.0857 20.156 86.3398 19.6656C85.5939 19.1753 84.683 18.6278 83.6044 18.0224L86.0389 21.1421C88.0129 21.965 88.6628 21.9442 87.9857 21.0768Z" fill="white"/>
<path d="M325.81 93.1765C308.285 97.6774 292.844 117.246 291.371 136.877C291.104 140.516 291.325 143.902 291.995 146.992C293.413 153.613 296.843 158.791 301.666 161.938L308.407 166.337C303.583 163.19 300.153 158.012 298.734 151.38C298.076 148.301 297.844 144.916 298.111 141.265C299.583 121.632 315.026 102.077 332.561 97.5741C339.953 95.6862 346.544 96.7294 351.609 100.031L344.868 95.6318C339.805 92.3308 333.214 91.2876 325.81 93.1765Z" fill="#464545" fill-opacity="0.1"/>
<path d="M325.81 93.1765C308.285 97.6774 292.844 117.246 291.371 136.877C291.104 140.516 291.325 143.902 291.995 146.992C293.413 153.613 296.843 158.791 301.666 161.938L308.407 166.337C303.583 163.19 300.153 158.012 298.734 151.38C298.076 148.301 297.844 144.916 298.111 141.265C299.583 121.632 315.026 102.077 332.561 97.5741C339.953 95.6862 346.544 96.7294 351.609 100.031L344.868 95.6318C339.805 92.3308 333.214 91.2876 325.81 93.1765Z" stroke="#263238" stroke-opacity="0.1" stroke-width="2.5" stroke-miterlimit="10" stroke-linecap="round" stroke-linejoin="round"/>
<path d="M298.735 151.38L291.996 146.992" stroke="#263238" stroke-opacity="0.1" stroke-width="2.5" stroke-miterlimit="10" stroke-linecap="round" stroke-linejoin="round"/>
<path d="M307.389 116.342L300.621 111.983" stroke="#263238" stroke-opacity="0.1" stroke-width="2.5" stroke-miterlimit="10" stroke-linecap="round" stroke-linejoin="round"/>
<path d="M299.621 132.705L292.812 128.57" stroke="#263238" stroke-opacity="0.1" stroke-width="2.5" stroke-miterlimit="10" stroke-linecap="round" stroke-linejoin="round"/>
<path d="M320.82 102.124L314.5 98.2874" stroke="#263238" stroke-opacity="0.1" stroke-width="2.5" stroke-miterlimit="10" stroke-linecap="round" stroke-linejoin="round"/>
<path d="M334.528 97.1382L327.365 92.8213" stroke="#263238" stroke-opacity="0.1" stroke-width="2.5" stroke-miterlimit="10" stroke-linecap="round" stroke-linejoin="round"/>
<path d="M332.56 97.5824C315.027 102.079 299.592 121.638 298.116 141.272C297.845 144.914 298.074 148.303 298.73 151.385C301.642 164.938 312.965 172.451 327.323 168.815C344.982 164.327 360.424 144.772 361.89 125.053C362.157 121.419 361.932 118.042 361.271 114.969C358.359 101.395 347 93.8754 332.56 97.5824Z" fill="#464545" fill-opacity="0.1"/>
<path d="M332.561 97.5831C315.024 102.076 299.598 121.64 298.118 141.276C297.848 144.912 298.077 148.299 298.731 151.391C299.027 152.794 299.418 154.127 299.894 155.378C299.636 154.557 299.405 153.702 299.216 152.823C298.607 149.941 298.397 146.774 298.644 143.38C300.031 125.046 314.438 106.777 330.819 102.576C344.292 99.1103 354.901 106.135 357.631 118.808C358.241 121.678 358.453 124.832 358.206 128.226C356.837 146.639 342.417 164.907 325.923 169.097C325.672 169.164 325.41 169.23 325.16 169.284C325.865 169.156 326.586 169.004 327.323 168.814C344.988 164.333 360.426 144.771 361.888 125.056C362.158 121.42 361.928 118.046 361.273 114.967C358.355 101.389 347.007 93.8734 332.561 97.5831Z" fill="white"/>
<path d="M332.56 97.5824C315.027 102.079 299.592 121.638 298.116 141.272C297.845 144.914 298.074 148.303 298.73 151.385C301.642 164.938 312.965 172.451 327.323 168.815C344.982 164.327 360.424 144.772 361.89 125.053C362.157 121.419 361.932 118.042 361.271 114.969C358.359 101.395 347 93.8754 332.56 97.5824Z" stroke="#263238" stroke-opacity="0.1" stroke-width="2.5" stroke-miterlimit="10" stroke-linecap="round" stroke-linejoin="round"/>
<path d="M356.186 117.93C356.738 120.503 356.928 123.336 356.7 126.378C355.478 142.879 342.536 159.259 327.754 163.015C315.739 166.064 306.258 159.781 303.822 148.43C303.268 145.851 303.078 143.01 303.305 139.958C304.532 123.52 317.465 107.138 332.138 103.371C344.23 100.272 353.748 106.571 356.186 117.93Z" stroke="white" stroke-width="2.5" stroke-miterlimit="10" stroke-linecap="round" stroke-linejoin="round"/>
<path d="M341.811 128.035C341.767 127.908 341.575 127.682 341.238 127.358C340.9 127.033 340.448 126.667 339.883 126.261C339.316 125.854 338.667 125.45 337.937 125.046C337.205 124.642 336.432 124.314 335.62 124.061L333.176 129.758L334.507 130.335C335.907 130.983 337.138 131.64 338.201 132.307C339.263 132.974 340.086 133.722 340.668 134.55C341.251 135.377 341.57 136.319 341.628 137.374C341.683 138.43 341.419 139.642 340.832 141.01C340.148 142.602 339.259 143.907 338.164 144.922C337.07 145.939 335.855 146.718 334.521 147.261C333.185 147.805 331.771 148.148 330.278 148.293C328.786 148.436 327.29 148.415 325.79 148.23L323.704 153.09L320.522 152.569L322.626 147.667C320.577 147.151 318.647 146.418 316.835 145.464C315.023 144.509 313.504 143.393 312.275 142.117L318.167 136.67C318.229 136.83 318.46 137.115 318.862 137.524C319.262 137.934 319.802 138.381 320.482 138.866C321.161 139.351 321.955 139.84 322.862 140.331C323.77 140.823 324.747 141.231 325.794 141.551L328.185 135.98L326.223 135.031C324.896 134.366 323.784 133.698 322.888 133.028C321.991 132.358 321.319 131.642 320.872 130.882C320.425 130.121 320.205 129.293 320.211 128.397C320.218 127.502 320.461 126.495 320.94 125.378C321.563 123.927 322.393 122.68 323.433 121.639C324.471 120.599 325.632 119.751 326.918 119.094C328.203 118.438 329.583 117.984 331.057 117.731C332.53 117.48 334.034 117.405 335.57 117.506L337.386 113.276L340.568 113.797L338.753 118.028C340.678 118.523 342.379 119.235 343.855 120.164C345.332 121.094 346.572 121.999 347.575 122.88L341.811 128.035ZM329.202 125.565C328.902 126.264 328.934 126.859 329.298 127.352C329.661 127.845 330.316 128.334 331.261 128.817L333.472 123.665C331.248 123.479 329.824 124.114 329.202 125.565ZM332.429 140.352C332.741 139.626 332.661 139.007 332.189 138.497C331.717 137.986 331.015 137.475 330.083 136.963L327.925 141.991C330.329 142.293 331.83 141.749 332.429 140.352Z" fill="white"/>
<path d="M237.121 -14.2527C239.933 3.62058 257.942 20.8549 277.344 24.1902C280.942 24.802 284.333 24.9053 287.473 24.5319C294.199 23.7507 299.68 20.8295 303.272 16.3276L308.294 10.0366C304.702 14.5385 299.221 17.4597 292.483 18.2409C289.355 18.6026 285.964 18.511 282.355 17.8983C262.953 14.563 244.955 -2.6704 242.143 -20.5554C240.967 -28.0936 242.633 -34.5558 246.403 -39.2825L241.381 -32.9915C237.612 -28.264 235.946 -21.8017 237.121 -14.2527Z" fill="#464545" fill-opacity="0.1"/>
<path d="M237.121 -14.2527C239.933 3.62058 257.942 20.8549 277.344 24.1902C280.942 24.802 284.333 24.9054 287.473 24.5319C294.199 23.7507 299.68 20.8295 303.272 16.3276L308.294 10.0366C304.702 14.5385 299.221 17.4597 292.483 18.2409C289.355 18.6026 285.964 18.511 282.355 17.8983C262.953 14.563 244.955 -2.6704 242.143 -20.5554C240.967 -28.0936 242.633 -34.5558 246.403 -39.2825L241.381 -32.9915C237.612 -28.264 235.946 -21.8017 237.121 -14.2527Z" stroke="#263238" stroke-opacity="0.1" stroke-width="2.5" stroke-miterlimit="10" stroke-linecap="round" stroke-linejoin="round"/>
<path d="M292.483 18.24L287.473 24.5319" stroke="#263238" stroke-opacity="0.1" stroke-width="2.5" stroke-miterlimit="10" stroke-linecap="round" stroke-linejoin="round"/>
<path d="M258.428 6.28955L253.445 12.6132" stroke="#263238" stroke-opacity="0.1" stroke-width="2.5" stroke-miterlimit="10" stroke-linecap="round" stroke-linejoin="round"/>
<path d="M273.977 15.5806L269.212 21.9658" stroke="#263238" stroke-opacity="0.1" stroke-width="2.5" stroke-miterlimit="10" stroke-linecap="round" stroke-linejoin="round"/>
<path d="M242.15 -20.5527C244.956 -2.67037 262.958 14.5557 282.362 17.8947C285.962 18.5111 289.357 18.6053 292.487 18.2455C306.255 16.6376 314.812 6.08136 312.56 -8.55803C309.773 -26.5636 291.776 -43.797 272.287 -47.1333C268.695 -47.7451 265.312 -47.8429 262.19 -47.4786C248.402 -45.8716 239.834 -35.28 242.15 -20.5527Z" fill="#464545" fill-opacity="0.1"/>
<path d="M242.151 -20.5525C244.954 -2.66747 262.96 14.5505 282.366 17.894C285.96 18.5085 289.354 18.6028 292.493 18.2466C293.917 18.0862 295.281 17.8233 296.572 17.468C295.731 17.6475 294.857 17.7952 293.964 17.8995C291.037 18.2312 287.865 18.1397 284.509 17.5705C266.391 14.4445 249.576 -1.63695 246.954 -18.3419C244.787 -32.084 252.789 -41.9759 265.665 -43.4868C268.579 -43.8213 271.739 -43.7315 275.094 -43.1623C293.293 -40.0472 310.106 -23.9531 312.707 -7.13487C312.75 -6.87928 312.79 -6.611 312.82 -6.35814C312.76 -7.07234 312.677 -7.80466 312.558 -8.55603C309.779 -26.5671 291.775 -43.7977 272.29 -47.1304C268.695 -47.7449 265.315 -47.8373 262.187 -47.4775C248.395 -45.8678 239.833 -35.2871 242.151 -20.5525Z" fill="white"/>
<path d="M242.15 -20.5527C244.956 -2.67037 262.958 14.5557 282.362 17.8947C285.962 18.5111 289.357 18.6053 292.487 18.2455C306.255 16.6376 314.812 6.08136 312.56 -8.55803C309.773 -26.5636 291.776 -43.797 272.287 -47.1333C268.695 -47.7451 265.312 -47.8429 262.19 -47.4786C248.402 -45.8716 239.834 -35.28 242.15 -20.5527Z" stroke="#263238" stroke-opacity="0.1" stroke-width="2.5" stroke-miterlimit="10" stroke-linecap="round" stroke-linejoin="round"/>
<path d="M264.654 -42.1337C267.268 -42.4383 270.106 -42.3567 273.113 -41.841C289.423 -39.0539 304.496 -24.6112 306.827 -9.53861C308.719 2.71164 301.561 11.5522 290.03 12.8963C287.41 13.2017 284.564 13.1202 281.547 12.6036C265.302 9.81743 250.225 -4.61712 247.872 -19.581C245.939 -31.9128 253.114 -40.7887 264.654 -42.1337Z" stroke="white" stroke-width="2.5" stroke-miterlimit="10" stroke-linecap="round" stroke-linejoin="round"/>
<path d="M273.345 -26.8618C273.214 -26.8301 272.971 -26.6615 272.617 -26.356C272.262 -26.0506 271.855 -25.6364 271.396 -25.1116C270.937 -24.5868 270.473 -23.9787 270.001 -23.2899C269.53 -22.5992 269.129 -21.8623 268.801 -21.0774L274.239 -18.1019L274.941 -19.3726C275.719 -20.704 276.49 -21.8678 277.256 -22.8621C278.021 -23.8563 278.843 -24.6041 279.723 -25.1053C280.602 -25.6065 281.57 -25.834 282.626 -25.7914C283.683 -25.7461 284.864 -25.3681 286.17 -24.653C287.69 -23.821 288.903 -22.8122 289.81 -21.6258C290.719 -20.4403 291.379 -19.156 291.793 -17.7756C292.207 -16.3943 292.414 -14.9541 292.415 -13.4532C292.416 -11.9541 292.253 -10.4668 291.926 -8.99125L296.565 -6.45256L295.742 -3.33471L291.064 -5.89515C290.356 -3.90481 289.442 -2.05313 288.319 -0.341034C287.197 1.37106 285.941 2.77772 284.554 3.87894L279.693 -2.50359C279.858 -2.55072 280.164 -2.75374 280.609 -3.11447C281.055 -3.47338 281.551 -3.96825 282.099 -4.59907C282.648 -5.22989 283.209 -5.9731 283.785 -6.8296C284.361 -7.6852 284.86 -8.61965 285.279 -9.63114L279.96 -12.5414L278.829 -10.6798C278.041 -9.42177 277.269 -8.37946 276.518 -7.55015C275.766 -6.72084 274.99 -6.11993 274.189 -5.74832C273.39 -5.37581 272.544 -5.23533 271.653 -5.32687C270.763 -5.41842 269.784 -5.75558 268.717 -6.34017C267.331 -7.09879 266.169 -8.04321 265.233 -9.17706C264.296 -10.31 263.562 -11.5472 263.031 -12.8895C262.5 -14.2309 262.179 -15.6475 262.069 -17.1384C261.959 -18.6285 262.028 -20.133 262.275 -21.653L258.236 -23.8627L259.058 -26.9805L263.097 -24.7708C263.773 -26.6397 264.644 -28.2657 265.71 -29.6479C266.775 -31.0292 267.795 -32.1775 268.768 -33.092L273.345 -26.8618ZM269.686 -14.5445C270.353 -14.1792 270.948 -14.1547 271.474 -14.4701C271.999 -14.7856 272.548 -15.391 273.119 -16.2847L268.201 -18.9765C267.804 -16.7804 268.3 -15.3031 269.686 -14.5445ZM284.713 -16.3499C284.02 -16.7297 283.396 -16.7088 282.843 -16.2874C282.289 -15.8659 281.715 -15.2161 281.117 -14.3369L285.916 -11.7103C286.446 -14.0741 286.046 -15.6203 284.713 -16.3499Z" fill="white"/>
<path d="M50.618 264.452C32.6178 266.283 11.3666 253.256 3.20039 235.342C1.69222 232.019 0.729677 228.765 0.291003 225.635C-0.666104 218.931 0.763214 212.887 4.20282 208.267L9.00829 201.81C5.56959 206.429 4.14028 212.474 5.1001 219.188C5.54603 222.305 6.4986 225.561 8.00949 228.895C16.1748 246.809 37.4233 259.825 55.4343 257.991C63.0232 257.208 68.8483 253.952 72.4601 249.103L67.6547 255.561C64.0429 260.41 58.2177 263.666 50.618 264.452Z" fill="#464545" fill-opacity="0.1"/>
<path d="M50.618 264.452C32.6178 266.283 11.3666 253.256 3.20039 235.342C1.69222 232.019 0.729677 228.765 0.291003 225.635C-0.666104 218.931 0.763214 212.887 4.20282 208.267L9.00829 201.81C5.56959 206.429 4.14028 212.474 5.1001 219.188C5.54603 222.305 6.4986 225.561 8.00949 228.895C16.1748 246.809 37.4233 259.825 55.4343 257.991C63.0232 257.208 68.8483 253.952 72.4601 249.103L67.6547 255.561C64.0429 260.41 58.2177 263.666 50.618 264.452Z" stroke="#263238" stroke-opacity="0.1" stroke-width="2.5" stroke-miterlimit="10" stroke-linecap="round" stroke-linejoin="round"/>
<path d="M5.10019 219.188L0.291992 225.635" stroke="#263238" stroke-opacity="0.1" stroke-width="2.5" stroke-miterlimit="10" stroke-linecap="round" stroke-linejoin="round"/>
<path d="M12.3837 236.408L7.42236 242.64" stroke="#263238" stroke-opacity="0.1" stroke-width="2.5" stroke-miterlimit="10" stroke-linecap="round" stroke-linejoin="round"/>
<path d="M55.43 257.985C37.4226 259.824 16.1813 246.802 8.01149 228.887C6.49879 225.563 5.54259 222.303 5.09394 219.185C3.14257 205.461 11.1728 194.498 25.9029 192.949C44.0245 191.06 65.2721 204.075 73.461 222.072C74.9673 225.39 75.9226 228.637 76.3658 231.749C78.3235 245.492 70.2624 256.474 55.43 257.985Z" fill="#464545" fill-opacity="0.1"/>
<path d="M76.3684 231.75C77.2131 237.67 76.1907 243.068 73.5777 247.422C74.765 243.927 75.1022 239.988 74.5067 235.795C74.0635 232.677 73.1028 229.436 71.5983 226.117C63.4057 208.116 42.16 195.104 24.0365 196.998C15.6555 197.877 9.4461 201.807 6.01465 207.563C8.67479 199.642 15.6791 194.028 25.9063 192.952C44.0207 191.061 65.2755 204.07 73.459 222.074C74.9644 225.391 75.9252 228.633 76.3684 231.75Z" fill="white"/>
<path d="M55.43 257.985C37.4226 259.824 16.1813 246.802 8.01149 228.887C6.49879 225.563 5.54259 222.303 5.09394 219.185C3.14257 205.461 11.1728 194.498 25.9029 192.949C44.0245 191.06 65.2721 204.075 73.461 222.072C74.9673 225.39 75.9226 228.637 76.3658 231.749C78.3235 245.492 70.2624 256.474 55.43 257.985Z" stroke="#263238" stroke-opacity="0.1" stroke-width="2.5" stroke-miterlimit="10" stroke-linecap="round" stroke-linejoin="round"/>
<path d="M53.0344 252.699C37.9635 254.234 20.1673 243.329 13.3362 228.328C12.0691 225.542 11.2652 222.81 10.8936 220.199C9.25759 208.705 15.9845 199.533 28.3127 198.243C43.4823 196.659 61.2867 207.558 68.1351 222.621C69.3994 225.397 70.2007 228.121 70.5714 230.726C72.2073 242.23 65.4514 251.429 53.0344 252.699Z" stroke="white" stroke-width="2.5" stroke-miterlimit="10" stroke-linecap="round" stroke-linejoin="round"/>
<path d="M49.9583 234.099C50.0217 233.991 50.0725 233.676 50.1105 233.159C50.1486 232.64 50.154 231.981 50.1241 231.181C50.0942 230.38 50.0172 229.492 49.8948 228.517C49.7715 227.541 49.5749 226.559 49.3039 225.573L44.0353 225.773L44.367 227.47C44.6878 229.275 44.9099 230.905 45.0322 232.363C45.1546 233.818 45.0902 235.059 44.8383 236.085C44.5863 237.11 44.1123 237.912 43.4171 238.492C42.7192 239.069 41.7386 239.383 40.4742 239.431C39.0023 239.488 37.6147 239.183 36.314 238.519C35.0134 237.856 33.8098 236.948 32.7031 235.797C31.5956 234.645 30.5841 233.312 29.666 231.796C28.7496 230.282 27.943 228.682 27.2487 226.998L22.755 227.169L21.3701 223.532L25.9028 223.36C25.1351 220.93 24.5831 218.52 24.2478 216.127C23.9124 213.735 23.8499 211.572 24.0565 209.641L31.0418 213.224C30.9657 213.369 30.8959 213.755 30.8342 214.382C30.7708 215.007 30.759 215.8 30.7971 216.762C30.8351 217.723 30.933 218.806 31.0916 220.011C31.2493 221.217 31.504 222.455 31.8575 223.724L37.0101 223.529L36.5896 220.979C36.3204 219.242 36.1717 217.733 36.1427 216.453C36.1128 215.17 36.2379 214.105 36.518 213.258C36.7971 212.41 37.2476 211.769 37.8693 211.336C38.4902 210.903 39.3177 210.667 40.3509 210.628C41.6932 210.577 43.0084 210.847 44.2954 211.44C45.5824 212.032 46.8042 212.849 47.9616 213.893C49.1181 214.936 50.1885 216.178 51.17 217.62C52.1507 219.061 53.0272 220.623 53.7994 222.304L57.7121 222.156L59.097 225.792L55.1843 225.94C55.8985 228.228 56.3399 230.385 56.5085 232.411C56.677 234.436 56.7323 236.198 56.6743 237.696L49.9583 234.099ZM44.7485 219.492C44.1023 219.516 43.7099 219.843 43.5694 220.472C43.4289 221.1 43.4516 222.035 43.6356 223.276L48.4002 223.095C47.309 220.642 46.0909 219.441 44.7485 219.492ZM36.3222 230.181C36.9938 230.156 37.3763 229.767 37.4705 229.016C37.5639 228.263 37.5313 227.267 37.3736 226.026L32.724 226.201C33.8315 228.902 35.0306 230.229 36.3222 230.181Z" fill="white"/>
<path d="M180.999 164.353C205.293 164.353 224.988 144.658 224.988 120.364C224.988 96.0697 205.293 76.3752 180.999 76.3752C156.705 76.3752 137.01 96.0697 137.01 120.364C137.01 144.658 156.705 164.353 180.999 164.353Z" fill="#464545" fill-opacity="0.1"/>
<path d="M216.583 146.247C220.546 139.642 222.828 131.913 222.828 123.637C222.828 99.3347 203.133 79.6397 178.842 79.6397C164.213 79.6397 151.254 86.769 143.251 97.7513C150.948 84.9455 164.977 76.375 181.004 76.375C205.295 76.375 224.99 96.07 224.99 120.361C224.99 130.034 221.868 138.987 216.583 146.247Z" fill="white"/>
<path d="M180.999 157.284C201.39 157.284 217.92 140.754 217.92 120.364C217.92 99.9731 201.39 83.4434 180.999 83.4434C160.609 83.4434 144.079 99.9731 144.079 120.364C144.079 140.754 160.609 157.284 180.999 157.284Z" stroke="white" stroke-width="2.5" stroke-miterlimit="10" stroke-linecap="round" stroke-linejoin="round"/>
<path d="M180.999 164.353C205.293 164.353 224.988 144.658 224.988 120.364C224.988 96.0697 205.293 76.3752 180.999 76.3752C156.705 76.3752 137.01 96.0697 137.01 120.364C137.01 144.658 156.705 164.353 180.999 164.353Z" stroke="#263238" stroke-opacity="0.1" stroke-width="2.5" stroke-miterlimit="10" stroke-linecap="round" stroke-linejoin="round"/>
<path d="M192.162 112.37C191.292 111.818 190.346 111.304 189.319 110.83C188.451 110.396 187.474 109.992 186.388 109.616C185.302 109.241 184.206 108.956 183.101 108.757V114.087C183.457 114.166 183.831 114.274 184.226 114.412C184.62 114.552 185.035 114.678 185.47 114.797C187.403 115.389 189.15 116.041 190.71 116.751C192.269 117.462 193.601 118.301 194.707 119.268C195.812 120.236 196.661 121.41 197.254 122.791C197.846 124.173 198.142 125.851 198.142 127.824C198.142 130.154 197.736 132.137 196.928 133.775C196.118 135.414 195.053 136.756 193.73 137.801C192.407 138.847 190.897 139.638 189.2 140.17C187.503 140.703 185.745 141.029 183.93 141.147V148.312H179.192V141.029C176.469 140.792 173.764 140.259 171.08 139.43C168.395 138.601 165.987 137.556 163.856 136.291L168.83 126.166C169.895 126.837 171.04 127.468 172.263 128.06C173.29 128.574 174.485 129.077 175.846 129.57C177.208 130.064 178.6 130.409 180.021 130.606V125.395C178.796 125.08 177.573 124.705 176.35 124.269C174.494 123.638 172.895 122.958 171.554 122.227C170.21 121.496 169.105 120.668 168.237 119.74C167.369 118.813 166.728 117.756 166.313 116.572C165.899 115.387 165.691 114.026 165.691 112.486C165.691 110.354 166.046 108.47 166.756 106.831C167.467 105.194 168.435 103.782 169.658 102.598C170.881 101.413 172.312 100.466 173.951 99.7554C175.59 99.0448 177.336 98.5916 179.191 98.3931V92.4121H183.929V98.452C185.232 98.6106 186.495 98.8472 187.719 99.1626C188.942 99.4789 190.117 99.8433 191.243 100.258C192.368 100.673 193.424 101.108 194.41 101.561C195.397 102.015 196.305 102.44 197.134 102.834L192.162 112.37ZM177.653 110.594C177.653 111.185 177.851 111.669 178.246 112.044C178.64 112.42 179.231 112.765 180.022 113.08V108.58C178.443 108.778 177.653 109.45 177.653 110.594ZM185.707 128.951C185.707 128.399 185.47 127.914 184.997 127.5C184.523 127.085 183.891 126.721 183.101 126.405V130.786C184.049 130.708 184.719 130.511 185.114 130.194C185.51 129.878 185.707 129.464 185.707 128.951Z" fill="white"/>
<path d="M44.3369 133.403C35.0668 147.047 33.6374 172.86 41.1756 191.027C42.5768 194.391 44.1801 197.262 45.9439 199.624C49.7116 204.695 54.1436 207.381 58.5893 207.502L66.7147 207.616C62.2691 207.494 57.8379 204.808 54.0639 199.728C52.3128 197.369 50.7022 194.504 49.2956 191.13C41.7574 172.963 43.1922 147.159 52.4687 133.509C56.3841 127.763 61.0527 125.05 65.7196 125.176L57.5941 125.061C52.9273 124.937 48.2587 127.65 44.3369 133.403Z" fill="#464545" fill-opacity="0.1"/>
<path d="M44.3369 133.403C35.0668 147.047 33.6374 172.86 41.1756 191.027C42.5768 194.391 44.1801 197.262 45.9439 199.624C49.7116 204.695 54.1436 207.381 58.5893 207.502L66.7147 207.616C62.2691 207.494 57.8379 204.808 54.0639 199.728C52.3128 197.369 50.7022 194.504 49.2956 191.13C41.7574 172.963 43.1922 147.159 52.4687 133.509C56.3841 127.763 61.0528 125.05 65.7196 125.176L57.5941 125.061C52.9273 124.937 48.2587 127.65 44.3369 133.403Z" stroke="#263238" stroke-opacity="0.1" stroke-width="2.5" stroke-miterlimit="10" stroke-linecap="round" stroke-linejoin="round"/>
<path d="M54.0648 199.729L45.9448 199.625" stroke="#263238" stroke-opacity="0.1" stroke-width="2.5" stroke-miterlimit="10" stroke-linecap="round" stroke-linejoin="round"/>
<path d="M44.4673 163.983L36.3301 163.921" stroke="#263238" stroke-opacity="0.1" stroke-width="2.5" stroke-miterlimit="10" stroke-linecap="round" stroke-linejoin="round"/>
<path d="M46.5639 182.731L38.501 182.89" stroke="#263238" stroke-opacity="0.1" stroke-width="2.5" stroke-miterlimit="10" stroke-linecap="round" stroke-linejoin="round"/>
<path d="M46.9199 144.008L39.3184 144.158" stroke="#263238" stroke-opacity="0.1" stroke-width="2.5" stroke-miterlimit="10" stroke-linecap="round" stroke-linejoin="round"/>
<path d="M53.5383 132.041L45.1953 132.231" stroke="#263238" stroke-opacity="0.1" stroke-width="2.5" stroke-miterlimit="10" stroke-linecap="round" stroke-linejoin="round"/>
<path d="M52.4562 132.99C43.1624 146.128 41.7313 171.814 49.2785 190.351C50.6806 193.788 52.293 196.737 54.0477 199.187C61.7762 209.949 72.2844 210.894 79.915 200.177C89.2921 186.983 90.7296 161.296 83.1398 142.688C81.7395 139.261 80.1334 136.32 78.3805 133.88C70.6421 123.1 60.1076 122.168 52.4562 132.99Z" fill="#464545" fill-opacity="0.1"/>
<path d="M56.9077 202.595C63.2458 206.587 70.2873 205.09 75.7943 197.35C84.9421 184.482 86.3379 159.427 78.9348 141.273C77.5662 137.926 76.0036 135.057 74.2915 132.683C71.7384 129.124 68.8734 126.667 65.9087 125.375C70.2954 125.796 74.6559 128.701 78.3828 133.88C80.1321 136.322 81.7399 139.258 83.1384 142.685C90.7246 161.301 89.2898 186.98 79.9118 200.179C73.1903 209.625 64.2256 210.011 56.9077 202.595Z" fill="white"/>
<path d="M52.4562 132.99C43.1624 146.128 41.7313 171.814 49.2785 190.351C50.6806 193.788 52.293 196.737 54.0477 199.187C61.7762 209.949 72.2844 210.894 79.915 200.177C89.2921 186.983 90.7296 161.296 83.1398 142.688C81.7395 139.261 80.1334 136.32 78.3805 133.88C70.6421 123.1 60.1076 122.168 52.4562 132.99Z" stroke="#263238" stroke-opacity="0.1" stroke-width="2.5" stroke-miterlimit="10" stroke-linecap="round" stroke-linejoin="round"/>
<path d="M76.4017 139.191C77.8691 141.234 79.216 143.701 80.3861 146.572C86.7414 162.141 85.5323 183.66 77.6815 194.704C71.299 203.677 62.5037 202.893 56.0324 193.878C54.5623 191.83 53.2109 189.356 52.0363 186.477C45.7118 170.963 46.9145 149.445 54.6901 138.448C61.0989 129.39 69.9249 130.17 76.4017 139.191Z" stroke="white" stroke-width="2.5" stroke-miterlimit="10" stroke-linecap="round" stroke-linejoin="round"/>
<path d="M73.1916 169.45C73.2279 169.288 73.2551 168.918 73.2732 168.343C73.2913 167.768 73.2877 167.07 73.2632 166.248C73.2378 165.426 73.1853 164.548 73.1046 163.611C73.0239 162.675 72.8989 161.79 72.7303 160.953L69.636 165.136L69.8463 166.676C70.0511 168.337 70.1961 169.889 70.2813 171.333C70.3665 172.775 70.3393 174.132 70.2016 175.403C70.0638 176.674 69.791 177.876 69.3877 179.011C68.9825 180.147 68.4097 181.217 67.6665 182.221C66.8018 183.391 65.9834 184.116 65.213 184.396C64.4426 184.678 63.7266 184.628 63.0668 184.248C62.406 183.868 61.7988 183.227 61.2459 182.32C60.693 181.415 60.2054 180.335 59.7821 179.084L57.1419 182.652L56.2954 179.862L58.9583 176.263C58.4852 174.281 58.1389 172.156 57.9205 169.885C57.7021 167.615 57.6459 165.382 57.7501 163.19L61.8876 161.702C61.8441 161.912 61.8069 162.371 61.7761 163.078C61.7444 163.785 61.7444 164.631 61.7761 165.615C61.8069 166.6 61.8749 167.667 61.9782 168.818C62.0816 169.97 62.2429 171.083 62.4622 172.156L65.4885 168.065L65.2184 165.695C65.0444 164.067 64.9438 162.588 64.9148 161.26C64.8858 159.932 64.9493 158.714 65.107 157.609C65.2638 156.505 65.5221 155.489 65.8837 154.564C66.2444 153.639 66.7284 152.767 67.3357 151.947C68.1242 150.881 68.8991 150.174 69.6614 149.828C70.4227 149.483 71.1487 149.423 71.8375 149.651C72.5273 149.877 73.1671 150.381 73.7563 151.161C74.3454 151.94 74.8747 152.926 75.3442 154.116L77.6427 151.01L78.4892 153.8L76.1907 156.906C76.6312 158.781 76.9104 160.721 77.0273 162.73C77.1442 164.737 77.1932 166.553 77.1723 168.177L73.1916 169.45ZM69.9985 157.977C69.6188 158.49 69.3913 159.13 69.3142 159.899C69.2372 160.668 69.259 161.637 69.3786 162.806L72.1774 159.023C71.513 157.26 70.7871 156.911 69.9985 157.977ZM65.1423 175.601C65.5366 175.068 65.7586 174.369 65.8067 173.506C65.8547 172.642 65.8266 171.616 65.7224 170.427L62.9915 174.119C63.6668 176.131 64.3828 176.626 65.1423 175.601Z" fill="white"/>
</g>
</g>
<defs>
<linearGradient id="paint0_linear_2102_19980" x1="188.5" y1="3.80178e-06" x2="324.5" y2="240" gradientUnits="userSpaceOnUse">
<stop stop-color="#DB5858"/>
<stop offset="1" stop-color="#ED5353"/>
</linearGradient>
<clipPath id="clip0_2102_19980">
<rect width="435" height="240" rx="10" fill="white"/>
</clipPath>
</defs>
</svg>
