<svg width="2640" height="2224" viewBox="0 0 2640 2224" fill="none" xmlns="http://www.w3.org/2000/svg">
<mask id="mask0_712_5659" style="mask-type:luminance" maskUnits="userSpaceOnUse" x="101" y="553" width="2337" height="1072">
<path d="M2437.25 553H101V1624.43H2437.25V553Z" fill="white"/>
</mask>
<g mask="url(#mask0_712_5659)">
<path d="M-390.112 1770.85C-384.118 1682.87 -377.869 1596.87 -371.539 1515.21C-365.195 1433.37 -358.577 1353.44 -351.872 1277.64C-345.181 1202.04 -338.209 1128.38 -331.151 1058.73C-324.119 989.355 -316.797 921.944 -309.389 858.367C-302.03 795.226 -294.365 733.972 -286.609 676.304C-278.928 619.214 -270.93 563.972 -262.839 512.109C-254.856 460.948 -246.541 411.527 -238.123 365.226C-229.847 319.717 -221.228 275.892 -212.506 234.969C-203.948 194.821 -195.047 156.321 -186.05 120.535C-177.248 85.5234 -168.088 52.0516 -158.826 21.0454C-149.795 -9.18094 -140.403 -37.9506 -130.912 -64.4626C-121.687 -90.2225 -112.093 -114.627 -102.397 -136.997C-93.0127 -158.639 -83.2495 -179.031 -73.3789 -197.604C-63.8665 -215.494 -53.9693 -232.23 -43.962 -247.346C-34.3565 -261.851 -24.3615 -275.288 -14.2604 -287.287C4.60873 -309.677 24.732 -328.066 45.5521 -341.939C64.3457 -354.446 84.3922 -363.731 105.134 -369.535C123.387 -374.629 142.84 -377.213 162.967 -377.213H163.543C196.757 -377.105 232.566 -370.236 273.018 -356.218C338.868 -333.338 398.606 -299.233 438.136 -276.664L439.04 -276.148C475.756 -255.179 498.533 -241.451 501.172 -239.857C502.407 -237.201 511.139 -218.501 526.551 -187.238C550.065 -139.549 573.319 -95.2012 597.645 -51.66C632.222 10.2182 668.024 68.4606 704.056 121.45C724.544 151.572 745.526 180.605 766.418 207.743C788.111 235.919 810.283 262.798 832.315 287.631C854.548 312.681 877.216 336.304 899.692 357.839C921.811 379.025 944.291 398.717 966.506 416.366C987.878 433.338 1009.53 448.837 1030.86 462.436C1050.93 475.222 1071.2 486.636 1091.11 496.359C1109.42 505.297 1127.86 513.022 1145.94 519.319C1162.17 524.968 1178.49 529.602 1194.43 533.092C1208.35 536.138 1222.34 538.391 1236.01 539.787C1247.56 540.963 1259.16 541.561 1270.48 541.561C1281.81 541.561 1293.41 540.963 1304.95 539.787C1318.63 538.39 1332.62 536.138 1346.54 533.092C1362.48 529.602 1378.8 524.968 1395.03 519.319C1413.1 513.021 1431.55 505.296 1449.86 496.359C1469.77 486.637 1490.04 475.222 1510.11 462.436C1531.43 448.839 1553.09 433.34 1574.46 416.366C1596.68 398.717 1619.16 379.025 1641.28 357.839C1663.76 336.3 1686.43 312.678 1708.65 287.631C1730.69 262.795 1752.86 235.919 1774.55 207.743C1795.45 180.598 1816.43 151.564 1836.91 121.448C1872.95 68.4582 1908.75 10.2174 1943.32 -51.6624C1967.65 -95.2012 1990.9 -139.549 2014.42 -187.238C2029.83 -218.498 2038.56 -237.198 2039.79 -239.854C2042.43 -241.446 2065.21 -255.176 2101.93 -276.148L2102.84 -276.672C2142.37 -299.239 2202.11 -333.341 2267.95 -356.219C2308.4 -370.236 2344.21 -377.106 2377.42 -377.213C2397.7 -377.154 2417.41 -374.68 2435.83 -369.536C2456.58 -363.732 2476.62 -354.448 2495.42 -341.94C2516.24 -328.067 2536.36 -309.678 2555.23 -287.288C2565.33 -275.289 2575.32 -261.852 2584.93 -247.347C2594.94 -232.231 2604.83 -215.496 2614.35 -197.605C2624.22 -179.022 2633.98 -158.633 2643.36 -136.998C2653.07 -114.616 2662.66 -90.2111 2671.88 -64.4634C2681.37 -37.9514 2690.76 -9.18173 2699.79 21.0446C2709.05 52.0508 2718.21 85.5234 2727.02 120.534C2736.01 156.321 2744.92 194.82 2753.47 234.968C2762.2 275.891 2770.81 319.716 2779.09 365.226C2787.51 411.526 2795.82 460.947 2803.81 512.108C2811.9 563.971 2819.89 619.213 2827.58 676.303C2835.33 733.921 2842.99 795.179 2850.36 858.366C2857.76 921.943 2865.09 989.353 2872.12 1058.73C2879.18 1128.45 2886.16 1202.11 2892.84 1277.64C2899.54 1353.33 2906.15 1433.26 2912.51 1515.21C2918.84 1596.86 2925.08 1682.87 2931.08 1770.85H2932.94C2926.94 1682.78 2920.68 1596.68 2914.34 1514.94C2907.99 1432.98 2901.37 1353.04 2894.67 1277.34C2887.99 1201.78 2881.02 1128.11 2873.95 1058.37C2866.92 988.987 2859.59 921.559 2852.18 857.965C2844.81 794.754 2837.15 733.479 2829.39 675.839C2821.71 618.727 2813.71 563.46 2805.61 511.571C2797.63 460.382 2789.31 410.935 2780.88 364.604C2772.6 319.065 2763.98 275.205 2755.25 234.247C2746.68 194.064 2737.77 155.524 2728.77 119.699C2719.95 84.6421 2710.78 51.1228 2701.5 20.0741C2692.46 -10.2071 2683.05 -39.0284 2673.54 -65.5927C2664.3 -91.4026 2654.68 -115.865 2644.95 -138.306C2635.54 -160.009 2625.75 -180.468 2615.84 -199.113C2606.29 -217.076 2596.35 -233.884 2586.3 -249.064C2576.64 -263.646 2566.59 -277.155 2556.43 -289.219C2537.44 -311.756 2517.19 -330.265 2496.22 -344.234C2477.29 -356.834 2457.09 -366.187 2436.2 -372.034C2417.65 -377.21 2397.78 -379.794 2377.42 -379.762C2344.05 -379.655 2308.1 -372.759 2267.5 -358.687C2201.52 -335.767 2141.71 -301.62 2102.14 -279.026L2101.22 -278.503C2062.3 -256.272 2039.03 -242.173 2038.8 -242.033L2038.54 -241.876L2038.39 -241.553C2038.3 -241.363 2029.47 -222.295 2012.89 -188.671C1989.4 -141.024 1966.16 -96.7159 1941.86 -53.2172C1907.32 8.59546 1871.56 66.7773 1835.56 119.706C1815.11 149.784 1794.15 178.779 1773.28 205.887C1751.62 234.021 1729.48 260.859 1707.49 285.658C1685.29 310.662 1662.66 334.243 1640.22 355.746C1618.15 376.89 1595.71 396.545 1573.54 414.156C1552.21 431.093 1530.61 446.557 1509.33 460.121C1489.32 472.875 1469.1 484.259 1449.25 493.954C1430.99 502.867 1412.6 510.57 1394.58 516.847C1378.4 522.477 1362.14 527.095 1346.25 530.573C1332.38 533.61 1318.44 535.854 1304.82 537.244C1293.31 538.417 1281.76 539.012 1270.48 539.012C1259.2 539.012 1247.65 538.417 1236.15 537.244C1222.52 535.854 1208.58 533.61 1194.72 530.573C1178.83 527.095 1162.57 522.477 1146.39 516.847C1128.37 510.57 1109.98 502.868 1091.72 493.954C1071.87 484.259 1051.65 472.875 1031.63 460.121C1010.35 446.554 988.752 431.09 967.428 414.156C945.257 396.544 922.822 376.89 900.745 355.746C878.309 334.249 855.679 310.666 833.484 285.658C811.485 260.862 789.346 234.023 767.683 205.887C746.82 178.787 725.866 149.791 705.404 119.706C669.411 66.7765 633.648 8.59793 599.108 -53.2172C574.806 -96.7159 551.571 -141.024 528.08 -188.671C511.502 -222.295 502.666 -241.364 502.578 -241.553L502.428 -241.876L502.171 -242.033C501.941 -242.172 478.669 -256.272 439.748 -278.503L438.843 -279.018C399.263 -301.617 339.45 -335.764 273.468 -358.687C232.869 -372.759 196.912 -379.654 163.547 -379.761C143.082 -379.649 123.313 -377.213 104.767 -372.034C83.8736 -366.187 63.6809 -356.833 44.7479 -344.233C23.7824 -330.264 3.52521 -311.755 -15.4656 -289.219C-25.6245 -277.155 -35.6711 -263.645 -45.327 -249.063C-55.3791 -233.882 -65.3184 -217.075 -74.8702 -199.112C-84.7742 -180.474 -94.5694 -160.018 -103.983 -138.305C-113.704 -115.876 -123.323 -91.4115 -132.569 -65.5919C-142.078 -39.0275 -151.488 -10.2054 -160.536 20.0749C-169.81 51.1236 -178.982 84.6429 -187.797 119.7C-196.802 155.526 -205.712 194.065 -214.279 234.247C-223.007 275.205 -231.631 319.066 -239.914 364.604C-248.337 410.935 -256.658 460.383 -264.645 511.572C-272.74 563.461 -280.741 618.727 -288.425 675.84C-296.186 733.527 -303.851 794.805 -311.212 857.965C-318.622 921.56 -325.946 988.987 -332.98 1058.38C-340.039 1128.04 -347.012 1201.71 -353.705 1277.34C-360.412 1353.15 -367.029 1433.09 -373.374 1514.94C-379.71 1596.68 -385.965 1682.78 -391.966 1770.85H-390.112Z" fill="#CCCCCC" fill-opacity="0.24"/>
<path d="M1981.59 -35.5661L1982.13 -35.6757C2016.84 -42.7902 2069.31 -53.5438 2128.92 -55.3621C2165.41 -56.4586 2198.07 -53.6509 2228.76 -46.7852C2268.54 -37.8598 2305.77 -21.5163 2339.4 1.7895C2359.26 15.5749 2378.6 32.2556 2396.87 51.3667C2416.86 72.2985 2436.31 96.9226 2454.68 124.548C2474.52 154.396 2493.82 188.835 2512.04 226.908C2521.62 246.923 2531.13 268.419 2540.31 290.793C2549.75 313.811 2559.12 338.462 2568.17 364.066C2577.45 390.319 2586.66 418.346 2595.54 447.369C2604.63 477.04 2613.65 508.645 2622.35 541.305C2631.22 574.6 2640.03 609.958 2648.51 646.4C2657.14 683.452 2665.71 722.721 2673.97 763.108C2682.33 804.023 2690.64 847.318 2698.65 891.793C2706.74 936.69 2714.77 984.097 2722.52 1032.7C2730.3 1081.55 2738.04 1133.11 2745.51 1185.94C2753.01 1238.94 2760.44 1294.65 2767.61 1351.52C2774.78 1408.43 2781.9 1468.22 2788.78 1529.25C2795.62 1590.07 2802.43 1653.84 2808.99 1718.8C2810.72 1735.93 2812.45 1753.31 2814.17 1770.85H2816.03C2814.3 1753.2 2812.56 1735.7 2810.82 1718.45C2804.25 1653.48 2797.45 1589.69 2790.6 1528.86C2783.73 1467.82 2776.6 1408 2769.43 1351.08C2762.26 1294.19 2754.82 1238.47 2747.33 1185.46C2739.85 1132.6 2732.11 1081.02 2724.32 1032.15C2716.57 983.526 2708.54 936.096 2700.44 891.175C2692.42 846.677 2684.12 803.356 2675.75 762.415C2667.48 721.998 2658.91 682.701 2650.27 645.617C2641.77 609.143 2632.96 573.75 2624.08 540.422C2615.37 507.725 2606.34 476.083 2597.25 446.378C2588.35 417.312 2579.12 389.243 2569.83 362.947C2560.76 337.299 2551.37 312.6 2541.91 289.538C2532.72 267.111 2523.18 245.567 2513.58 225.503C2495.3 187.315 2475.94 152.77 2456.04 122.824C2437.6 95.0838 2418.06 70.3599 2397.98 49.3331C2379.62 30.1271 2360.19 13.3646 2340.23 -0.490356C2306.43 -23.9132 2269.02 -40.3369 2229.05 -49.3024C2198.25 -56.1902 2165.48 -58.9872 2128.88 -57.9136C2069.15 -56.0928 2016.62 -45.3245 1981.85 -38.197L1981.32 -38.0898C1947.26 -31.0997 1927.14 -26.3894 1926.94 -26.3444L1927.25 -23.8289C1927.45 -23.8755 1947.56 -28.5809 1981.59 -35.5661Z" fill="#CCCCCC" fill-opacity="0.24"/>
<path d="M1868.12 152.812C1897.19 157.628 1941.12 164.906 1991.73 179.666C2023.36 188.903 2051.86 199.632 2078.87 212.466C2114.54 229.435 2146.85 249.715 2177.64 274.463C2195.62 288.932 2213.23 305.129 2229.97 322.605C2248.35 341.799 2266.34 363.217 2283.44 386.264C2301.97 411.239 2320.11 439.017 2337.38 468.832C2355.83 500.718 2373.91 536.019 2391.1 573.753C2409.26 613.628 2427.04 657.549 2443.95 704.299C2452.69 728.462 2461.41 753.958 2469.86 780.079C2478.45 806.664 2487.02 834.648 2495.31 863.257C2503.74 892.309 2512.13 922.858 2520.26 954.059C2528.49 985.636 2536.68 1018.8 2544.63 1052.63C2552.63 1086.74 2560.62 1122.54 2568.36 1159.05C2576.13 1195.7 2583.88 1234.13 2591.4 1273.27C2598.93 1312.48 2606.44 1353.5 2613.71 1395.19C2620.97 1436.84 2628.22 1480.36 2635.24 1524.57C2642.23 1568.56 2649.19 1614.48 2655.95 1661.05C2661.12 1696.66 2666.27 1733.47 2671.34 1770.85H2673.22C2668.13 1733.3 2662.95 1696.32 2657.76 1660.55C2651 1613.97 2644.03 1568.03 2637.04 1524.02C2630.02 1479.8 2622.77 1436.25 2615.51 1394.6C2608.23 1352.88 2600.72 1311.84 2593.19 1272.62C2585.67 1233.46 2577.91 1195 2570.13 1158.33C2562.39 1121.8 2554.4 1085.98 2546.38 1051.85C2538.44 1017.99 2530.23 984.796 2522 953.198C2513.86 921.966 2505.46 891.386 2497.03 862.311C2488.73 833.669 2480.15 805.653 2471.54 779.038C2463.08 752.885 2454.36 727.356 2445.61 703.159C2428.67 656.337 2410.86 612.34 2392.66 572.393C2375.44 534.582 2357.32 499.202 2338.82 467.238C2321.51 437.346 2303.31 409.485 2284.74 384.441C2267.58 361.318 2249.53 339.831 2231.09 320.573C2214.29 303.033 2196.61 286.779 2178.57 272.261C2147.67 247.425 2115.26 227.078 2079.48 210.055C2052.39 197.186 2023.82 186.43 1992.11 177.17C1941.42 162.388 1897.44 155.102 1868.34 150.28L1866.06 149.903C1837.25 145.131 1820.41 142.634 1820.24 142.609L1820.05 145.145C1820.21 145.169 1837.04 147.666 1865.84 152.433L1868.12 152.812Z" fill="#CCCCCC" fill-opacity="0.24"/>
<path d="M1860.2 357.941C1898.55 382.919 1956.46 423.055 2016.42 482.969C2048.68 515.238 2079.49 551.278 2107.98 590.084C2124.24 612.227 2140.25 635.952 2155.57 660.593C2171.99 687.026 2188.17 715.393 2203.65 744.913C2220.06 776.195 2236.23 809.81 2251.71 844.819C2267.91 881.46 2283.89 920.821 2299.19 961.809C2315.02 1004.2 2330.62 1049.65 2345.58 1096.92C2360.84 1145.18 2375.91 1196.85 2390.36 1250.5C2404.93 1304.57 2419.31 1362.29 2433.1 1422.04C2446.81 1481.44 2460.37 1544.66 2473.39 1609.96C2483.64 1661.38 2493.8 1715.36 2503.7 1770.85H2505.61C2495.67 1715.12 2485.46 1660.92 2475.17 1609.28C2462.14 1543.95 2448.58 1480.7 2434.86 1421.26C2421.06 1361.48 2406.67 1303.72 2392.1 1249.61C2377.63 1195.92 2362.55 1144.21 2347.27 1095.89C2332.3 1048.58 2316.68 1003.08 2300.84 960.638C2285.51 919.598 2269.51 880.184 2253.29 843.488C2237.78 808.425 2221.59 774.755 2205.15 743.418C2189.64 713.842 2173.43 685.416 2156.97 658.933C2141.62 634.235 2125.57 610.46 2109.28 588.27C2080.72 549.369 2049.84 513.247 2017.5 480.9C1957.42 420.862 1899.4 380.653 1860.99 355.632C1821.71 330.064 1788.57 311.02 1764.38 297.118L1720.39 271.799L1719.68 274.155L1763.67 299.474C1787.84 313.369 1820.96 332.398 1860.2 357.941Z" fill="#CCCCCC" fill-opacity="0.24"/>
<path d="M1861.97 635.673C1888.11 669.821 1913.13 705.232 1936.34 740.923C1963.99 783.467 1990.65 828.809 2015.56 875.689C2043.72 928.699 2070.96 986.135 2096.54 1046.4C2110.14 1078.45 2123.63 1112.15 2136.65 1146.57C2149.97 1181.82 2163.18 1218.88 2175.92 1256.71C2188.81 1294.98 2201.6 1335.21 2213.94 1376.27C2226.26 1417.24 2238.49 1460.27 2250.31 1504.16C2261.93 1547.3 2273.48 1592.53 2284.64 1638.59C2294.96 1681.16 2305.23 1725.64 2315.2 1770.85H2317.13C2307.1 1725.36 2296.78 1680.61 2286.39 1637.78C2275.22 1591.69 2263.67 1546.44 2252.04 1503.28C2240.22 1459.35 2227.97 1416.3 2215.65 1375.3C2203.3 1334.2 2190.49 1293.94 2177.6 1255.63C2164.85 1217.76 2151.62 1180.68 2138.28 1145.39C2125.26 1110.93 2111.75 1077.19 2098.14 1045.11C2072.53 984.769 2045.24 927.26 2017.05 874.179C1992.1 827.232 1965.41 781.825 1937.72 739.218C1914.47 703.474 1889.42 668.013 1863.24 633.819C1817.65 574.278 1774.73 525.971 1738.75 486.573C1672.61 414.153 1629.05 368.188 1628.62 367.732L1627.5 369.76C1627.93 370.216 1671.47 416.165 1737.6 488.57C1773.55 527.938 1816.43 576.197 1861.97 635.673Z" fill="#CCCCCC" fill-opacity="0.24"/>
<path d="M1634.01 593.325C1659.36 636.565 1688.1 685.572 1719.61 741.944C1763.83 821.045 1802.11 895.043 1836.66 968.169C1858.48 1014.38 1879.68 1062.1 1899.67 1109.99C1921.34 1161.93 1942.5 1216.27 1962.57 1271.52C1983.19 1328.32 2003.43 1388.18 2022.73 1449.44C2041.42 1508.81 2059.83 1571.45 2077.46 1635.59C2089.44 1679.22 2101.33 1724.55 2112.94 1770.85H2114.9C2103.21 1724.24 2091.25 1678.6 2079.18 1634.69C2061.55 1570.51 2043.12 1507.83 2024.42 1448.42C2005.12 1387.12 1984.86 1327.21 1964.22 1270.38C1944.14 1215.08 1922.96 1160.69 1901.27 1108.72C1881.27 1060.79 1860.05 1013.03 1838.21 966.773C1803.63 893.594 1765.32 819.539 1721.08 740.384C1689.55 683.989 1660.81 634.97 1635.45 591.72L1627.84 578.742C1578 493.665 1546.15 436.979 1545.83 436.416L1544.37 437.98C1544.68 438.543 1576.55 495.247 1626.41 580.347L1634.01 593.325Z" fill="#CCCCCC" fill-opacity="0.24"/>
<path d="M1591.59 807.292L1593.17 811.407C1620.46 882.347 1647.26 952.291 1675.14 1027.97C1707.74 1116.47 1737.82 1202.42 1764.54 1283.44C1793.43 1371.04 1822.27 1464.78 1847.94 1554.53C1867.98 1624.62 1887.58 1697.35 1906.31 1770.85H1908.27C1889.46 1697.03 1869.78 1623.99 1849.66 1553.6C1823.98 1463.8 1795.13 1370.02 1766.23 1282.38C1739.49 1201.33 1709.4 1115.34 1676.79 1026.82C1648.9 951.117 1622.09 881.161 1594.8 810.211L1593.22 806.095C1569.81 745.254 1547.7 687.785 1529.8 640.261C1494.64 546.946 1472.64 483.865 1472.42 483.237L1470.76 484.344C1470.97 484.969 1492.99 548.084 1528.16 641.437C1546.07 688.972 1568.18 746.445 1591.59 807.292Z" fill="#CCCCCC" fill-opacity="0.24"/>
<path d="M1699.96 1744.73C1699.74 1743.75 1677.84 1644.43 1645.35 1507.21C1615.43 1380.87 1576.74 1224.86 1536.4 1062.7C1496.19 901.083 1464.96 772.056 1443.57 679.203C1420.95 580.998 1406.88 514.42 1406.74 513.76L1408.52 513.047C1408.66 513.707 1422.71 580.258 1445.33 678.431C1466.71 771.264 1497.94 900.273 1538.15 1061.88C1578.49 1224.04 1617.18 1380.07 1647.11 1506.42C1679.61 1643.67 1701.51 1743.01 1701.72 1743.99L1699.96 1744.73Z" fill="#CCCCCC" fill-opacity="0.24"/>
<path d="M1508.64 1673.86C1508.52 1673.07 1496.83 1594.25 1480.18 1480.67C1457.36 1324.99 1438.6 1193.99 1422.83 1080.19C1384.86 806.154 1352.46 533.246 1352.14 530.524L1353.97 530.111C1354.29 532.836 1386.69 805.711 1424.64 1079.71C1440.41 1193.51 1459.17 1324.5 1481.99 1480.16C1498.64 1593.74 1510.34 1672.56 1510.45 1673.34L1508.64 1673.86Z" fill="#CCCCCC" fill-opacity="0.24"/>
<path d="M1365.76 1643.66C1343.29 1262.54 1323.38 890.657 1306.57 538.325L1308.42 538.156C1325.22 890.475 1345.14 1262.35 1367.61 1643.45L1365.76 1643.66Z" fill="#CCCCCC" fill-opacity="0.24"/>
<path d="M1271.41 540.288H1269.56V1636.91H1271.41V540.288Z" fill="#CCCCCC" fill-opacity="0.24"/>
<path d="M1175.2 1643.66L1173.36 1643.45C1195.83 1262.35 1215.75 890.475 1232.55 538.156L1234.39 538.325C1217.59 890.657 1197.67 1262.54 1175.2 1643.66Z" fill="#CCCCCC" fill-opacity="0.24"/>
<path d="M1032.33 1673.86L1030.52 1673.34C1030.63 1672.56 1042.33 1593.74 1058.98 1480.16C1081.79 1324.57 1100.55 1193.58 1116.33 1079.71C1154.28 805.711 1186.68 532.836 1187 530.111L1188.83 530.524C1188.51 533.246 1156.1 806.154 1118.14 1080.19C1102.36 1194.07 1083.6 1325.07 1060.79 1480.67C1044.14 1594.25 1032.44 1673.07 1032.33 1673.86Z" fill="#CCCCCC" fill-opacity="0.24"/>
<path d="M841.012 1744.73L839.243 1743.99C839.461 1743.01 861.364 1643.67 893.863 1506.42C923.789 1380.06 962.478 1224.04 1002.82 1061.88C1043.02 900.273 1074.25 771.264 1095.64 678.43C1118.26 580.257 1132.31 513.707 1132.45 513.046L1134.22 513.759C1134.08 514.419 1120.02 580.997 1097.4 679.202C1076.01 772.056 1044.78 901.083 1004.57 1062.7C964.229 1224.86 925.541 1380.87 895.619 1507.21C863.127 1644.43 841.229 1743.75 841.012 1744.73Z" fill="#CCCCCC" fill-opacity="0.24"/>
<path d="M634.661 1770.85C653.391 1697.35 672.99 1624.62 693.029 1554.53C718.697 1464.78 747.534 1371.04 776.424 1283.44C803.15 1202.42 833.23 1116.47 865.829 1027.97C893.729 952.238 920.524 882.317 947.802 811.407L949.53 806.913C972.881 746.211 994.937 688.875 1012.81 641.438C1047.98 548.085 1069.99 484.97 1070.21 484.344L1068.55 483.238C1068.33 483.866 1046.33 546.947 1011.17 640.262C993.3 687.688 971.245 745.02 947.896 805.717L946.169 810.211C918.887 881.131 892.088 951.062 864.18 1026.82C831.57 1115.34 801.479 1201.33 774.741 1282.38C745.84 1370.02 716.99 1463.8 691.309 1553.6C671.184 1623.99 651.503 1697.03 632.698 1770.85H634.661Z" fill="#CCCCCC" fill-opacity="0.24"/>
<path d="M428.023 1770.85C439.633 1724.57 451.524 1679.24 463.511 1635.59C481.135 1571.45 499.548 1508.81 518.24 1449.44C537.526 1388.19 557.766 1328.33 578.399 1271.52C598.468 1216.27 619.629 1161.93 641.296 1109.99C661.283 1062.1 682.484 1014.38 704.31 968.169C738.848 895.057 777.133 821.057 821.352 741.944C852.868 685.571 881.602 636.564 906.953 593.325L914.562 580.347C964.421 495.248 996.282 438.543 996.599 437.98L995.138 436.416C994.822 436.979 962.971 493.665 913.125 578.742L905.517 591.721C880.16 634.97 851.419 683.989 819.889 740.384C775.641 819.553 737.328 893.607 702.762 966.773C680.918 1013.03 659.699 1060.79 639.696 1108.72C618.011 1160.69 596.832 1215.08 576.748 1270.38C556.099 1327.23 535.844 1387.14 516.546 1448.42C497.842 1507.84 479.418 1570.5 461.784 1634.69C449.717 1678.62 437.752 1724.26 426.07 1770.85H428.023Z" fill="#CCCCCC" fill-opacity="0.24"/>
<path d="M225.768 1770.85C235.748 1725.6 246.015 1681.12 256.324 1638.59C267.499 1592.49 279.05 1547.27 290.654 1504.16C302.473 1460.27 314.709 1417.24 327.022 1376.27C339.367 1335.21 352.16 1294.98 365.045 1256.71C377.785 1218.88 390.998 1181.82 404.319 1146.57C417.332 1112.15 430.825 1078.45 444.424 1046.4C470.007 986.127 497.254 928.69 525.407 875.688C550.32 828.804 576.973 783.464 604.626 740.922C627.835 705.233 652.856 669.82 678.992 635.673C724.535 576.197 767.419 527.938 803.362 488.572C869.493 416.169 913.033 370.217 913.466 369.761L912.343 367.734C911.911 368.189 868.359 414.155 802.214 486.574C766.24 525.972 723.317 574.279 677.722 633.82C651.549 668.017 626.494 703.477 603.251 739.219C575.558 781.823 548.866 827.23 523.916 874.179C495.726 927.251 468.445 984.762 442.828 1045.11C429.215 1077.19 415.707 1110.93 402.68 1145.39C389.346 1180.68 376.12 1217.76 363.368 1255.63C350.472 1293.94 337.669 1334.2 325.313 1375.3C312.993 1416.3 300.749 1459.36 288.92 1503.28C277.309 1546.4 265.752 1591.66 254.57 1637.78C244.199 1680.57 233.87 1725.32 223.833 1770.85L225.768 1770.85Z" fill="#CCCCCC" fill-opacity="0.24"/>
<path d="M37.2651 1770.85C47.1657 1715.36 57.3286 1661.38 67.5806 1609.96C80.6005 1544.66 94.154 1481.44 107.865 1422.04C121.667 1362.26 136.048 1304.54 150.604 1250.5C165.053 1196.86 180.122 1145.19 195.39 1096.92C210.345 1049.65 225.951 1004.19 241.774 961.809C257.078 920.825 273.053 881.465 289.255 844.819C304.734 809.819 320.903 776.208 337.313 744.913C352.798 715.393 368.977 687.026 385.402 660.593C400.723 635.952 416.732 612.227 432.985 590.084C461.482 551.278 492.289 515.238 524.551 482.969C584.504 423.054 642.421 382.918 680.768 357.941C720.012 332.398 753.124 313.369 777.302 299.473L821.292 274.157L820.581 271.8L776.591 297.119C752.397 311.022 719.262 330.066 679.98 355.634C641.565 380.654 583.545 420.862 523.466 480.902C491.128 513.248 460.25 549.371 431.686 588.271C415.396 610.462 399.352 634.236 383.998 658.935C367.541 685.417 351.329 713.843 335.814 743.419C319.377 774.767 303.181 808.436 287.677 843.49C271.452 880.188 255.455 919.605 240.131 960.642C224.289 1003.07 208.667 1048.58 193.697 1095.9C178.415 1144.21 163.332 1195.93 148.871 1249.61C134.304 1303.69 119.915 1361.44 106.103 1421.26C92.3846 1480.7 78.825 1543.95 65.7989 1609.28C55.5035 1660.92 45.3004 1715.12 35.3618 1770.85L37.2651 1770.85Z" fill="#CCCCCC" fill-opacity="0.24"/>
<path d="M-130.373 1770.85C-125.305 1733.47 -120.149 1696.66 -114.982 1661.05C-108.226 1614.48 -101.257 1568.56 -94.2696 1524.57C-87.2444 1480.34 -80.001 1436.81 -72.7413 1395.19C-65.4714 1353.52 -57.9669 1312.5 -50.434 1273.27C-42.916 1234.13 -35.1627 1195.7 -27.3905 1159.05C-19.6495 1122.54 -11.6645 1086.74 -3.65842 1052.63C4.28514 1018.8 12.4822 985.636 20.7085 954.059C28.839 922.858 37.2319 892.309 45.6546 863.257C53.9503 834.648 62.5158 806.663 71.1119 780.079C79.5544 753.98 88.2688 728.485 97.0165 704.299C113.931 657.54 131.714 613.617 149.869 573.753C167.061 536.019 185.135 500.718 203.591 468.832C220.854 439.017 239 411.239 257.524 386.264C274.623 363.221 292.614 341.804 310.994 322.605C327.737 305.131 345.347 288.933 363.333 274.463C394.124 249.715 426.429 229.435 462.094 212.466C489.103 199.632 517.609 188.904 549.239 179.666C599.846 164.907 643.779 157.628 672.849 152.812L675.129 152.433C703.927 147.666 720.756 145.169 720.923 145.145L720.727 142.609C720.56 142.634 703.72 145.13 674.909 149.903L672.63 150.28C643.526 155.102 599.545 162.389 548.858 177.17C517.152 186.43 488.574 197.186 461.492 210.055C425.712 227.078 393.299 247.426 362.403 272.261C344.353 286.781 326.681 303.036 309.879 320.573C291.437 339.834 273.389 361.321 256.233 384.441C237.656 409.485 219.459 437.346 202.148 467.238C183.648 499.201 165.532 534.581 148.304 572.395C130.116 612.329 112.305 656.326 95.3627 703.158C86.6034 727.379 77.8768 752.909 69.4241 779.037C60.8178 805.652 52.2428 833.669 43.9376 862.311C35.508 891.386 27.107 921.966 18.9691 953.197C10.7366 984.795 2.53206 1017.99 -5.41624 1051.84C-13.4278 1085.98 -21.4182 1121.8 -29.1646 1158.33C-36.9409 1195 -44.6982 1233.46 -52.221 1272.62C-59.7561 1311.86 -67.2646 1352.9 -74.5379 1394.6C-81.8003 1436.23 -89.0464 1479.78 -96.0743 1524.02C-103.065 1568.03 -110.036 1613.96 -116.794 1660.55C-121.983 1696.32 -127.163 1733.3 -132.252 1770.85L-130.373 1770.85Z" fill="#CCCCCC" fill-opacity="0.24"/>
<path d="M-273.202 1770.85C-271.48 1753.31 -269.754 1735.93 -268.023 1718.8C-261.457 1653.81 -254.657 1590.04 -247.81 1529.25C-240.94 1468.25 -233.817 1408.45 -226.645 1351.52C-219.477 1294.65 -212.043 1238.94 -204.548 1185.94C-197.072 1133.11 -189.334 1081.55 -181.55 1032.7C-173.796 984.05 -165.768 936.646 -157.686 891.792C-149.673 847.316 -141.368 804.022 -133.002 763.107C-124.743 722.72 -116.179 683.45 -107.549 646.399C-99.0593 609.957 -90.2565 574.599 -81.3865 541.303C-72.683 508.643 -63.6634 477.039 -54.5806 447.368C-45.6861 418.328 -36.4762 390.301 -27.2064 364.065C-18.1617 338.479 -8.78726 313.825 0.656494 290.792C9.83447 268.418 19.3441 246.923 28.9211 226.907C47.1486 188.83 66.448 154.392 86.2831 124.547C104.655 96.9215 124.106 72.2999 144.1 51.3656C162.367 32.2545 181.701 15.5738 201.564 1.79086C235.197 -21.5182 272.422 -37.8617 312.206 -46.7863C342.897 -53.6471 375.558 -56.4392 412.047 -55.3631C471.655 -53.5448 524.122 -42.7904 558.838 -35.6767L559.373 -35.5671C593.41 -28.5819 613.518 -23.8766 613.717 -23.8291L614.027 -26.3446C613.828 -26.3896 593.703 -31.0999 559.645 -38.09L559.11 -38.1972C524.347 -45.3239 471.812 -56.0922 412.087 -57.9138C375.48 -59.0005 342.714 -56.1953 311.911 -49.3026C271.942 -40.3371 234.536 -23.9134 200.735 -0.490589C180.772 13.3644 161.342 30.1269 142.984 49.3329C122.903 70.3597 103.369 95.086 84.9222 122.824C65.0206 152.769 45.6606 187.315 27.3801 225.503C17.7787 245.565 8.24792 267.111 -0.951141 289.538C-10.4139 312.615 -19.8053 337.314 -28.8677 362.95C-38.1517 389.223 -47.3753 417.292 -56.2827 446.377C-65.377 476.082 -74.4068 507.724 -83.1212 540.421C-92.0008 573.749 -100.811 609.142 -109.309 645.616C-117.945 682.7 -126.515 721.997 -134.781 762.414C-143.152 803.354 -151.461 846.676 -159.479 891.177C-167.565 936.051 -175.598 983.482 -183.355 1032.15C-191.143 1081.02 -198.885 1132.6 -206.362 1185.45C-213.86 1238.46 -221.297 1294.19 -228.466 1351.08C-235.641 1408.03 -242.764 1467.84 -249.637 1528.86C-256.485 1589.66 -263.287 1653.45 -269.853 1718.45C-271.596 1735.69 -273.334 1753.19 -275.067 1770.85H-273.202Z" fill="#CCCCCC" fill-opacity="0.24"/>
<path d="M1270.48 567.804C1258.77 567.804 1246.79 567.189 1234.86 565.978C1220.65 564.531 1206.12 562.199 1191.66 559.043C1175.03 555.409 1158.01 550.581 1141.09 544.689C1122.18 538.102 1102.89 530.019 1083.75 520.663C1062.88 510.454 1041.64 498.463 1020.62 485.021C998.234 470.7 975.52 454.366 953.112 436.47C929.776 417.827 906.185 397.024 882.993 374.635C859.392 351.844 835.61 326.837 812.305 300.305C789.189 273.982 765.948 245.481 743.231 215.594C721.349 186.799 699.385 155.976 677.954 123.973C640.263 67.6805 602.881 5.76956 566.847 -60.0357C541.517 -106.307 517.317 -153.487 492.865 -204.272C475.622 -240.091 466.445 -260.413 466.354 -260.612L467.923 -261.962C468.014 -261.761 477.179 -241.466 494.405 -205.682C518.837 -154.942 543.015 -107.804 568.322 -61.575C604.32 4.16647 641.662 66.0119 679.312 122.244C700.718 154.204 722.652 184.992 744.507 213.746C767.192 243.594 790.4 272.054 813.482 298.337C836.748 324.827 860.493 349.793 884.053 372.545C907.201 394.893 930.747 415.658 954.038 434.264C976.399 452.12 999.062 468.418 1021.4 482.704C1042.37 496.116 1063.55 508.079 1084.37 518.256C1103.45 527.588 1122.69 535.649 1141.55 542.217C1158.41 548.086 1175.37 552.899 1191.95 556.521C1206.36 559.667 1220.84 561.991 1234.99 563.431C1246.88 564.64 1258.82 565.252 1270.49 565.252C1282.15 565.252 1294.09 564.639 1305.98 563.431C1320.13 561.991 1334.61 559.667 1349.02 556.521C1365.6 552.899 1382.56 548.086 1399.42 542.217C1418.28 535.651 1437.52 527.59 1456.6 518.256C1477.42 508.078 1498.6 496.116 1519.57 482.704C1541.91 468.418 1564.57 452.12 1586.93 434.264C1610.22 415.658 1633.77 394.893 1656.92 372.543C1680.47 349.8 1704.22 324.831 1727.49 298.337C1750.58 272.046 1773.78 243.587 1796.46 213.746C1818.32 184.992 1840.25 154.205 1861.66 122.242C1899.3 66.0192 1936.65 4.17383 1972.65 -61.575C1997.95 -107.804 2022.13 -154.942 2046.56 -205.682C2063.79 -241.467 2072.96 -261.761 2073.05 -261.962L2074.62 -260.612C2074.52 -260.413 2065.35 -240.091 2048.1 -204.272C2023.65 -153.487 1999.45 -106.307 1974.12 -60.0357C1938.08 5.77774 1900.7 67.6878 1863.02 123.973C1841.58 155.976 1819.62 186.799 1797.74 215.594C1775.03 245.474 1751.79 273.974 1728.67 300.305C1705.36 326.842 1681.57 351.85 1657.98 374.635C1634.79 397.024 1611.19 417.827 1587.86 436.47C1565.45 454.366 1542.74 470.7 1520.35 485.021C1499.33 498.463 1478.09 510.454 1457.22 520.663C1438.08 530.019 1418.79 538.105 1399.88 544.689C1382.96 550.58 1365.94 555.408 1349.31 559.043C1334.85 562.198 1320.32 564.531 1306.11 565.978C1294.18 567.189 1282.19 567.804 1270.48 567.804Z" fill="#CCCCCC" fill-opacity="0.24"/>
<path d="M1270.48 595.684C1258.37 595.682 1245.97 595.049 1233.62 593.809C1218.84 592.311 1203.72 589.897 1188.68 586.631C1171.31 582.852 1153.54 577.828 1135.87 571.693C1116.06 564.812 1095.85 556.355 1075.8 546.56C1053.9 535.853 1031.61 523.261 1009.55 509.132C985.99 494.041 962.124 476.83 938.612 457.981C914.061 438.292 889.265 416.316 864.916 392.663C840.09 368.535 815.106 342.062 790.66 313.98C766.374 286.073 741.989 255.854 718.183 224.163C695.215 193.578 672.209 160.853 649.803 126.902C610.344 67.0921 571.302 1.29834 533.761 -68.6477C507.357 -117.863 482.179 -168.035 456.794 -222.035C438.887 -260.132 429.374 -281.75 429.279 -281.964L430.86 -283.287C430.954 -283.072 440.454 -261.485 458.344 -223.424C483.709 -169.468 508.864 -119.338 535.247 -70.1673C572.75 -0.288391 611.751 65.4384 651.17 125.183C673.548 159.097 696.527 191.779 719.465 222.326C743.239 253.975 767.59 284.152 791.842 312.019C816.25 340.055 841.194 366.489 865.981 390.575C890.286 414.187 915.035 436.123 939.54 455.773C963.004 474.585 986.819 491.758 1010.32 506.819C1032.33 520.911 1054.57 533.473 1076.42 544.152C1096.41 553.922 1116.57 562.355 1136.32 569.217C1153.94 575.333 1171.65 580.342 1188.97 584.109C1203.96 587.365 1219.03 589.771 1233.76 591.261C1246.06 592.499 1258.41 593.129 1270.48 593.132C1282.56 593.129 1294.91 592.499 1307.21 591.261C1321.94 589.772 1337.01 587.365 1352 584.109C1369.32 580.346 1387.03 575.333 1404.65 569.217C1424.4 562.355 1444.56 553.92 1464.55 544.152C1486.4 533.473 1508.63 520.911 1530.64 506.819C1554.15 491.758 1577.96 474.585 1601.43 455.773C1625.94 436.118 1650.69 414.182 1674.99 390.575C1699.77 366.489 1724.72 340.055 1749.13 312.019C1773.37 284.154 1797.73 253.977 1821.5 222.326C1844.44 191.785 1867.41 159.101 1889.8 125.183C1929.22 65.4375 1968.22 -0.288391 2005.72 -70.1673C2032.1 -119.339 2057.26 -169.468 2082.62 -223.424C2100.51 -261.485 2110.01 -283.072 2110.11 -283.287L2111.69 -281.964C2111.59 -281.75 2102.08 -260.132 2084.17 -222.035C2058.79 -168.036 2033.61 -117.863 2007.21 -68.6477C1969.66 1.29834 1930.62 67.0921 1891.16 126.902C1868.75 160.86 1845.75 193.582 1822.78 224.161C1798.98 255.857 1774.59 286.076 1750.31 313.98C1725.86 342.062 1700.88 368.535 1676.05 392.663C1651.71 416.313 1626.91 438.289 1602.35 457.981C1578.84 476.831 1554.98 494.041 1531.42 509.132C1509.36 523.261 1487.07 535.853 1465.16 546.56C1445.12 556.352 1424.91 564.81 1405.1 571.693C1387.43 577.828 1369.66 582.852 1352.29 586.631C1337.25 589.897 1322.13 592.311 1307.35 593.809C1295 595.049 1282.6 595.682 1270.48 595.684Z" fill="#CCCCCC" fill-opacity="0.24"/>
<path d="M1270.48 625.36C1257.95 625.36 1245.1 624.712 1232.3 623.437C1216.9 621.897 1201.15 619.403 1185.48 616.025C1167.29 612.102 1148.7 606.876 1130.23 600.499C1109.46 593.324 1088.26 584.49 1067.2 574.239C1044.15 563.006 1020.71 549.794 997.534 534.965C972.722 519.085 947.604 500.962 922.876 481.109C897.004 460.328 870.905 437.124 845.303 412.144C819.159 386.625 792.881 358.619 767.199 328.895C741.649 299.319 716.038 267.296 691.077 233.712C666.981 201.286 642.867 166.571 619.403 130.525C578.095 67.053 537.315 -2.81854 498.195 -77.1442C470.69 -129.414 444.51 -182.722 418.161 -240.114C399.578 -280.593 389.727 -303.558 389.631 -303.785L391.221 -305.085C391.318 -304.856 401.157 -281.921 419.721 -241.479C446.05 -184.135 472.207 -130.871 499.69 -78.6434C538.773 -4.38727 579.513 65.4147 620.778 128.822C644.214 164.824 668.3 199.5 692.367 231.884C717.296 265.426 742.872 297.406 768.386 326.943C794.03 356.618 820.267 384.583 846.37 410.062C871.928 435 897.98 458.161 923.805 478.905C948.484 498.719 973.551 516.804 998.312 532.654C1021.43 547.446 1044.82 560.628 1067.82 571.834C1088.82 582.059 1109.97 590.873 1130.68 598.025C1149.1 604.387 1167.63 609.596 1185.76 613.507C1201.38 616.875 1217.08 619.358 1232.43 620.893C1245.19 622.165 1257.99 622.811 1270.48 622.811C1282.97 622.811 1295.78 622.165 1308.54 620.893C1323.88 619.358 1339.59 616.875 1355.2 613.507C1373.33 609.596 1391.87 604.387 1410.29 598.025C1431 590.873 1452.15 582.059 1473.15 571.834C1496.15 560.628 1519.53 547.446 1542.65 532.654C1567.42 516.804 1592.48 498.718 1617.16 478.903C1642.99 458.162 1669.04 435 1694.6 410.062C1720.7 384.584 1746.94 356.619 1772.58 326.943C1798.09 297.406 1823.67 265.426 1848.6 231.884C1872.67 199.5 1896.75 164.825 1920.19 128.822C1961.45 65.4147 2002.19 -4.38727 2041.28 -78.6434C2068.75 -130.858 2094.91 -184.124 2121.25 -241.479C2139.81 -281.921 2149.65 -304.856 2149.74 -305.083L2151.34 -303.785C2151.24 -303.558 2141.39 -280.593 2122.81 -240.114C2096.45 -182.712 2070.27 -129.404 2042.77 -77.1442C2003.65 -2.81854 1962.87 67.053 1921.56 130.525C1898.1 166.571 1873.99 201.286 1849.89 233.712C1824.93 267.296 1799.32 299.319 1773.77 328.895C1748.09 358.618 1721.81 386.625 1695.66 412.144C1670.06 437.124 1643.96 460.328 1618.09 481.106C1593.36 500.963 1568.24 519.085 1543.43 534.965C1520.26 549.795 1496.82 563.007 1473.77 574.239C1452.71 584.49 1431.51 593.325 1410.74 600.499C1392.26 606.877 1373.68 612.102 1355.49 616.025C1339.82 619.403 1324.07 621.897 1308.67 623.437C1295.87 624.713 1283.02 625.36 1270.48 625.36Z" fill="#CCCCCC" fill-opacity="0.24"/>
<path d="M1270.48 657.016C1257.49 657.016 1244.16 656.353 1230.87 655.05C1214.81 653.466 1198.37 650.897 1182.02 647.413C1162.95 643.345 1143.47 637.925 1124.12 631.304C1102.27 623.826 1079.97 614.609 1057.86 603.907C1033.56 592.146 1008.87 578.298 984.471 562.752C958.29 546.062 931.807 527.005 905.754 506.11C878.444 484.199 850.927 459.727 823.972 433.375C796.409 406.418 768.734 376.813 741.716 345.378C714.815 314.073 687.891 280.17 661.691 244.61C636.388 210.261 611.098 173.47 586.526 135.26C543.263 67.9615 500.67 -6.13998 459.931 -84.9869C431.295 -140.425 404.095 -196.972 376.777 -257.856C357.517 -300.786 347.331 -325.149 347.231 -325.388L348.832 -326.663C348.933 -326.422 359.105 -302.089 378.349 -259.201C405.645 -198.362 432.823 -141.86 461.437 -86.4664C502.137 -7.69397 544.69 66.3371 587.909 133.566C612.454 171.734 637.715 208.482 662.988 242.792C689.155 278.304 716.043 312.165 742.908 343.43C769.887 374.817 797.522 404.379 825.042 431.293C851.952 457.603 879.42 482.033 906.685 503.904C932.688 524.759 959.12 543.781 985.247 560.436C1009.59 575.95 1034.23 589.766 1058.47 601.501C1080.53 612.175 1102.77 621.37 1124.57 628.828C1143.87 635.432 1163.29 640.838 1182.31 644.893C1198.61 648.366 1214.99 650.929 1231.01 652.506C1244.25 653.807 1257.53 654.467 1270.49 654.467C1283.44 654.467 1296.72 653.807 1309.96 652.506C1325.98 650.929 1342.36 648.366 1358.67 644.893C1377.68 640.838 1397.11 635.432 1416.4 628.828C1438.2 621.37 1460.44 612.175 1482.5 601.501C1506.75 589.766 1531.38 575.951 1555.72 560.436C1581.86 543.776 1608.29 524.757 1634.29 503.904C1661.55 482.038 1689.01 457.608 1715.93 431.293C1743.45 404.382 1771.08 374.82 1798.06 343.428C1824.94 312.155 1851.83 278.295 1877.98 242.792C1903.26 208.483 1928.52 171.735 1953.06 133.567C1996.28 66.3387 2038.83 -7.69312 2079.53 -86.4655C2108.14 -141.85 2135.32 -198.351 2162.62 -259.2C2181.86 -302.089 2192.04 -326.421 2192.14 -326.662L2193.74 -325.388C2193.64 -325.149 2183.45 -300.785 2164.19 -257.855C2136.87 -196.959 2109.67 -140.414 2081.04 -84.986C2040.3 -6.13916 1997.71 67.9622 1954.44 135.261C1929.87 173.471 1904.58 210.261 1879.28 244.611C1853.09 280.16 1826.17 314.063 1799.26 345.379C1772.23 376.816 1744.56 406.422 1717 433.375C1690.04 459.734 1662.52 484.205 1635.22 506.111C1609.17 527.004 1582.68 546.06 1556.5 562.753C1532.1 578.299 1507.41 592.148 1483.11 603.908C1461 614.609 1438.7 623.826 1416.85 631.304C1397.5 637.925 1378.02 643.346 1358.95 647.414C1342.6 650.898 1326.16 653.467 1310.1 655.051C1296.81 656.354 1283.48 657.016 1270.48 657.016Z" fill="#CCCCCC" fill-opacity="0.24"/>
<path d="M1270.48 690.855C1256.99 690.855 1243.14 690.18 1229.34 688.853C1212.55 687.228 1195.37 684.59 1178.28 681.008C1158.26 676.806 1137.8 671.198 1117.48 664.341C1094.45 656.563 1070.96 646.968 1047.68 635.826C1022.02 623.534 995.958 609.054 970.22 592.78C942.554 575.28 914.578 555.275 887.069 533.314C858.192 510.254 829.138 484.484 800.713 456.726C771.601 428.288 742.418 397.048 713.973 363.87C658.201 298.793 603.342 224.046 550.924 141.713C505.624 70.5309 461.154 -7.88226 418.752 -91.3527C388.972 -149.989 360.745 -209.814 332.457 -274.251C312.527 -319.65 302.014 -345.418 301.91 -345.671L303.521 -346.922C303.624 -346.667 314.125 -320.933 334.038 -275.57C362.304 -211.186 390.509 -151.406 420.266 -92.8167C462.629 -9.42319 507.056 68.9171 552.312 140.03C604.671 222.272 659.464 296.926 715.166 361.923C743.57 395.053 772.712 426.249 801.78 454.644C830.16 482.36 859.167 508.085 887.996 531.107C915.453 553.026 943.378 572.996 970.992 590.464C996.675 606.701 1022.68 621.153 1048.29 633.414C1071.52 644.532 1094.94 654.105 1117.92 661.864C1138.19 668.702 1158.59 674.295 1178.56 678.487C1195.6 682.057 1212.73 684.69 1229.47 686.306C1243.23 687.632 1257.03 688.304 1270.48 688.304C1283.94 688.304 1297.74 687.632 1311.5 686.306C1328.24 684.69 1345.37 682.057 1362.41 678.487C1382.38 674.295 1402.78 668.702 1423.05 661.864C1446.02 654.105 1469.45 644.532 1492.68 633.414C1518.29 621.153 1544.29 606.7 1569.98 590.464C1597.59 572.996 1625.51 553.026 1652.97 531.107C1681.8 508.085 1710.81 482.36 1739.19 454.644C1768.26 426.249 1797.4 395.053 1825.8 361.923C1881.51 296.921 1936.3 222.266 1988.66 140.03C2033.91 68.918 2078.34 -9.42319 2120.7 -92.8167C2150.45 -151.386 2178.66 -211.166 2206.93 -275.57C2226.84 -320.932 2237.34 -346.667 2237.45 -346.922L2239.06 -345.671C2238.95 -345.417 2228.44 -319.65 2208.51 -274.251C2180.21 -209.795 2151.99 -149.969 2122.22 -91.3527C2079.81 -7.88226 2035.34 70.5309 1990.04 141.713C1937.63 224.045 1882.77 298.789 1826.99 363.87C1798.55 397.048 1769.37 428.288 1740.26 456.726C1711.83 484.484 1682.77 510.253 1653.9 533.314C1626.39 555.275 1598.41 575.28 1570.75 592.78C1545.01 609.054 1518.95 623.534 1493.29 635.826C1470 646.968 1446.52 656.563 1423.49 664.341C1403.16 671.198 1382.71 676.806 1362.69 681.008C1345.6 684.59 1328.42 687.228 1311.62 688.853C1297.82 690.18 1283.98 690.855 1270.48 690.855Z" fill="#CCCCCC" fill-opacity="0.24"/>
<path d="M1270.48 727.11C1256.42 727.11 1242.03 726.428 1227.69 725.08C1210.12 723.425 1192.13 720.725 1174.22 717.056C1153.15 712.734 1131.63 706.952 1110.25 699.876C1085.9 691.807 1061.1 681.853 1036.56 670.289C1009.39 657.485 981.826 642.384 954.627 625.403C925.293 607.079 895.684 586.129 866.623 563.136C836.047 538.938 805.316 511.875 775.285 482.701C744.491 452.774 713.681 419.893 683.708 384.969C624.89 316.413 567.229 237.616 512.33 150.765C464.926 75.7445 418.53 -6.94855 374.431 -95.022C343.522 -156.768 314.277 -219.813 285.026 -287.763C264.449 -335.571 253.619 -362.709 253.512 -362.977L255.131 -364.208C255.239 -363.939 266.055 -336.831 286.614 -289.068C315.844 -221.167 345.066 -158.17 375.95 -96.472C420.011 -8.47797 466.363 74.1397 513.721 149.086C568.56 235.839 626.153 314.546 684.9 383.02C714.831 417.895 745.599 450.729 776.349 480.612C806.332 509.744 837.013 536.765 867.54 560.924C896.551 583.876 926.107 604.786 955.388 623.078C982.534 640.025 1010.04 655.098 1037.15 667.872C1061.65 679.413 1086.38 689.345 1110.68 697.394C1132 704.456 1153.47 710.222 1174.49 714.535C1192.35 718.192 1210.29 720.884 1227.81 722.533C1242.11 723.876 1256.46 724.559 1270.48 724.559C1284.5 724.559 1298.85 723.876 1313.15 722.533C1330.67 720.884 1348.61 718.191 1366.47 714.535C1387.49 710.223 1408.96 704.456 1430.29 697.394C1454.58 689.345 1479.32 679.413 1503.81 667.872C1530.92 655.098 1558.43 640.024 1585.58 623.078C1614.86 604.786 1644.41 583.876 1673.42 560.924C1703.95 536.765 1734.63 509.745 1764.62 480.612C1795.36 450.737 1826.13 417.9 1856.06 383.02C1914.81 314.546 1972.4 235.838 2027.24 149.086C2074.6 74.1397 2120.95 -8.47797 2165.01 -96.472C2195.9 -158.17 2225.12 -221.167 2254.35 -289.068C2274.91 -336.832 2285.73 -363.939 2285.83 -364.208L2287.45 -362.977C2287.35 -362.71 2276.52 -335.571 2255.94 -287.763C2226.69 -219.814 2197.44 -156.768 2166.53 -95.022C2122.43 -6.94855 2076.04 75.7445 2028.64 150.765C1973.73 237.613 1916.08 316.41 1857.26 384.969C1827.28 419.898 1796.47 452.78 1765.68 482.701C1735.65 511.879 1704.92 538.941 1674.34 563.136C1645.28 586.129 1615.67 607.079 1586.34 625.403C1559.14 642.384 1531.57 657.485 1504.41 670.289C1479.86 681.853 1455.07 691.807 1430.72 699.876C1409.34 706.952 1387.81 712.735 1366.75 717.056C1348.84 720.726 1330.85 723.426 1313.27 725.08C1298.94 726.428 1284.54 727.11 1270.48 727.11Z" fill="#CCCCCC" fill-opacity="0.24"/>
<path d="M1270.48 766.05C1255.83 766.05 1240.83 765.363 1225.9 764.005C1207.46 762.329 1188.58 759.584 1169.8 755.85C1147.58 751.426 1124.88 745.496 1102.33 738.227C1076.57 729.912 1050.34 719.632 1024.36 707.672C995.525 694.382 966.304 678.698 937.508 661.055C906.374 641.97 874.974 620.121 844.179 596.117C811.728 570.808 779.171 542.495 747.415 511.962C714.812 480.607 682.247 446.135 650.624 409.51C588.57 337.611 527.952 254.903 470.455 163.685C420.897 85.0309 372.545 -1.72513 326.745 -94.175C244.591 -260.072 202.315 -373.698 201.898 -374.826L203.544 -375.987C203.961 -374.859 246.189 -261.361 328.269 -95.6136C374.03 -3.24554 422.337 83.4326 471.849 162.014C529.283 253.132 589.831 335.745 651.811 407.559C683.393 444.135 715.914 478.559 748.471 509.871C780.18 540.357 812.686 568.628 845.088 593.897C875.83 617.864 907.177 639.673 938.258 658.725C966.999 676.337 996.165 691.99 1024.95 705.253C1050.87 717.19 1077.05 727.448 1102.75 735.746C1125.25 742.997 1147.89 748.914 1170.06 753.325C1188.8 757.052 1207.63 759.79 1226.02 761.461C1240.92 762.814 1255.87 763.501 1270.48 763.501C1285.09 763.501 1300.05 762.814 1314.95 761.461C1333.34 759.789 1352.17 757.052 1370.91 753.325C1393.07 748.914 1415.72 742.997 1438.21 735.743C1463.92 727.448 1490.1 717.19 1516.02 705.253C1544.8 691.993 1573.97 676.339 1602.71 658.725C1633.79 639.676 1665.13 617.867 1695.88 593.897C1728.28 568.628 1760.79 540.358 1792.5 509.871C1825.05 478.559 1857.57 444.135 1889.16 407.559C1951.14 335.744 2011.68 253.131 2069.12 162.014C2118.63 83.4334 2166.94 -3.24554 2212.7 -95.6136C2294.78 -261.361 2337.01 -374.858 2337.42 -375.987L2339.07 -374.826C2338.65 -373.698 2296.38 -260.072 2214.22 -94.175C2168.42 -1.7243 2120.07 85.0316 2070.51 163.686C2013.02 254.904 1952.4 337.611 1890.34 409.511C1858.72 446.136 1826.16 480.608 1793.55 511.963C1761.8 542.494 1729.24 570.807 1696.79 596.118C1665.99 620.125 1634.59 641.974 1603.46 661.055C1574.66 678.702 1545.44 694.385 1516.61 707.673C1490.63 719.632 1464.4 729.913 1438.63 738.228C1416.09 745.497 1393.39 751.426 1371.17 755.85C1352.39 759.584 1333.51 762.33 1315.07 764.006C1300.13 765.362 1285.13 766.05 1270.48 766.05Z" fill="#CCCCCC" fill-opacity="0.24"/>
<path d="M1270.48 807.985C1255.21 807.985 1239.55 807.3 1223.96 805.947C1204.55 804.258 1184.7 801.488 1164.96 797.716C1141.47 793.223 1117.47 787.187 1093.65 779.771C1066.28 771.251 1038.46 760.704 1010.94 748.421C980.249 734.716 949.197 718.526 918.646 700.299C885.509 680.525 852.139 657.869 819.463 632.958C784.964 606.645 750.418 577.193 716.784 545.415C682.232 512.76 647.778 476.836 614.38 438.644C548.9 363.733 485.181 277.495 424.993 182.324C373.246 100.468 322.941 10.1528 275.476 -86.117C190.688 -258.153 147.419 -376.257 146.991 -377.43L148.642 -378.576C149.069 -377.406 192.29 -259.437 277.004 -87.5515C324.427 8.63318 374.686 98.8686 426.384 180.645C486.507 275.714 550.155 361.857 615.56 436.681C648.914 474.823 683.323 510.699 717.828 543.313C751.413 575.044 785.908 604.453 820.356 630.727C852.98 655.597 886.296 678.219 919.378 697.957C949.875 716.152 980.872 732.314 1011.51 745.995C1038.97 758.253 1066.74 768.78 1094.05 777.285C1117.83 784.683 1141.77 790.707 1165.21 795.19C1184.91 798.951 1204.71 801.715 1224.07 803.401C1239.63 804.748 1255.25 805.433 1270.48 805.433C1285.72 805.433 1301.34 804.748 1316.89 803.401C1336.26 801.715 1356.06 798.951 1375.75 795.19C1399.2 790.707 1423.14 784.683 1446.92 777.285C1474.22 768.78 1501.99 758.253 1529.46 745.995C1560.1 732.314 1591.09 716.152 1621.59 697.957C1654.67 678.218 1687.99 655.597 1720.61 630.727C1755.06 604.45 1789.56 575.042 1823.14 543.31C1857.64 510.703 1892.05 474.827 1925.41 436.681C1990.82 361.852 2054.46 275.709 2114.58 180.645C2166.28 98.8686 2216.54 8.63318 2263.96 -87.5515C2348.68 -259.437 2391.9 -377.406 2392.33 -378.576L2393.98 -377.43C2393.55 -376.257 2350.28 -258.153 2265.49 -86.117C2218.03 10.1528 2167.72 100.468 2115.98 182.324C2055.79 277.49 1992.07 363.728 1926.59 438.644C1893.19 476.84 1858.73 512.762 1824.18 545.416C1790.55 577.191 1756.01 606.646 1721.51 632.958C1688.83 657.871 1655.46 680.527 1622.32 700.299C1591.77 718.526 1560.72 734.716 1530.03 748.421C1502.51 760.704 1474.68 771.251 1447.32 779.771C1423.49 787.187 1399.5 793.223 1376.01 797.716C1356.27 801.488 1336.42 804.258 1317.01 805.947C1301.41 807.299 1285.76 807.985 1270.48 807.985Z" fill="#CCCCCC" fill-opacity="0.24"/>
<path d="M1270.48 853.274C1263.03 853.274 1255.41 853.127 1247.83 852.835C1239.23 852.501 1230.48 851.973 1221.84 851.263C1201.39 849.586 1180.46 846.824 1159.66 843.058C1134.75 838.542 1109.32 832.456 1084.07 824.97C1054.97 816.336 1025.37 805.612 996.104 793.097C963.379 779.097 930.299 762.529 897.784 743.851C862.434 723.534 826.895 700.235 792.155 674.597C717.566 619.521 644.37 552.031 574.599 474.004C505.533 396.722 438.588 307.688 375.626 209.375C321.725 125.18 269.512 32.2432 220.437 -66.8506C133.311 -242.853 89.1799 -364.041 88.7441 -365.244L90.3973 -366.385C90.8323 -365.181 134.914 -244.133 221.961 -68.2908C270.995 30.7187 323.162 123.57 377.011 207.686C439.906 305.896 506.775 394.831 575.762 472.021C645.442 549.949 718.54 617.347 793.026 672.349C827.713 697.947 863.198 721.214 898.494 741.495C930.955 760.143 963.979 776.684 996.649 790.661C1025.87 803.153 1055.41 813.858 1084.46 822.474C1109.66 829.947 1135.04 836.023 1159.9 840.527C1180.66 844.288 1201.54 847.044 1221.95 848.717C1230.57 849.425 1239.3 849.953 1247.88 850.284C1263 850.867 1277.96 850.867 1293.08 850.284C1301.67 849.953 1310.39 849.425 1319.02 848.717C1339.43 847.044 1360.31 844.288 1381.07 840.527C1405.93 836.024 1431.31 829.948 1456.51 822.474C1485.55 813.857 1515.1 803.153 1544.32 790.661C1576.99 776.684 1610.01 760.142 1642.47 741.495C1677.77 721.213 1713.25 697.947 1747.94 672.349C1822.43 617.346 1895.52 549.948 1965.2 472.02C2034.19 394.83 2101.06 305.895 2163.96 207.685C2217.81 123.57 2269.97 30.7179 2319.01 -68.2916C2406.05 -244.135 2450.13 -365.183 2450.57 -366.385L2452.22 -365.245C2451.79 -364.042 2407.66 -242.854 2320.53 -66.8513C2271.46 32.2424 2219.24 125.179 2165.34 209.374C2102.38 307.688 2035.43 396.721 1966.37 474.003C1896.6 552.031 1823.4 619.521 1748.81 674.596C1714.07 700.236 1678.53 723.536 1643.18 743.852C1610.67 762.529 1577.59 779.098 1544.86 793.098C1515.59 805.612 1486 816.336 1456.9 824.971C1431.65 832.457 1406.22 838.542 1381.31 843.059C1360.5 846.825 1339.58 849.587 1319.13 851.264C1310.49 851.974 1301.74 852.502 1293.14 852.836C1285.56 853.127 1277.94 853.274 1270.48 853.274Z" fill="#CCCCCC" fill-opacity="0.24"/>
<path d="M1270.48 902.338C1262.7 902.338 1254.74 902.196 1246.82 901.914C1237.83 901.593 1228.65 901.082 1219.52 900.392C1209.27 899.615 1198.84 898.594 1188.52 897.354C1177.06 895.976 1165.38 894.29 1153.81 892.339C1127.29 887.862 1100.26 881.819 1073.48 874.376C1042.39 865.734 1010.82 854.979 979.642 842.408C944.638 828.291 909.304 811.546 874.622 792.645C836.827 772.041 798.894 748.376 761.879 722.304C682.39 666.291 604.665 597.52 530.862 517.901C457.593 438.806 386.648 347.207 319.998 245.654C264.407 160.926 210.845 67.8084 160.801 -31.1168C72.7441 -205.236 27.6488 -328.762 27.2036 -329.991L28.8561 -331.131C29.3 -329.906 74.3428 -206.531 162.316 -32.5759C212.316 66.2593 265.829 159.292 321.368 243.941C387.948 345.389 458.815 436.885 532.001 515.894C605.711 595.411 683.336 664.094 762.721 720.033C799.684 746.067 837.561 769.7 875.302 790.274C909.933 809.148 945.212 825.866 980.161 839.962C1011.29 852.51 1042.81 863.248 1073.84 871.875C1100.58 879.306 1127.56 885.34 1154.04 889.809C1165.58 891.754 1177.24 893.438 1188.68 894.813C1198.99 896.051 1209.39 897.07 1219.62 897.847C1228.73 898.534 1237.9 899.046 1246.87 899.364C1262.68 899.927 1278.29 899.927 1294.1 899.364C1303.07 899.046 1312.24 898.535 1321.35 897.847C1331.57 897.07 1341.98 896.051 1352.28 894.813C1363.73 893.438 1375.38 891.754 1386.93 889.809C1413.41 885.34 1440.39 879.306 1467.13 871.875C1498.16 863.246 1529.68 852.51 1560.81 839.962C1595.76 825.865 1631.04 809.148 1665.67 790.274C1703.4 769.703 1741.28 746.07 1778.25 720.033C1857.63 664.094 1935.26 595.411 2008.97 515.894C2082.15 436.885 2153.02 345.389 2219.6 243.941C2275.14 159.292 2328.65 66.2585 2378.65 -32.5759C2466.62 -206.531 2511.67 -329.906 2512.11 -331.131L2513.76 -329.991C2513.32 -328.763 2468.22 -205.237 2380.17 -31.1168C2330.12 67.8084 2276.56 160.926 2220.97 245.654C2154.32 347.207 2083.37 438.806 2010.11 517.901C1936.3 597.52 1858.58 666.291 1779.09 722.305C1742.07 748.379 1704.14 772.043 1666.34 792.645C1631.66 811.547 1596.33 828.292 1561.32 842.409C1530.15 854.979 1498.58 865.733 1467.49 874.377C1440.71 881.82 1413.68 887.864 1387.15 892.34C1375.59 894.291 1363.91 895.976 1352.44 897.354C1342.12 898.595 1331.69 899.616 1321.45 900.393C1312.32 901.083 1303.14 901.593 1294.15 901.915C1286.23 902.196 1278.27 902.338 1270.48 902.338Z" fill="#CCCCCC" fill-opacity="0.24"/>
<path d="M1270.48 955.666C1262.31 955.666 1253.97 955.532 1245.71 955.27C1236.18 954.967 1226.51 954.481 1216.97 953.83C1206.12 953.093 1195.09 952.119 1184.19 950.938C1171.99 949.612 1159.59 947.994 1147.34 946.122C1119.04 941.79 1090.22 935.919 1061.69 928.673C1028.37 920.2 994.591 909.631 961.291 897.256C923.74 883.296 885.891 866.698 848.8 847.925C808.309 827.428 767.734 803.841 728.2 777.814C643.465 722.009 560.869 653.33 482.706 573.686C406.47 495.955 332.838 405.923 263.857 306.087C206.367 222.858 151.104 131.359 99.6019 34.1338C9.05997 -136.847 -37.012 -258.121 -37.4668 -259.327L-35.8279 -260.505C-35.3739 -259.3 10.6418 -138.182 101.095 32.6297C152.55 129.766 207.761 221.177 265.195 304.329C334.102 404.056 407.653 493.99 483.803 571.633C561.873 651.181 644.367 719.776 728.995 775.514C768.477 801.505 808.999 825.061 849.435 845.529C886.477 864.277 924.272 880.852 961.771 894.795C995.024 907.151 1028.75 917.705 1062.02 926.162C1090.51 933.401 1119.28 939.262 1147.55 943.587C1159.77 945.455 1172.15 947.072 1184.34 948.397C1195.21 949.576 1206.23 950.547 1217.06 951.284C1226.59 951.932 1236.24 952.415 1245.76 952.719C1262.25 953.247 1278.72 953.247 1295.21 952.719C1304.73 952.415 1314.38 951.932 1323.9 951.284C1334.74 950.547 1345.75 949.576 1356.63 948.397C1368.82 947.072 1381.19 945.455 1393.42 943.587C1421.68 939.262 1450.46 933.401 1478.94 926.162C1512.22 917.705 1545.95 907.151 1579.2 894.795C1616.7 880.852 1654.49 864.277 1691.53 845.529C1731.97 825.061 1772.49 801.503 1811.97 775.514C1896.6 719.776 1979.1 651.181 2057.17 571.633C2133.32 493.99 2206.87 404.056 2275.77 304.329C2333.21 221.177 2388.42 129.764 2439.87 32.6297C2530.33 -138.182 2576.34 -259.299 2576.8 -260.505L2578.44 -259.327C2577.98 -258.121 2531.91 -136.847 2441.37 34.1338C2389.87 131.357 2334.6 222.856 2277.11 306.087C2208.13 405.923 2134.5 495.955 2058.26 573.686C1980.1 653.33 1897.5 722.008 1812.77 777.815C1773.23 803.839 1732.66 827.429 1692.17 847.926C1655.08 866.699 1617.23 883.296 1579.68 897.256C1546.38 909.632 1512.6 920.201 1479.28 928.673C1450.75 935.922 1421.93 941.791 1393.62 946.123C1381.38 947.994 1368.98 949.613 1356.78 950.939C1345.88 952.12 1334.85 953.094 1323.99 953.831C1314.46 954.482 1304.79 954.967 1295.26 955.271C1287 955.532 1278.66 955.666 1270.48 955.666Z" fill="#CCCCCC" fill-opacity="0.24"/>
<path d="M1270.48 1013.84C1261.85 1013.84 1253.1 1013.72 1244.5 1013.49C1234.43 1013.21 1224.23 1012.77 1214.16 1012.18C1202.68 1011.51 1190.98 1010.62 1179.39 1009.54C1166.41 1008.32 1153.2 1006.82 1140.15 1005.08C1125.67 1003.16 1110.98 1000.88 1096.48 998.321C1080.55 995.506 1064.41 992.275 1048.52 988.713C1012.68 980.684 976.41 970.625 940.73 958.813C900.33 945.433 859.67 929.474 819.881 911.371C776.417 891.594 732.921 868.776 690.6 843.556C600.362 789.759 512.561 723.37 429.636 646.235C349.942 572.067 273.226 486.392 201.619 391.59C141.708 312.247 84.5201 225.399 31.6438 133.452C-58.9402 -24.1268 -104.5 -133.716 -104.95 -134.805L-103.344 -136.07C-102.896 -134.981 -57.3972 -25.5441 33.091 131.868C85.9156 223.723 143.047 310.486 202.898 389.749C274.429 484.452 351.063 570.034 430.668 644.118C513.499 721.167 601.199 787.481 691.332 841.215C733.603 866.405 777.047 889.196 820.458 908.949C860.201 927.027 900.811 942.969 941.161 956.332C976.797 968.129 1013.02 978.176 1048.81 986.197C1064.69 989.752 1080.8 992.98 1096.71 995.79C1111.19 998.346 1125.86 1000.62 1140.32 1002.54C1153.37 1004.28 1166.55 1005.78 1179.51 1006.99C1191.09 1008.08 1202.77 1008.97 1214.24 1009.64C1224.3 1010.23 1234.49 1010.66 1244.53 1010.94C1261.73 1011.4 1279.24 1011.4 1296.44 1010.94C1306.48 1010.66 1316.67 1010.23 1326.73 1009.64C1338.19 1008.97 1349.88 1008.08 1361.45 1006.99C1374.42 1005.78 1387.6 1004.28 1400.64 1002.54C1415.1 1000.62 1429.78 998.346 1444.25 995.79C1460.16 992.98 1476.28 989.752 1492.16 986.197C1527.95 978.176 1564.17 968.129 1599.81 956.332C1640.16 942.969 1680.77 927.027 1720.51 908.949C1763.92 889.195 1807.36 866.405 1849.63 841.215C1939.77 787.481 2027.47 721.167 2110.3 644.118C2189.9 570.034 2266.54 484.452 2338.07 389.747C2397.92 310.485 2455.05 223.721 2507.88 131.869C2598.36 -25.5433 2643.86 -134.98 2644.31 -136.069L2645.92 -134.804C2645.47 -133.715 2599.91 -24.126 2509.32 133.453C2456.45 225.395 2399.26 312.246 2339.35 391.589C2267.74 486.392 2191.03 572.067 2111.33 646.233C2028.41 723.371 1940.61 789.76 1850.37 843.557C1808.05 868.777 1764.55 891.595 1721.09 911.372C1681.3 929.474 1640.64 945.434 1600.24 958.814C1564.56 970.626 1528.29 980.685 1492.45 988.714C1476.55 992.276 1460.42 995.506 1444.49 998.321C1429.99 1000.88 1415.3 1003.16 1400.82 1005.08C1387.76 1006.82 1374.56 1008.32 1361.58 1009.54C1349.99 1010.62 1338.29 1011.51 1326.8 1012.18C1316.74 1012.77 1306.53 1013.21 1296.47 1013.49C1287.86 1013.72 1279.12 1013.84 1270.48 1013.84Z" fill="#CCCCCC" fill-opacity="0.24"/>
<path d="M1270.48 1077.55C1261.36 1077.55 1252.16 1077.46 1243.16 1077.26C1232.5 1077.03 1221.7 1076.67 1211.04 1076.17C1198.75 1075.59 1186.3 1074.83 1174.04 1073.91C1160.13 1072.86 1146.02 1071.56 1132.1 1070.05C1116.52 1068.36 1100.77 1066.37 1085.27 1064.12C1068.14 1061.63 1050.8 1058.76 1033.71 1055.59C994.984 1048.4 955.911 1039.33 917.573 1028.64C873.995 1016.48 830.18 1001.9 787.346 985.295C740.667 967.198 693.945 946.233 648.476 922.982C552.779 874.028 459.467 813.401 371.134 742.784C182.541 591.925 44.0124 415.539 -38.9883 294.13C-74.8315 241.683 -108.115 188.676 -140.741 132.087C-162.977 93.5153 -174.589 71.554 -174.704 71.3347L-173.21 69.8347C-173.095 70.0516 -161.503 91.9752 -139.295 130.497C-106.702 187.031 -73.4516 239.983 -37.6438 292.38C45.272 413.663 183.659 589.873 372.059 740.577C460.303 811.121 553.519 871.685 649.119 920.59C694.539 943.817 741.215 964.759 787.846 982.84C830.635 999.425 874.405 1013.99 917.94 1026.14C956.238 1036.82 995.271 1045.88 1033.95 1053.06C1051.03 1056.23 1068.36 1059.1 1085.46 1061.58C1100.94 1063.83 1116.68 1065.82 1132.24 1067.51C1146.15 1069.02 1160.24 1070.31 1174.14 1071.36C1186.39 1072.29 1198.83 1073.05 1211.11 1073.62C1221.75 1074.11 1232.54 1074.48 1243.18 1074.71C1261.18 1075.1 1279.78 1075.1 1297.78 1074.71C1308.43 1074.48 1319.22 1074.11 1329.86 1073.62C1342.14 1073.05 1354.58 1072.29 1366.83 1071.36C1380.72 1070.31 1394.82 1069.01 1408.72 1067.51C1424.28 1065.82 1440.02 1063.83 1455.5 1061.58C1472.61 1059.1 1489.95 1056.23 1507.01 1053.06C1545.7 1045.88 1584.73 1036.82 1623.03 1026.14C1666.56 1013.99 1710.33 999.425 1753.12 982.84C1799.75 964.759 1846.43 943.817 1891.85 920.59C1987.45 871.686 2080.67 811.121 2168.91 740.577C2357.31 589.873 2495.7 413.663 2578.61 292.381C2614.42 239.985 2647.67 187.032 2680.26 130.498C2702.47 91.976 2714.06 70.0516 2714.18 69.8355L2715.67 71.338C2715.56 71.5548 2703.94 93.5153 2681.71 132.088C2649.08 188.677 2615.8 241.684 2579.96 294.131C2496.95 415.539 2358.43 591.926 2169.83 742.784C2081.5 813.401 1988.19 874.028 1892.49 922.982C1847.02 946.234 1800.3 967.198 1753.62 985.295C1710.79 1001.9 1666.97 1016.48 1623.39 1028.64C1585.06 1039.33 1545.98 1048.4 1507.26 1055.59C1490.17 1058.76 1472.83 1061.63 1455.7 1064.12C1440.2 1066.37 1424.44 1068.36 1408.87 1070.05C1394.95 1071.56 1380.84 1072.85 1366.93 1073.91C1354.67 1074.83 1342.22 1075.59 1329.92 1076.17C1319.27 1076.66 1308.47 1077.03 1297.81 1077.26C1288.8 1077.46 1279.61 1077.55 1270.48 1077.55Z" fill="#CCCCCC" fill-opacity="0.24"/>
<path d="M1270.48 1147.64C1261.46 1147.64 1251.85 1147.58 1241.67 1147.43C1230.33 1147.27 1218.86 1147 1207.57 1146.65C1194.4 1146.22 1181.1 1145.66 1168.04 1144.98C1152.97 1144.18 1137.83 1143.19 1123.05 1142.05C1106.29 1140.76 1089.33 1139.21 1072.62 1137.45C1054.06 1135.49 1035.34 1133.23 1016.96 1130.71C974.975 1124.94 932.712 1117.58 891.346 1108.83C844.295 1098.88 796.932 1086.81 750.573 1072.95C700.551 1058 650.271 1040.55 601.131 1021.08C501.163 981.477 402.098 932.062 306.686 874.212C158.13 784.107 16.9606 673.098 -112.901 544.268C-147.647 509.793 -180.379 475.309 -212.966 438.847C-234.529 414.717 -245.807 401.325 -245.918 401.192L-244.712 399.26C-244.601 399.392 -233.341 412.761 -211.801 436.865C-179.243 473.295 -146.539 507.753 -111.821 542.196C17.934 670.923 158.991 781.843 307.429 871.874C402.765 929.68 501.753 979.057 601.642 1018.63C650.742 1038.08 700.982 1055.52 750.964 1070.46C797.286 1084.3 844.612 1096.36 891.625 1106.31C932.959 1115.06 975.19 1122.41 1017.14 1128.17C1035.5 1130.68 1054.22 1132.95 1072.77 1134.91C1089.46 1136.67 1106.41 1138.21 1123.15 1139.51C1137.92 1140.65 1153.05 1141.63 1168.11 1142.43C1181.16 1143.11 1194.45 1143.68 1207.61 1144.1C1218.89 1144.46 1230.35 1144.72 1241.69 1144.88C1251.86 1145.03 1261.46 1145.09 1270.48 1145.09C1279.51 1145.09 1289.11 1145.03 1299.28 1144.88C1310.61 1144.72 1322.08 1144.46 1333.36 1144.1C1346.51 1143.68 1359.8 1143.11 1372.85 1142.43C1387.92 1141.63 1403.05 1140.65 1417.82 1139.51C1434.56 1138.21 1451.51 1136.67 1468.2 1134.91C1486.75 1132.95 1505.46 1130.69 1523.82 1128.17C1565.78 1122.41 1608.01 1115.06 1649.34 1106.31C1696.36 1096.36 1743.69 1084.3 1790 1070.46C1839.99 1055.52 1890.23 1038.08 1939.33 1018.63C2039.22 979.057 2138.2 929.68 2233.54 871.874C2381.98 781.843 2523.03 670.924 2652.79 542.196C2687.51 507.752 2720.21 473.295 2752.77 436.865C2774.31 412.761 2785.57 399.392 2785.68 399.26L2786.89 401.192C2786.78 401.325 2775.5 414.717 2753.93 438.847C2721.35 475.309 2688.62 509.793 2653.87 544.268C2524.01 673.098 2382.84 784.107 2234.28 874.211C2138.87 932.061 2039.81 981.476 1939.84 1021.08C1890.7 1040.55 1840.42 1058 1790.4 1072.95C1744.04 1086.8 1696.68 1098.88 1649.62 1108.83C1608.26 1117.58 1565.99 1124.94 1524.01 1130.71C1505.63 1133.23 1486.91 1135.49 1468.34 1137.45C1451.64 1139.21 1434.68 1140.76 1417.92 1142.05C1403.14 1143.19 1388 1144.18 1372.93 1144.98C1359.87 1145.66 1346.57 1146.22 1333.4 1146.64C1322.12 1147 1310.64 1147.27 1299.3 1147.43C1289.12 1147.58 1279.51 1147.64 1270.48 1147.64Z" fill="#CCCCCC" fill-opacity="0.24"/>
<path d="M1270.48 1225.1C1260.97 1225.1 1250.81 1225.08 1240.01 1225.02C1228.56 1224.95 1216.44 1224.85 1203.67 1224.67C1189.57 1224.49 1175.31 1224.22 1161.28 1223.88C1144.93 1223.48 1128.61 1222.98 1112.79 1222.38C1094.47 1221.68 1076.12 1220.83 1058.26 1219.85C1038.03 1218.73 1017.72 1217.41 997.898 1215.91C952.179 1212.47 906.273 1207.89 861.456 1202.32C810.86 1196.02 759.501 1188.18 708.803 1179.01C656.177 1169.5 601.994 1158.14 547.757 1145.26C453.626 1122.91 354.511 1094.9 235.836 1057.13C201.297 1046.14 168.351 1035.56 137.014 1025.5C-3.68628 980.33 -114.82 944.649 -189.202 930.428C-273.948 914.298 -316.652 919.514 -317.072 919.574L-317.246 917.033C-316.821 916.983 -273.939 911.722 -188.95 927.902C-114.483 942.139 -3.31378 977.83 137.432 1023.02C168.768 1033.08 201.713 1043.66 236.25 1054.64C354.891 1092.41 453.974 1120.4 548.069 1142.75C602.282 1155.62 656.441 1166.97 709.043 1176.48C759.717 1185.64 811.05 1193.48 861.621 1199.78C906.416 1205.35 952.3 1209.93 997.998 1213.37C1017.82 1214.86 1038.11 1216.18 1058.33 1217.3C1076.19 1218.28 1094.53 1219.13 1112.84 1219.83C1128.65 1220.43 1144.96 1220.93 1161.31 1221.33C1175.34 1221.67 1189.59 1221.94 1203.69 1222.12C1216.45 1222.3 1228.57 1222.4 1240.02 1222.47C1250.81 1222.53 1260.97 1222.55 1270.48 1222.55C1280 1222.55 1290.15 1222.53 1300.94 1222.47C1312.4 1222.4 1324.51 1222.3 1337.28 1222.12C1351.37 1221.94 1365.63 1221.67 1379.65 1221.33C1396 1220.93 1412.31 1220.43 1428.12 1219.83C1446.44 1219.13 1464.78 1218.28 1482.63 1217.3C1502.85 1216.18 1523.14 1214.86 1542.97 1213.37C1588.66 1209.93 1634.55 1205.35 1679.34 1199.78C1729.91 1193.48 1781.25 1185.64 1831.92 1176.48C1884.52 1166.97 1938.68 1155.62 1992.89 1142.75C2086.99 1120.4 2186.07 1092.41 2304.71 1054.64C2339.25 1043.66 2372.19 1033.08 2403.53 1023.02C2544.27 977.83 2655.45 942.139 2729.91 927.902C2814.91 911.725 2857.79 916.987 2858.21 917.033L2858.04 919.574C2857.61 919.517 2814.91 914.298 2730.17 930.428C2655.78 944.649 2544.65 980.33 2403.94 1025.51C2372.61 1035.57 2339.66 1046.14 2305.13 1057.13C2186.45 1094.9 2087.34 1122.91 1993.21 1145.26C1938.97 1158.14 1884.79 1169.5 1832.16 1179.01C1781.46 1188.18 1730.1 1196.02 1679.51 1202.32C1634.69 1207.89 1588.79 1212.47 1543.07 1215.91C1523.24 1217.41 1502.93 1218.73 1482.71 1219.85C1464.84 1220.83 1446.49 1221.68 1428.17 1222.38C1412.36 1222.98 1396.04 1223.48 1379.68 1223.88C1365.66 1224.22 1351.4 1224.49 1337.3 1224.67C1324.52 1224.85 1312.41 1224.95 1300.95 1225.02C1290.16 1225.08 1280 1225.1 1270.48 1225.1Z" fill="#CCCCCC" fill-opacity="0.24"/>
<path d="M2928.19 1728.02C2927.82 1726.97 2890.64 1621.41 2806.67 1523.75C2738.48 1444.54 2609.57 1344.43 2382.72 1317.33C2279.1 1305.07 2163.27 1304.98 2053.53 1306.69C2011.14 1307.36 1967.51 1308.36 1925.31 1309.32C1910.16 1309.67 1895 1310.01 1879.84 1310.35C1814.46 1311.79 1761.7 1312.7 1713.79 1313.21C1687.91 1313.49 1661.98 1313.67 1636.72 1313.74C1613.17 1313.81 1589.02 1313.81 1564.93 1313.72C1542.37 1313.64 1520.42 1313.48 1499.15 1313.29C1478.69 1313.11 1458.92 1312.9 1439.87 1312.68L1387.36 1312.05C1371.4 1311.86 1356.18 1311.69 1341.7 1311.55C1328 1311.42 1315.04 1311.32 1302.81 1311.25C1291.32 1311.19 1280.55 1311.16 1270.48 1311.16C1260.42 1311.16 1249.65 1311.19 1238.16 1311.25C1225.93 1311.32 1212.96 1311.42 1199.26 1311.55C1184.79 1311.69 1169.57 1311.86 1153.6 1312.05L1101.09 1312.68C1082.04 1312.9 1062.27 1313.11 1041.82 1313.29C1020.54 1313.48 998.602 1313.64 976.037 1313.72C951.953 1313.81 927.799 1313.82 904.25 1313.74C878.992 1313.67 853.059 1313.49 827.174 1313.21C779.273 1312.7 726.511 1311.79 661.132 1310.35C645.968 1310.01 630.808 1309.67 615.666 1309.32C573.467 1308.36 529.831 1307.36 487.437 1306.69C377.702 1304.97 261.869 1305.08 158.245 1317.33C-68.6075 1344.43 -197.514 1444.54 -265.707 1523.75C-349.674 1621.41 -386.854 1726.97 -387.22 1728.02L-388.888 1726.92C-388.521 1725.86 -351.187 1619.83 -266.897 1521.8C-198.5 1442.35 -69.2492 1341.95 158.087 1314.79C261.792 1302.52 377.68 1302.42 487.458 1304.14C529.857 1304.81 573.495 1305.81 615.696 1306.77C630.838 1307.12 645.998 1307.46 661.161 1307.8C726.535 1309.24 779.291 1310.15 827.189 1310.66C853.07 1310.94 878.999 1311.12 904.254 1311.19C927.802 1311.27 951.951 1311.26 976.033 1311.17C998.596 1311.09 1020.54 1310.93 1041.8 1310.74C1062.26 1310.56 1082.03 1310.35 1101.08 1310.13L1153.59 1309.5C1169.55 1309.31 1184.78 1309.14 1199.25 1309C1212.95 1308.87 1225.92 1308.77 1238.15 1308.7C1249.64 1308.64 1260.42 1308.61 1270.48 1308.61C1280.55 1308.61 1291.33 1308.64 1302.82 1308.7C1315.05 1308.77 1328.02 1308.87 1341.72 1309C1356.19 1309.14 1371.42 1309.31 1387.38 1309.5L1439.89 1310.13C1458.94 1310.35 1478.71 1310.56 1499.17 1310.74C1520.43 1310.93 1542.37 1311.09 1564.94 1311.17C1589.02 1311.27 1613.17 1311.27 1636.71 1311.19C1661.97 1311.12 1687.9 1310.94 1713.78 1310.66C1761.68 1310.15 1814.43 1309.24 1879.81 1307.8C1894.97 1307.46 1910.13 1307.12 1925.28 1306.77C1967.48 1305.81 2011.11 1304.81 2053.51 1304.14C2163.29 1302.43 2279.18 1302.52 2382.88 1314.79C2610.22 1341.95 2739.47 1442.35 2807.86 1521.8C2892.16 1619.83 2929.49 1725.87 2929.86 1726.92L2928.19 1728.02Z" fill="#CCCCCC" fill-opacity="0.24"/>
<path d="M-8.66041 1770.85C17.6703 1743.53 45.1152 1718.38 73.7 1695.61C123.107 1656.3 178.426 1621.57 238.122 1592.38C292.923 1565.6 352.137 1542.81 419.145 1522.68C475.549 1505.76 536.82 1490.93 606.457 1477.34C661.786 1466.57 721.032 1456.81 787.578 1447.52C814.978 1443.7 843.394 1440 872.038 1436.52C898.22 1433.35 924.708 1430.34 950.765 1427.58C975.121 1425 999.37 1422.61 1022.84 1420.48C1044.98 1418.47 1066.78 1416.66 1087.64 1415.1C1107.34 1413.63 1126.57 1412.35 1144.81 1411.3C1161.77 1410.33 1178.4 1409.52 1194.25 1408.91C1208.6 1408.36 1222.67 1407.94 1236.06 1407.69C1247.85 1407.46 1259.43 1407.35 1270.48 1407.35C1281.54 1407.35 1293.12 1407.46 1304.91 1407.69C1318.3 1407.94 1332.36 1408.36 1346.71 1408.91C1362.56 1409.52 1379.2 1410.33 1396.16 1411.3C1414.39 1412.35 1433.63 1413.63 1453.33 1415.1C1474.19 1416.66 1495.99 1418.47 1518.13 1420.48C1541.59 1422.61 1565.84 1425 1590.2 1427.58C1616.26 1430.34 1642.75 1433.35 1668.93 1436.52C1697.57 1440 1725.99 1443.7 1753.39 1447.52C1819.94 1456.81 1879.18 1466.57 1934.51 1477.34C2004.15 1490.93 2065.42 1505.76 2121.82 1522.68C2188.83 1542.81 2248.04 1565.6 2302.85 1592.38C2362.54 1621.57 2417.86 1656.3 2467.27 1695.61C2495.85 1718.38 2523.3 1743.53 2549.63 1770.85H2552.71C2525.72 1742.67 2497.55 1716.78 2468.19 1693.39C2418.69 1654.02 2363.27 1619.22 2303.46 1589.97C2248.59 1563.16 2189.3 1540.34 2122.22 1520.19C2065.77 1503.25 2004.45 1488.41 1934.77 1474.82C1879.41 1464.03 1820.15 1454.27 1753.58 1444.98C1726.17 1441.16 1697.74 1437.46 1669.09 1433.98C1642.9 1430.8 1616.41 1427.79 1590.34 1425.04C1565.98 1422.46 1541.72 1420.07 1518.25 1417.94C1496.1 1415.92 1474.29 1414.11 1453.43 1412.55C1433.72 1411.08 1414.48 1409.8 1396.23 1408.75C1379.27 1407.78 1362.62 1406.97 1346.77 1406.36C1332.41 1405.81 1318.33 1405.39 1304.93 1405.14C1293.14 1404.91 1281.55 1404.8 1270.48 1404.8C1259.42 1404.8 1247.83 1404.91 1236.04 1405.14C1222.64 1405.39 1208.56 1405.81 1194.2 1406.36C1178.34 1406.97 1161.7 1407.78 1144.73 1408.75C1126.49 1409.8 1107.25 1411.08 1087.54 1412.55C1066.67 1414.11 1044.86 1415.92 1022.72 1417.94C999.241 1420.07 974.986 1422.46 950.623 1425.04C924.559 1427.79 898.063 1430.8 871.875 1433.98C843.223 1437.46 814.798 1441.16 787.391 1444.98C720.82 1454.28 661.552 1464.03 606.198 1474.82C536.513 1488.41 475.2 1503.25 418.751 1520.19C351.666 1540.34 292.379 1563.16 237.503 1589.97C177.702 1619.22 122.28 1654.01 72.7742 1693.4C43.4118 1716.79 15.243 1742.68 -11.7451 1770.85H-8.66041Z" fill="#CCCCCC" fill-opacity="0.24"/>
<path d="M412.622 1770.85C422.36 1764.49 432.174 1758.23 442.106 1752.14C474.256 1732.45 508.359 1713.6 543.466 1696.12C575.448 1680.2 609.242 1664.93 643.907 1650.73C675.179 1637.93 708.017 1625.65 741.507 1614.23C771.656 1603.95 802.936 1594.18 834.478 1585.16C863.022 1577.01 892.229 1569.36 921.287 1562.41C947.766 1556.09 974.498 1550.26 1000.74 1545.1C1024.8 1540.38 1048.78 1536.14 1072.02 1532.52C1093.3 1529.2 1114.37 1526.33 1134.65 1523.98C1152.98 1521.86 1171.1 1520.12 1188.5 1518.8C1203.89 1517.64 1219.09 1516.78 1233.68 1516.24C1246.18 1515.79 1258.56 1515.55 1270.48 1515.55C1282.4 1515.55 1294.79 1515.79 1307.29 1516.24C1321.88 1516.78 1337.08 1517.64 1352.47 1518.8C1369.87 1520.12 1387.98 1521.86 1406.31 1523.98C1426.6 1526.33 1447.67 1529.2 1468.95 1532.52C1492.19 1536.14 1516.17 1540.38 1540.22 1545.1C1566.47 1550.26 1593.2 1556.09 1619.68 1562.41C1648.74 1569.36 1677.95 1577.01 1706.49 1585.16C1738.03 1594.17 1769.31 1603.95 1799.46 1614.23C1832.95 1625.65 1865.79 1637.93 1897.06 1650.73C1931.72 1664.93 1965.52 1680.2 1997.5 1696.12C2032.61 1713.6 2066.72 1732.45 2098.86 1752.14C2108.79 1758.23 2118.61 1764.49 2128.34 1770.85H2132.6C2121.71 1763.69 2110.74 1756.63 2099.61 1749.81C2067.43 1730.09 2033.28 1711.22 1998.13 1693.72C1966.11 1677.78 1932.28 1662.5 1897.58 1648.29C1866.29 1635.47 1833.42 1623.18 1799.9 1611.75C1769.73 1601.47 1738.42 1591.68 1706.86 1582.67C1678.3 1574.51 1649.07 1566.85 1619.99 1559.9C1593.5 1553.57 1566.75 1547.74 1540.48 1542.58C1516.41 1537.85 1492.41 1533.61 1469.16 1529.98C1447.86 1526.66 1426.77 1523.79 1406.47 1521.44C1388.12 1519.32 1369.99 1517.57 1352.57 1516.25C1337.16 1515.09 1321.95 1514.23 1307.34 1513.69C1294.82 1513.24 1282.42 1513 1270.48 1513C1258.54 1513 1246.14 1513.24 1233.63 1513.69C1219.02 1514.23 1203.8 1515.09 1188.4 1516.25C1170.98 1517.57 1152.85 1519.32 1134.5 1521.44C1114.2 1523.79 1093.1 1526.66 1071.81 1529.98C1048.55 1533.61 1024.55 1537.85 1000.48 1542.58C974.219 1547.74 947.468 1553.57 920.971 1559.9C891.894 1566.85 862.667 1574.51 834.102 1582.67C802.538 1591.68 771.235 1601.47 741.063 1611.75C707.545 1623.18 674.68 1635.47 643.381 1648.29C608.681 1662.5 574.854 1677.78 542.838 1693.72C507.688 1711.22 473.545 1730.09 441.356 1749.81C430.223 1756.63 419.251 1763.69 408.366 1770.85H412.622Z" fill="#CCCCCC" fill-opacity="0.24"/>
</g>
<g filter="url(#filter0_f_712_5659)">
<rect x="600" y="600" width="1440" height="1024" fill="#00C9B7" fill-opacity="0.09"/>
</g>
<defs>
<filter id="filter0_f_712_5659" x="0" y="0" width="2640" height="2224" filterUnits="userSpaceOnUse" color-interpolation-filters="sRGB">
<feFlood flood-opacity="0" result="BackgroundImageFix"/>
<feBlend mode="normal" in="SourceGraphic" in2="BackgroundImageFix" result="shape"/>
<feGaussianBlur stdDeviation="300" result="effect1_foregroundBlur_712_5659"/>
</filter>
</defs>
</svg>
