<svg width="42" height="42" viewBox="0 0 42 42" fill="none" xmlns="http://www.w3.org/2000/svg">
<path d="M19.3223 41.032L41.4016 20.2784C42.0922 19.6293 42.107 18.5373 41.4342 17.8697L24.4199 0.987117C23.5552 0.129066 22.0924 0.451034 21.6683 1.59277L9.26125 34.9923C8.97677 35.7581 9.28654 36.6173 9.99437 37.0258L17.1818 41.221C17.9017 41.6707 18.7836 41.5383 19.3223 41.032Z" fill="url(#paint0_linear_1304_40839)"/>
<path fill-rule="evenodd" clip-rule="evenodd" d="M27.5017 24.573L19.6318 40.5637C19.2038 41.4332 18.1292 41.7595 17.2897 41.2747L0.837616 31.7743C0.165095 31.3859 -0.152294 30.5866 0.0707732 29.843L7.38109 5.47425C7.75064 4.24236 9.31386 3.86911 10.2006 4.80104L27.2123 22.6795C27.696 23.1878 27.8115 23.9435 27.5017 24.573ZM16.9221 24.2796C16.3241 25.4533 15.0213 26.0331 13.7915 25.7661L12.1067 31.3195C11.7885 32.3682 10.5901 32.8641 9.62387 32.3468C8.70068 31.8526 8.4219 30.6602 9.03028 29.8078L12.4305 25.0438C11.5481 24.2011 11.2813 22.8489 11.8638 21.7057C12.5752 20.3093 14.2843 19.7535 15.6811 20.4643C17.0779 21.1751 17.6335 22.8832 16.9221 24.2796Z" fill="#102634"/>
<defs>
<linearGradient id="paint0_linear_1304_40839" x1="17.8714" y1="41.3979" x2="32.5179" y2="2.74934" gradientUnits="userSpaceOnUse">
<stop stop-color="#2C9BF0"/>
<stop offset="0.9999" stop-color="#1CCFBD"/>
</linearGradient>
</defs>
</svg>
