<svg width="26" height="27" viewBox="0 0 26 27" fill="none" xmlns="http://www.w3.org/2000/svg">
  <path opacity="0.4" d="M22.2085 11.539H19.0777C16.5102 11.539 14.4193 9.44817 14.4193 6.88067V3.74984C14.4193 3.154 13.9318 2.6665 13.336 2.6665H8.74266C5.406 2.6665 2.7085 4.83317 2.7085 8.70067V18.299C2.7085 22.1665 5.406 24.3332 8.74266 24.3332H17.2577C20.5943 24.3332 23.2918 22.1665 23.2918 18.299V12.6223C23.2918 12.0265 22.8043 11.539 22.2085 11.539Z" fill="url(#paint0_linear_338_1618)"/>
  <path d="M17.1167 2.8942C16.6725 2.45003 15.9033 2.75337 15.9033 3.37087V7.1517C15.9033 8.73337 17.2467 10.0442 18.8825 10.0442C19.9117 10.055 21.3417 10.055 22.5658 10.055C23.1833 10.055 23.5083 9.3292 23.075 8.89587C21.515 7.32503 18.72 4.49753 17.1167 2.8942Z" fill="url(#paint1_linear_338_1618)"/>
  <path d="M12.4907 14.009L10.3241 11.8423C10.3132 11.8315 10.3024 11.8315 10.3024 11.8207C10.2374 11.7557 10.1507 11.7015 10.0641 11.6582C10.0532 11.6582 10.0532 11.6582 10.0424 11.6582C9.95573 11.6257 9.86906 11.6148 9.7824 11.604C9.7499 11.604 9.72823 11.604 9.69573 11.604C9.63073 11.604 9.5549 11.6257 9.4899 11.6473C9.4574 11.6582 9.43573 11.669 9.41406 11.6798C9.3274 11.7232 9.24073 11.7665 9.17573 11.8423L7.00906 14.009C6.6949 14.3232 6.6949 14.8432 7.00906 15.1573C7.32323 15.4715 7.84323 15.4715 8.1574 15.1573L8.9374 14.3773V18.9165C8.9374 19.3607 9.30573 19.729 9.7499 19.729C10.1941 19.729 10.5624 19.3607 10.5624 18.9165V14.3773L11.3424 15.1573C11.5049 15.3198 11.7107 15.3957 11.9166 15.3957C12.1224 15.3957 12.3282 15.3198 12.4907 15.1573C12.8049 14.8432 12.8049 14.3232 12.4907 14.009Z" fill="url(#paint2_linear_338_1618)"/>
  <defs>
    <linearGradient id="paint0_linear_338_1618" x1="2.7085" y1="4.47206" x2="28.0304" y2="10.6505" gradientUnits="userSpaceOnUse">
      <stop stop-color="#1CCFBD"/>
      <stop offset="1" stop-color="#2C9BF0"/>
    </linearGradient>
    <linearGradient id="paint1_linear_338_1618" x1="15.9033" y1="3.29743" x2="24.9156" y2="5.61152" gradientUnits="userSpaceOnUse">
      <stop stop-color="#1CCFBD"/>
      <stop offset="1" stop-color="#2C9BF0"/>
    </linearGradient>
    <linearGradient id="paint2_linear_338_1618" x1="6.77344" y1="12.2811" x2="14.2674" y2="13.6913" gradientUnits="userSpaceOnUse">
      <stop stop-color="#1CCFBD"/>
      <stop offset="1" stop-color="#2C9BF0"/>
    </linearGradient>
  </defs>
</svg>
