<svg width="130" height="125" viewBox="0 0 130 125" fill="none" xmlns="http://www.w3.org/2000/svg">
<path d="M101.661 2.27609H17.4316V117.237H101.661V2.27609Z" fill="#B2B2B2"/>
<path d="M98.8768 -1.52588e-05H14.6484V114.96H98.8768V-1.52588e-05Z" fill="white"/>
<path d="M92.9342 9.67195H20.5898V11.442H92.9342V9.67195Z" fill="#C6C6C6"/>
<path d="M92.9342 14.0984H20.5898V15.8684H92.9342V14.0984Z" fill="#C6C6C6"/>
<path d="M92.9342 32.33H20.5898V34.1001H92.9342V32.33Z" fill="#C6C6C6"/>
<path d="M92.9342 36.7561H20.5898V38.5269H92.9342V36.7561Z" fill="#C6C6C6"/>
<path d="M51.3457 42.0493H20.5898V43.8193H51.3457V42.0493Z" fill="#C6C6C6"/>
<path d="M51.3457 46.4753H20.5898V48.2469H51.3457V46.4753Z" fill="#C6C6C6"/>
<path d="M92.935 41.7335H77.5117V43.5043H92.935V41.7335Z" fill="#C6C6C6"/>
<path d="M92.935 46.1599H77.5117V47.9307H92.935V46.1599Z" fill="#C6C6C6"/>
<path d="M51.3457 51.62H20.5898V53.3901H51.3457V51.62Z" fill="#C6C6C6"/>
<path d="M51.3457 56.0457H20.5898V57.8173H51.3457V56.0457Z" fill="#C6C6C6"/>
<path d="M92.935 51.3039H77.5117V53.0747H92.935V51.3039Z" fill="#C6C6C6"/>
<path d="M92.935 55.7303H77.5117V57.5003H92.935V55.7303Z" fill="#C6C6C6"/>
<path d="M51.3457 61.1904H20.5898V62.9604H51.3457V61.1904Z" fill="#C6C6C6"/>
<path d="M51.3457 65.6168H20.5898V67.3868H51.3457V65.6168Z" fill="#C6C6C6"/>
<path d="M92.935 60.8738H77.5117V62.6454H92.935V60.8738Z" fill="#C6C6C6"/>
<path d="M92.935 65.3002H77.5117V67.071H92.935V65.3002Z" fill="#C6C6C6"/>
<path d="M51.3457 70.7592H20.5898V72.5308H51.3457V70.7592Z" fill="#C6C6C6"/>
<path d="M51.3457 75.1868H20.5898V76.9576H51.3457V75.1868Z" fill="#C6C6C6"/>
<path d="M92.935 70.4442H77.5117V72.215H92.935V70.4442Z" fill="#C6C6C6"/>
<path d="M92.935 74.8706H77.5117V76.6414H92.935V74.8706Z" fill="#C6C6C6"/>
<path d="M51.3457 80.3299H20.5898V82.1015H51.3457V80.3299Z" fill="#C6C6C6"/>
<path d="M51.3457 84.7563H20.5898V86.5279H51.3457V84.7563Z" fill="#C6C6C6"/>
<path d="M92.935 80.0145H77.5117V81.7845H92.935V80.0145Z" fill="#C6C6C6"/>
<path d="M92.935 84.4402H77.5117V86.211H92.935V84.4402Z" fill="#C6C6C6"/>
<path d="M51.3457 89.9011H20.5898V91.6711H51.3457V89.9011Z" fill="#C6C6C6"/>
<path d="M51.3457 94.3267H20.5898V96.0975H51.3457V94.3267Z" fill="#C6C6C6"/>
<path d="M92.935 89.5841H77.5117V91.3549H92.935V89.5841Z" fill="#C6C6C6"/>
<path d="M92.935 94.0109H77.5117V95.7817H92.935V94.0109Z" fill="#C6C6C6"/>
<path d="M92.9351 103.517H62.9824V105.289H92.9351V103.517Z" fill="#C6C6C6"/>
<path d="M108.927 54.4428L48.9004 95.6107L69.0563 125L129.083 83.8321L108.927 54.4428Z" fill="#558952"/>
<path opacity="0.4" d="M108.924 54.4359L69.0566 124.993L129.081 83.8235" fill="#558952"/>
<path d="M122.281 84.9166C121.331 83.6546 121.206 81.7642 122.828 80.5867L110.687 62.8865C110.635 62.9264 110.586 62.9674 110.53 63.0061C108.896 64.1274 107.211 63.4388 106.323 62.1835L58.6946 94.8504C59.5477 96.1299 59.5829 97.95 57.9477 99.0716C57.8907 99.1111 57.8325 99.1431 57.7754 99.1783L70.0041 117.007C71.3821 116.216 73.2061 116.608 74.1178 117.938L74.1241 117.947L122.281 84.9166Z" fill="#878787"/>
<path d="M120.84 84.6489C119.89 83.3862 119.766 81.4962 121.388 80.3194L109.248 62.6185C109.195 62.6583 109.146 62.6998 109.091 62.7385C107.456 63.8597 105.77 63.1711 104.883 61.9154L57.2555 94.5831C58.1075 95.8622 58.1431 97.6827 56.5083 98.8043C56.4512 98.8434 56.393 98.8747 56.3359 98.9102L68.5646 116.74C69.9427 115.948 71.7662 116.341 72.6784 117.67L72.6846 117.678L120.84 84.6489Z" fill="#B9D8A5"/>
<path d="M100.086 82.0448C104.315 88.21 102.744 96.636 96.5787 100.864C90.4135 105.093 81.9879 103.523 77.7592 97.3578C73.531 91.1931 75.1009 82.7666 81.2657 78.5384C87.4304 74.3101 95.8565 75.88 100.086 82.0448Z" fill="#558952"/>
<path d="M99.0299 82.7686C102.859 88.351 101.437 95.981 95.8552 99.8094C90.2724 103.639 82.6429 102.217 78.8144 96.6344C74.9856 91.052 76.4066 83.4228 81.9894 79.5936C87.5715 75.7647 95.201 77.1861 99.0299 82.7686Z" fill="#487546"/>
<path d="M93.4007 95.6132L88.7395 98.8105L87.2469 96.6344L91.9078 93.4372L89.9795 90.6264L89.4828 90.9672L89.0376 91.2728C88.3854 91.7195 87.7569 92.0767 87.1508 92.3421C86.5395 92.5781 85.9361 92.6661 85.3409 92.6075C84.7461 92.5484 84.1919 92.3272 83.6784 91.9462C83.1644 91.5648 82.7166 91.0958 82.3355 90.5392C81.931 89.9495 81.6528 89.2859 81.4984 88.5484C81.3456 87.8106 81.3585 87.2228 81.5359 86.7839C81.7137 86.3446 81.8829 86.0038 82.0436 85.7603C82.2046 85.5168 82.4434 85.2401 82.7603 84.931C83.0769 84.6219 83.5326 84.2631 84.1266 83.8555L84.5726 83.5499L84.9497 83.2915L84.1966 82.1945L85.1564 81.536L85.9088 82.633L90.5364 79.4595L92.0528 81.6704L87.4259 84.8442L89.4476 87.7914L90.1671 87.2974C90.5556 87.0309 90.9132 86.7944 91.2411 86.5861C91.569 86.3786 91.927 86.1703 92.3143 85.9635C92.7012 85.7576 93.1893 85.6239 93.7787 85.5641C94.3684 85.5047 94.9425 85.6317 95.5018 85.9448C96.0607 86.2586 96.6152 86.8155 97.1635 87.6148C97.4223 87.9919 97.6423 88.4167 97.8232 88.8888C98.0038 89.3605 98.1015 89.8276 98.1156 90.2887C98.1289 90.7495 98.0601 91.2001 97.9081 91.6402C97.6845 92.1467 97.3699 92.6063 96.9638 93.0182C96.5425 93.4082 96.0403 93.803 95.458 94.202L94.9609 94.5432L94.3614 94.9547L95.1837 96.1545L94.2242 96.8127L93.4007 95.6132ZM87.9731 88.8021L88.4874 88.4495L86.4657 85.5024C85.7118 86.0194 85.1603 86.5318 84.8113 87.0402C84.4623 87.5487 84.5159 88.1338 84.97 88.7962C85.369 89.3785 85.8103 89.6353 86.2914 89.5657C86.7733 89.4962 87.3337 89.2409 87.9731 88.8021ZM90.9398 89.9679L92.8673 92.7786L93.2624 92.5086C94.028 91.9833 94.5431 91.4909 94.8077 91.0328C95.0727 90.5736 94.9894 90.03 94.5583 89.402C94.2058 88.888 93.8177 88.6461 93.3929 88.6766C92.9689 88.7075 92.4882 88.9064 91.9508 89.2746L91.4881 89.5923L91.1793 89.8037L90.9398 89.9679Z" fill="#878787"/>
<path d="M92.545 96.1986L87.8833 99.3959L86.3912 97.2198L91.0524 94.0229L89.1245 91.2118L88.6274 91.553L88.1815 91.8582C87.5304 92.3049 86.9016 92.6621 86.2946 92.9283C85.6838 93.1635 85.0811 93.2519 84.4859 93.1928C83.8911 93.1338 83.3365 92.913 82.8226 92.532C82.3091 92.1501 81.8612 91.6812 81.4801 91.125C81.0753 90.5349 80.797 89.8721 80.6434 89.1338C80.4898 88.3963 80.5031 87.8081 80.6805 87.3693C80.8583 86.9304 81.0284 86.5892 81.1886 86.3461C81.3484 86.1026 81.5872 85.8259 81.9046 85.5168C82.2219 85.2077 82.6768 84.8485 83.2705 84.4413L83.7168 84.1356L84.0939 83.8769L83.3408 82.7799L84.3011 82.1217L85.0534 83.2188L89.6803 80.0453L91.1971 82.2562L86.5702 85.4296L88.5911 88.3768L89.3114 87.8832C89.6994 87.6166 90.0574 87.3798 90.3861 87.1719C90.7136 86.964 91.0716 86.7565 91.4581 86.5493C91.8458 86.343 92.3339 86.2093 92.9229 86.1499C93.5127 86.0905 94.0868 86.2175 94.646 86.531C95.2049 86.8444 95.7595 87.4013 96.3078 88.2009C96.5665 88.5781 96.7861 89.0029 96.9675 89.475C97.1484 89.9467 97.2461 90.4137 97.2598 90.8749C97.2735 91.3357 97.2035 91.7859 97.0527 92.226C96.8287 92.7328 96.5141 93.1925 96.1081 93.6044C95.6868 93.9944 95.1846 94.3887 94.6019 94.7886L94.1051 95.129L93.5052 95.5409L94.3279 96.7403L93.3684 97.3988L92.545 96.1986ZM87.1177 89.3878L87.6312 89.0353L85.6099 86.0882C84.8556 86.6052 84.3038 87.118 83.9552 87.6256C83.6062 88.1345 83.6597 88.7195 84.1139 89.382C84.5133 89.9639 84.9541 90.2207 85.4356 90.1515C85.9179 90.0819 86.4771 89.8271 87.1177 89.3878ZM90.0836 90.5537L92.0119 93.3644L92.4062 93.0943C93.1715 92.5691 93.687 92.0767 93.9515 91.6186C94.2169 91.159 94.1337 90.6162 93.7022 89.9874C93.3501 89.4734 92.9612 89.2319 92.5376 89.2624C92.1131 89.2929 91.6324 89.4922 91.0951 89.8603L90.6327 90.1773L90.3244 90.3887L90.0836 90.5537Z" fill="#B9D8A5"/>
<path d="M75.9288 98.6136C78.0431 101.696 77.258 105.909 74.1756 108.023C71.0932 110.138 66.8798 109.352 64.7655 106.27C62.6511 103.187 63.4363 98.9743 66.5183 96.86C69.6015 94.7456 73.8141 95.5304 75.9288 98.6136Z" fill="#558952"/>
<path d="M75.4021 98.9754C77.3159 101.767 76.6054 105.581 73.8142 107.495C71.0229 109.41 67.2082 108.699 65.2936 105.909C63.3793 103.117 64.0906 99.3026 66.8815 97.388C69.6727 95.4733 73.4871 96.1834 75.4021 98.9754Z" fill="#487546"/>
<path d="M72.5864 105.397L70.2552 106.996L69.5087 105.908L71.8396 104.309L70.8754 102.903L70.6269 103.074L70.4049 103.226C70.0789 103.45 69.7639 103.629 69.4611 103.761C69.155 103.879 68.8537 103.924 68.5559 103.894C68.2585 103.864 67.9822 103.754 67.7246 103.563C67.4679 103.373 67.2443 103.138 67.0532 102.86C66.8508 102.565 66.712 102.233 66.6347 101.864C66.5588 101.495 66.5647 101.202 66.6538 100.982C66.7429 100.762 66.8273 100.592 66.9075 100.47C66.9872 100.348 67.1068 100.21 67.2654 100.056C67.4241 99.9005 67.6512 99.7215 67.9486 99.5175L68.1714 99.3647L68.3601 99.2349L67.9842 98.687L68.4637 98.358L68.84 98.9059L71.1533 97.3192L71.9111 98.4244L69.5978 100.012L70.6089 101.485L70.9688 101.238C71.1635 101.105 71.3421 100.986 71.5058 100.882C71.6696 100.779 71.8482 100.675 72.042 100.571C72.2355 100.468 72.4801 100.401 72.7748 100.371C73.0687 100.342 73.3556 100.405 73.6358 100.561C73.916 100.718 74.1931 100.997 74.467 101.397C74.596 101.585 74.7062 101.798 74.7965 102.033C74.888 102.27 74.936 102.503 74.9427 102.734C74.9497 102.964 74.9153 103.189 74.8395 103.409C74.7273 103.662 74.5702 103.892 74.3674 104.098C74.1563 104.294 73.905 104.491 73.6143 104.691L73.3653 104.862L73.0652 105.067L73.4767 105.667L72.9972 105.996L72.5864 105.397ZM69.8726 101.992L70.1294 101.816L69.1187 100.342C68.7416 100.6 68.4656 100.857 68.2913 101.111C68.1166 101.365 68.1432 101.657 68.3707 101.989C68.5708 102.28 68.7908 102.408 69.0312 102.374C69.2719 102.338 69.5521 102.211 69.8726 101.992ZM71.3554 102.574L72.3195 103.98L72.5161 103.845C72.8999 103.582 73.1574 103.336 73.2895 103.107C73.4216 102.877 73.3802 102.606 73.1652 102.292C72.989 102.035 72.7943 101.914 72.5825 101.928C72.3699 101.944 72.1296 102.044 71.8615 102.228L71.6293 102.387L71.4745 102.492L71.3554 102.574Z" fill="#878787"/>
<path d="M72.1615 105.69L69.8314 107.289L69.085 106.201L71.4154 104.602L70.4513 103.196L70.2027 103.367L69.9803 103.519C69.654 103.743 69.3402 103.921 69.0369 104.055C68.7309 104.172 68.43 104.216 68.1329 104.187C67.8348 104.157 67.5577 104.047 67.3009 103.856C67.0441 103.665 66.8202 103.431 66.6295 103.153C66.4266 102.857 66.2879 102.526 66.2117 102.157C66.1347 101.788 66.1409 101.495 66.2297 101.275C66.3184 101.055 66.4032 100.885 66.4837 100.763C66.5638 100.641 66.683 100.503 66.8417 100.348C67 100.194 67.2274 100.014 67.5248 99.8102L67.7476 99.6574L67.936 99.5284L67.5596 98.9801L68.0399 98.6507L68.4151 99.199L70.7295 97.6119L71.4877 98.7171L69.1741 100.304L70.1847 101.778L70.5443 101.531C70.7389 101.398 70.9183 101.279 71.0817 101.175C71.2458 101.071 71.424 100.967 71.6179 100.864C71.8117 100.761 72.0564 100.694 72.3507 100.664C72.6457 100.634 72.9318 100.698 73.212 100.854C73.4915 101.011 73.7689 101.289 74.0437 101.689C74.1723 101.878 74.2821 102.09 74.3724 102.326C74.4634 102.563 74.5119 102.796 74.5189 103.027C74.5259 103.257 74.4916 103.482 74.415 103.702C74.3036 103.955 74.1457 104.185 73.9428 104.392C73.7326 104.587 73.4813 104.784 73.1901 104.984L72.9416 105.155L72.6418 105.36L73.053 105.96L72.573 106.289L72.1615 105.69ZM69.4484 102.284L69.7048 102.109L68.6942 100.635C68.3166 100.893 68.0419 101.15 67.8676 101.404C67.6933 101.657 67.7195 101.95 67.9465 102.282C68.1462 102.573 68.3667 102.701 68.6074 102.666C68.8481 102.631 69.1288 102.504 69.4484 102.284ZM70.9316 102.868L71.8957 104.273L72.0927 104.138C72.4749 103.876 72.7333 103.629 72.8658 103.4C72.9982 103.17 72.9564 102.898 72.7415 102.584C72.5656 102.327 72.3702 102.206 72.1588 102.222C71.9466 102.237 71.7062 102.336 71.4373 102.521L71.206 102.679L71.0516 102.785L70.9316 102.868Z" fill="#B9D8A5"/>
<path d="M112.69 73.3995C114.804 76.4823 114.019 80.6949 110.937 82.8093C107.854 84.9232 103.641 84.1384 101.527 81.0561C99.4131 77.9729 100.198 73.7599 103.28 71.6459C106.362 69.5316 110.575 70.3168 112.69 73.3995Z" fill="#558952"/>
<path d="M112.162 73.7614C114.076 76.5527 113.365 80.3671 110.574 82.2817C107.782 84.1959 103.968 83.4854 102.054 80.6946C100.139 77.9029 100.85 74.0886 103.642 72.1736C106.433 70.2593 110.248 70.9694 112.162 73.7614Z" fill="#487546"/>
<path d="M109.347 80.1841L107.017 81.7825L106.27 80.6941L108.601 79.0957L107.637 77.6899L107.389 77.8607L107.166 78.0135C106.84 78.2366 106.526 78.4152 106.223 78.5485C105.917 78.6658 105.615 78.7103 105.318 78.6806C105.02 78.6509 104.743 78.5415 104.486 78.35C104.23 78.1593 104.006 77.9248 103.815 77.6469C103.613 77.3514 103.474 77.0204 103.397 76.6511C103.32 76.2822 103.327 75.9887 103.415 75.7686C103.504 75.5494 103.589 75.379 103.669 75.2567C103.749 75.1347 103.869 74.9968 104.028 74.842C104.186 74.6872 104.413 74.5082 104.711 74.3042L104.934 74.151L105.122 74.0221L104.745 73.4741L105.226 73.1447L105.602 73.693L107.915 72.1059L108.673 73.2111L106.36 74.7982L107.37 76.272L107.73 76.025C107.925 75.8917 108.104 75.7733 108.267 75.6694C108.431 75.565 108.61 75.4614 108.803 75.3575C108.997 75.2543 109.242 75.1879 109.536 75.1582C109.831 75.1281 110.117 75.1918 110.397 75.3485C110.677 75.5052 110.955 75.7835 111.229 76.1833C111.357 76.3717 111.468 76.5843 111.558 76.8199C111.649 77.0564 111.697 77.2901 111.705 77.5207C111.712 77.7509 111.677 77.9764 111.601 78.196C111.489 78.4492 111.331 78.6791 111.129 78.8854C110.917 79.0808 110.667 79.2782 110.376 79.4779L110.127 79.6483L109.827 79.8538L110.238 80.4534L109.759 80.7828L109.347 80.1841ZM106.634 76.7781L106.89 76.6019L105.879 75.1281C105.502 75.3868 105.227 75.6432 105.052 75.8972C104.878 76.1508 104.904 76.444 105.131 76.7754C105.331 77.0665 105.552 77.1943 105.793 77.1599C106.033 77.1248 106.314 76.9974 106.634 76.7781ZM108.117 77.3608L109.081 78.7666L109.278 78.631C109.66 78.3687 109.918 78.1225 110.051 77.8931C110.183 77.6633 110.142 77.3917 109.926 77.0775C109.749 76.8207 109.556 76.6992 109.344 76.7148C109.131 76.7304 108.891 76.8297 108.622 77.0138L108.391 77.1724L108.236 77.278L108.117 77.3608Z" fill="#878787"/>
<path d="M108.921 80.4768L106.59 82.0753L105.843 80.9872L108.174 79.3884L107.21 77.9826L106.961 78.153L106.738 78.3062C106.413 78.529 106.099 78.7076 105.795 78.8409C105.489 78.9581 105.188 79.0031 104.891 78.9733C104.593 78.9436 104.316 78.8338 104.059 78.6423C103.802 78.4516 103.578 78.2171 103.387 77.9392C103.185 77.6442 103.046 77.3132 102.969 76.9434C102.893 76.5745 102.899 76.281 102.988 76.0614C103.076 75.8417 103.162 75.6713 103.241 75.5494C103.321 75.4275 103.441 75.2895 103.6 75.1347C103.758 74.98 103.985 74.8006 104.283 74.5966L104.506 74.4438L104.694 74.3144L104.318 73.7661L104.798 73.437L105.174 73.9853L107.488 72.3982L108.246 73.5039L105.933 75.0906L106.944 76.5643L107.303 76.3173C107.497 76.1845 107.676 76.0653 107.84 75.9617C108.005 75.8578 108.183 75.7538 108.377 75.6502C108.57 75.5467 108.815 75.4806 109.109 75.4505C109.404 75.4208 109.691 75.4845 109.971 75.6408C110.251 75.7976 110.528 76.0762 110.802 76.476C110.931 76.6644 111.041 76.8766 111.132 77.1127C111.222 77.3491 111.271 77.5824 111.277 77.813C111.285 78.0432 111.25 78.2687 111.174 78.488C111.062 78.742 110.904 78.971 110.702 79.1778C110.491 79.3728 110.241 79.5701 109.949 79.7702L109.7 79.9406L109.401 80.1458L109.811 80.7453L109.331 81.0748L108.921 80.4768ZM106.206 77.0712L106.464 76.8946L105.453 75.4212C105.076 75.6795 104.8 75.9363 104.626 76.1899C104.451 76.444 104.478 76.7363 104.705 77.0681C104.905 77.3593 105.125 77.4875 105.365 77.4531C105.606 77.4179 105.886 77.2905 106.206 77.0712ZM107.69 77.6536L108.655 79.0589L108.85 78.9241C109.234 78.6615 109.492 78.4153 109.624 78.1858C109.756 77.9564 109.714 77.6844 109.499 77.3702C109.323 77.1135 109.129 76.9923 108.917 77.0075C108.704 77.0232 108.464 77.1224 108.196 77.3065L107.964 77.4652L107.809 77.5711L107.69 77.6536Z" fill="#B9D8A5"/>
<path d="M111.093 16.6039C117.183 25.4833 114.922 37.6186 106.043 43.7087C97.1633 49.7988 85.028 47.5375 78.9379 38.6581C72.8474 29.7784 75.1087 17.6435 83.9877 11.5533C92.8671 5.46322 105.002 7.7241 111.093 16.6039Z" fill="#F1BE38"/>
<path d="M109.175 17.919C114.539 25.7393 112.547 36.4273 104.726 41.7913C96.906 47.1553 86.2179 45.1633 80.8539 37.343C75.4903 29.5228 77.4815 18.8351 85.3018 13.4711C93.1225 8.1075 103.811 10.0991 109.175 17.919Z" fill="#DE8529"/>
<path d="M107.836 18.8366C112.693 25.9183 110.89 35.5961 103.809 40.4528C96.7275 45.3095 87.0497 43.5066 82.1922 36.4246C77.3355 29.3442 79.1387 19.6663 86.2204 14.8093C93.302 9.95295 102.98 11.7562 107.836 18.8366Z" fill="#F1BE38"/>
<path d="M107.836 18.8366C112.693 25.9183 110.89 35.5961 103.809 40.4528C96.7275 45.3095 87.0497 43.5066 82.1922 36.4246C77.3355 29.3442 79.1387 19.6663 86.2204 14.8093C93.302 9.95295 102.98 11.7562 107.836 18.8366Z" fill="#F1BE38"/>
<path d="M104.928 34.4459C99.8147 37.9527 92.8265 36.6505 89.3193 31.537C85.8125 26.4243 87.1143 19.4361 92.2273 15.9285C97.3408 12.4217 104.329 13.7239 107.836 18.8366C102.979 11.7562 93.3017 9.95293 86.2201 14.8096C79.1389 19.6667 77.3356 29.3442 82.1919 36.425C87.0494 43.5066 96.7268 45.3095 103.809 40.4532C110.89 35.5961 112.692 25.9182 107.836 18.8366C111.343 23.9497 110.041 30.9387 104.928 34.4459Z" fill="#FFDA6F"/>
<path d="M104.459 36.9628C98.5211 41.0351 90.4057 39.5234 86.3326 33.5849C82.2599 27.6476 83.7724 19.5323 89.7101 15.4596C95.4622 11.5146 103.258 12.8102 107.442 18.2926C102.471 11.6682 93.1161 10.0799 86.2201 14.8096C79.1389 19.6667 77.3356 29.3442 82.1919 36.425C87.0494 43.5066 96.7268 45.3095 103.809 40.4532C110.704 35.7235 112.592 26.4232 108.201 19.3998C111.809 25.2781 110.21 33.0175 104.459 36.9628Z" fill="#FFDA6F"/>
<path d="M106.599 19.6847C108.616 22.6256 107.867 26.6452 104.927 28.6622C101.986 30.6792 97.9665 29.93 95.9491 26.9891C93.9321 24.0486 94.6809 20.0294 97.6222 18.0124C100.563 15.9954 104.582 16.7438 106.599 19.6847Z" fill="white"/>
<path d="M102.946 21.1776C103.758 22.3614 103.456 23.979 102.272 24.7911C101.089 25.6029 99.4708 25.3019 98.6587 24.1178C97.8474 22.9344 98.1487 21.3164 99.3317 20.5046C100.516 19.6925 102.133 19.9942 102.946 21.1776Z" fill="white"/>
<path d="M99.1381 33.9464L94.3936 37.2008L92.8741 34.9856L97.6194 31.7313L95.6571 28.8705L95.1506 29.2175L94.6977 29.5286C94.0348 29.9835 93.3947 30.3466 92.7764 30.6175C92.1538 30.857 91.5406 30.9473 90.9353 30.8867C90.3295 30.8269 89.7655 30.6018 89.2422 30.2137C88.7193 29.8253 88.2636 29.3477 87.8756 28.7818C87.4636 28.1815 87.1803 27.5061 87.024 26.755C86.8684 26.0042 86.8809 25.4059 87.0619 24.9588C87.2428 24.5121 87.4148 24.165 87.5785 23.9169C87.7423 23.6687 87.985 23.3873 88.3078 23.0727C88.6302 22.7581 89.0941 22.3931 89.6983 21.9784L90.1521 21.6669L90.5358 21.4039L89.7702 20.2873L90.7469 19.6175L91.5129 20.7337L96.2226 17.5032L97.766 19.7535L93.0562 22.9844L95.1143 25.9847L95.8471 25.4821C96.2422 25.2109 96.6064 24.9697 96.9406 24.7579C97.2739 24.5461 97.6378 24.3351 98.0325 24.1244C98.4272 23.9141 98.9236 23.7781 99.5227 23.7176C100.122 23.657 100.706 23.7863 101.276 24.1049C101.846 24.4242 102.41 24.9912 102.968 25.8049C103.231 26.1887 103.455 26.6206 103.639 27.1013C103.824 27.582 103.923 28.0568 103.937 28.5262C103.951 28.9956 103.881 29.4536 103.726 29.9019C103.499 30.417 103.178 30.8856 102.765 31.3053C102.335 31.7024 101.825 32.1033 101.231 32.5102L100.726 32.8572L100.115 33.2762L100.952 34.4979L99.9761 35.1677L99.1381 33.9464ZM93.6139 27.0141L94.1372 26.6549L92.0792 23.6546C91.3116 24.1811 90.7508 24.7036 90.3952 25.2203C90.0407 25.7369 90.0946 26.3337 90.5573 27.0075C90.9638 27.6007 91.4128 27.8618 91.9017 27.7911C92.3922 27.7203 92.9624 27.4604 93.6139 27.0141ZM96.6334 28.2006L98.5957 31.0614L98.9971 30.7863C99.776 30.2516 100.301 29.751 100.57 29.284C100.839 28.8166 100.755 28.2639 100.316 27.6238C99.9573 27.1005 99.5614 26.8543 99.1307 26.8855C98.6989 26.9164 98.2096 27.1196 97.6628 27.4944L97.1919 27.8172L96.8777 28.0326L96.6334 28.2006Z" fill="#878787"/>
<path d="M98.2673 34.5428L93.5224 37.7971L92.0029 35.582L96.7482 32.328L94.7855 29.4672L94.2802 29.8139L93.8264 30.125C93.1636 30.5799 92.5234 30.9433 91.9056 31.2138C91.283 31.4534 90.6698 31.5436 90.064 31.4831C89.4587 31.4233 88.8939 31.1985 88.3714 30.8105C87.8485 30.4216 87.3928 29.944 87.0047 29.3785C86.5924 28.7782 86.3091 28.1025 86.1527 27.3517C85.9972 26.601 86.0101 26.0026 86.1906 25.5555C86.372 25.1088 86.5443 24.7618 86.7077 24.5136C86.8707 24.2654 87.1137 23.9844 87.4362 23.6698C87.759 23.3548 88.2229 22.9898 88.8275 22.5748L89.2808 22.2641L89.6642 22.0006L88.8986 20.8841L89.8757 20.2142L90.6413 21.3304L95.3514 18.0999L96.8948 20.3502L92.1842 23.5811L94.2427 26.5814L94.9754 26.0788C95.3706 25.808 95.7356 25.5665 96.069 25.3546C96.4031 25.1428 96.7662 24.9318 97.1609 24.7211C97.5556 24.5109 98.0524 24.3749 98.6515 24.3143C99.2514 24.2537 99.8353 24.3831 100.405 24.7016C100.974 25.0209 101.538 25.588 102.097 26.4013C102.359 26.7854 102.583 27.2173 102.768 27.698C102.952 28.1787 103.051 28.6535 103.066 29.1229C103.079 29.5923 103.009 30.0503 102.855 30.4986C102.627 31.0141 102.307 31.4827 101.893 31.9024C101.464 32.2991 100.953 32.7001 100.36 33.1069L99.854 33.4543L99.2436 33.8729L100.082 35.0946L99.1048 35.7645L98.2673 34.5428ZM92.7431 27.6101L93.266 27.2513L91.2076 24.2506C90.4404 24.777 89.8796 25.2995 89.5251 25.8162C89.1687 26.3333 89.2234 26.9296 89.6857 27.6034C90.0926 28.1967 90.5412 28.4581 91.0309 28.387C91.5214 28.3163 92.0912 28.0571 92.7431 27.6101ZM95.7626 28.7966L97.7252 31.6574L98.1258 31.3822C98.9051 30.848 99.4292 30.3473 99.6993 29.8799C99.9682 29.4125 99.8845 28.8595 99.4456 28.2193C99.0868 27.6964 98.6906 27.4502 98.2595 27.4811C97.8272 27.5123 97.3379 27.7156 96.7912 28.0904L96.3206 28.4132L96.0068 28.6289L95.7626 28.7966Z" fill="#FFDE00"/>
<path d="M14.042 75.3856L11.3008 83.923L15.0608 85.1303L17.802 76.5929L14.042 75.3856Z" fill="#C6C6C6"/>
<path d="M14.0468 75.3864L11.3047 83.9238L12.9862 84.4639L15.7283 75.9265L14.0468 75.3864Z" fill="#C6C6C6"/>
<path d="M42.3564 64.1672C38.7734 75.3286 26.8214 81.4707 15.6604 77.8877C4.4994 74.3043 -1.64348 62.3523 1.93954 51.1913C5.52335 40.0303 17.4753 33.8874 28.6367 37.4705C39.7981 41.0535 45.9394 53.0063 42.3564 64.1672Z" fill="#017CA8"/>
<path d="M38.9111 63.0604C35.9389 72.3181 26.0246 77.4128 16.7681 74.4411C7.51001 71.4693 2.41452 61.5546 5.3863 52.2981C8.35847 43.0404 18.2727 37.9453 27.5301 40.9175C36.7874 43.8892 41.8828 53.8031 38.9111 63.0604Z" fill="#095B7B"/>
<path d="M37.657 62.6587C34.9072 71.2239 25.7344 75.9383 17.1692 73.1877C8.60284 70.4379 3.88958 61.2658 6.63977 52.7006C9.38956 44.1351 18.5613 39.4206 27.1272 42.1704C35.6928 44.9206 40.4064 54.0935 37.657 62.6587Z" fill="#45BABD"/>
<path d="M23.1534 68.5428C14.5874 65.7934 9.87339 56.6205 12.6236 48.0558C13.2505 46.1032 14.2142 44.3531 15.425 42.8442C11.3839 44.6767 8.1026 48.1433 6.63977 52.701C3.88958 61.2662 8.60284 70.4383 17.1692 73.1881C23.7822 75.311 30.7544 72.9829 34.8557 67.8702C31.3016 69.4816 27.1608 69.8294 23.1534 68.5428Z" fill="#3A9B9E"/>
<path d="M28.7952 49.3587C28.1566 51.3488 26.0255 52.4439 24.0354 51.8049C22.0446 51.1655 20.9499 49.0355 21.5881 47.0447C22.2279 45.0554 24.3583 43.9596 26.3491 44.599C28.3391 45.238 29.4342 47.3687 28.7952 49.3587Z" fill="white"/>
<path d="M32.0935 50.0407C31.8805 50.7051 31.1685 51.0713 30.5041 50.8579C29.8401 50.6449 29.4747 49.9325 29.6877 49.2689C29.9006 48.6045 30.6123 48.2387 31.2759 48.4517C31.9407 48.6643 32.3073 49.3767 32.0935 50.0407Z" fill="white"/>
<path d="M30.8771 54.1748C30.586 55.0831 29.6125 55.5825 28.7038 55.2914C27.7971 54.9998 27.2953 54.0267 27.5869 53.118C27.8792 52.2098 28.8515 51.7099 29.7602 52.0015C30.6681 52.293 31.1691 53.2665 30.8771 54.1748Z" fill="white"/>
<path d="M12.0062 74.7307L10.8242 78.4119L18.6569 80.9268L19.8388 77.2457L12.0062 74.7307Z" fill="#017CA8"/>
<path d="M1.37202 107.861C-0.212749 112.795 7.73336 114.958 9.2044 110.376C11.1401 104.345 17.1009 85.7807 17.1009 85.7807L9.26772 83.2657C9.26772 83.2657 2.37798 104.727 1.37202 107.861Z" fill="#3D2216"/>
<path d="M4.23824 105.93C5.02769 103.471 9.44159 89.7217 11.3042 83.92L9.26768 83.2661C9.26768 83.2661 2.37795 104.727 1.37198 107.861C-0.14322 112.581 7.05565 114.76 8.973 110.932C6.31309 111.243 3.19007 109.194 4.23824 105.93Z" fill="#2D170B"/>
<path d="M15.1293 82.7717C14.873 83.5717 14.4536 84.1525 14.1937 84.0692C13.9346 83.986 13.9326 83.27 14.189 82.47C14.4462 81.6692 14.8647 81.0885 15.1235 81.1717C15.3834 81.2553 15.3861 81.9717 15.1293 82.7717Z" fill="white"/>
<path d="M12.6039 96.0212C10.9824 101.073 9.45784 105.1 9.19795 105.016C8.93845 104.933 10.0429 100.772 11.6648 95.7199C13.2855 90.6706 14.8105 86.6432 15.07 86.7268C15.3291 86.8104 14.225 90.9715 12.6039 96.0212Z" fill="white"/>
</svg>
