<svg width="120" height="162" viewBox="0 0 120 162" fill="none" xmlns="http://www.w3.org/2000/svg">
<path d="M66.7667 114.989L68.6071 128.054C68.9212 130.272 66.9958 132.229 64.5069 132.229H55.4944C53.0055 132.229 51.0801 130.272 51.3942 128.054L53.2346 114.989C48.0708 112.737 44.5069 107.986 44.5069 102.485C44.5069 94.8111 51.446 88.5887 60.0006 88.5887C68.5553 88.5887 75.4943 94.8111 75.4943 102.485C75.4939 107.986 71.9305 112.737 66.7667 114.989ZM101.557 31.8373C97.9029 14.1594 80.5275 0.747744 59.75 0.856121C36.4296 0.978045 17.7358 18.265 17.7358 39.1833V59.0373H15.9942C7.16083 59.0373 0 65.4606 0 73.3841V147.432C0 155.356 7.16083 161.779 15.9942 161.779H104.006C112.839 161.779 120 155.356 120 147.432V73.3845C120 65.461 112.839 59.0377 104.006 59.0377H30.9024V39.0978C30.9024 24.7293 43.6923 12.8059 59.7102 12.6654C74.0268 12.5396 86.0214 21.74 88.5897 33.8941C89.1839 36.7061 91.8791 38.7649 95.0701 38.7649C99.1621 38.7645 102.303 35.4459 101.557 31.8373Z" fill="url(#paint0_linear_574_12792)" fill-opacity="0.38"/>
<defs>
<linearGradient id="paint0_linear_574_12792" x1="2.0821e-06" y1="14.2658" x2="150.88" y2="43.1628" gradientUnits="userSpaceOnUse">
<stop stop-color="#1CCFBD"/>
<stop offset="1" stop-color="#2C9BF0"/>
</linearGradient>
</defs>
</svg>
