<svg width="150" height="18" viewBox="0 0 150 18" fill="none" xmlns="http://www.w3.org/2000/svg">
<path d="M6.41895 18L0.0908203 0.505371H6.03662L12.0879 18H6.41895ZM12.7998 17.4727L10.1763 9.77344L12.9976 0.505371H18.8511L12.7998 17.4727ZM29.2002 18V14.5063H31.3623V0.505371H37.1895V14.5063L33.6958 18H29.2002ZM23.7949 18L20.2881 14.5063V0.505371H26.1284V14.5063H28.2773V18H23.7949ZM39.9712 18V0.505371H45.7983V18H39.9712ZM46.7212 18V14.5063H49.6084V12.2915H54.895V18H46.7212ZM70.8735 18V14.269H72.627V4.22314H70.8735V0.505371H80.2075V4.22314H78.4541V14.269H80.2075V18H70.8735ZM83.0288 18V0.505371H88.856V8.32324H94.2349V11.7642H88.856V18H83.0288ZM92.8374 6.30615V3.99902H89.7788V0.505371H98.6646V6.30615H92.8374ZM100.8 18V14.269H102.554V4.22314H100.8V0.505371H110.134V4.22314H108.381V14.269H110.134V18H100.8ZM112.956 18V0.505371H118.783V7.43994H124.359V10.8149H118.783V18H112.956ZM123.331 5.56787V3.89355H119.706V0.505371H128.815V5.56787H123.331ZM119.706 18V14.5063H122.988V12.7529H128.815V18H119.706ZM138.268 12.7529V9.36475H142.645V3.99902H138.268V0.505371H144.926L148.433 3.99902V9.24609L145.717 11.9619L149.026 18H142.803L140.325 12.7529H138.268ZM131.518 18V0.505371H137.345V18H131.518Z" fill="#102634"/>
<path d="M53.5635 4.31543V0.505371H68.751V4.31543H53.5635ZM58.125 18V5.2251H64.1895V18H58.125Z" fill="url(#paint0_linear_727_3175)"/>
<defs>
<linearGradient id="paint0_linear_727_3175" x1="2.60263e-06" y1="-4.08333" x2="88.4047" y2="93.2271" gradientUnits="userSpaceOnUse">
<stop stop-color="#1CCFBD"/>
<stop offset="1" stop-color="#2C9BF0"/>
</linearGradient>
</defs>
</svg>
