<svg width="151" height="41" viewBox="0 0 151 41" fill="none" xmlns="http://www.w3.org/2000/svg">
<path d="M19.3223 40.5318L41.4016 19.7782C42.0922 19.1291 42.107 18.0371 41.4342 17.3695L24.4199 0.486888C23.5552 -0.371162 22.0924 -0.049195 21.6683 1.09254L9.26125 34.4921C8.97677 35.2579 9.28654 36.1171 9.99437 36.5255L17.1818 40.7208C17.9017 41.1705 18.7836 41.0381 19.3223 40.5318Z" fill="url(#paint0_linear_807_8287)"/>
<path d="M147.492 18.5256H151L143.806 31.6288C142.973 33.2035 142.082 34.6891 140.952 35.8479C140.149 36.7096 139.257 37.3335 138.306 37.7792C137.266 38.2249 136.106 38.4626 134.887 38.4626L135.423 34.9566C136.731 34.9566 137.652 34.5703 138.544 33.6195C138.93 33.2332 139.317 32.7281 139.674 32.1636L136.166 18.5256H139.703L142.171 28.2119L147.492 18.5256Z" fill="black"/>
<path d="M133.229 15.3464C132.991 15.5544 132.783 16 132.634 17.0697L132.515 17.9016H136.499L135.993 21.4374H132.01L130.315 32.8469H126.808L128.472 21.4374H126.51L127.016 17.9016H128.978L129.126 17.0103C129.186 16.5646 129.305 16.0892 129.453 15.5841C129.543 15.3167 129.632 15.0492 129.78 14.7818C129.899 14.5144 130.048 14.247 130.256 13.9499C130.434 13.6825 130.672 13.3854 130.94 13.1477C131.207 12.8802 131.534 12.6723 131.832 12.494C132.159 12.3157 132.456 12.1671 132.753 12.078C133.08 11.9889 133.348 11.9294 133.615 11.87C133.913 11.8403 134.15 11.8106 134.418 11.8106C134.537 11.7809 134.656 11.7809 134.775 11.7809H134.864H134.953C135.042 11.8106 135.102 11.8106 135.161 11.8106C135.399 11.8106 135.637 11.8403 135.845 11.87C136.083 11.8997 136.291 11.9592 136.499 11.9889C136.945 12.078 137.361 12.1969 137.777 12.3454C138.193 12.5237 138.61 12.702 139.026 12.9694L137.034 15.7623C136.826 15.6435 136.558 15.5246 136.291 15.4355C136.023 15.3464 135.726 15.2572 135.429 15.1978C135.25 15.1681 135.102 15.1681 134.953 15.1384C134.804 15.1087 134.656 15.1087 134.507 15.1087C133.913 15.1087 133.496 15.1384 133.229 15.3464Z" fill="black"/>
<path d="M123.482 18.5256H126.99L119.796 31.6288C118.964 33.2035 118.072 34.6891 116.942 35.8479C116.14 36.7096 115.248 37.3335 114.296 37.7792C113.256 38.2249 112.097 38.4626 110.878 38.4626L111.413 34.9566C112.721 34.9566 113.642 34.5703 114.534 33.6195C114.921 33.2332 115.307 32.7281 115.664 32.1636L112.156 18.5256H115.694L118.161 28.2119L123.482 18.5256Z" fill="black"/>
<path d="M108.806 29.846C109.133 29.7569 109.4 29.638 109.638 29.5192L110.827 32.3121C110.351 32.5498 109.876 32.7578 109.4 32.9064C108.954 33.0549 108.479 33.1738 108.033 33.2629C107.795 33.3223 107.557 33.352 107.349 33.3818C107.111 33.4115 106.873 33.4412 106.606 33.4709C106.546 33.4709 106.487 33.4709 106.427 33.4709H106.338H106.249C106.13 33.4709 105.981 33.4709 105.863 33.4709C105.625 33.4709 105.387 33.4412 105.119 33.3818C104.852 33.352 104.584 33.2926 104.317 33.2035C104.049 33.0846 103.752 32.9658 103.514 32.7875C103.246 32.6092 103.009 32.3715 102.801 32.1338C102.592 31.8664 102.444 31.599 102.325 31.3019C102.236 31.0345 102.147 30.7671 102.117 30.4699C102.057 30.2025 102.028 29.9648 102.028 29.6974C101.998 29.1923 102.057 28.7169 102.117 28.2712L103.009 22.0316H101.047L101.552 18.5256H103.514L104.019 15.1681H107.527L107.052 18.5256H111.035L110.53 22.0316H106.546L105.625 28.2118C105.476 29.2517 105.536 29.6974 105.744 29.9351C105.922 30.1431 106.338 30.1728 106.962 30.1728C107.081 30.1431 107.23 30.1431 107.408 30.1431C107.557 30.1134 107.706 30.0837 107.884 30.054C108.181 29.9945 108.508 29.9351 108.806 29.846Z" fill="black"/>
<path d="M97.8656 11.7809H101.374L98.3115 32.8469H94.7739L97.8656 11.7809Z" fill="black"/>
<path d="M91.2767 18.5256H94.8144L92.7037 32.847H89.1958L89.4633 31.0345C88.2148 32.431 86.55 33.5007 84.469 33.5007C80.8125 33.5007 78.9099 30.886 79.4153 27.4096L80.7233 18.5256H84.2609L82.9826 27.2016C82.7448 28.8952 83.6961 29.9649 85.4501 29.9649C87.6499 29.9649 89.9092 28.0336 90.2363 25.7754L91.2767 18.5256Z" fill="black"/>
<path d="M76.466 18.7633C77.9227 19.6249 78.6064 20.9917 78.3389 22.6556L76.8525 32.8469H73.3446L73.4932 31.8961C72.423 32.8172 70.8177 33.4709 68.3206 33.4709C65.6153 33.4709 63.0885 31.6584 63.5641 28.4495C63.7127 27.4096 64.1289 26.5182 64.7829 25.7754C65.3775 25.1514 66.1207 24.6463 67.0125 24.2898C68.4098 23.7252 69.9556 23.6064 71.4717 23.4578C72.3636 23.3687 73.2257 23.3093 73.9094 23.131C74.5634 22.9824 74.8013 22.8041 74.8607 22.5367C74.9202 22.0613 74.4148 21.2888 72.1852 21.2888C71.4717 21.2888 69.1232 21.4968 68.8854 22.923H65.3775C65.6153 21.3482 66.5666 19.9815 68.0233 19.0604C69.3016 18.2879 70.9069 17.9016 72.6906 17.9016C73.523 17.9016 75.158 18.0205 76.466 18.7633ZM74.2067 26.9936L74.2662 26.5479C73.3149 26.7856 72.2744 26.8747 71.2636 26.9639C70.0448 27.0827 67.2801 27.2313 67.072 28.5386C66.8936 29.8163 68.9151 29.9351 69.5394 29.9351C70.9664 29.9351 72.1555 29.6677 72.9284 29.1626C73.3743 28.8655 73.9986 28.3009 74.2067 26.9936Z" fill="black"/>
<path d="M62.0639 18.5256H65.6015L57.8425 32.847H54.3049L50.7375 18.5256H54.2752L56.7129 28.3901L62.0639 18.5256Z" fill="black"/>
<path fill-rule="evenodd" clip-rule="evenodd" d="M27.5017 24.0733L19.6318 40.064C19.2038 40.9335 18.1292 41.2597 17.2897 40.775L0.837616 31.2745C0.165095 30.8862 -0.152294 30.0868 0.0707732 29.3432L7.38109 4.97451C7.75064 3.74262 9.31386 3.36937 10.2006 4.3013L27.2123 22.1797C27.696 22.6881 27.8115 23.4438 27.5017 24.0733ZM16.9221 23.7799C16.3241 24.9536 15.0213 25.5334 13.7915 25.2664L12.1067 30.8198C11.7885 31.8685 10.5901 32.3644 9.62387 31.8471C8.70068 31.3529 8.4219 30.1604 9.03028 29.3081L12.4305 24.5441C11.5481 23.7013 11.2813 22.3491 11.8638 21.206C12.5752 19.8096 14.2843 19.2538 15.6811 19.9646C17.0779 20.6753 17.6335 22.3835 16.9221 23.7799Z" fill="#102634"/>
<defs>
<linearGradient id="paint0_linear_807_8287" x1="17.8714" y1="40.8977" x2="32.5179" y2="2.24911" gradientUnits="userSpaceOnUse">
<stop stop-color="#2C9BF0"/>
<stop offset="0.9999" stop-color="#1CCFBD"/>
</linearGradient>
</defs>
</svg>
