<svg width="112" height="31" viewBox="0 0 112 31" fill="none" xmlns="http://www.w3.org/2000/svg">
<path d="M14.3316 30.1226L30.7084 14.6989C31.2206 14.2164 31.2316 13.4049 30.7325 12.9087L18.1127 0.361848C17.4713 -0.275842 16.3863 -0.036561 16.0717 0.811957L6.86914 25.634C6.65814 26.2031 6.8879 26.8417 7.41291 27.1452L12.744 30.2631C13.2779 30.5973 13.9321 30.4989 14.3316 30.1226Z" fill="url(#paint0_linear_1057_2461)"/>
<path d="M109.398 13.7679H112L106.664 23.506C106.047 24.6763 105.385 25.7804 104.547 26.6416C103.952 27.282 103.29 27.7457 102.585 28.0769C101.813 28.4082 100.953 28.5848 100.049 28.5848L100.446 25.9792C101.416 25.9792 102.1 25.6921 102.761 24.9855C103.048 24.6984 103.334 24.323 103.599 23.9035L100.997 13.7679H103.621L105.451 20.9666L109.398 13.7679Z" fill="#FDFFF7"/>
<path d="M98.8187 11.4052C98.6423 11.5598 98.488 11.891 98.3777 12.6859L98.2895 13.3042H101.244L100.869 15.9319H97.9147L96.6578 24.4113H94.0559L95.2907 15.9319H93.8354L94.2103 13.3042H95.6656L95.7758 12.6418C95.8199 12.3105 95.9081 11.9572 96.0184 11.5818C96.0845 11.3831 96.1507 11.1844 96.2609 10.9856C96.3491 10.7869 96.4594 10.5882 96.6137 10.3673C96.746 10.1686 96.9224 9.94779 97.1209 9.77113C97.3193 9.5724 97.5619 9.41782 97.7824 9.28533C98.0249 9.15284 98.2454 9.04243 98.4659 8.97619C98.7085 8.90994 98.9069 8.86578 99.1054 8.82162C99.3259 8.79954 99.5023 8.77745 99.7007 8.77745C99.7889 8.75537 99.8771 8.75537 99.9653 8.75537H100.031H100.098C100.164 8.77745 100.208 8.77745 100.252 8.77745C100.428 8.77745 100.605 8.79954 100.759 8.82162C100.936 8.8437 101.09 8.88786 101.244 8.90994C101.575 8.97619 101.884 9.06452 102.192 9.17492C102.501 9.30742 102.81 9.43991 103.118 9.63864L101.641 11.7143C101.487 11.626 101.288 11.5377 101.09 11.4714C100.891 11.4052 100.671 11.3389 100.45 11.2948C100.318 11.2727 100.208 11.2727 100.098 11.2506C99.9874 11.2285 99.8771 11.2285 99.7669 11.2285C99.3259 11.2285 99.0172 11.2506 98.8187 11.4052Z" fill="#FDFFF7"/>
<path d="M91.5894 13.7679H94.1913L88.8552 23.506C88.2378 24.6763 87.5763 25.7804 86.7384 26.6416C86.1431 27.282 85.4816 27.7457 84.776 28.0769C84.0042 28.4082 83.1443 28.5848 82.2402 28.5848L82.6371 25.9792C83.6073 25.9792 84.2909 25.6921 84.9524 24.9855C85.239 24.6984 85.5257 24.323 85.7903 23.9035L83.1884 13.7679H85.8123L87.6424 20.9666L91.5894 13.7679Z" fill="#FDFFF7"/>
<path d="M80.7035 22.1811C80.946 22.1149 81.1445 22.0265 81.3209 21.9382L82.2029 24.0139C81.8501 24.1905 81.4973 24.3451 81.1445 24.4555C80.8137 24.5659 80.461 24.6543 80.1302 24.7205C79.9538 24.7647 79.7774 24.7867 79.6231 24.8088C79.4467 24.8309 79.2703 24.853 79.0718 24.8751C79.0277 24.8751 78.9836 24.8751 78.9395 24.8751H78.8734H78.8072C78.719 24.8751 78.6088 24.8751 78.5206 24.8751C78.3442 24.8751 78.1678 24.853 77.9693 24.8088C77.7709 24.7867 77.5724 24.7426 77.374 24.6763C77.1755 24.588 76.955 24.4997 76.7786 24.3672C76.5802 24.2347 76.4038 24.058 76.2494 23.8814C76.0951 23.6827 75.9848 23.4839 75.8966 23.2631C75.8305 23.0644 75.7643 22.8656 75.7423 22.6448C75.6982 22.4461 75.6761 22.2694 75.6761 22.0707C75.6541 21.6953 75.6982 21.342 75.7423 21.0108L76.4038 16.3736H74.9485L75.3233 13.7679H76.7786L77.1535 11.2727H79.7554L79.4026 13.7679H82.3572L81.9824 16.3736H79.0277L78.3442 20.9666C78.2339 21.7395 78.278 22.0707 78.4324 22.2473C78.5647 22.4019 78.8734 22.424 79.3364 22.424C79.4246 22.4019 79.5349 22.4019 79.6672 22.4019C79.7774 22.3798 79.8877 22.3578 80.02 22.3357C80.2405 22.2915 80.483 22.2473 80.7035 22.1811Z" fill="#FDFFF7"/>
<path d="M72.5891 8.75537H75.191L72.9198 24.4113H70.2959L72.5891 8.75537Z" fill="#FDFFF7"/>
<path d="M67.7017 13.7679H70.3256L68.7601 24.4114H66.1582L66.3567 23.0644C65.4306 24.1022 64.1958 24.8972 62.6523 24.8972C59.9402 24.8972 58.529 22.954 58.9038 20.3704L59.874 13.7679H62.4979L61.5498 20.2158C61.3734 21.4745 62.079 22.2694 63.3799 22.2694C65.0116 22.2694 66.6874 20.8341 66.93 19.1559L67.7017 13.7679Z" fill="#FDFFF7"/>
<path d="M56.7164 13.9446C57.7969 14.5849 58.304 15.6007 58.1056 16.8373L57.0031 24.4113H54.4012L54.5114 23.7047C53.7176 24.3892 52.5269 24.875 50.6748 24.875C48.6682 24.875 46.794 23.5281 47.1468 21.1432C47.257 20.3704 47.5657 19.7079 48.0508 19.1559C48.4918 18.6922 49.0431 18.3168 49.7046 18.0518C50.7409 17.6322 51.8875 17.5439 53.012 17.4335C53.6735 17.3672 54.313 17.3231 54.8201 17.1906C55.3052 17.0802 55.4816 16.9477 55.5257 16.749C55.5698 16.3956 55.195 15.8215 53.5412 15.8215C53.012 15.8215 51.2701 15.9761 51.0937 17.036H48.4918C48.6682 15.8657 49.3738 14.8499 50.4543 14.1654C51.4024 13.5913 52.5931 13.3042 53.9161 13.3042C54.5335 13.3042 55.7462 13.3925 56.7164 13.9446ZM55.0406 20.0612L55.0847 19.73C54.3791 19.9066 53.6074 19.9729 52.8577 20.0391C51.9536 20.1275 49.903 20.2379 49.7487 21.2095C49.6164 22.159 51.1158 22.2473 51.5788 22.2473C52.6372 22.2473 53.5192 22.0486 54.0925 21.6732C54.4232 21.4524 54.8863 21.0328 55.0406 20.0612Z" fill="#FDFFF7"/>
<path d="M46.0341 13.7679H48.658L42.903 24.4114H40.279L37.6331 13.7679H40.257L42.0651 21.0991L46.0341 13.7679Z" fill="#FDFFF7"/>
<path fill-rule="evenodd" clip-rule="evenodd" d="M20.3986 17.8909L14.5613 29.775C14.2439 30.4212 13.4468 30.6636 12.8241 30.3034L0.621278 23.2428C0.122454 22.9541 -0.11296 22.3601 0.052494 21.8075L5.47472 3.69698C5.74882 2.78146 6.90829 2.50407 7.56601 3.19666L20.1839 16.4836C20.5427 16.8614 20.6284 17.4231 20.3986 17.8909ZM12.5522 17.6736C12.1089 18.5458 11.1422 18.9762 10.2296 18.777L8.98092 22.9053C8.74525 23.6845 7.85625 24.0525 7.13908 23.6677C6.45388 23.3001 6.24653 22.4138 6.69759 21.7807L9.2201 18.2396C8.56554 17.613 8.36731 16.6084 8.79891 15.7593C9.32618 14.7219 10.5938 14.3095 11.6303 14.8382C12.6667 15.3668 13.0795 16.6363 12.5522 17.6736Z" fill="#FDFFF7"/>
<defs>
<linearGradient id="paint0_linear_1057_2461" x1="13.2555" y1="30.3945" x2="24.1566" y2="1.68574" gradientUnits="userSpaceOnUse">
<stop stop-color="#2C9BF0"/>
<stop offset="0.9999" stop-color="#1CCFBD"/>
</linearGradient>
</defs>
</svg>
