<svg width="83" height="90" viewBox="0 0 83 90" fill="none" xmlns="http://www.w3.org/2000/svg">
<g opacity="0.3">
<path d="M38.9487 89.5981C53.1903 89.5981 64.7353 88.0629 64.7353 86.1693C64.7353 84.2756 53.1903 82.7405 38.9487 82.7405C24.7072 82.7405 13.1621 84.2756 13.1621 86.1693C13.1621 88.0629 24.7072 89.5981 38.9487 89.5981Z" fill="url(#paint0_linear_1558_17684)" fill-opacity="0.3"/>
</g>
<path d="M54.9242 71.8106C54.6636 71.8106 54.4004 71.7837 54.142 71.7308C54.1051 71.7244 54.0658 71.7159 54.0265 71.7055L12.4954 61.9336C11.5562 61.7135 10.7244 61.1676 10.1484 60.3942L10.1224 60.3612C9.60532 59.6543 9.33203 58.8167 9.33203 57.939V22.1119C9.33203 21.3772 9.54726 20.6666 9.95449 20.0566L10.0955 20.1331C9.81436 20.7888 9.80612 21.4129 10.0716 21.9376C10.388 22.5628 11.0747 23.0266 12.0052 23.2433L55.8017 33.2943C57.5612 33.7077 58.7899 35.2583 58.7899 37.0652V67.9352C58.7898 70.0722 57.0557 71.8106 54.9242 71.8106Z" fill="#E67E22"/>
<path d="M10.0239 20.1012C9.33603 21.7058 10.2946 22.9269 11.9894 23.3217C11.9942 23.3232 11.999 23.3232 12.0039 23.3248L55.7861 33.3727C57.5003 33.7754 58.7117 35.3043 58.7117 37.0651V67.9352C58.7117 70.077 56.9615 71.73 54.9267 71.73C54.6747 71.73 54.4185 71.7047 54.1607 71.6518C54.1236 71.6454 54.0865 71.6373 54.0494 71.6276L12.5162 61.8552C11.5544 61.6297 10.7424 61.069 10.1915 60.3135H10.1898C9.69851 59.6418 9.41501 58.8185 9.41501 57.9389V22.1119C9.41501 21.3675 9.63887 20.678 10.0239 20.1012ZM9.88996 20.0117C9.47384 20.635 9.25391 21.3613 9.25391 22.1119V57.9389C9.25391 58.8338 9.53261 59.6879 10.0598 60.4088L10.1081 60.4747H10.1106C10.6969 61.246 11.5349 61.7907 12.4795 62.0121L54.0125 71.7844C54.049 71.794 54.0909 71.8032 54.133 71.8106C54.392 71.8637 54.6607 71.8911 54.9267 71.8911C57.1026 71.8911 58.8728 70.1165 58.8728 67.9352V37.0651C58.8728 35.2207 57.6187 33.6378 55.823 33.2159L12.0466 23.1694L12.0417 23.1678L12.0279 23.1653L12.026 23.1648C11.1191 22.9535 10.4514 22.5049 10.1459 21.9012C9.89144 21.3984 9.9005 20.7981 10.172 20.1648L9.88996 20.0117Z" fill="#66142E"/>
<path d="M10.2306 25.6589C10.1763 25.6589 10.1213 25.6452 10.0708 25.6163C9.72513 25.4182 9.43222 25.1868 9.17536 24.9088C9.0546 24.778 9.06272 24.5741 9.19347 24.4535C9.32412 24.3328 9.52795 24.3407 9.64877 24.4714C9.86046 24.7006 10.1033 24.8923 10.3911 25.0571C10.5455 25.1456 10.599 25.3425 10.5105 25.4969C10.451 25.6007 10.3423 25.6589 10.2306 25.6589Z" fill="white"/>
<path d="M54.2263 69.3443C54.2018 69.3443 54.177 69.3416 54.1522 69.3358L52.1224 68.8582C51.9492 68.8172 51.8419 68.6439 51.8826 68.4707C51.9234 68.2975 52.0973 68.1902 52.27 68.2308L54.2997 68.7084C54.473 68.7493 54.5803 68.9227 54.5396 69.0959C54.5047 69.2442 54.3724 69.3443 54.2263 69.3443ZM56.0209 68.7725C55.9756 68.7725 55.9297 68.7631 55.886 68.7428C55.7244 68.6683 55.654 68.4768 55.7286 68.3152C55.7822 68.1993 55.8093 68.0715 55.8093 67.9353V66.3815C55.8093 66.2036 55.9536 66.0593 56.1315 66.0593C56.3095 66.0593 56.4538 66.2036 56.4538 66.3815V67.9353C56.4538 68.1655 56.4066 68.3843 56.3136 68.5855C56.2591 68.7033 56.1426 68.7725 56.0209 68.7725ZM50.1669 68.3892C50.1424 68.3892 50.1176 68.3865 50.0928 68.3807L48.0632 67.903C47.8899 67.8621 47.7826 67.6888 47.8233 67.5155C47.8641 67.3423 48.0378 67.2349 48.2107 67.2756L50.2404 67.7533C50.4136 67.7942 50.5209 67.9675 50.4802 68.1407C50.4453 68.2891 50.313 68.3892 50.1669 68.3892ZM46.1075 67.434C46.0831 67.434 46.0582 67.4314 46.0335 67.4256L44.0038 66.9479C43.8306 66.907 43.7232 66.7337 43.764 66.5604C43.8048 66.3872 43.9789 66.2796 44.1514 66.3205L46.181 66.7982C46.3542 66.8391 46.4616 67.0124 46.4209 67.1856C46.3859 67.334 46.2536 67.434 46.1075 67.434ZM42.0482 66.4789C42.0238 66.4789 41.9989 66.4763 41.9742 66.4704L39.9444 65.9928C39.7712 65.9519 39.6639 65.7785 39.7046 65.6053C39.7453 65.4323 39.9187 65.3248 40.092 65.3654L42.1217 65.843C42.295 65.884 42.4023 66.0573 42.3616 66.2305C42.3266 66.3789 42.1943 66.4789 42.0482 66.4789ZM37.9888 65.5238C37.9644 65.5238 37.9396 65.5211 37.9148 65.5153L35.8851 65.0377C35.7119 64.9967 35.6046 64.8234 35.6453 64.6502C35.6861 64.4771 35.8593 64.3698 36.0327 64.4102L38.0624 64.8879C38.2356 64.9288 38.3429 65.1021 38.3022 65.2754C38.2672 65.4238 38.135 65.5238 37.9888 65.5238ZM56.1315 64.6185C55.9536 64.6185 55.8093 64.4743 55.8093 64.2963V62.2113C55.8093 62.0334 55.9536 61.8891 56.1315 61.8891C56.3095 61.8891 56.4538 62.0334 56.4538 62.2113V64.2963C56.4538 64.4743 56.3095 64.6185 56.1315 64.6185ZM33.9295 64.5687C33.905 64.5687 33.8802 64.566 33.8554 64.5602L31.8257 64.0826C31.6525 64.0416 31.5452 63.8683 31.5859 63.6951C31.6267 63.522 31.7999 63.4143 31.9733 63.4552L34.0029 63.9328C34.1762 63.9737 34.2835 64.1471 34.2428 64.3203C34.2079 64.4686 34.0756 64.5687 33.9295 64.5687ZM29.8702 63.6136C29.8458 63.6136 29.8209 63.6109 29.7961 63.6051L27.7665 63.1274C27.5932 63.0865 27.4859 62.9132 27.5266 62.7399C27.5674 62.5669 27.7405 62.4591 27.914 62.5L29.9437 62.9777C30.1169 63.0186 30.2242 63.1919 30.1835 63.3652C30.1486 63.5135 30.0163 63.6136 29.8702 63.6136ZM25.8108 62.6585C25.7864 62.6585 25.7615 62.6558 25.7367 62.65L23.7071 62.1723C23.5339 62.1314 23.4265 61.958 23.4672 61.7848C23.508 61.6116 23.6818 61.5045 23.8546 61.5449L25.8843 62.0225C26.0575 62.0635 26.1649 62.2368 26.1241 62.41C26.0892 62.5584 25.9569 62.6585 25.8108 62.6585ZM21.7515 61.7033C21.7271 61.7033 21.7022 61.7007 21.6774 61.6948L19.6477 61.2172C19.4745 61.1763 19.3671 61.0029 19.4079 60.8297C19.4486 60.6565 19.6223 60.5494 19.7953 60.5898L21.825 61.0674C21.9982 61.1084 22.1056 61.2817 22.0649 61.4549C22.0299 61.6033 21.8976 61.7033 21.7515 61.7033ZM17.6922 60.7482C17.6677 60.7482 17.6428 60.7455 17.6181 60.7397L15.5884 60.2621C15.4152 60.2211 15.3078 60.0478 15.3486 59.8745C15.3894 59.7013 15.5633 59.594 15.736 59.6346L17.7656 60.1123C17.9388 60.1532 18.0462 60.3265 18.0055 60.4997C17.9706 60.6482 17.8383 60.7482 17.6922 60.7482ZM56.1315 60.4484C55.9536 60.4484 55.8093 60.3041 55.8093 60.1262V58.0411C55.8093 57.8632 55.9536 57.7189 56.1315 57.7189C56.3095 57.7189 56.4538 57.8632 56.4538 58.0411V60.1262C56.4538 60.3041 56.3095 60.4484 56.1315 60.4484ZM13.6327 59.7931C13.6083 59.7931 13.5835 59.7904 13.5586 59.7844L13.0301 59.66C12.4529 59.5522 11.949 59.4204 11.5042 59.2602C11.3367 59.2 11.2499 59.0155 11.3101 58.8479C11.3704 58.6805 11.5552 58.5941 11.7224 58.6539C12.1345 58.8022 12.6058 58.9253 13.1633 59.0297L13.7063 59.1573C13.8796 59.1981 13.9869 59.3715 13.9461 59.5447C13.9112 59.693 13.7789 59.7931 13.6327 59.7931ZM56.1315 56.2781C55.9536 56.2781 55.8093 56.1339 55.8093 55.9559V53.8709C55.8093 53.693 55.9536 53.5487 56.1315 53.5487C56.3095 53.5487 56.4538 53.693 56.4538 53.8709V55.9559C56.4538 56.1339 56.3095 56.2781 56.1315 56.2781ZM56.1315 52.1079C55.9536 52.1079 55.8093 51.9637 55.8093 51.7857V49.7007C55.8093 49.5228 55.9536 49.3785 56.1315 49.3785C56.3095 49.3785 56.4538 49.5228 56.4538 49.7007V51.7857C56.4538 51.9637 56.3095 52.1079 56.1315 52.1079ZM56.1315 47.9378C55.9536 47.9378 55.8093 47.7935 55.8093 47.6156V45.5305C55.8093 45.3526 55.9536 45.2083 56.1315 45.2083C56.3095 45.2083 56.4538 45.3526 56.4538 45.5305V47.6156C56.4538 47.7935 56.3095 47.9378 56.1315 47.9378ZM56.1315 43.7677C55.9536 43.7677 55.8093 43.6234 55.8093 43.4455V41.3603C55.8093 41.1824 55.9536 41.0381 56.1315 41.0381C56.3095 41.0381 56.4538 41.1824 56.4538 41.3603V43.4455C56.4538 43.6234 56.3095 43.7677 56.1315 43.7677ZM56.1315 39.5975C55.9536 39.5975 55.8093 39.4532 55.8093 39.2753V37.1901C55.8093 37.0122 55.9536 36.8679 56.1315 36.8679C56.3095 36.8679 56.4538 37.0122 56.4538 37.1901V39.2753C56.4538 39.4532 56.3095 39.5975 56.1315 39.5975ZM54.8735 36.1308C54.8496 36.1308 54.8254 36.1283 54.8011 36.1226L52.7689 35.6563C52.5955 35.6165 52.4871 35.4436 52.5269 35.2703C52.5667 35.0967 52.7399 34.9891 52.913 35.0283L54.9452 35.4946C55.1187 35.5344 55.227 35.7073 55.1872 35.8807C55.153 36.0298 55.0203 36.1308 54.8735 36.1308ZM50.809 35.1981C50.785 35.1981 50.7608 35.1955 50.7366 35.1899L48.7043 34.7234C48.5309 34.6836 48.4226 34.5107 48.4624 34.3373C48.5022 34.1639 48.6758 34.056 48.8484 34.0954L50.8807 34.5618C51.0541 34.6016 51.1624 34.7745 51.1226 34.9479C51.0884 35.097 50.9557 35.1981 50.809 35.1981ZM46.7444 34.2653C46.7205 34.2653 46.6963 34.2628 46.6721 34.2571L44.6398 33.7906C44.4663 33.7508 44.358 33.5779 44.3978 33.4046C44.4376 33.2312 44.6111 33.1232 44.7839 33.1626L46.8162 33.6291C46.9896 33.6689 47.0979 33.8417 47.0581 34.0151C47.024 34.1643 46.8912 34.2653 46.7444 34.2653ZM42.6799 33.3325C42.656 33.3325 42.6318 33.3298 42.6075 33.3243L40.5753 32.8578C40.4019 32.8181 40.2935 32.6452 40.3333 32.4718C40.3731 32.2982 40.5463 32.1906 40.7194 32.2298L42.7516 32.6963C42.9251 32.7361 43.0334 32.909 42.9936 33.0824C42.9594 33.2315 42.8267 33.3325 42.6799 33.3325ZM38.6154 32.3996C38.5915 32.3996 38.5673 32.3971 38.543 32.3914L36.5107 31.9251C36.3373 31.8853 36.229 31.7124 36.2688 31.539C36.3086 31.3656 36.4822 31.258 36.6548 31.297L38.6871 31.7634C38.8606 31.8032 38.9689 31.9761 38.9291 32.1494C38.8949 32.2986 38.7622 32.3996 38.6154 32.3996ZM34.5508 31.4668C34.5269 31.4668 34.5027 31.4643 34.4785 31.4586L32.4462 30.9923C32.2728 30.9525 32.1645 30.7796 32.2043 30.6062C32.2442 30.4329 32.4174 30.3254 32.5903 30.3643L34.6226 30.8306C34.796 30.8704 34.9043 31.0433 34.8645 31.2166C34.8303 31.3658 34.6976 31.4668 34.5508 31.4668ZM30.4864 30.534C30.4625 30.534 30.4382 30.5315 30.414 30.5258L28.3817 30.0595C28.2083 30.0197 28.0999 29.8468 28.1397 29.6734C28.1795 29.5001 28.3527 29.3922 28.5258 29.4315L30.5581 29.8978C30.7315 29.9376 30.8399 30.1105 30.8001 30.2838C30.7659 30.433 30.6331 30.534 30.4864 30.534ZM26.4218 29.6012C26.3979 29.6012 26.3737 29.5987 26.3495 29.593L24.3172 29.1266C24.1438 29.0868 24.0354 28.9138 24.0752 28.7405C24.115 28.5671 24.2886 28.4595 24.4613 28.4985L26.4935 28.965C26.667 29.0048 26.7753 29.1777 26.7355 29.351C26.7013 29.5002 26.5686 29.6012 26.4218 29.6012ZM22.3573 28.6685C22.3333 28.6685 22.3091 28.6659 22.2849 28.6603L20.2526 28.1938C20.0792 28.154 19.9709 27.9811 20.0107 27.8077C20.0506 27.6343 20.2238 27.5267 20.3968 27.5657L22.429 28.0322C22.6024 28.072 22.7108 28.2449 22.671 28.4183C22.6367 28.5675 22.504 28.6685 22.3573 28.6685ZM18.2928 27.7357C18.2688 27.7357 18.2446 27.733 18.2204 27.7275L16.1881 27.261C16.0147 27.2212 15.9064 27.0483 15.9462 26.875C15.986 26.7016 16.1596 26.5937 16.3322 26.633L18.3645 27.0995C18.5379 27.1393 18.6462 27.3122 18.6064 27.4855C18.5723 27.6347 18.4395 27.7357 18.2928 27.7357ZM14.2282 26.8029C14.2043 26.8029 14.1801 26.8002 14.1559 26.7947L12.1236 26.3282C11.9502 26.2885 11.8418 26.1155 11.8816 25.9422C11.9214 25.7688 12.0949 25.6609 12.2677 25.7002L14.2999 26.1667C14.4734 26.2065 14.5817 26.3794 14.5419 26.5528C14.5077 26.7019 14.375 26.8029 14.2282 26.8029Z" fill="white"/>
<path d="M9.87552 58.1616C9.78199 58.1616 9.68926 58.1209 9.62562 58.0429C9.37028 57.7295 9.19307 57.3738 9.09899 56.986C9.05707 56.8131 9.16326 56.6388 9.33622 56.597C9.50921 56.5545 9.68327 56.6613 9.72528 56.8341C9.79645 57.1278 9.93107 57.3976 10.1251 57.6358C10.2375 57.7737 10.2169 57.9767 10.0789 58.0892C10.0191 58.1378 9.94708 58.1616 9.87552 58.1616Z" fill="white"/>
<g opacity="0.55">
<path d="M9.86964 21.6382C9.57805 22.1602 9.41211 22.7611 9.41211 23.4007V22.1119C9.41211 21.3676 9.63604 20.6781 10.0211 20.1013C9.77781 20.6684 9.74076 21.1871 9.86964 21.6382Z" fill="white"/>
</g>
<g opacity="0.55">
<path d="M58.7088 37.0652V38.354C58.7088 36.5932 57.4973 35.0644 55.7832 34.6616L12.001 24.6138C11.9961 24.6122 11.9913 24.6122 11.9864 24.6106C10.4141 24.2449 9.4749 23.1671 9.89859 21.7317C10.1628 22.5114 10.9312 23.0769 11.9864 23.3218C11.9913 23.3234 11.9961 23.3234 12.001 23.325L55.7832 33.3728C57.4973 33.7756 58.7088 35.3044 58.7088 37.0652Z" fill="white"/>
</g>
<g opacity="0.55">
<path d="M10.0206 21.3901C9.97063 21.5061 9.93036 21.6205 9.89814 21.7317C9.88686 21.7011 9.8772 21.6704 9.86914 21.6382C9.91586 21.5545 9.9658 21.4707 10.0206 21.3901Z" fill="white"/>
</g>
<path d="M54.9234 72.2129C54.6369 72.2129 54.3483 72.184 54.0616 72.1251C54.0253 72.1191 53.9748 72.1081 53.9244 72.0949L12.4035 62.3255C10.3583 61.8452 8.92969 60.0413 8.92969 57.9388V22.1118C8.92969 21.2973 9.16834 20.5093 9.61994 19.8328C9.75871 19.6252 10.0328 19.5575 10.2523 19.6763C10.4718 19.7954 10.5645 20.0621 10.4661 20.2916C10.23 20.8422 10.2184 21.3348 10.4313 21.7556C10.6929 22.2723 11.2838 22.6612 12.0953 22.8506C12.1001 22.8515 12.105 22.8526 12.1099 22.8538L55.8922 32.9016C57.8366 33.3585 59.193 35.0704 59.193 37.0651V67.9352C59.193 69.2254 58.6196 70.433 57.6199 71.2486C56.8472 71.8788 55.8972 72.2129 54.9234 72.2129ZM9.89629 22.6823V57.9389C9.89629 59.5905 11.0183 61.0073 12.6247 61.3846L54.1581 71.1571C54.1941 71.1664 54.2179 71.1714 54.2415 71.1757C55.2312 71.3783 56.2348 71.1312 57.0089 70.4995C57.7827 69.8683 58.2264 68.9336 58.2264 67.9351V37.065C58.2264 35.5212 57.1767 34.1962 55.6736 33.8432L11.8938 23.7958C11.8888 23.7949 11.8833 23.7936 11.8778 23.7922L11.8777 23.7924C11.0278 23.5944 10.3439 23.208 9.89629 22.6823Z" fill="#66142E"/>
<path d="M61.5277 34.5536C61.5277 33.5477 61.1312 32.6051 60.4112 31.8999C59.9284 31.4268 59.3249 31.0949 58.6657 30.9396L12.8086 20.8149H61.5727C62.7556 20.8149 63.8584 21.3456 64.5983 22.271C65.1536 22.9616 65.4471 23.798 65.4471 24.6895V55.7673C65.4471 56.1985 65.3763 56.622 65.2365 57.026C64.8634 58.1123 64.0347 58.971 62.9629 59.3819C62.5306 59.5473 62.0751 59.6337 61.6091 59.6385L61.5276 59.6393L61.5277 34.5536Z" fill="#E67E22"/>
<path d="M61.5728 20.8955C62.773 20.8955 63.8411 21.4529 64.5355 22.3213C65.0574 22.9704 65.3667 23.7937 65.3667 24.6895V55.7673C65.3667 56.1991 65.2942 56.6131 65.1605 56.9998C64.7964 58.0598 63.9764 58.9072 62.9341 59.3068C62.5217 59.4645 62.0755 59.5531 61.6083 59.558V34.5536C61.6083 33.5049 61.1781 32.5383 60.4677 31.8423C59.986 31.3703 59.3754 31.0239 58.6842 30.8612L13.5472 20.8955H61.5728ZM61.5728 20.7344H13.5472H12.0703L13.5124 21.0528L58.6496 31.0185C59.2922 31.1697 59.8827 31.4946 60.355 31.9573C61.0593 32.6475 61.4472 33.5694 61.4472 34.5536V59.558V59.7209L61.61 59.7192C62.0856 59.7141 62.5505 59.626 62.9917 59.4572C64.0859 59.0378 64.9319 58.1611 65.3129 57.0522C65.4555 56.6398 65.5278 56.2075 65.5278 55.7673V24.6895C65.5278 23.7794 65.2281 22.9256 64.661 22.2203C63.9061 21.276 62.7804 20.7344 61.5728 20.7344Z" fill="#66142E"/>
<g opacity="0.3">
<path d="M65.3659 24.6895V55.7674C65.3659 56.1991 65.2934 56.6131 65.1597 56.9998C64.7956 58.0598 63.9756 58.9072 62.9332 59.3067C62.5208 59.4646 62.0746 59.5532 61.6074 59.5581V34.5536C61.6074 33.5049 61.1772 32.5383 60.4668 31.8423V25.0391L61.3255 24.5558C63.3747 24.4978 64.9502 24.1079 64.5346 22.3213C65.0565 22.9705 65.3659 23.7937 65.3659 24.6895Z" fill="#66142E"/>
</g>
<path d="M61.6089 60.0412C61.4816 60.0412 61.3594 59.9911 61.2689 59.9015C61.1772 59.8108 61.1256 59.687 61.1256 59.5579V34.5535C61.1256 33.0099 60.0764 31.6849 58.5742 31.3315L13.4436 21.3674C13.2028 21.3142 13.0406 21.0881 13.0673 20.843C13.0941 20.5978 13.3012 20.4121 13.5478 20.4121H61.5734C63.9319 20.4121 65.8506 22.3308 65.8506 24.6895V55.7672C65.8506 56.2433 65.7723 56.7112 65.6179 57.1576C65.2062 58.3562 64.2912 59.3042 63.1077 59.7579C62.6304 59.9406 62.128 60.0359 61.6139 60.0412C61.6123 60.0412 61.6105 60.0412 61.6089 60.0412ZM17.9784 21.3787L58.7891 30.3892C60.7365 30.8471 62.0922 32.559 62.0922 34.5535V59.0341C62.321 58.998 62.545 58.9384 62.762 58.8553C63.6773 58.5043 64.3852 57.7707 64.704 56.8427C64.8236 56.497 64.884 56.1355 64.884 55.7672V24.6894C64.884 22.8638 63.3989 21.3787 61.5734 21.3787L17.9784 21.3787Z" fill="#66142E"/>
<g opacity="0.3">
<path d="M14.3535 21.0732H23.9043L24.2974 23.0253L14.3535 21.0732Z" fill="#66142E"/>
</g>
<g opacity="0.3">
<path d="M30.125 24.5558H30.5922H33.0764H53.7794H56.2652H60.8034C64.4281 24.6267 65.137 23.3863 64.2557 22.0072C63.1239 20.5515 60.3294 20.6689 57.0578 21.2379L30.125 24.5558Z" fill="#66142E"/>
</g>
<path d="M55.9991 71.9482C55.3998 71.9482 54.7744 71.8751 54.1401 71.7305L54.1743 71.573C54.422 71.6238 54.6743 71.6496 54.9241 71.6496C56.9668 71.6496 58.6286 69.9834 58.6286 67.9353V37.0653C58.6286 36.4902 58.4928 35.9155 58.236 35.4035C57.7413 34.4156 56.8407 33.704 55.7651 33.4512L11.9617 23.3983C10.9908 23.1725 10.2661 22.679 9.92774 22.0104C9.63998 21.4418 9.64675 20.7707 9.94733 20.0697C10.6436 19.0236 11.7961 18.4067 13.0372 18.4067H64.0979C66.2343 18.4067 67.9724 20.1449 67.9724 22.2812V53.3591C68.0269 57.4422 66.3249 58.592 62.9533 59.3853L62.906 59.2317C63.9331 58.8379 64.7274 58.015 65.0851 56.9738C65.2189 56.5865 65.2868 56.1807 65.2868 55.7674V24.6897C65.2868 24.3508 65.2418 24.0188 65.153 23.7029L65.15 23.6922V23.6889C64.7049 22.0911 63.2358 20.9762 61.5735 20.9762H14.2863L58.7023 30.7827C59.9298 31.0718 60.9421 31.9433 61.4114 33.1142C61.5959 33.5703 61.6895 34.0547 61.6895 34.5537V65.2741C61.8233 67.3485 61.3005 69.0808 60.1773 70.2787C59.1532 71.3708 57.7085 71.9482 55.9991 71.9482Z" fill="#D3623B"/>
<path d="M64.1005 18.4873C66.1965 18.4873 67.8945 20.1869 67.8945 22.2812V53.3591C67.9492 57.4607 66.1627 58.5481 62.9374 59.3069C63.9797 58.9073 64.7997 58.06 65.1638 56.9999C65.2975 56.6132 65.37 56.1993 65.37 55.7674V24.6897C65.37 24.34 65.3233 24.0017 65.2331 23.6811V23.6779C64.7917 22.0749 63.3208 20.8956 61.5761 20.8956H13.5505L58.6875 30.8614C59.9184 31.1513 60.8898 32.0229 61.3393 33.1442C61.5165 33.5823 61.6116 34.0591 61.6116 34.5538V65.2741C61.8835 69.4956 59.4062 71.8677 56.0017 71.8677C55.4125 71.8677 54.796 71.7968 54.1607 71.6521C54.4184 71.7049 54.6749 71.7303 54.9267 71.7303C56.9618 71.7303 58.7118 70.0772 58.7118 67.9354V37.0654C58.7118 36.4597 58.5684 35.8814 58.3106 35.3674C57.8193 34.3863 56.9106 33.6373 55.7861 33.373L12.0039 23.3251C11.999 23.3235 11.9942 23.3235 11.9894 23.322C10.2946 22.9272 9.33605 21.7061 10.0239 20.1015C10.6731 19.1285 11.7816 18.4874 13.0398 18.4874H64.1005M64.1005 18.3262H13.0398C11.7718 18.3262 10.5942 18.9564 9.88991 20.0121L9.88173 20.0243L9.8759 20.038C9.56565 20.7616 9.55959 21.4563 9.85843 22.0468C10.2069 22.7354 10.9481 23.2432 11.9458 23.4772L11.9509 23.4789L11.9655 23.4816L11.9679 23.4821L55.7501 33.5299C56.8015 33.7771 57.6826 34.4731 58.1666 35.4396C58.4179 35.9406 58.5507 36.5028 58.5507 37.0653V67.9354C58.5507 69.9391 56.9249 71.5691 54.9267 71.5691C54.6824 71.5691 54.4355 71.544 54.193 71.4943L54.1249 71.8091C54.7649 71.9549 55.3963 72.0288 56.0017 72.0288C57.7339 72.0288 59.1989 71.4428 60.2386 70.334C61.3765 69.1204 61.907 67.3692 61.7727 65.2689V34.5538C61.7727 34.0444 61.6771 33.5497 61.4886 33.0837C61.0097 31.889 59.9763 30.9995 58.7245 30.7045L15.0273 21.0567H61.5761C63.1987 21.0567 64.6331 22.1424 65.072 23.6999V23.7001L65.078 23.7246C65.1648 24.0335 65.2089 24.3582 65.2089 24.6897V55.7674C65.2089 56.1716 65.1425 56.5687 65.0116 56.9472C64.6616 57.966 63.8846 58.7712 62.8798 59.1565L62.9744 59.4638C64.3796 59.1331 65.8111 58.6904 66.7623 57.6981C67.6715 56.7495 68.0825 55.37 68.0557 53.3569V22.2812C68.0556 20.1003 66.2814 18.3262 64.1005 18.3262Z" fill="#66142E"/>
<g opacity="0.55">
<path d="M58.7073 67.9353V68.9422C58.7073 70.0409 58.2466 71.0123 57.5216 71.6954C56.5099 71.9354 55.3661 71.9274 54.1562 71.6519C56.497 72.132 58.7073 70.3421 58.7073 67.9353Z" fill="white"/>
</g>
<g opacity="0.55">
<path d="M61.6074 65.2739C61.6332 65.6654 61.6348 66.0424 61.6139 66.4016C61.6123 66.3614 61.6106 66.3211 61.6074 66.2808V65.2739Z" fill="white"/>
</g>
<g opacity="0.55">
<path d="M65.162 56.9998C65.2957 56.6131 65.3682 56.1991 65.3682 55.7673V56.7742C65.3682 57.206 65.2957 57.62 65.162 58.0066C65.0733 58.266 64.9557 58.5125 64.8156 58.7429C64.2582 58.9652 63.6299 59.144 62.9355 59.3067C63.9779 58.9072 64.7979 58.0598 65.162 56.9998Z" fill="white"/>
</g>
<g opacity="0.55">
<path d="M67.8903 22.281V23.2879C67.8903 21.1935 66.1923 19.4939 64.0964 19.4939H13.0356C11.7774 19.4939 10.6691 20.1351 10.0198 21.1082C9.94732 21.2773 9.89416 21.4416 9.85711 21.6011C9.74112 21.1581 9.783 20.6523 10.0198 20.1013C10.6691 19.1282 11.7774 18.4871 13.0356 18.4871H64.0964C66.1923 18.4871 67.8903 20.1867 67.8903 22.281Z" fill="white"/>
</g>
<g opacity="0.3">
<path d="M61.6091 65.274C61.9281 70.2262 58.4644 72.6331 54.1582 71.652C56.499 72.132 58.7093 70.3422 58.7093 67.9354V37.0653C58.7093 36.4596 58.5659 35.8812 58.3082 35.3673C57.957 32.9331 59.7742 31.9069 61.3368 33.1441C61.5141 33.5823 61.6091 34.0592 61.6091 34.5538V65.274Z" fill="#66142E"/>
</g>
<path d="M56.011 72.3531C55.3825 72.3531 54.7258 72.2771 54.0501 72.1231C53.7919 72.0643 53.6291 71.8086 53.6851 71.5496C53.7411 71.2907 53.9954 71.1252 54.2545 71.1785C55.2305 71.379 56.2337 71.1313 57.0077 70.4996C57.7815 69.8685 58.2253 68.9338 58.2253 67.9352V37.0652C58.2253 35.5214 57.1755 34.1964 55.6724 33.8433L11.8926 23.796C11.8878 23.795 11.8822 23.7938 11.8766 23.7923L11.8766 23.7925C10.7808 23.5373 9.96081 22.9689 9.56773 22.1922C9.22445 21.5138 9.22751 20.725 9.57652 19.911C9.58815 19.8838 9.60233 19.8577 9.6187 19.8331C10.3829 18.6878 11.6606 18.0039 13.0366 18.0039H64.0973C66.4558 18.0039 68.3746 19.9226 68.3746 22.2811V53.359C68.4321 57.6637 66.464 58.973 63.0449 59.7772C62.7977 59.8361 62.5472 59.6921 62.4723 59.449C62.3975 59.206 62.5238 58.9465 62.7612 58.8556C63.6768 58.5045 64.3847 57.7708 64.7035 56.8428C64.8231 56.4971 64.8835 56.1356 64.8835 55.7673V24.6895C64.8835 22.864 63.3983 21.3788 61.5729 21.3788H17.978L58.7886 30.3892C60.736 30.8472 62.0917 32.5591 62.0917 34.5536V65.2585C62.2441 67.682 61.5142 69.7094 60.0356 70.9689C58.963 71.8825 57.5741 72.3531 56.011 72.3531ZM12.1088 22.8539L55.891 32.9017C57.8355 33.3586 59.1919 35.0705 59.1919 37.0652V67.9352C59.1919 69.1662 58.67 70.3219 57.7539 71.1338C58.3735 70.9414 58.931 70.6401 59.4088 70.2331C60.6706 69.1583 61.2645 67.4541 61.1261 65.3049C61.1253 65.2947 61.125 65.2843 61.125 65.2739V34.5536C61.125 33.0098 60.0758 31.685 58.5736 31.3316L13.443 21.3675C13.2022 21.3143 13.04 21.0882 13.0668 20.8431C13.0935 20.5978 13.3006 20.4122 13.5472 20.4122H61.5729C63.9313 20.4122 65.85 22.3309 65.85 24.6895V55.7673C65.85 56.2434 65.7718 56.7113 65.6173 57.1577C65.5101 57.4697 65.3689 57.7649 65.1975 58.0386C66.7197 57.2545 67.4429 55.9791 67.408 53.3654L67.4079 22.2811C67.4079 20.4556 65.9228 18.9705 64.0973 18.9705H13.0366C11.9992 18.9705 11.0349 19.4788 10.4478 20.3326C10.2285 20.8667 10.2225 21.3453 10.4302 21.7557C10.6917 22.2726 11.2826 22.6613 12.0943 22.8507C12.0991 22.8517 12.104 22.8528 12.1088 22.8539Z" fill="#66142E"/>
<path d="M61.0928 25.042C60.9953 25.042 60.8959 25.041 60.7948 25.039L30.1259 25.0391C29.859 25.0391 29.6426 24.8228 29.6426 24.5558C29.6426 24.2888 29.859 24.0725 30.1259 24.0725H60.8043C63.3019 24.1189 63.9018 23.5384 64.0434 23.2859C64.2199 22.9711 64.0352 22.5583 63.8494 22.2674C63.7057 22.0426 63.7714 21.7436 63.9963 21.5999C64.2212 21.4561 64.5201 21.5218 64.6639 21.7469C65.2584 22.6772 65.1132 23.3542 64.8866 23.7583C64.409 24.6107 63.1333 25.042 61.0928 25.042Z" fill="#66142E"/>
<path d="M50.2125 24.5557L32.92 24.6782L32.8926 24.6717L29.0021 23.813L26.8949 23.3475L24.3028 22.7756L23.9032 20.8955L23.3909 18.4871L21.0582 7.53224C21.0099 7.3067 21.1532 7.08438 21.3788 7.03605L33.6321 4.42783L35.4944 4.03152L40.6722 2.9296L43.0581 2.42213H43.0597L44.9848 2.01132C45.2104 1.96299 45.4327 2.10637 45.481 2.33191L45.6309 3.03592L45.8725 4.17168L48.9205 18.4871L49.4328 20.8955L50.2125 24.5557Z" fill="#1EBC61"/>
<path d="M32.9096 24.7588L32.8728 24.7502L24.2333 22.8431L23.3107 18.504L20.9779 7.54921C20.9204 7.28033 21.092 7.01493 21.3605 6.95736L43.0566 2.3416L44.9665 1.93257C45.2354 1.8756 45.5009 2.04679 45.5583 2.31518L50.3105 24.6358L50.2117 24.6364L32.9096 24.7588ZM24.3694 22.7081L32.9277 24.5977L50.1118 24.4759L45.4008 2.34885C45.382 2.26092 45.33 2.18556 45.2543 2.13662C45.1785 2.08768 45.0884 2.0707 45.0002 2.09022L21.3941 7.11501C21.2127 7.15387 21.0965 7.33353 21.1355 7.51557L24.3694 22.7081Z" fill="#66142E"/>
<g opacity="0.55">
<path d="M45.568 2.73789L44.1262 3.04559H44.1246L36.5625 4.65498L22.4469 7.6595C22.2213 7.70784 22.0764 7.93015 22.1247 8.15569L24.459 19.1105L24.9713 21.519L25.2823 22.9914L24.3028 22.7756L23.9032 20.8955L23.3909 18.4871L21.0582 7.53224C21.0099 7.3067 21.1532 7.08438 21.3788 7.03605L35.4944 4.03152L43.0581 2.42213H43.0597L44.9848 2.01132C45.2104 1.96299 45.4327 2.10637 45.481 2.33191L45.568 2.73789Z" fill="white"/>
</g>
<path d="M47.7418 24.5558L32.8932 24.6718L26.8954 23.3475L26.3735 20.8956L25.8612 18.4871L24.2969 11.1377C25.4858 10.8848 26.2446 9.71522 25.9917 8.52468L34.8731 6.63498L41.38 5.24951C41.6329 6.43843 42.8025 7.19722 43.993 6.94429L46.4498 18.4871L46.9621 20.8956L47.7418 24.5558Z" fill="#4EEC91"/>
<path d="M32.8827 24.7522L32.8738 24.7503L26.8254 23.415L25.7803 18.5039L24.1992 11.0757L24.278 11.0588C25.4216 10.8156 26.154 9.68618 25.9107 8.54114L25.8941 8.46249L25.9728 8.44567L41.4399 5.15381L41.4567 5.23246C41.7 6.37621 42.8301 7.10825 43.9742 6.86534L44.0529 6.84865L44.0698 6.9273L47.8391 24.6355L32.8827 24.7522ZM26.9614 23.28L32.8997 24.5911L47.6404 24.4759L43.9287 7.03823C42.7511 7.24763 41.6065 6.50396 41.3172 5.34465L26.0837 8.58679C26.2915 9.7647 25.5494 10.9091 24.39 11.1984L26.9614 23.28Z" fill="#66142E"/>
<g opacity="0.3">
<path d="M50.2124 24.5558L32.9199 24.6783L32.8925 24.6718L29.002 23.8131L33.632 4.42792L35.4943 4.03162L40.6721 2.92969L45.8724 4.17177L48.9204 18.4872L49.4327 20.8956L50.2124 24.5558Z" fill="#66142E"/>
</g>
<path d="M50.213 25.0393C49.9898 25.0393 49.7892 24.8837 49.7408 24.6565L45.023 2.49766L43.1615 2.89474C43.1554 2.89616 43.1494 2.89725 43.1433 2.89835L21.5453 7.49509L24.8875 23.1937C24.9432 23.4549 24.7765 23.7115 24.5155 23.7672C24.2542 23.8226 23.9977 23.6561 23.9422 23.3951L20.5865 7.63306C20.4825 7.14757 20.7929 6.66755 21.2785 6.56358L42.9584 1.9494C42.9643 1.94815 42.9701 1.94705 42.976 1.94608L44.8849 1.53876C45.1197 1.48856 45.3606 1.53264 45.5625 1.66287C45.7649 1.79362 45.9042 1.99528 45.9546 2.23081L50.6862 24.4551C50.7418 24.7162 50.5753 24.9729 50.3142 25.0286C50.2803 25.0358 50.2464 25.0393 50.213 25.0393Z" fill="#66142E"/>
<path d="M47.7419 24.9589C47.5559 24.9589 47.3887 24.8291 47.3484 24.6398L43.6769 7.3917C42.5508 7.45463 41.5026 6.77437 41.1007 5.72106L26.4393 8.84128C26.5014 9.96805 25.8219 11.0157 24.7686 11.4176L27.401 23.7824C27.4474 24 27.3086 24.214 27.091 24.2604C26.8735 24.3062 26.6595 24.168 26.6131 23.9504L23.9034 11.2218C23.8811 11.1173 23.9013 11.0083 23.9595 10.9186C24.0177 10.8291 24.109 10.7661 24.2135 10.744C25.1834 10.5376 25.8045 9.57961 25.5981 8.60846C25.5519 8.39088 25.6907 8.17707 25.9082 8.13083L41.2966 4.85579C41.4008 4.83407 41.51 4.8536 41.5996 4.91195C41.6893 4.97001 41.7521 5.06142 41.7743 5.16588C41.9807 6.13564 42.9383 6.75707 43.9098 6.5505C44.1276 6.50423 44.3412 6.64333 44.3874 6.86059L48.1362 24.4722C48.1826 24.6896 48.0437 24.9035 47.8262 24.9499C47.7979 24.9559 47.7696 24.9589 47.7419 24.9589Z" fill="#66142E"/>
<path d="M60.4566 7.00876L57.9467 17.5141L56.2648 24.5558H30.5918L36.1691 1.20592C36.2223 0.981995 36.4478 0.843449 36.6733 0.896612L60.1473 6.50452C60.3712 6.55768 60.5098 6.78322 60.4566 7.00876Z" fill="#1EBC61"/>
<g opacity="0.55">
<path d="M60.4566 7.00876L60.339 7.50012L37.3709 2.01304C37.1454 1.95987 36.9198 2.09842 36.8667 2.32235L31.5568 24.5558H30.5918L36.1691 1.20592C36.2223 0.981995 36.4478 0.843449 36.6733 0.896612L60.1473 6.50452C60.3712 6.55768 60.5098 6.78322 60.4566 7.00876Z" fill="white"/>
</g>
<path d="M56.2656 25.0391H30.5927C30.4447 25.0391 30.3049 24.9713 30.2133 24.8552C30.1217 24.7391 30.0882 24.5874 30.1226 24.4435L35.6999 1.09351C35.8143 0.611785 36.3008 0.311912 36.7852 0.426132L60.2605 6.0343C60.7424 6.14868 61.042 6.63559 60.9279 7.11969C60.9279 7.12018 60.9277 7.12063 60.9276 7.12111L56.7358 24.6682C56.6837 24.8857 56.4893 25.0391 56.2656 25.0391ZM31.205 24.0725H55.8842L59.9724 6.95934L36.6249 1.38172L31.205 24.0725Z" fill="#66142E"/>
<g opacity="0.3">
<path d="M67.8926 22.6951V53.3589C67.9474 57.4605 66.1608 58.548 62.9355 59.3067C63.9779 58.9072 64.7979 58.0598 65.162 56.9998C65.2957 56.6131 65.3682 56.1991 65.3682 55.7674V24.6895C65.3682 24.3399 65.3214 24.0016 65.2312 23.681V23.6778C65.3682 21.0454 67.1242 19.2539 67.8926 22.6951Z" fill="#66142E"/>
</g>
<path d="M57.1301 10.5321L53.7792 24.5559H33.0762L37.5435 5.85372C38.7276 6.13565 39.9149 5.40587 40.1968 4.22339L55.4997 7.87876C55.2178 9.06124 55.9476 10.2502 57.1301 10.5321Z" fill="#4EEC91"/>
<path d="M45.37 17.114C42.284 16.5245 39.3044 18.5484 38.7149 21.6345C38.5216 22.6467 38.6109 23.6469 38.9251 24.5557H49.6805C49.7676 24.3022 49.8387 24.04 49.8904 23.7692C50.4799 20.6832 48.4561 17.7035 45.37 17.114Z" fill="#1EBC61"/>
<path d="M42.7687 24.4985C42.0285 24.3571 41.4542 23.8023 41.346 22.8501L40.4473 22.6784L40.666 21.5334L41.4242 21.6782C41.5608 21.0467 41.8424 20.4683 42.0763 20.1882L43.1209 20.6671C42.8709 20.9896 42.5831 21.5027 42.475 22.0687C42.3585 22.6787 42.5499 23.048 42.9329 23.1212C43.2978 23.1909 43.5599 22.9522 43.9473 22.2952C44.4727 21.3851 45.1344 20.8526 45.9881 21.0156C46.7953 21.1699 47.3451 21.8389 47.3893 22.8177L48.2907 22.9898L48.072 24.1349L47.2338 23.9748C47.1044 24.4286 46.9239 24.7643 46.7492 25.0143L45.734 24.5143C45.8923 24.3013 46.1375 23.9138 46.2471 23.3399C46.3569 22.7648 46.1496 22.4366 45.844 22.3782C45.4701 22.3067 45.2417 22.6066 44.8096 23.3086C44.2286 24.2721 43.5952 24.6564 42.7687 24.4985Z" fill="#4EEC91"/>
<path d="M46.5203 12.7173C47.4149 12.7173 48.1401 11.992 48.1401 11.0974C48.1401 10.2028 47.4149 9.47754 46.5203 9.47754C45.6256 9.47754 44.9004 10.2028 44.9004 11.0974C44.9004 11.992 45.6256 12.7173 46.5203 12.7173Z" fill="#1EBC61"/>
<g opacity="0.3">
<path d="M59.3967 17.4422L57.7148 24.4839H47.1821C46.7246 23.548 46.4668 22.496 46.4668 21.3828C46.4668 17.4809 49.6292 14.3169 53.5311 14.3169C55.9733 14.3169 58.1272 15.5574 59.3967 17.4422Z" fill="#66142E"/>
</g>
<path d="M53.7797 24.9586H33.0766C32.9533 24.9586 32.8368 24.9021 32.7604 24.8054C32.6841 24.7086 32.6562 24.5821 32.6849 24.4622L37.1522 5.75993C37.2038 5.54393 37.4208 5.40973 37.6372 5.4618C38.6023 5.69102 39.5756 5.09414 39.8055 4.12989C39.8303 4.02604 39.8954 3.93621 39.9864 3.88022C40.0775 3.82422 40.187 3.80675 40.2909 3.83159L55.5937 7.48687C55.81 7.53848 55.9435 7.75574 55.8919 7.97207C55.6617 8.93758 56.2592 9.91014 57.2239 10.1402C57.3279 10.1649 57.4177 10.23 57.4736 10.3211C57.5295 10.412 57.547 10.5215 57.5222 10.6255L54.1714 24.6494C54.1281 24.8307 53.966 24.9586 53.7797 24.9586ZM33.5869 24.1531H53.4618L56.6524 10.8C55.609 10.3724 54.9554 9.30872 55.0452 8.18401L40.4653 4.70147C40.0377 5.74453 38.9735 6.3987 37.8494 6.30839L33.5869 24.1531Z" fill="#66142E"/>
<g opacity="0.3">
<path d="M57.4194 39.5237V67.9354C57.4194 69.3176 56.2998 70.4421 54.924 70.4421C54.7548 70.4421 54.584 70.4244 54.4165 70.3889L54.3778 70.3825L12.8075 60.6005C12.627 60.5586 12.453 60.4974 12.2871 60.42C30.1 61.0242 47.871 53.7746 57.4194 39.5237Z" fill="#66142E"/>
</g>
<path d="M63.8066 22.3699C62.9102 26.4618 58.8659 29.0525 54.7739 28.156C53.5709 27.8924 52.498 27.3567 51.6048 26.6278C50.9414 26.0865 50.3782 25.4386 49.9339 24.7164C49.7183 24.3673 49.5328 24 49.3774 23.6195C48.8317 22.2924 48.6578 20.7992 48.9532 19.2927C48.9645 19.2357 48.9754 19.18 48.9878 19.1233C49.8846 15.0302 53.9289 12.4395 58.0208 13.336C58.4506 13.4302 58.8628 13.5588 59.257 13.7194C60.6592 14.2877 61.8232 15.2492 62.6444 16.4424C62.8769 16.7816 63.0821 17.1384 63.2581 17.5098C63.6191 18.2731 63.8542 19.0979 63.9423 19.9548C64.0261 20.7415 63.9851 21.5553 63.8066 22.3699Z" fill="#F7C714"/>
<g opacity="0.55">
<path d="M63.8043 22.3696C63.7637 22.555 63.7163 22.7376 63.6634 22.9166C64.2226 19.0205 61.6834 15.2943 57.7769 14.4384C53.8703 13.5826 50.0058 15.9058 48.8848 19.6788C48.9116 19.4942 48.9449 19.3084 48.9855 19.1231C49.8822 15.03 53.9265 12.4393 58.0185 13.3358C62.1104 14.2322 64.7011 18.2765 63.8043 22.3696Z" fill="white"/>
</g>
<path d="M63.8067 22.3697C62.9102 26.4616 58.8659 29.0523 54.774 28.1558C50.682 27.2593 48.0914 23.215 48.9879 19.1231C49.0655 18.7689 49.1666 18.4261 49.2897 18.0955C49.0078 21.8049 51.4933 25.2508 55.231 26.0696C58.9688 26.8885 62.6673 24.7974 63.9621 21.3099C63.9358 21.6618 63.8843 22.0155 63.8067 22.3697Z" fill="#F89E1D"/>
<path d="M55.2653 25.9128C52.4164 25.2886 50.6064 22.4631 51.2306 19.6141C51.8547 16.7653 54.6802 14.9553 57.5291 15.5795C60.3781 16.2036 62.188 19.0291 61.5639 21.878C60.9397 24.727 58.1142 26.5369 55.2653 25.9128Z" fill="#F9DD6A"/>
<g opacity="0.55">
<path d="M61.5628 21.8782C61.5323 22.0176 61.4961 22.1544 61.4558 22.2878C61.8264 19.5852 60.057 16.9989 57.3476 16.4053C54.6381 15.8117 51.9495 17.4213 51.1562 20.0314C51.1754 19.8933 51.1997 19.7538 51.2303 19.6145C51.8544 16.7658 54.6799 14.9548 57.5286 15.5789C60.3774 16.203 62.187 19.0294 61.5628 21.8782Z" fill="white"/>
</g>
<path d="M57.9917 22.2831C57.8432 22.9608 57.3184 23.4756 56.4394 23.5515L56.2592 24.3744L55.2108 24.1447L55.3629 23.4505C54.7851 23.3091 54.2598 23.0356 54.0078 22.8134L54.4744 21.8639C54.765 22.102 55.23 22.3796 55.7483 22.4931C56.3067 22.6155 56.6514 22.4485 56.7282 22.0978C56.8014 21.7637 56.5883 21.5166 55.9932 21.1437C55.1687 20.6377 54.695 20.0155 54.8663 19.234C55.0282 18.4949 55.6575 18.0055 56.5594 17.989L56.7402 17.1638L57.7886 17.3935L57.6204 18.1609C58.0348 18.2913 58.3393 18.4656 58.565 18.6326L58.0797 19.5545C57.8876 19.4035 57.537 19.1683 57.0117 19.0532C56.4851 18.9379 56.1779 19.1205 56.1166 19.4003C56.0415 19.7426 56.3118 19.9602 56.9472 20.3753C57.8196 20.9339 58.1575 21.5264 57.9917 22.2831Z" fill="#66142E"/>
<g opacity="0.27">
<path d="M62.6444 16.4422L49.3774 23.6193C48.8317 22.2922 48.6578 20.7991 48.9532 19.2925L59.2569 13.7192C60.6592 14.2875 61.8232 15.249 62.6444 16.4422Z" fill="#FCE5E5"/>
</g>
<g opacity="0.27">
<path d="M63.8128 19.1431L51.3365 26.3209C50.6731 25.7796 50.3779 25.4383 49.9336 24.7162L63.2578 17.5095C63.6188 18.2728 63.7247 18.2862 63.8128 19.1431Z" fill="#FCE5E5"/>
</g>
<path d="M56.3975 26.4386C55.9953 26.4386 55.5872 26.3957 55.1784 26.3062C53.6955 25.9813 52.4267 25.0965 51.6057 23.8149C50.7848 22.5334 50.5116 21.0108 50.8366 19.5278C51.1614 18.0449 52.0461 16.7761 53.3276 15.9551C54.6093 15.1342 56.1315 14.8614 57.6147 15.186C59.0977 15.5109 60.3664 16.3957 61.1874 17.6772C62.0084 18.9588 62.2816 20.4812 61.9567 21.9642C61.3746 24.6212 59.0128 26.4386 56.3975 26.4386ZM56.3905 15.8584C55.4669 15.8584 54.5603 16.1222 53.7622 16.6335C52.6618 17.3384 51.9022 18.4275 51.6233 19.7003C51.3445 20.973 51.5791 22.2801 52.284 23.3804C52.9889 24.4809 54.078 25.2405 55.3508 25.5193C55.7015 25.5962 56.0522 25.633 56.3973 25.633C58.6428 25.6333 60.67 24.0731 61.1699 21.7917C61.4486 20.519 61.214 19.2121 60.5091 18.1116C59.8042 17.0113 58.7151 16.2517 57.4423 15.9729C57.0927 15.8963 56.7404 15.8584 56.3905 15.8584Z" fill="#66142E"/>
<path d="M56.3975 28.8158C55.8274 28.8158 55.2487 28.7549 54.6694 28.6279C53.4185 28.3539 52.2842 27.8069 51.2981 27.002C50.5966 26.4298 49.9988 25.7459 49.5211 24.9695C49.2949 24.6031 49.0955 24.2103 48.9288 23.8022C48.3293 22.3441 48.1733 20.7521 48.4778 19.1995C48.4908 19.1332 48.502 19.0767 48.5146 19.0196C49.4667 14.6734 53.7765 11.9112 58.1231 12.8637C58.5734 12.9624 59.0159 13.0995 59.4382 13.2716C60.8981 13.8633 62.1444 14.865 63.0414 16.1681C63.288 16.5281 63.5074 16.9095 63.6936 17.3024C64.0842 18.1282 64.3292 19.0038 64.422 19.9052C64.5127 20.757 64.4641 21.6216 64.2776 22.4731C63.4524 26.2396 60.1046 28.8158 56.3975 28.8158ZM56.3954 13.6426C53.132 13.6426 50.1853 15.9104 49.4588 19.2265C49.4476 19.2773 49.4379 19.3271 49.4278 19.3779C49.1584 20.7518 49.2956 22.1523 49.8232 23.4356C49.9702 23.7954 50.1454 24.1406 50.344 24.4623C50.7652 25.147 51.2917 25.7494 51.9092 26.2531C52.7767 26.9612 53.775 27.4425 54.8762 27.6837C55.3859 27.7954 55.8956 27.849 56.3973 27.849C59.6606 27.8493 62.6069 25.5818 63.3333 22.2663C63.4976 21.5164 63.5404 20.7559 63.4606 20.0057C63.3788 19.212 63.1634 18.4423 62.8199 17.7162C62.6556 17.3693 62.4619 17.0326 62.2445 16.7155C61.4557 15.5694 60.3592 14.6878 59.0742 14.1671C58.7021 14.0154 58.3127 13.8948 57.9162 13.8079C57.4066 13.6962 56.897 13.6426 56.3954 13.6426Z" fill="#66142E"/>
<path d="M74.3873 51.1323L72.9795 49.9496C72.6451 49.6686 72.5921 49.1778 72.8507 48.8322C72.8594 48.8204 72.87 48.8078 72.8794 48.7966L79.6651 40.7197C79.9555 40.374 80.4717 40.3285 80.8181 40.6195L82.2258 41.8022C82.5722 42.0932 82.6164 42.6095 82.326 42.9552L75.5402 51.0321C75.2499 51.3777 74.7336 51.4233 74.3873 51.1323Z" fill="#F7C714"/>
<path d="M74.9114 51.4043C74.7072 51.4043 74.502 51.3354 74.3338 51.1941L72.9261 50.0113C72.5612 49.7047 72.499 49.1657 72.7846 48.784C72.7939 48.7714 72.8059 48.757 72.8164 48.7445L79.6018 40.6679C79.9208 40.2883 80.489 40.2392 80.8684 40.5578L82.276 41.7406C82.6555 42.0595 82.7049 42.6276 82.3861 43.0071L75.6003 51.084C75.4228 51.2954 75.1679 51.4043 74.9114 51.4043ZM74.4375 51.0707C74.7489 51.3325 75.2152 51.2916 75.477 50.9805L82.2628 42.9036C82.5244 42.5921 82.4839 42.1256 82.1724 41.864L80.7647 40.6812C80.4533 40.4194 79.9869 40.4603 79.7252 40.7715L72.9395 48.8485C72.931 48.8586 72.9217 48.8696 72.9142 48.88C72.6792 49.1939 72.7302 49.6363 73.0298 49.888L74.4375 51.0707Z" fill="#66142E"/>
<path d="M76.0993 44.9701L73.1641 48.4639L75.8251 50.6995L78.7604 47.2058L76.0993 44.9701Z" fill="#F89E1D"/>
<g opacity="0.55">
<path d="M79.3185 41.1387L77.8926 42.8359L80.5536 45.0716L81.9795 43.3744L79.3185 41.1387Z" fill="#FCE5E5"/>
</g>
<path d="M74.9104 51.8075C74.6048 51.8075 74.3119 51.701 74.0751 51.5022L72.6677 50.3197C72.4014 50.0962 72.2382 49.7822 72.2081 49.4357C72.178 49.0893 72.2846 48.7518 72.5084 48.4856L79.2937 40.4092C79.7554 39.8597 80.5781 39.788 81.1278 40.2499L82.5353 41.4325C82.8016 41.656 82.9647 41.97 82.9948 42.3165C83.0249 42.6629 82.9183 43.0004 82.6946 43.2665L75.9093 51.343C75.6856 51.6093 75.3716 51.7724 75.0252 51.8025C74.9868 51.8058 74.9485 51.8075 74.9104 51.8075ZM80.2907 40.9115C80.195 40.9115 80.1 40.9521 80.0338 41.0309L73.2484 49.1074C73.1909 49.176 73.1634 49.2628 73.1711 49.352C73.1789 49.4412 73.2209 49.5221 73.2894 49.5796L74.6969 50.7621C74.7656 50.8198 74.8533 50.8464 74.9416 50.8395C75.0308 50.8318 75.1116 50.7898 75.1692 50.7212L81.9545 42.6448C82.0121 42.5762 82.0396 42.4894 82.0319 42.4001C82.0241 42.3109 81.9821 42.2301 81.9135 42.1725L80.506 40.9899C80.4433 40.9372 80.3668 40.9115 80.2907 40.9115Z" fill="#66142E"/>
<path d="M11.0796 39.5311C8.40655 36.6239 5.29406 35.0506 3.75652 35.7336C3.75652 35.7336 1.61185 36.1964 0.848301 38.5893C-0.0524758 40.1494 1.22763 43.3297 3.96118 46.3027C6.05397 48.5788 8.41625 50.0374 10.0813 50.236L10.0815 50.2362C10.0815 50.2362 12.649 50.9444 14.2072 47.2197C15.1033 45.7809 13.7978 42.4875 11.0796 39.5311Z" fill="#F7C714"/>
<path d="M10.5733 50.3662C10.2616 50.3662 10.0667 50.3159 10.0596 50.314C8.3185 50.107 5.95422 48.5901 3.90128 46.3575C1.14559 43.3603 -0.139053 40.1548 0.773581 38.5567C1.51993 36.2321 3.57837 35.6937 3.73019 35.657C5.33917 34.9516 8.45237 36.5557 11.1383 39.4767C13.8524 42.4286 15.2009 45.7757 14.2751 47.2624C13.1333 49.9937 11.4214 50.3661 10.5733 50.3662ZM4.58718 35.655C4.28905 35.655 4.02043 35.7044 3.78867 35.8074L3.77302 35.8125C3.75201 35.817 1.66415 36.2958 0.924501 38.6139L0.91751 38.6297C0.0312316 40.1648 1.30695 43.2976 4.01995 46.2483C6.01727 48.4206 8.40002 49.9543 10.0903 50.1562C10.1275 50.165 12.6209 50.8017 14.1324 47.1886C15.0273 45.7499 13.6865 42.4862 11.0197 39.5859C8.81449 37.1875 6.24507 35.655 4.58718 35.655Z" fill="#66142E"/>
<path d="M7.27738 45.0715L5.07227 47.5499L9.07493 50.3855C9.07493 50.3855 11.2888 48.5577 11.4691 48.1106C11.4691 48.1106 7.16135 46.1393 7.27738 45.0715Z" fill="#F89E1D"/>
<g opacity="0.55">
<path d="M3.45057 39.3201L1.32617 42.5904L2.98216 45.228L4.98895 42.706L3.45057 39.3201Z" fill="#FCE5E5"/>
</g>
<g opacity="0.55">
<path d="M3.03134 37.3983C3.03134 37.3983 1.7543 37.9034 1.55863 39.6364C1.55863 39.6364 0.988749 41.3107 1.97446 42.8459C1.97446 42.8459 0.652887 40.1407 0.564249 39.9185C0.475612 39.6963 1.4582 36.8599 1.4582 36.8599L2.40212 36.377L3.03134 37.3983Z" fill="white"/>
</g>
<g opacity="0.55">
<path d="M7.46455 37.1904C7.46455 37.1904 6.01265 36.6197 4.81883 36.6109C4.15867 36.606 3.62974 37.1335 3.65185 37.7933C3.68081 38.6586 3.97569 40.1517 5.18401 42.4302L3.057 38.8106C3.057 38.8106 2.83633 36.3864 3.46607 35.7952C3.4661 35.7951 6.06513 35.3601 7.46455 37.1904Z" fill="white"/>
</g>
<path d="M11.7035 45.0599C12.3901 44.4256 11.4756 42.3191 9.66088 40.3548C7.84615 38.3906 5.81844 37.3126 5.13185 37.9469C4.44526 38.5812 5.3598 40.6878 7.17452 42.652C8.98924 44.6162 11.017 45.6943 11.7035 45.0599Z" fill="#F9DD6A"/>
<path d="M11.1603 45.3267C10.2029 45.3267 8.60584 44.3258 7.11415 42.711C5.24113 40.6834 4.34593 38.5666 5.07623 37.892C5.80685 37.2174 7.846 38.2773 9.71895 40.3049C11.592 42.3325 12.4872 44.4493 11.7569 45.1239C11.6081 45.2613 11.4051 45.3267 11.1603 45.3267ZM5.66982 37.8495C5.46854 37.8495 5.30364 37.9013 5.18558 38.0103C4.54379 38.6033 5.48111 40.7059 7.23246 42.6018C8.98382 44.4974 11.006 45.5979 11.6476 45.0056C12.2893 44.4126 11.352 42.31 9.60067 40.4141C8.17162 38.8671 6.56241 37.8495 5.66982 37.8495Z" fill="#66142E"/>
<path d="M11.1642 45.497C10.0529 45.497 8.33052 44.2717 6.99364 42.8244C5.31923 41.0119 4.03932 38.6239 4.9651 37.7686C5.8912 36.9133 8.17019 38.3783 9.84451 40.1908C11.5189 42.0034 12.7988 44.3914 11.8731 45.2466C11.6864 45.419 11.4448 45.497 11.1642 45.497ZM5.67233 38.0156C5.5132 38.0156 5.38718 38.054 5.30167 38.133C4.79988 38.5967 5.52089 40.499 7.35799 42.4878C9.14221 44.4191 11.0352 45.3446 11.5365 44.8823C12.0382 44.4186 11.3172 42.5162 9.48013 40.5275C8.00052 38.9256 6.44558 38.0156 5.67233 38.0156Z" fill="#66142E"/>
<path d="M9.55536 41.1508C9.87264 41.4851 10.0132 41.9276 9.82959 42.3673L10.231 42.796L9.83207 43.2182L9.48793 42.8461C9.24937 43.0745 8.94573 43.2239 8.74625 43.2568L8.35255 42.6082C8.57152 42.5666 8.85996 42.457 9.06842 42.2553C9.28819 42.0427 9.29132 41.8145 9.12448 41.6363C8.96635 41.4673 8.77573 41.4627 8.40665 41.5802C7.88704 41.7521 7.39894 41.7129 7.02696 41.304C6.6793 40.9217 6.62346 40.4422 6.90368 40.0518L6.53125 39.6491L6.97685 39.3203L7.31848 39.6852C7.50807 39.5706 7.68537 39.5177 7.83462 39.4933L8.167 40.0426C8.03509 40.0621 7.81284 40.1137 7.59819 40.2866C7.37857 40.4636 7.3807 40.6699 7.51042 40.8104C7.66991 40.9832 7.8671 40.9523 8.27226 40.8424C8.80741 40.6911 9.20475 40.7814 9.55536 41.1508Z" fill="#66142E"/>
<mask id="mask0_1558_17684" style="mask-type:luminance" maskUnits="userSpaceOnUse" x="2" y="35" width="13" height="13">
<path d="M13.9578 47.5185C15.2931 46.2907 14.0026 42.7145 11.0753 39.5308C8.14808 36.347 4.69257 34.7614 3.35726 35.9891C2.02194 37.2169 3.31247 40.7931 6.23974 43.9768C9.167 47.1606 12.6225 48.7462 13.9578 47.5185Z" fill="white"/>
</mask>
<g mask="url(#mask0_1558_17684)">
<g opacity="0.27">
<path d="M14.3696 42.8449L1.43945 41.6441C1.68294 40.433 2.27192 39.2807 3.20347 38.343L13.2452 39.2761C13.9778 40.3533 14.3518 41.598 14.3696 42.8449Z" fill="#FCE5E5"/>
</g>
</g>
<mask id="mask1_1558_17684" style="mask-type:luminance" maskUnits="userSpaceOnUse" x="2" y="35" width="13" height="13">
<path d="M13.9578 47.5185C15.2931 46.2907 14.0026 42.7145 11.0753 39.5308C8.14808 36.347 4.69257 34.7614 3.35726 35.9891C2.02194 37.2169 3.31247 40.7931 6.23974 43.9768C9.167 47.1606 12.6225 48.7462 13.9578 47.5185Z" fill="white"/>
</mask>
<g mask="url(#mask1_1558_17684)">
<g opacity="0.27">
<path d="M13.9154 45.3374L1.5511 44.5149C1.33474 43.8103 1.28648 43.4248 1.31342 42.6953L14.2987 43.9022C14.1925 44.6214 14.2618 44.6816 13.9154 45.3374Z" fill="#FCE5E5"/>
</g>
</g>
<path d="M12.7394 48.3379C12.103 48.3379 11.3562 48.1483 10.531 47.7697C9.02552 47.0789 7.39721 45.8292 5.94589 44.2508C2.82054 40.8516 1.5648 37.0923 3.08713 35.6925C4.60972 34.2924 8.25044 35.8589 11.3758 39.2582C12.8271 40.8365 13.9361 42.5638 14.4983 44.1219C15.1015 45.7933 15.0079 47.1054 14.2346 47.8164C13.8565 48.1642 13.3486 48.3379 12.7394 48.3379ZM4.56971 35.9872C4.17137 35.9872 3.8512 36.0864 3.63355 36.2865C2.63044 37.2089 3.57746 40.4822 6.54012 43.7045C7.9205 45.2057 9.4574 46.389 10.8676 47.036C12.1493 47.624 13.1774 47.6919 13.6883 47.2223C14.1993 46.7525 14.2178 45.7222 13.7391 44.3958C13.2124 42.9363 12.1621 41.3058 10.7816 39.8044C8.46183 37.2815 6.00717 35.9872 4.56971 35.9872Z" fill="#66142E"/>
<path d="M10.558 50.8444C10.2858 50.8444 10.0854 50.8124 9.99044 50.7934C8.13054 50.5612 5.66315 48.989 3.54413 46.6845C1.87146 44.8654 0.76122 43.1277 0.244088 41.52C-0.56905 38.9922 0.711729 36.2758 3.15988 35.3361C3.35159 35.2626 3.49671 35.2193 3.57049 35.1992C5.39859 34.4367 8.64477 36.0524 11.4926 39.1496C14.3718 42.281 15.7155 45.7689 14.709 47.4764C13.4593 50.4271 11.5412 50.8444 10.558 50.8444ZM10.225 49.6913C10.3259 49.717 12.3578 50.1748 13.6851 47.0022C13.6968 46.9743 13.7106 46.9474 13.7266 46.9216C14.3831 45.8675 13.3982 42.8883 10.6625 39.913C7.98867 37.0047 5.11396 35.7473 3.98342 36.249C3.95204 36.2631 3.9194 36.274 3.88596 36.2821C3.88602 36.2821 3.76033 36.3136 3.56392 36.3889C1.67453 37.1142 0.687792 39.2163 1.31773 41.1749C1.7845 42.626 2.81287 44.223 4.37432 45.9212C6.29808 48.0135 8.5637 49.4875 10.1462 49.6762C10.1728 49.6794 10.1992 49.6846 10.225 49.6913Z" fill="#66142E"/>
<defs>
<linearGradient id="paint0_linear_1558_17684" x1="13.1621" y1="83.3119" x2="27.3712" y2="110.758" gradientUnits="userSpaceOnUse">
<stop stop-color="#1CCFBD"/>
<stop offset="1" stop-color="#2C9BF0"/>
</linearGradient>
</defs>
</svg>
