<svg width="551" height="547" viewBox="0 0 551 547" fill="none" xmlns="http://www.w3.org/2000/svg">
<path d="M403.5 8C403.5 12.4183 407.082 16 411.5 16C415.918 16 419.5 12.4183 419.5 8C419.5 3.58172 415.918 0 411.5 0C407.082 0 403.5 3.58172 403.5 8ZM432.5 488L433.311 489.262L432.5 488ZM9.82377 367.246C9.13145 366.791 8.2014 366.984 7.74644 367.676L0.332541 378.958C-0.122414 379.651 0.0700102 380.581 0.762332 381.036C1.45465 381.491 2.3847 381.298 2.83966 380.606L9.42979 370.577L19.4583 377.167C20.1506 377.622 21.0806 377.43 21.5356 376.738C21.9905 376.045 21.7981 375.115 21.1058 374.66L9.82377 367.246ZM410.839 9.34641C494.224 50.2944 541.649 142.465 547.065 238.147C552.48 333.813 515.875 432.601 431.689 486.738L433.311 489.262C518.625 434.399 555.52 334.437 550.06 237.978C544.601 141.535 496.776 48.2056 412.161 6.65359L410.839 9.34641ZM431.689 486.738C345.8 541.971 249.362 555.501 169.985 533.637C90.6366 511.781 28.3406 454.576 10.4689 368.196L7.53111 368.804C25.6594 456.424 88.8954 514.413 169.188 536.529C249.453 558.637 346.764 544.917 433.311 489.262L431.689 486.738Z" fill="url(#paint0_linear_574_13275)"/>
<defs>
<linearGradient id="paint0_linear_574_13275" x1="9.00001" y1="52.7573" x2="668.955" y2="223.206" gradientUnits="userSpaceOnUse">
<stop stop-color="#1CCFBD"/>
<stop offset="1" stop-color="#2C9BF0"/>
</linearGradient>
</defs>
</svg>
