<svg width="295" height="283" viewBox="0 0 295 283" fill="none" xmlns="http://www.w3.org/2000/svg">
<path d="M295 141.5C295 219.648 231.648 283 153.5 283C75.3517 283 12 219.648 12 141.5C12 63.3517 75.3517 0 153.5 0C231.648 0 295 63.3517 295 141.5ZM16.8847 141.5C16.8847 216.951 78.0495 278.115 153.5 278.115C228.951 278.115 290.115 216.951 290.115 141.5C290.115 66.0495 228.951 4.88472 153.5 4.88472C78.0495 4.88472 16.8847 66.0495 16.8847 141.5Z" fill="#F61F3C" fill-opacity="0.13"/>
<path d="M283 141.5C283 219.648 219.648 283 141.5 283C63.3517 283 0 219.648 0 141.5C0 63.3517 63.3517 0 141.5 0C219.648 0 283 63.3517 283 141.5ZM4.88472 141.5C4.88472 216.951 66.0495 278.115 141.5 278.115C216.951 278.115 278.115 216.951 278.115 141.5C278.115 66.0495 216.951 4.88472 141.5 4.88472C66.0495 4.88472 4.88472 66.0495 4.88472 141.5Z" fill="url(#paint0_linear_712_5662)" fill-opacity="0.13"/>
<defs>
<linearGradient id="paint0_linear_712_5662" x1="-3.19089e-06" y1="56.5" x2="388.5" y2="329" gradientUnits="userSpaceOnUse">
<stop stop-color="#00C9B7"/>
<stop offset="1" stop-color="#00635A"/>
</linearGradient>
</defs>
</svg>
