<svg width="70" height="71" viewBox="0 0 70 71" fill="none" xmlns="http://www.w3.org/2000/svg">
<path d="M9.7108 5.31348C3.21116 5.31348 3.20038 14.5559 9.7108 14.5559C16.21 14.5559 16.2208 5.31348 9.7108 5.31348Z" fill="#EBEBEB"/>
<path d="M13.6628 10.801C13.316 12.3911 11.9976 13.7703 9.70972 13.7703C4.3074 13.7703 4.3158 6.09912 9.70972 6.09912C9.745 6.09912 9.78028 6.09912 9.81556 6.10108C4.7393 6.19418 4.76422 13.4588 9.91524 13.4588C12.0164 13.4588 13.2684 12.243 13.6628 10.801Z" fill="#DBDBDB"/>
<path d="M9.74916 7.11035C9.84044 7.11035 9.91786 7.18119 9.91786 7.26477V7.52209C10.4241 7.56073 10.7896 7.71529 11.1695 7.97247C11.2326 8.01769 11.2679 8.05619 11.2679 8.12059C11.2679 8.21061 11.1835 8.28131 11.085 8.28131C11.0429 8.28131 11.0076 8.27501 10.9585 8.23637C10.6141 7.98549 10.2765 7.85683 9.90372 7.81833V9.61957C10.9725 9.82551 11.4226 10.1922 11.4226 10.8227C11.4226 11.5048 10.7968 11.9873 9.91786 12.013V12.5148C9.91786 12.5985 9.84044 12.6692 9.74916 12.6692C9.6576 12.6692 9.58046 12.5985 9.58046 12.5148V12.0064C8.9688 11.9615 8.46956 11.7556 7.99832 11.3823C7.94918 11.3437 7.9209 11.3052 7.9209 11.2472C7.9209 11.1635 8.00532 11.0864 8.09674 11.0864C8.16002 11.0864 8.20216 11.1121 8.2233 11.1313C8.61712 11.4659 9.04594 11.6654 9.59446 11.7168V9.88347C8.53956 9.67123 8.10374 9.31731 8.10374 8.67401C8.10374 8.02427 8.72254 7.52867 9.58046 7.50949V7.26477C9.58032 7.18119 9.6576 7.11035 9.74916 7.11035ZM9.59446 9.55531V7.79887C8.91238 7.81175 8.46228 8.18485 8.46228 8.64811C8.46228 9.08561 8.6874 9.35595 9.59446 9.55531ZM9.90372 9.94773V11.7236C10.6069 11.7108 11.064 11.3375 11.064 10.8486C11.064 10.4046 10.8179 10.1344 9.90372 9.94773Z" fill="#DBDBDB"/>
<path d="M58.331 30.6689C53.0389 33.3795 57.0448 41.2221 62.3457 38.507C67.6375 35.7966 63.6316 27.9539 58.331 30.6689Z" fill="#DBDBDB"/>
<path d="M58.8275 30.4145C53.784 32.9978 57.7902 40.8402 62.8421 38.2526C67.8855 35.6694 63.8791 27.827 58.8275 30.4145Z" fill="#EBEBEB"/>
<path d="M64.278 33.4977C64.6997 34.984 64.2758 36.6777 62.5003 37.587C58.3083 39.7342 54.9826 33.2253 59.1682 31.0815C59.1956 31.0675 59.2229 31.0535 59.2512 31.041C55.3526 33.1375 58.5274 39.2884 62.5245 37.2411C64.155 36.406 64.5984 34.8773 64.278 33.4977Z" fill="#DBDBDB"/>
<path d="M60.381 31.6932C60.4594 31.679 60.5377 31.7335 60.5519 31.8117L60.5956 32.0531C61.0364 32.0108 61.3762 32.099 61.7457 32.2813C61.8075 32.3138 61.8442 32.3446 61.8552 32.4049C61.8704 32.4893 61.8099 32.5687 61.7255 32.584C61.6894 32.5906 61.658 32.5901 61.6093 32.5614C61.2714 32.3796 60.96 32.3113 60.6337 32.333L60.9388 34.0221C61.8907 34.0494 62.339 34.3236 62.4458 34.9148C62.5613 35.5544 62.1062 36.1037 61.3565 36.2642L61.4414 36.7347C61.4556 36.8132 61.4011 36.8915 61.3229 36.9056C61.2443 36.9198 61.1661 36.8656 61.1519 36.7871L61.0658 36.3105C60.5334 36.3631 60.0701 36.2475 59.6027 35.9706C59.554 35.942 59.5232 35.9102 59.5134 35.8559C59.4992 35.7774 59.5586 35.692 59.637 35.6778C59.6913 35.668 59.7319 35.6857 59.7532 35.7004C60.1477 35.9531 60.5495 36.0736 61.0289 36.0369L60.7182 34.3175C59.7773 34.282 59.3433 34.0177 59.2344 33.4145C59.1243 32.8052 59.5712 32.2448 60.3039 32.0937L60.2625 31.8644C60.2482 31.7857 60.3026 31.7073 60.381 31.6932ZM60.6625 34.0096L60.365 32.3626C59.782 32.4805 59.459 32.9001 59.5376 33.3344C59.6116 33.7447 59.8505 33.9633 60.6625 34.0096ZM60.9944 34.3296L61.2953 35.9948C61.8964 35.8737 62.2253 35.4529 62.1426 34.9945C62.0672 34.5781 61.8102 34.3628 60.9944 34.3296Z" fill="#DBDBDB"/>
<path d="M17.9368 14.6662C13.7672 16.8019 16.9235 22.9811 21.1 20.8418C25.2693 18.7062 22.1131 12.527 17.9368 14.6662Z" fill="#DBDBDB"/>
<path d="M18.3286 14.4656C14.3548 16.5009 17.5114 22.68 21.4917 20.6413C25.4653 18.6058 22.3088 12.4269 18.3286 14.4656Z" fill="#EBEBEB"/>
<path d="M22.6231 16.8946C22.9553 18.0657 22.6212 19.4001 21.2224 20.1166C17.9195 21.8083 15.2991 16.68 18.5969 14.9909C18.6185 14.9798 18.6401 14.9688 18.6623 14.959C15.5906 16.6108 18.0921 21.4571 21.2414 19.844C22.526 19.186 22.8753 17.9816 22.6231 16.8946Z" fill="#DBDBDB"/>
<path d="M19.5517 15.4725C19.6134 15.4613 19.6751 15.5043 19.6863 15.5659L19.7206 15.756C20.068 15.7227 20.3358 15.7921 20.6269 15.9359C20.6756 15.9615 20.7046 15.9857 20.7131 16.0333C20.7251 16.0998 20.6774 16.1624 20.6109 16.1744C20.5825 16.1796 20.5577 16.1792 20.5193 16.1567C20.2531 16.0134 20.0076 15.9595 19.7506 15.9766L19.991 17.3075C20.741 17.329 21.0942 17.545 21.1783 18.0108C21.2693 18.5147 20.9106 18.9476 20.32 19.074L20.3869 19.4447C20.3981 19.5066 20.3551 19.5682 20.2935 19.5794C20.2316 19.5906 20.17 19.5477 20.1588 19.4859L20.0909 19.1104C19.6715 19.1518 19.3065 19.0607 18.9382 18.8426C18.8998 18.82 18.8756 18.795 18.8678 18.7523C18.8566 18.6904 18.9033 18.623 18.9651 18.612C19.0079 18.6043 19.0398 18.6181 19.0566 18.6298C19.3674 18.8288 19.684 18.9239 20.0617 18.8949L19.817 17.5401C19.0755 17.5121 18.7336 17.304 18.6478 16.8287C18.5612 16.3486 18.9133 15.907 19.4906 15.788L19.458 15.6073C19.4471 15.5454 19.4899 15.4837 19.5517 15.4725ZM19.7736 17.2977L19.5391 16C19.0797 16.0928 18.8253 16.4234 18.8871 16.7657C18.9455 17.0889 19.1338 17.2611 19.7736 17.2977ZM20.0349 17.5498L20.272 18.8617C20.7456 18.7663 21.0047 18.4347 20.9395 18.0735C20.8803 17.7457 20.6778 17.576 20.0349 17.5498Z" fill="#DBDBDB"/>
<path d="M14.6557 54.003C19.3873 54.852 18.1375 61.8612 13.3982 61.0109C8.66704 60.1619 9.91654 53.1527 14.6557 54.003Z" fill="#DBDBDB"/>
<path d="M14.2116 53.9235C18.7209 54.7326 17.4709 61.7418 12.9541 60.9313C8.44513 60.1221 9.69505 53.113 14.2116 53.9235Z" fill="#EBEBEB"/>
<path d="M10.7227 57.5926C10.7469 58.8414 11.4739 60.0513 13.0612 60.336C16.8092 61.0086 17.8471 55.191 14.1049 54.5196C14.0804 54.5152 14.0559 54.5108 14.0311 54.5078C17.5402 55.2103 16.5346 60.7154 12.961 60.0742C11.5034 59.8127 10.8002 58.735 10.7227 57.5926Z" fill="#DBDBDB"/>
<path d="M13.8479 55.0303C13.9112 55.042 13.9549 55.1057 13.9431 55.169L13.9069 55.3639C14.2522 55.4584 14.4837 55.6226 14.7106 55.8665C14.748 55.9089 14.767 55.9427 14.7579 55.9914C14.7452 56.0596 14.6767 56.1021 14.6085 56.0895C14.5793 56.0841 14.5558 56.0748 14.5272 56.0391C14.3239 55.8046 14.1082 55.6636 13.8553 55.5864L13.6012 56.9505C14.3129 57.2444 14.573 57.5802 14.4839 58.0578C14.3878 58.5742 13.886 58.8589 13.2734 58.7651L13.2025 59.145C13.1908 59.2084 13.1271 59.252 13.0638 59.2402C13.0004 59.2285 12.9568 59.1649 12.9686 59.1015L13.0403 58.7166C12.6228 58.6035 12.3058 58.3833 12.032 58.0397C12.0033 58.0042 11.9893 57.9713 11.9974 57.9274C12.0092 57.864 12.0786 57.8166 12.1419 57.8283C12.1857 57.8364 12.2113 57.8615 12.2232 57.8787C12.4489 58.1829 12.718 58.3893 13.0908 58.4991L13.3495 57.1104C12.6485 56.8136 12.3964 56.4892 12.4871 56.002C12.5788 55.5099 13.0774 55.2145 13.6746 55.3107L13.709 55.1255C13.7209 55.0621 13.7845 55.0184 13.8479 55.0303ZM13.3959 56.8619L13.6437 55.5316C13.1692 55.4534 12.8048 55.6778 12.7394 56.0286C12.6777 56.3601 12.7954 56.5938 13.3959 56.8619ZM13.5549 57.199L13.3044 58.5439C13.7936 58.6248 14.1629 58.4012 14.2319 58.0309C14.2945 57.6946 14.1621 57.4582 13.5549 57.199Z" fill="#DBDBDB"/>
<path opacity="0.4" d="M34.9995 28.4165L38.4539 10.5527L36.219 28.6097L45.0245 12.6876L37.319 29.1702L50.6138 16.7484L38.1922 30.0433L54.6747 22.3378L38.7528 31.1432L56.8095 28.9084L38.9458 32.3628L56.8095 35.8171L38.7528 33.5823L54.6747 42.3878L38.1922 34.6824L50.6138 47.9771L37.319 35.5555L45.0245 52.038L36.219 36.116L38.4539 54.1728L34.9995 36.3091L31.5451 54.1728L33.78 36.116L24.9745 52.038L32.6798 35.5555L19.3852 47.9771L31.8068 34.6824L15.3243 42.3878L31.2462 33.5823L13.1895 35.8171L31.0532 32.3628L13.1895 28.9084L31.2462 31.1432L15.3243 22.3378L31.8068 30.0433L19.3852 16.7484L32.6798 29.1702L24.9745 12.6876L33.78 28.6097L31.5451 10.5527L34.9995 28.4165Z" fill="#EBEBEB"/>
<path d="M28.8108 62.0812C28.8148 62.0865 28.8148 62.0892 28.8108 62.0919H28.8094C28.7921 62.1012 28.7775 62.1119 28.7616 62.1238C28.7456 62.1358 28.7309 62.1491 28.7163 62.1637C28.7084 62.1729 28.699 62.1823 28.6924 62.1917C28.6724 62.2144 28.6552 62.2396 28.6392 62.2662C28.6273 62.2835 28.6179 62.3034 28.6073 62.3234C28.6046 62.3275 28.6032 62.3314 28.602 62.3341C28.5927 62.3527 28.5847 62.3713 28.5754 62.3926C28.574 62.3952 28.5727 62.3979 28.5713 62.4006C28.5633 62.4218 28.5553 62.4445 28.5474 62.4685C28.5287 62.519 28.514 62.5736 28.4995 62.6309C28.3344 63.2816 28.3557 64.2865 28.0044 64.5846C27.516 64.9998 20.2561 65.0743 19.548 64.3677C19.1195 63.9379 19.0383 61.9122 18.7801 60.0158C18.7695 59.9387 18.7588 59.8628 18.7468 59.7855C18.7362 59.7096 18.7255 59.6337 18.7122 59.5579C18.7002 59.482 18.6883 59.4075 18.6762 59.3329C18.6482 59.1625 18.6177 58.9948 18.5844 58.8325C18.567 58.7487 18.5484 58.6648 18.5298 58.5836C18.4739 58.3387 18.4126 58.1058 18.3422 57.8902C18.3248 57.8329 18.3062 57.7783 18.2863 57.7251C18.2743 57.6905 18.261 57.6572 18.2491 57.624C18.2385 57.596 18.2278 57.5682 18.2158 57.5402C18.2051 57.5122 18.1931 57.4856 18.1812 57.459C18.1679 57.4283 18.1546 57.3991 18.1413 57.3698C18.12 57.3219 18.0961 57.2753 18.0721 57.2301C18.0628 57.2115 18.0535 57.1928 18.0429 57.1755C18.0003 57.0996 17.9564 57.029 17.9111 56.9638V56.9624C17.9377 56.9744 18.2266 57.1035 18.6937 57.3165C19.3246 57.6012 20.2815 58.0365 21.3595 58.5289C21.4393 58.5648 21.5192 58.6021 21.6004 58.6393C21.6417 58.6579 21.6829 58.678 21.7242 58.6952C21.8054 58.7324 21.8866 58.7697 21.969 58.8083C21.9703 58.8083 21.9703 58.8083 21.9703 58.8083C22.0941 58.8642 22.2178 58.9214 22.3442 58.9799C22.4707 59.0385 22.5971 59.0957 22.7249 59.1542C22.8513 59.2115 22.9777 59.27 23.1056 59.3299C23.3185 59.4271 23.5327 59.5255 23.7456 59.6241C23.8295 59.6627 23.9146 59.7012 23.9985 59.7411C24.93 60.1723 25.8378 60.5943 26.607 60.9602C26.6655 60.9868 26.7227 61.0148 26.78 61.0414C27.2685 61.2744 27.6956 61.4806 28.0296 61.6483C28.0763 61.671 28.1201 61.6936 28.1628 61.7148C28.4662 61.8679 28.6764 61.981 28.7644 62.0423C28.7777 62.0503 28.787 62.0583 28.795 62.0636C28.8029 62.0718 28.8082 62.0772 28.8108 62.0812Z" fill="#FFC727"/>
<path opacity="0.5" d="M28.8108 62.0812C28.8148 62.0865 28.8148 62.0892 28.8108 62.0919H28.8094C28.7921 62.1012 28.7775 62.1119 28.7616 62.1238C28.7456 62.1358 28.7309 62.1491 28.7163 62.1637C28.7084 62.1729 28.699 62.1823 28.6924 62.1917C28.6724 62.2144 28.6552 62.2396 28.6392 62.2662C28.6273 62.2835 28.6179 62.3034 28.6073 62.3234C28.6046 62.3275 28.6032 62.3314 28.602 62.3341C28.5927 62.3527 28.5847 62.3713 28.5754 62.3926C28.574 62.3952 28.5727 62.3979 28.5713 62.4006C28.5633 62.4218 28.5553 62.4445 28.5474 62.4685C28.5287 62.519 28.514 62.5736 28.4995 62.6309C28.3344 63.2816 28.3557 64.2865 28.0044 64.5846C27.516 64.9998 20.2561 65.0743 19.548 64.3677C19.1195 63.9379 19.0383 61.9122 18.7801 60.0158C18.7695 59.9387 18.7588 59.8628 18.7468 59.7855C18.7362 59.7096 18.7255 59.6337 18.7122 59.5579C18.7002 59.482 18.6883 59.4075 18.6762 59.3329C18.6482 59.1625 18.6177 58.9948 18.5844 58.8325C18.567 58.7487 18.5484 58.6648 18.5298 58.5836C18.4739 58.3387 18.4126 58.1058 18.3422 57.8902C18.3248 57.8329 18.3062 57.7783 18.2863 57.7251C18.2743 57.6905 18.261 57.6572 18.2491 57.624C18.2385 57.596 18.2278 57.5682 18.2158 57.5402C18.2051 57.5122 18.1931 57.4856 18.1812 57.459C18.1679 57.4283 18.1546 57.3991 18.1413 57.3698C18.12 57.3219 18.0961 57.2753 18.0721 57.2301C18.0628 57.2115 18.0535 57.1928 18.0429 57.1755C18.0003 57.0996 17.9564 57.029 17.9111 56.9638V56.9624C17.9377 56.9744 18.2266 57.1035 18.6937 57.3165C19.3246 57.6012 20.2815 58.0365 21.3595 58.5289C21.4393 58.5648 21.5192 58.6021 21.6004 58.6393C21.6417 58.6579 21.6829 58.678 21.7242 58.6952C21.8054 58.7324 21.8866 58.7697 21.969 58.8083C21.9703 58.8083 21.9703 58.8083 21.9703 58.8083C22.0941 58.8642 22.2178 58.9214 22.3442 58.9799C22.4707 59.0385 22.5971 59.0957 22.7249 59.1542C22.8513 59.2115 22.9777 59.27 23.1056 59.3299C23.3185 59.4271 23.5327 59.5255 23.7456 59.6241C23.8295 59.6627 23.9146 59.7012 23.9985 59.7411C24.93 60.1723 25.8378 60.5943 26.607 60.9602C26.6655 60.9868 26.7227 61.0148 26.78 61.0414C27.2685 61.2744 27.6956 61.4806 28.0296 61.6483C28.0763 61.671 28.1201 61.6936 28.1628 61.7148C28.4662 61.8679 28.6764 61.981 28.7644 62.0423C28.7777 62.0503 28.787 62.0583 28.795 62.0636C28.8029 62.0718 28.8082 62.0772 28.8108 62.0812Z" fill="white"/>
<path opacity="0.1" d="M28.8107 62.0809C28.8134 62.0863 28.8134 62.0902 28.8093 62.0916C28.7919 62.101 28.776 62.1116 28.7614 62.1235C28.7455 62.1341 28.7308 62.1474 28.7162 62.1634C28.7068 62.1714 28.6988 62.182 28.6896 62.1914C28.671 62.2141 28.6536 62.2393 28.6391 62.2659C28.6272 62.2845 28.6164 62.3031 28.6071 62.3231C28.6045 62.3272 28.6031 62.3311 28.6018 62.3338C28.5912 62.3524 28.5832 62.3724 28.5752 62.3923C28.5738 62.395 28.5726 62.3976 28.5712 62.4003C28.5632 62.4216 28.5538 62.4442 28.5472 62.4682C28.5286 62.5187 28.5139 62.5733 28.4993 62.6306C24.1057 62.8414 22.8312 62.8904 19.0755 62.161L18.7787 60.0154C18.7681 59.9382 18.7574 59.8624 18.7468 59.7851C18.7348 59.7092 18.7241 59.6333 18.7122 59.5574C18.7002 59.4816 18.6883 59.4071 18.6762 59.3325C18.647 59.1621 18.6163 58.9944 18.5817 58.8307C18.5658 58.7468 18.5484 58.6644 18.5298 58.5832C18.4739 58.3383 18.4126 58.1054 18.3422 57.8898C18.3248 57.8325 18.3062 57.7779 18.2863 57.7247C18.2743 57.6901 18.261 57.6568 18.2491 57.6236C18.2385 57.5956 18.2264 57.5678 18.2158 57.5398C18.2051 57.5132 18.1931 57.4852 18.1812 57.4586C18.1679 57.4279 18.1546 57.3986 18.1413 57.3694C18.12 57.3215 18.0961 57.2749 18.0721 57.2297C18.0628 57.211 18.0535 57.1924 18.0429 57.1751C18.0003 57.0992 17.9564 57.0286 17.9111 56.9634C17.9377 56.9753 18.2266 57.1045 18.6937 57.316C19.3246 57.6022 20.2815 58.0361 21.3595 58.5284C21.4393 58.5657 21.5205 58.6029 21.6004 58.6389C21.6417 58.6575 21.6829 58.6775 21.7242 58.6948C21.8054 58.7334 21.8878 58.7706 21.969 58.8079C21.9703 58.8079 21.9703 58.8079 21.9703 58.8079C22.0941 58.8651 22.2192 58.9224 22.3442 58.9795C22.4707 59.038 22.5971 59.0953 22.7249 59.1538C22.8513 59.2123 22.9777 59.271 23.1056 59.3295C23.3185 59.4267 23.5327 59.5251 23.7456 59.6237C23.8295 59.6623 23.9146 59.7022 23.9985 59.7407C24.93 60.1719 25.8378 60.5939 26.607 60.9598C26.6655 60.9864 26.7241 61.0144 26.78 61.041C27.2685 61.274 27.6956 61.4802 28.0296 61.6479C28.0763 61.6706 28.1201 61.6931 28.1628 61.7144C28.4662 61.8674 28.6764 61.9806 28.7644 62.0419C28.7777 62.0499 28.787 62.0578 28.795 62.0632C28.8027 62.0716 28.808 62.0769 28.8107 62.0809Z" fill="black"/>
<path d="M25.1301 28.6309L35.2582 33.58L28.845 37.1324L32.3564 39.199L30.1941 41.5733L31.7871 42.8456L29.3202 46.9648L34.3445 48.9442L30.1941 54.015L35.156 58.3316L31.5371 61.505L19.7228 49.87L19.0127 40.5352L25.1301 28.6309Z" fill="#FFC727"/>
<path opacity="0.2" d="M25.1301 28.6309L35.2582 33.58L28.845 37.1324L32.3564 39.199L30.1941 41.5733L31.7871 42.8456L29.3202 46.9648L34.3445 48.9442L30.1941 54.015L35.156 58.3316L31.5371 61.505L19.7228 49.87L19.0127 40.5352L25.1301 28.6309Z" fill="white"/>
<path d="M11.2914 37.9339C11.2874 37.3674 11.2535 36.8631 11.2015 36.3295C11.1482 35.8025 11.0737 35.2751 10.9641 34.7445C10.8538 34.2141 10.7111 33.68 10.4919 33.1419C10.2661 32.6104 9.97752 32.045 9.41836 31.5702C9.13892 31.3393 8.778 31.1481 8.39482 31.0771C8.20526 31.0404 8.0136 31.0267 7.83202 31.037C7.65422 31.0468 7.48188 31.0746 7.31304 31.1178C6.63152 31.2946 6.10218 31.7146 5.7176 32.1661C5.33078 32.6248 5.0575 33.1317 4.86304 33.6618C4.67348 34.1943 4.54818 34.7466 4.57016 35.3569C4.5892 35.6608 4.63064 35.993 4.85072 36.3415C4.95964 36.5117 5.13954 36.6811 5.3543 36.7685C5.57396 36.8596 5.77584 36.868 5.97632 36.8435C6.1831 36.8176 6.4029 36.7161 6.55928 36.5722C6.71496 36.4275 6.8124 36.2592 6.87666 36.1008C7.00042 35.7815 7.02114 35.4851 7.01834 35.202C7.00434 34.637 6.87568 34.113 6.68318 33.6136C6.48508 33.1184 6.22244 32.6395 5.82232 32.2485C5.62282 32.0557 5.38076 31.8857 5.09558 31.7989C4.81194 31.7088 4.49456 31.726 4.22996 31.8285C3.69642 32.0389 3.33844 32.4555 3.05564 32.879C2.50642 33.7486 2.1987 34.7195 1.98828 35.696C2.27402 34.7419 2.66406 33.8005 3.25234 33.0189C3.54844 32.6409 3.91762 32.2926 4.3435 32.179C4.76588 32.0561 5.16824 32.2587 5.4509 32.6022C5.73888 32.9417 5.9325 33.3801 6.06102 33.8257C6.18702 34.2724 6.25016 34.7456 6.21698 35.1816C6.20074 35.3966 6.15342 35.6059 6.07782 35.7469C6.04044 35.8164 5.99746 35.8619 5.9654 35.8829C5.9311 35.9001 5.9122 35.9043 5.87006 35.9036C5.82302 35.9015 5.7666 35.8887 5.75834 35.874C5.74378 35.8605 5.73482 35.8484 5.71452 35.8056C5.67364 35.723 5.6441 35.5393 5.65698 35.3474C5.7127 34.5499 6.1516 33.6506 6.7235 33.0931C7.01218 32.8128 7.33992 32.6304 7.64148 32.5902C7.7168 32.5796 7.79352 32.5763 7.86562 32.5801C7.93408 32.5829 7.99288 32.5966 8.0472 32.6132C8.15472 32.6465 8.24334 32.7085 8.34064 32.8038C8.53426 32.9983 8.7136 33.3547 8.83652 33.7533C8.96154 34.1548 9.04456 34.5996 9.09888 35.0549C9.15348 35.5109 9.18036 35.9796 9.18792 36.4507C9.19478 36.9152 9.18372 37.4117 9.14956 37.8447L11.2914 37.9339Z" fill="#FFC727"/>
<path opacity="0.3" d="M11.2914 37.9339C11.2874 37.3674 11.2535 36.8631 11.2015 36.3295C11.1482 35.8025 11.0737 35.2751 10.9641 34.7445C10.8538 34.2141 10.7111 33.68 10.4919 33.1419C10.2661 32.6104 9.97752 32.045 9.41836 31.5702C9.13892 31.3393 8.778 31.1481 8.39482 31.0771C8.20526 31.0404 8.0136 31.0267 7.83202 31.037C7.65422 31.0468 7.48188 31.0746 7.31304 31.1178C6.63152 31.2946 6.10218 31.7146 5.7176 32.1661C5.33078 32.6248 5.0575 33.1317 4.86304 33.6618C4.67348 34.1943 4.54818 34.7466 4.57016 35.3569C4.5892 35.6608 4.63064 35.993 4.85072 36.3415C4.95964 36.5117 5.13954 36.6811 5.3543 36.7685C5.57396 36.8596 5.77584 36.868 5.97632 36.8435C6.1831 36.8176 6.4029 36.7161 6.55928 36.5722C6.71496 36.4275 6.8124 36.2592 6.87666 36.1008C7.00042 35.7815 7.02114 35.4851 7.01834 35.202C7.00434 34.637 6.87568 34.113 6.68318 33.6136C6.48508 33.1184 6.22244 32.6395 5.82232 32.2485C5.62282 32.0557 5.38076 31.8857 5.09558 31.7989C4.81194 31.7088 4.49456 31.726 4.22996 31.8285C3.69642 32.0389 3.33844 32.4555 3.05564 32.879C2.50642 33.7486 2.1987 34.7195 1.98828 35.696C2.27402 34.7419 2.66406 33.8005 3.25234 33.0189C3.54844 32.6409 3.91762 32.2926 4.3435 32.179C4.76588 32.0561 5.16824 32.2587 5.4509 32.6022C5.73888 32.9417 5.9325 33.3801 6.06102 33.8257C6.18702 34.2724 6.25016 34.7456 6.21698 35.1816C6.20074 35.3966 6.15342 35.6059 6.07782 35.7469C6.04044 35.8164 5.99746 35.8619 5.9654 35.8829C5.9311 35.9001 5.9122 35.9043 5.87006 35.9036C5.82302 35.9015 5.7666 35.8887 5.75834 35.874C5.74378 35.8605 5.73482 35.8484 5.71452 35.8056C5.67364 35.723 5.6441 35.5393 5.65698 35.3474C5.7127 34.5499 6.1516 33.6506 6.7235 33.0931C7.01218 32.8128 7.33992 32.6304 7.64148 32.5902C7.7168 32.5796 7.79352 32.5763 7.86562 32.5801C7.93408 32.5829 7.99288 32.5966 8.0472 32.6132C8.15472 32.6465 8.24334 32.7085 8.34064 32.8038C8.53426 32.9983 8.7136 33.3547 8.83652 33.7533C8.96154 34.1548 9.04456 34.5996 9.09888 35.0549C9.15348 35.5109 9.18036 35.9796 9.18792 36.4507C9.19478 36.9152 9.18372 37.4117 9.14956 37.8447L11.2914 37.9339Z" fill="white"/>
<path d="M32.6913 47.8861L30.9251 49.0919L33.441 49.9955L37.2038 51.3469L34.907 54.1232L34.109 55.0878L34.7684 55.84L37.4155 55.3065L35.8352 56.7342L32.5639 59.6879L35.6547 60.6751L29.1211 61.9919C29.0036 62.0156 28.886 62.038 28.7692 62.0587C28.768 62.059 28.768 62.059 28.7666 62.0593C25.0587 62.732 21.402 62.2103 18.1967 60.7629C18.1955 60.7631 18.1941 60.7634 18.1939 60.762C13.0996 58.4625 9.14866 53.827 7.96006 47.93C6.98006 43.0677 8.06394 38.2672 10.6087 34.4375C13.1535 30.6078 17.1581 27.7495 22.0218 26.7692L27.5365 25.6577L29.0093 26.1823L32.3559 27.3745L37.3188 29.1425L30.2679 34.7776L33.315 36.0873L29.3126 38.3766L23.748 41.5577L27.9878 43.2813L31.1387 43.5165L38.3065 44.0526L32.6913 47.8861Z" fill="#FFC727"/>
<path opacity="0.09" d="M32.6913 47.8861L30.9251 49.0919L33.441 49.9955L37.2038 51.3469L34.907 54.1232L34.109 55.0878L34.7684 55.84L37.4155 55.3065L35.8352 56.7342L32.5639 59.6879L35.6547 60.6751L29.1211 61.9919C29.0036 62.0156 28.886 62.038 28.7692 62.0587C28.768 62.059 28.768 62.059 28.7666 62.0593C25.0587 62.732 21.402 62.2103 18.1967 60.7629C18.1955 60.7631 18.1941 60.7634 18.1939 60.762C13.0996 58.4625 9.14866 53.827 7.96006 47.93C6.98006 43.0677 8.06394 38.2672 10.6087 34.4375C13.1535 30.6078 17.1581 27.7495 22.0218 26.7692L27.5365 25.6577L29.0093 26.1823L32.3559 27.3745L37.3188 29.1425L30.2679 34.7776L33.315 36.0873L29.3126 38.3766L23.748 41.5577L27.9878 43.2813L31.1387 43.5165L38.3065 44.0526L32.6913 47.8861Z" fill="white"/>
<path opacity="0.5" d="M29.0091 26.1832L31.7671 27.1646L23.2775 28.8754C18.4139 29.8554 14.4085 32.7142 11.8647 36.5446C9.3195 40.3736 8.2359 45.1742 9.2159 50.0364C9.5449 51.6688 10.0867 53.206 10.8049 54.6214C9.4483 52.6684 8.4599 50.4102 7.9601 47.9308C6.9801 43.0686 8.0637 38.268 10.6089 34.4376C13.1527 30.6086 17.1581 27.7498 22.0217 26.7698L27.5363 25.6582L29.0091 26.1832Z" fill="white"/>
<path opacity="0.3" d="M32.5643 59.6879L35.6541 60.6749L29.1217 61.9923C29.0041 62.0161 28.8865 62.0385 28.7689 62.0595C28.7675 62.0595 28.7675 62.0595 28.7661 62.0595C25.0589 62.7315 21.4021 62.2107 18.1975 60.7631C18.1961 60.7631 18.1947 60.7631 18.1947 60.7617C15.0251 59.3309 12.2979 56.9957 10.4023 54.0151C12.1957 56.1725 14.4707 57.8763 17.0229 58.9963C17.0243 58.9977 17.0243 58.9963 17.0257 58.9963C20.2471 60.4103 23.9081 60.8933 27.6097 60.1821C27.6111 60.1821 27.6111 60.1821 27.6111 60.1807C27.7287 60.1597 27.8449 60.1359 27.9625 60.1107L33.3679 58.9613L32.5643 59.6879Z" fill="#FFC727"/>
<path opacity="0.1" d="M32.3558 27.3744L22.8294 29.2945L22.4678 27.5006L29.0093 26.1821L32.3558 27.3744Z" fill="black"/>
<path d="M33.5545 25.2554L28.1074 20.0448L29.5042 19.1289L30.831 17.1426L33.5545 25.2554Z" fill="#FFC727"/>
<path opacity="0.2" d="M33.5545 25.2554L28.1074 20.0448L29.5042 19.1289L30.831 17.1426L33.5545 25.2554Z" fill="white"/>
<path d="M41.167 29.0197L44.8616 25.46L45.4457 26.4352L46.7597 27.3925L41.167 29.0197Z" fill="#FFC727"/>
<path opacity="0.2" d="M41.167 29.0197L44.8616 25.46L45.4457 26.4352L46.7597 27.3925L41.167 29.0197Z" fill="white"/>
<path d="M37.9706 26.9685L37.7314 23.1531L38.5969 23.516L40.3014 23.0386L40.688 23.7173L37.9706 26.9685Z" fill="#FFC727"/>
<path opacity="0.2" d="M37.9706 26.9685L37.7314 23.1531L38.5969 23.516L40.3014 23.0386L40.688 23.7173L37.9706 26.9685Z" fill="white"/>
<path d="M63.9671 23.1704L67.5172 9.91846L54.2646 13.4682L63.9671 23.1704Z" fill="#37474F"/>
<path d="M62.2821 20.0435L29.2229 53.1027L20.07 43.9498L0 64.0197V53.9465L20.07 33.8749L29.2229 43.0279L57.2551 14.9971L62.2821 20.0435Z" fill="#37474F"/>
<path d="M54.8843 57.0425C53.4234 59.1521 54.2128 63.6607 53.5055 64.3678C52.7983 65.0751 45.5388 65.0004 45.05 64.5848C44.5613 64.1695 44.7846 62.2894 44.4958 61.9318C44.3429 61.7426 54.8843 57.0425 54.8843 57.0425Z" fill="#FFC727"/>
<path opacity="0.5" d="M54.8843 57.0425C53.4234 59.1521 54.2128 63.6607 53.5055 64.3678C52.7983 65.0751 45.5388 65.0004 45.05 64.5848C44.5613 64.1695 44.7846 62.2894 44.4958 61.9318C44.3429 61.7426 54.8843 57.0425 54.8843 57.0425Z" fill="white"/>
<path opacity="0.1" d="M54.8851 57.042C54.3406 57.8289 54.3137 60.4877 54.2013 61.6186C51.9262 62.6416 48.0182 62.6637 44.6578 62.6637C44.6313 62.3264 44.5895 62.0487 44.4968 61.9318C44.3425 61.7424 54.8851 57.042 54.8851 57.042Z" fill="black"/>
<path d="M55.7532 31.891L55.3794 55.5342L40.4876 61.4842L34.9912 58.6954L39.5482 57.1456L36.6138 51.26L42.3874 48.1618L38.501 44.4112L42.3552 41.5482L41.3696 39.7632L44.2746 38.3968L41.8204 35.1446L49.1032 34.313L41.637 25.8682L48.7336 27.2892L55.7532 31.891Z" fill="#FFC727"/>
<path opacity="0.2" d="M55.7532 31.891L55.3794 55.5342L40.4876 61.4842L34.9912 58.6954L39.5482 57.1456L36.6138 51.26L42.3874 48.1618L38.501 44.4112L42.3552 41.5482L41.3696 39.7632L44.2746 38.3968L41.8204 35.1446L49.1032 34.313L41.637 25.8682L48.7336 27.2892L55.7532 31.891Z" fill="white"/>
<path d="M48.7334 27.2897C48.7334 27.2897 56.1674 23.3727 63.1838 25.191C65.5999 25.8171 60.6214 30.432 59.8378 34.5679L48.7334 27.2897Z" fill="#FFC727"/>
<path opacity="0.5" d="M48.7334 27.2897C48.7334 27.2897 56.1674 23.3727 63.1838 25.191C65.5999 25.8171 60.6214 30.432 59.8378 34.5679L48.7334 27.2897Z" fill="white"/>
<path opacity="0.1" d="M57.4401 32.068C57.3541 32.3234 59.4559 33.6835 59.7158 33.574C59.9757 33.4645 60.7716 30.2371 63.2183 27.0718C63.5785 26.6058 58.3589 29.3352 57.4401 32.068Z" fill="black"/>
<path d="M62.7948 47.4823C61.9586 52.3715 59.2194 56.4599 55.4664 59.1166C54.6568 59.6897 53.7991 60.1965 52.9043 60.6294C49.8892 62.0905 46.4405 62.7239 42.8983 62.2856C42.6179 62.2512 42.3387 62.2101 42.058 62.1621L36.2991 61.1772L33.771 59.1436L37.8863 57.5655L39.8747 56.8025L37.2131 56.3474L36.8687 55.4081L37.9604 54.7955L41.1027 53.0322L38.0787 50.4168L36.0568 48.6682L38.1387 48.1791L44.7574 46.6241L38.2632 43.5435L35.4082 42.1897L32.0732 39.0554L38.4099 38.0909L42.9682 37.3961L40.5969 35.0773L49.2035 32.3582L45.2099 28.9222L42.517 26.6051L41.3317 25.5854L48.1151 26.7456C57.8947 28.4179 64.4674 37.7026 62.7948 47.4823Z" fill="#FFC727"/>
<path opacity="0.21" d="M62.7948 47.4823C61.9586 52.3715 59.2194 56.4599 55.4664 59.1166C54.6568 59.6897 53.7991 60.1965 52.9043 60.6294C49.8892 62.0905 46.4405 62.7239 42.8983 62.2856C42.6179 62.2512 42.3387 62.2101 42.058 62.1621L36.2991 61.1772L33.771 59.1436L37.8863 57.5655L39.8747 56.8025L37.2131 56.3474L36.8687 55.4081L37.9604 54.7955L41.1027 53.0322L38.0787 50.4168L36.0568 48.6682L38.1387 48.1791L44.7574 46.6241L38.2632 43.5435L35.4082 42.1897L32.0732 39.0554L38.4099 38.0909L42.9682 37.3961L40.5969 35.0773L49.2035 32.3582L45.2099 28.9222L42.517 26.6051L41.3317 25.5854L48.1151 26.7456C57.8947 28.4179 64.4674 37.7026 62.7948 47.4823Z" fill="white"/>
<path opacity="0.3" d="M62.7955 47.4822C61.9583 52.371 59.2199 56.459 55.4665 59.1162C54.6573 59.6888 53.7991 60.1956 52.9045 60.6296C49.8889 62.0898 46.4407 62.724 42.8987 62.2858C42.6187 62.2508 42.3387 62.2102 42.0587 62.1612L36.2991 61.177L35.6621 60.6646L40.4991 60.9754C40.7833 60.995 41.0647 61.0062 41.3475 61.0104C44.9161 61.0748 48.2789 60.0836 51.1251 58.3154C51.9693 57.7904 52.7687 57.1968 53.5135 56.5416C56.9673 53.5064 59.2633 49.1524 59.5825 44.2034C60.0501 36.9598 56.1553 30.4414 50.1535 27.2158C58.7901 29.7414 64.3481 38.3976 62.7955 47.4822Z" fill="#FFC727"/>
<path opacity="0.1" d="M47.6904 27.4898L47.3819 29.2935L45.2095 28.922L42.5166 26.605L47.6904 27.4898Z" fill="black"/>
<path d="M56.7993 47.6212C57.4594 47.6399 57.9454 47.2773 58.2602 46.7294C58.0376 47.438 57.6276 48.013 56.928 48.31C56.8809 48.331 56.8881 48.4156 56.9474 48.4076C58.7502 48.06 58.976 45.6377 58.6417 44.0112C58.6245 43.9212 58.6071 43.8313 58.5824 43.7437C58.3532 42.7947 57.8007 42.0407 56.9493 42.0183C54.1459 41.9448 54.2013 47.5538 56.7993 47.6212Z" fill="#263238"/>
<path d="M62.4911 40.7349C62.6438 41.7335 65.6288 41.4553 66.2466 42.1757C67.2181 43.3088 64.911 54.9139 63.7146 55.6762C63.0435 56.1038 59.9022 54.995 58.883 55.4799C57.8637 55.9649 62.4911 40.7349 62.4911 40.7349Z" fill="#FFC727"/>
<path opacity="0.5" d="M62.4911 40.7349C62.6438 41.7335 65.6288 41.4553 66.2466 42.1757C67.2181 43.3088 64.911 54.9139 63.7146 55.6762C63.0435 56.1038 59.9022 54.995 58.883 55.4799C57.8637 55.9649 62.4911 40.7349 62.4911 40.7349Z" fill="white"/>
<path opacity="0.3" d="M62.4911 40.7349C62.6438 41.7335 65.6288 41.4553 66.2466 42.1757C67.2181 43.3088 64.911 54.9139 63.7146 55.6762C63.0435 56.1038 59.9022 54.995 58.883 55.4799C57.8637 55.9649 62.4911 40.7349 62.4911 40.7349Z" fill="#FFC727"/>
<path opacity="0.1" d="M65.2893 48.6874C64.8036 51.5272 64.1726 53.7887 63.8799 53.7386C63.5873 53.6885 63.7437 51.3459 64.2293 48.5061C64.715 45.6664 65.346 43.4048 65.6386 43.4549C65.9314 43.5049 65.7749 45.8477 65.2893 48.6874Z" fill="black"/>
<path d="M34.4757 62.6338H24.2275V64.8983H34.4757V62.6338Z" fill="#FFC727"/>
<g opacity="0.1">
<path d="M24.6502 62.8413C24.7565 63.4444 24.7573 64.0501 24.6502 64.653C24.5433 64.0501 24.5441 63.4444 24.6502 62.8413Z" fill="black"/>
<path d="M25.413 62.8413C25.5193 63.4444 25.5201 64.0501 25.413 64.653C25.3059 64.0501 25.3068 63.4444 25.413 62.8413Z" fill="black"/>
<path d="M25.786 62.8413C25.8922 63.4444 25.8931 64.0501 25.786 64.653C25.679 64.0501 25.6798 63.4444 25.786 62.8413Z" fill="black"/>
<path d="M27.8328 62.8413C27.9391 63.4444 27.9399 64.0501 27.8328 64.653C27.7259 64.0501 27.7267 63.4444 27.8328 62.8413Z" fill="black"/>
<path d="M28.3867 62.8413C28.4929 63.4444 28.4938 64.0501 28.3867 64.653C28.2796 64.0501 28.2804 63.4444 28.3867 62.8413Z" fill="black"/>
<path d="M30.6767 62.8413C30.7829 63.4444 30.7838 64.0501 30.6767 64.653C30.5696 64.0501 30.5704 63.4444 30.6767 62.8413Z" fill="black"/>
<path d="M31.205 62.8413C31.3113 63.4444 31.3121 64.0501 31.205 64.653C31.0979 64.0501 31.0988 63.4444 31.205 62.8413Z" fill="black"/>
<path d="M32.1767 62.8413C32.2829 63.4444 32.2838 64.0501 32.1767 64.653C32.0696 64.0501 32.0704 63.4444 32.1767 62.8413Z" fill="black"/>
<path d="M30.2343 62.8413C30.3406 63.4444 30.3414 64.0501 30.2343 64.653C30.1272 64.0501 30.128 63.4444 30.2343 62.8413Z" fill="black"/>
<path d="M26.4628 62.8413C26.5691 63.4444 26.5699 64.0501 26.4628 64.653C26.3557 64.0501 26.3566 63.4444 26.4628 62.8413Z" fill="black"/>
<path d="M29.1151 62.8413C29.2213 63.4444 29.2222 64.0501 29.1151 64.653C29.0081 64.0501 29.0089 63.4444 29.1151 62.8413Z" fill="black"/>
<path d="M29.497 62.8413C29.6033 63.4444 29.6041 64.0501 29.497 64.653C29.3899 64.0501 29.3907 63.4444 29.497 62.8413Z" fill="black"/>
<path d="M33.4433 62.8413C33.5496 63.4444 33.5504 64.0501 33.4433 64.653C33.3362 64.0501 33.337 63.4444 33.4433 62.8413Z" fill="black"/>
<path d="M34.0156 62.8413C34.1218 63.4444 34.1227 64.0501 34.0156 64.653C33.9085 64.0501 33.9093 63.4444 34.0156 62.8413Z" fill="black"/>
<path d="M32.6279 62.8413C32.7341 63.4444 32.735 64.0501 32.6279 64.653C32.5208 64.0501 32.5216 63.4444 32.6279 62.8413Z" fill="black"/>
<path d="M27.3905 62.8413C27.4967 63.4444 27.4976 64.0501 27.3905 64.653C27.2835 64.0501 27.2843 63.4444 27.3905 62.8413Z" fill="black"/>
</g>
<path opacity="0.1" d="M34.4753 62.6343V63.1155L24.2275 63.4386V62.6343H34.4753Z" fill="black"/>
<path d="M33.7745 60.3696H23.5264V62.6341H33.7745V60.3696Z" fill="#FFC727"/>
<g opacity="0.1">
<path d="M23.9492 60.5771C24.0554 61.1803 24.0563 61.7859 23.9492 62.3889C23.8421 61.7859 23.8429 61.1803 23.9492 60.5771Z" fill="black"/>
<path d="M24.7118 60.5771C24.8181 61.1803 24.8189 61.7859 24.7118 62.3889C24.6047 61.7859 24.6056 61.1803 24.7118 60.5771Z" fill="black"/>
<path d="M25.0849 60.5771C25.1912 61.1803 25.192 61.7859 25.0849 62.3889C24.9778 61.7859 24.9786 61.1803 25.0849 60.5771Z" fill="black"/>
<path d="M27.1318 60.5771C27.238 61.1803 27.2389 61.7859 27.1318 62.3889C27.0247 61.7859 27.0255 61.1803 27.1318 60.5771Z" fill="black"/>
<path d="M27.6855 60.5771C27.7917 61.1803 27.7926 61.7859 27.6855 62.3889C27.5784 61.7859 27.5792 61.1803 27.6855 60.5771Z" fill="black"/>
<path d="M29.9754 60.5771C30.0817 61.1803 30.0825 61.7859 29.9754 62.3889C29.8685 61.7859 29.8693 61.1803 29.9754 60.5771Z" fill="black"/>
<path d="M30.5038 60.5771C30.6101 61.1803 30.6109 61.7859 30.5038 62.3889C30.3967 61.7859 30.3976 61.1803 30.5038 60.5771Z" fill="black"/>
<path d="M31.4755 60.5771C31.5818 61.1803 31.5826 61.7859 31.4755 62.3889C31.3684 61.7859 31.3693 61.1803 31.4755 60.5771Z" fill="black"/>
<path d="M29.5331 60.5771C29.6394 61.1803 29.6402 61.7859 29.5331 62.3889C29.426 61.7859 29.4269 61.1803 29.5331 60.5771Z" fill="black"/>
<path d="M25.7617 60.5771C25.8679 61.1803 25.8688 61.7859 25.7617 62.3889C25.6546 61.7859 25.6554 61.1803 25.7617 60.5771Z" fill="black"/>
<path d="M28.414 60.5771C28.5203 61.1803 28.5211 61.7859 28.414 62.3889C28.3069 61.7859 28.3077 61.1803 28.414 60.5771Z" fill="black"/>
<path d="M28.7958 60.5771C28.9021 61.1803 28.9029 61.7859 28.7958 62.3889C28.6887 61.7859 28.6896 61.1803 28.7958 60.5771Z" fill="black"/>
<path d="M32.742 60.5771C32.8483 61.1803 32.8491 61.7859 32.742 62.3889C32.6351 61.7859 32.6359 61.1803 32.742 60.5771Z" fill="black"/>
<path d="M33.3144 60.5771C33.4206 61.1803 33.4215 61.7859 33.3144 62.3889C33.2073 61.7859 33.2081 61.1803 33.3144 60.5771Z" fill="black"/>
<path d="M31.9266 60.5771C32.0329 61.1803 32.0337 61.7859 31.9266 62.3889C31.8195 61.7859 31.8205 61.1803 31.9266 60.5771Z" fill="black"/>
<path d="M26.6894 60.5771C26.7956 61.1803 26.7965 61.7859 26.6894 62.3889C26.5823 61.7859 26.5831 61.1803 26.6894 60.5771Z" fill="black"/>
</g>
<path opacity="0.1" d="M33.7739 60.3701V60.8513L23.5264 61.1746V60.3701H33.7739Z" fill="black"/>
<path d="M41.4802 63.0547L33.125 57.1201L31.8136 58.9664L40.1688 64.901L41.4802 63.0547Z" fill="#FFC727"/>
<g opacity="0.1">
<path d="M39.9375 64.4317C40.2001 63.8784 40.5501 63.3842 40.9867 62.9546C40.7247 63.5083 40.3733 64.0015 39.9375 64.4317Z" fill="black"/>
<path d="M39.3154 63.9898C39.5781 63.4366 39.9281 62.9424 40.3646 62.5127C40.1028 63.0663 39.7514 63.5596 39.3154 63.9898Z" fill="black"/>
<path d="M39.0117 63.774C39.2744 63.2207 39.6244 62.7265 40.0609 62.2969C39.7989 62.8506 39.4475 63.3438 39.0117 63.774Z" fill="black"/>
<path d="M37.3428 62.5885C37.6054 62.0352 37.9554 61.541 38.3919 61.1113C38.13 61.6649 37.7786 62.1582 37.3428 62.5885Z" fill="black"/>
<path d="M36.8916 62.2682C37.1542 61.7149 37.5042 61.2207 37.9408 60.791C37.6788 61.3447 37.3274 61.8381 36.8916 62.2682Z" fill="black"/>
<path d="M35.0244 60.942C35.2871 60.3887 35.6371 59.8945 36.0736 59.4648C35.8116 60.0184 35.4602 60.5118 35.0244 60.942Z" fill="black"/>
<path d="M34.5938 60.6358C34.8564 60.0826 35.2064 59.5884 35.6429 59.1587C35.381 59.7123 35.0296 60.2056 34.5938 60.6358Z" fill="black"/>
<path d="M33.8018 60.0733C34.0644 59.5201 34.4144 59.0259 34.8509 58.5962C34.589 59.1499 34.2377 59.6431 33.8018 60.0733Z" fill="black"/>
<path d="M35.3857 61.1983C35.6484 60.6451 35.9984 60.1509 36.4349 59.7212C36.173 60.2749 35.8216 60.7681 35.3857 61.1983Z" fill="black"/>
<path d="M38.46 63.3819C38.7226 62.8286 39.0726 62.3344 39.5091 61.9048C39.2473 62.4585 38.8959 62.9518 38.46 63.3819Z" fill="black"/>
<path d="M36.2979 61.8463C36.5605 61.293 36.9105 60.7988 37.347 60.3691C37.0851 60.9228 36.7337 61.4162 36.2979 61.8463Z" fill="black"/>
<path d="M35.9863 61.6251C36.249 61.0718 36.599 60.5776 37.0355 60.1479C36.7736 60.7016 36.4223 61.1949 35.9863 61.6251Z" fill="black"/>
<path d="M32.7695 59.3404C33.0322 58.7871 33.3822 58.2929 33.8187 57.8633C33.5568 58.417 33.2054 58.9102 32.7695 59.3404Z" fill="black"/>
<path d="M32.3027 59.0089C32.5654 58.4556 32.9154 57.9614 33.3519 57.5317C33.09 58.0853 32.7386 58.5787 32.3027 59.0089Z" fill="black"/>
<path d="M33.4336 59.8121C33.6962 59.2588 34.0462 58.7646 34.4828 58.335C34.2208 58.8887 33.8696 59.3819 33.4336 59.8121Z" fill="black"/>
<path d="M37.7031 62.8448C37.9658 62.2915 38.3158 61.7973 38.7523 61.3677C38.4903 61.9214 38.1391 62.4146 37.7031 62.8448Z" fill="black"/>
</g>
<path opacity="0.1" d="M41.4817 63.0521L41.2031 63.4443L32.6611 57.7739L33.1269 57.1182L41.4817 63.0521Z" fill="black"/>
<path d="M15.7856 19.3608C15.7544 19.3426 15.7236 19.3237 15.6934 19.3082L16.4043 18.2905C16.4345 18.3061 16.4655 18.3251 16.4967 18.3432C16.5693 18.3854 16.6403 18.428 16.71 18.471C17.5415 18.983 18.1757 19.5386 18.6268 20.0857C18.3899 20.425 18.1529 20.7642 17.9157 21.1033C17.4646 20.5561 16.8306 20.0005 15.9993 19.4886C15.9291 19.4458 15.8581 19.4032 15.7856 19.3608Z" fill="#FFC727"/>
<path d="M18.5554 23.847C18.9835 23.2343 18.807 22.1854 17.915 21.1035C18.1522 20.7644 18.3892 20.4252 18.6261 20.0859C19.5179 21.1677 19.6944 22.2165 19.2663 22.8292C19.053 23.1347 18.7686 23.5418 18.5554 23.847Z" fill="#FFC727"/>
<path d="M18.9776 22.5439L18.2667 23.5615C18.8851 22.6763 18.1876 20.8426 15.8129 19.3807C15.7736 19.3565 15.7335 19.3323 15.6934 19.3082L16.4043 18.2905C16.4445 18.3145 16.4846 18.3388 16.5238 18.363C18.8985 19.8249 19.5959 21.6586 18.9776 22.5439Z" fill="#FFC727"/>
<path d="M15.638 19.8755C15.6371 19.8751 15.6364 19.8745 15.6357 19.8741C15.8728 19.5349 16.1096 19.1957 16.3467 18.8564C16.3475 18.8569 16.3482 18.8574 16.349 18.8578C16.1357 19.1632 15.8512 19.5703 15.638 19.8755Z" fill="#FFC727"/>
<path d="M16.4613 19.0269L15.7504 20.0445C15.7683 20.0027 15.7161 19.9248 15.6377 19.8756L16.3486 18.8579C16.4272 18.9072 16.4794 18.985 16.4613 19.0269Z" fill="#FFC727"/>
<path d="M16.1201 18.9674L15.4092 19.9851L15.4617 19.8629L16.1726 18.8452L16.1201 18.9674Z" fill="#FFC727"/>
<path d="M15.6354 19.874C15.5616 19.8294 15.4888 19.8215 15.4658 19.8541L16.1767 18.8365C16.1996 18.8037 16.2724 18.8116 16.3463 18.8564C16.1093 19.1956 15.8722 19.5348 15.6354 19.874Z" fill="#FFC727"/>
<path d="M15.4663 19.8546L16.1772 18.8369C16.1754 18.8394 16.174 18.8421 16.1728 18.8452L15.4619 19.8628C15.463 19.8598 15.4646 19.8571 15.4663 19.8546Z" fill="#FFC727"/>
<path d="M16.4072 19.1554L15.6963 20.1731L15.751 20.045L16.4618 19.0273L16.4072 19.1554Z" fill="#FFC727"/>
<path d="M15.4096 19.985C15.1728 19.8403 14.9467 19.7332 14.7441 19.6651C14.9812 19.3259 15.218 18.9867 15.4551 18.6475C15.6576 18.7156 15.8837 18.8227 16.1205 18.9675C15.9073 19.2727 15.6229 19.6798 15.4096 19.985Z" fill="#FFC727"/>
<path d="M14.7935 19.5771C15.0107 19.2661 15.228 18.9551 15.4453 18.644C15.4484 18.645 15.4516 18.6461 15.4548 18.6473C15.2179 18.9865 14.9809 19.3257 14.7439 19.6649C14.7408 19.6638 14.7376 19.6628 14.7344 19.6617C14.7365 19.6588 14.7393 19.6547 14.7414 19.6518C14.7435 19.6487 14.7463 19.6446 14.7485 19.6417C14.7534 19.6347 14.7583 19.6277 14.7631 19.6208C14.7733 19.6063 14.7834 19.5917 14.7935 19.5771Z" fill="#FFC727"/>
<path d="M17.3838 20.0553L16.6729 21.073C16.4022 20.7394 16.122 20.4651 15.6963 20.1729L16.4072 19.1553C16.8329 19.4475 17.1131 19.7216 17.3838 20.0553Z" fill="#FFC727"/>
<path d="M16.7254 21.1995C16.7395 21.1678 16.7178 21.1295 16.6729 21.0728L17.3838 20.0552C17.4289 20.1119 17.4504 20.1501 17.4363 20.1819C17.1993 20.5211 16.9622 20.8603 16.7254 21.1995Z" fill="#FFC727"/>
<path d="M16.7207 21.2069C16.7224 21.2045 16.7238 21.202 16.7249 21.1993C16.9619 20.8601 17.1988 20.5209 17.4358 20.1816C17.4347 20.1843 17.4333 20.1868 17.4316 20.1892C17.2183 20.4945 16.9339 20.9017 16.7207 21.2069Z" fill="#FFC727"/>
<path d="M17.1479 20.074L16.437 21.0917C16.194 20.7803 15.9318 20.5338 15.6211 20.3145L16.332 19.2969C16.6427 19.5161 16.9049 19.7625 17.1479 20.074Z" fill="#FFC727"/>
<path d="M17.4316 20.1894L16.7207 21.207C16.6957 21.2429 16.6166 21.2324 16.5382 21.1841C16.4981 21.1594 16.4704 21.1372 16.4365 21.0914L17.1474 20.0737C17.1815 20.1195 17.209 20.1418 17.2491 20.1664C17.3276 20.2147 17.4066 20.2254 17.4316 20.1894Z" fill="#FFC727"/>
<path d="M14.7344 19.6618C14.4975 19.5833 14.2932 19.5587 14.1426 19.5899C14.3796 19.2507 14.6165 18.9114 14.8535 18.5722C15.0041 18.541 15.2084 18.5656 15.4453 18.6442C15.2083 18.9834 14.9714 19.3226 14.7344 19.6618Z" fill="#FFC727"/>
<path d="M14.1513 19.5736C14.3844 19.24 14.6175 18.9062 14.8506 18.5725C14.8515 18.5723 14.8525 18.5721 14.8535 18.5718C14.6166 18.911 14.3796 19.2502 14.1426 19.5894C14.1416 19.5896 14.1406 19.5899 14.1396 19.59C14.1436 19.5848 14.1475 19.5792 14.1513 19.5736Z" fill="#FFC727"/>
<path d="M14.2285 19.9172L14.9394 18.8995C15.0708 18.7115 15.516 18.7798 16.0706 19.1205L15.3597 20.1381C14.805 19.7975 14.3598 19.7292 14.2285 19.9172Z" fill="#FFC727"/>
<path d="M14.1398 19.5904C14.0442 19.6109 13.9703 19.6541 13.9238 19.7208L14.6346 18.7031C14.6812 18.6365 14.755 18.5932 14.8508 18.5728C14.6993 18.7896 14.5478 19.0065 14.3963 19.2233C14.3137 19.3415 14.2311 19.4598 14.1485 19.578C14.1457 19.5822 14.1445 19.5875 14.1398 19.5904Z" fill="#FFC727"/>
<path d="M16.0712 19.1203L15.6963 20.0004C14.9607 19.4117 14.8262 19.1556 14.9197 18.9362C15.018 18.7044 15.4831 18.7593 16.0712 19.1203Z" fill="#FFC727"/>
<path d="M15.6963 20.0006L14.9854 21.0184L15.3603 20.1384L16.0712 19.1206L15.6963 20.0006Z" fill="#FFC727"/>
<path d="M14.2291 19.9176L14.94 18.8999C14.932 18.9112 14.9253 18.9234 14.9197 18.9367C14.8262 19.1561 14.9609 19.4122 15.6963 20.0009L14.9854 21.0185C14.2498 20.4298 14.1153 20.1738 14.2088 19.9544C14.2144 19.9411 14.2211 19.9289 14.2291 19.9176Z" fill="#FFC727"/>
<path d="M15.9481 20.1992L15.2373 21.2168L15.6208 20.3142L16.3317 19.2964L15.9481 20.1992Z" fill="#FFC727"/>
<path d="M16.0886 21.9988C15.9139 21.7814 15.6339 21.5252 15.2373 21.2169L15.9481 20.1992C16.3447 20.5075 16.6247 20.7637 16.7996 20.9811C16.5625 21.3203 16.3255 21.6596 16.0886 21.9988Z" fill="#FFC727"/>
<path d="M13.9239 19.7208L14.6348 18.7031C14.6236 18.7192 14.614 18.7367 14.606 18.7556C14.4692 19.078 14.767 19.4906 15.6277 20.1657L14.9168 21.1834C14.0561 20.5083 13.7583 20.0957 13.8951 19.7733C13.9031 19.7544 13.9126 19.7369 13.9239 19.7208Z" fill="#FFC727"/>
<path d="M16.1087 22.0243C16.1023 22.016 16.0956 22.0075 16.0889 21.9991C16.3259 21.6599 16.5628 21.3207 16.7998 20.9814C16.8066 20.99 16.8132 20.9982 16.8197 21.0066C16.5826 21.3459 16.3458 21.6851 16.1087 22.0243Z" fill="#FFC727"/>
<path d="M16.4086 21.5943C16.5455 21.3983 16.6824 21.2023 16.8193 21.0063C16.8914 21.0992 16.9441 21.1848 16.9778 21.2645C16.7409 21.6037 16.5039 21.9429 16.2669 22.2822C16.233 22.2025 16.1805 22.1168 16.1084 22.024C16.2085 21.8808 16.3085 21.7376 16.4086 21.5943Z" fill="#FFC727"/>
<path d="M16.6821 21.4402L15.9712 22.4578C16.0659 22.2351 15.9112 21.9667 15.167 21.3809L15.8779 20.3633C16.6223 20.949 16.7769 21.2174 16.6821 21.4402Z" fill="#FFC727"/>
<path d="M16.2665 22.2823C16.5035 21.9431 16.7404 21.6039 16.9774 21.2646C17.0344 21.3986 17.0383 21.5155 16.9938 21.6202C16.9853 21.6404 16.9749 21.659 16.9629 21.6761L16.252 22.6938C16.264 22.6767 16.2742 22.6579 16.2829 22.6378C16.3274 22.533 16.3235 22.4163 16.2665 22.2823Z" fill="#FFC727"/>
<path d="M16.6601 21.4796L15.9492 22.4973C15.9576 22.4852 15.9649 22.4722 15.9709 22.4581L16.6818 21.4404C16.6758 21.4544 16.6685 21.4676 16.6601 21.4796Z" fill="#FFC727"/>
<path d="M14.1856 20.0528L13.4747 21.0704C13.46 21.049 13.4296 21.0137 13.376 20.9796L14.0869 19.9619C14.1407 19.9961 14.1709 20.0314 14.1856 20.0528Z" fill="#FFC727"/>
<path d="M13.3759 20.9798C13.3 20.9331 13.2181 20.9247 13.1943 20.9589L13.9051 19.9412C13.9289 19.9074 14.0101 19.9153 14.0856 19.9614C14.086 19.9615 14.0863 19.962 14.0867 19.9622C13.8735 20.2674 13.5891 20.6746 13.3759 20.9798Z" fill="#FFC727"/>
<path d="M16.6596 21.4795L15.9487 22.4972C15.8108 22.6947 15.3593 22.6222 14.7891 22.2721L15.5 21.2544C16.0703 21.6045 16.5217 21.6769 16.6596 21.4795Z" fill="#FFC727"/>
<path d="M15.5 21.2544L14.7891 22.272L15.1664 21.3811L15.8771 20.3633L15.5 21.2544Z" fill="#FFC727"/>
<path d="M15.2363 21.0841L14.5254 22.1019L14.917 21.1833L15.6278 20.1655L15.2363 21.0841Z" fill="#FFC727"/>
<path d="M15.2358 21.0843L14.5249 22.1019C14.0662 21.7812 13.741 21.4502 13.4746 21.0704L14.1855 20.0527C14.4518 20.4327 14.777 20.7635 15.2358 21.0843Z" fill="#FFC727"/>
<path d="M16.9634 21.676L16.2525 22.6936C16.0617 22.9668 15.4542 22.8569 14.7393 22.4234L15.4502 21.4058C16.1652 21.8392 16.7726 21.9492 16.9634 21.676Z" fill="#FFC727"/>
<path d="M13.1946 20.9586L13.9054 19.9409C13.904 19.9429 13.9028 19.9451 13.9019 19.9474C13.8888 19.9766 13.9061 20.0112 13.9399 20.057C14.2632 20.4977 14.6488 20.87 15.1624 21.2214L14.4515 22.239C13.9378 21.8875 13.5523 21.5152 13.229 21.0746C13.195 21.0289 13.1778 20.9944 13.1909 20.965C13.1919 20.9628 13.1932 20.9605 13.1946 20.9586Z" fill="#FFC727"/>
<path d="M15.3436 21.6583L14.6328 22.6761L14.7388 22.4239L15.4496 21.4062L15.3436 21.6583Z" fill="#FFC727"/>
<path d="M15.3398 21.6652L14.6289 22.6829C14.6304 22.6808 14.6317 22.6784 14.6328 22.6759L15.3437 21.6582C15.3426 21.6607 15.3412 21.6631 15.3398 21.6652Z" fill="#FFC727"/>
<path d="M15.0547 21.4772L14.3438 22.4948L14.4511 22.2393L15.1619 21.2217L15.0547 21.4772Z" fill="#FFC727"/>
<path d="M15.3402 21.665L14.6292 22.6827C14.6054 22.7167 14.5291 22.7082 14.4551 22.6627L15.166 21.645C15.2399 21.6905 15.3164 21.6991 15.3402 21.665Z" fill="#FFC727"/>
<path d="M15.1665 21.6451L14.4556 22.6627C14.3772 22.6134 14.3265 22.5366 14.3444 22.4947L15.0553 21.4771C15.0374 21.5189 15.0881 21.5958 15.1665 21.6451Z" fill="#FFC727"/>
<path d="M19.9533 23.3244L19.2424 24.342C18.6276 25.2221 16.9777 25.356 14.5184 23.922C14.4311 23.8712 14.3452 23.8195 14.2613 23.768C11.2775 21.9309 10.4015 19.6272 11.1784 18.5152L11.8893 17.4976C11.1124 18.6097 11.9884 20.9134 14.9722 22.7504C15.0561 22.802 15.1421 22.8535 15.2293 22.9044C17.6888 24.3384 19.3386 24.2044 19.9533 23.3244Z" fill="#FFC727"/>
<g opacity="0.1">
<path d="M19.9533 23.3244L19.2424 24.342C18.6276 25.2221 16.9777 25.356 14.5184 23.922C14.4311 23.8712 14.3452 23.8195 14.2613 23.768C11.2775 21.9309 10.4015 19.6272 11.1784 18.5152L11.8893 17.4976C11.1124 18.6097 11.9884 20.9134 14.9722 22.7504C15.0561 22.802 15.1421 22.8535 15.2293 22.9044C17.6888 24.3384 19.3386 24.2044 19.9533 23.3244Z" fill="black"/>
</g>
<path d="M16.8702 18.0724C22.2154 21.3628 20.7967 26.1506 15.2293 22.9047C15.1421 22.8539 15.0561 22.8024 14.9722 22.7507C9.62718 19.46 11.0461 14.6716 16.6132 17.9184C16.7003 17.969 16.7864 18.0207 16.8702 18.0724ZM15.3477 22.4807C19.9663 25.174 21.1436 21.2008 16.7098 18.4709C16.6399 18.428 16.5689 18.3854 16.4964 18.3431C16.4652 18.3249 16.4344 18.306 16.404 18.2905C16.4442 18.3144 16.4844 18.3388 16.5236 18.363C20.7779 20.982 19.6491 24.7943 15.2154 22.2087C15.1463 22.1682 15.0784 22.1276 15.0117 22.0866C13.3228 21.0467 12.48 19.8173 12.359 18.8776C12.4189 19.8725 13.2922 21.219 15.132 22.3517C15.2025 22.395 15.2742 22.438 15.3477 22.4807ZM14.0867 19.9619C14.0065 19.9125 13.9193 19.9061 13.9017 19.9475C13.8886 19.9768 13.9059 20.0114 13.9397 20.0571C14.263 20.4979 14.6486 20.8701 15.1622 21.2215L15.055 21.477C15.0371 21.5189 15.0877 21.5957 15.1661 21.645C15.2448 21.6935 15.3262 21.7 15.3441 21.6582L15.4501 21.406C16.2098 21.8665 16.8482 21.9618 16.9943 21.6202C17.1288 21.3037 16.8209 20.8777 15.9482 20.1994L16.3318 19.2967C16.6424 19.5159 16.9047 19.7624 17.1477 20.0738C17.1817 20.1196 17.2093 20.1418 17.2464 20.1647C17.3329 20.218 17.4172 20.2267 17.4361 20.1819C17.4501 20.1501 17.4285 20.1119 17.3836 20.0552C17.1128 19.7216 16.8327 19.4473 16.407 19.1551L16.4617 19.027C16.4796 18.9852 16.4275 18.9073 16.3491 18.858C16.2688 18.8086 16.1891 18.8027 16.173 18.845L16.1205 18.9672C15.3805 18.5148 14.7439 18.4298 14.6059 18.7556C14.4691 19.078 14.7669 19.4906 15.6276 20.1656L15.236 21.0842C14.7774 20.7634 14.4521 20.4325 14.1857 20.0528C14.1707 20.0314 14.1405 19.9961 14.0867 19.9619Z" fill="#FFC727"/>
<path d="M16.6813 21.4403C16.5763 21.6847 16.1051 21.6259 15.5 21.2544L15.8772 20.3633C16.6215 20.9492 16.7761 21.2176 16.6813 21.4403Z" fill="#FFC727"/>
<path d="M15.9484 20.1995C16.8211 20.8779 17.129 21.3039 16.9945 21.6203C16.8484 21.9619 16.2102 21.8666 15.4503 21.4061L15.3443 21.6583C15.3264 21.7001 15.245 21.6936 15.1663 21.6451C15.0879 21.5958 15.0373 21.519 15.0552 21.4771L15.1624 21.2216C14.6488 20.8701 14.2632 20.4978 13.9399 20.0572C13.9061 20.0115 13.8887 19.977 13.9019 19.9476C13.9196 19.9062 14.0067 19.9126 14.0844 19.9605C14.1406 19.9962 14.1709 20.0315 14.1856 20.0529C14.4521 20.4327 14.7773 20.7635 15.2359 21.0843L15.6275 20.1657C14.7668 19.4907 14.469 19.0781 14.6058 18.7557C14.7438 18.4299 15.3804 18.5149 16.1204 18.9673L16.1729 18.8451C16.189 18.8028 16.2688 18.8087 16.3463 18.8565C16.4275 18.9074 16.4795 18.9853 16.4616 19.0271L16.4069 19.1552C16.8326 19.4474 17.1128 19.7215 17.3835 20.0553C17.4286 20.112 17.4502 20.1502 17.436 20.182C17.417 20.2266 17.3328 20.218 17.2493 20.1666C17.2092 20.1419 17.1816 20.1197 17.1476 20.0739C16.9046 19.7625 16.6424 19.516 16.3317 19.2968L15.9484 20.1995ZM16.6821 21.4404C16.7769 21.2177 16.6222 20.9493 15.878 20.3636L15.5008 21.2547C16.1059 21.6261 16.5771 21.6849 16.6821 21.4404ZM15.6965 20.0007L16.0714 19.1206C15.4833 18.7596 15.0182 18.7046 14.9199 18.9365C14.8264 19.1559 14.961 19.412 15.6965 20.0007Z" fill="#FFC727"/>
<g opacity="0.1">
<path d="M15.9484 20.1995C16.8211 20.8779 17.129 21.3039 16.9945 21.6203C16.8484 21.9619 16.2102 21.8666 15.4503 21.4061L15.3443 21.6583C15.3264 21.7001 15.245 21.6936 15.1663 21.6451C15.0879 21.5958 15.0373 21.519 15.0552 21.4771L15.1624 21.2216C14.6488 20.8701 14.2632 20.4978 13.9399 20.0572C13.9061 20.0115 13.8887 19.977 13.9019 19.9476C13.9196 19.9062 14.0067 19.9126 14.0844 19.9605C14.1406 19.9962 14.1709 20.0315 14.1856 20.0529C14.4521 20.4327 14.7773 20.7635 15.2359 21.0843L15.6275 20.1657C14.7668 19.4907 14.469 19.0781 14.6058 18.7557C14.7438 18.4299 15.3804 18.5149 16.1204 18.9673L16.1729 18.8451C16.189 18.8028 16.2688 18.8087 16.3463 18.8565C16.4275 18.9074 16.4795 18.9853 16.4616 19.0271L16.4069 19.1552C16.8326 19.4474 17.1128 19.7215 17.3835 20.0553C17.4286 20.112 17.4502 20.1502 17.436 20.182C17.417 20.2266 17.3328 20.218 17.2493 20.1666C17.2092 20.1419 17.1816 20.1197 17.1476 20.0739C16.9046 19.7625 16.6424 19.516 16.3317 19.2968L15.9484 20.1995ZM16.6821 21.4404C16.7769 21.2177 16.6222 20.9493 15.878 20.3636L15.5008 21.2547C16.1059 21.6261 16.5771 21.6849 16.6821 21.4404ZM15.6965 20.0007L16.0714 19.1206C15.4833 18.7596 15.0182 18.7046 14.9199 18.9365C14.8264 19.1559 14.961 19.412 15.6965 20.0007Z" fill="black"/>
</g>
<path d="M16.7102 18.4708C21.1438 21.2006 19.9666 25.1738 15.3481 22.4805C15.2747 22.4378 15.2029 22.3947 15.1324 22.3513C13.2926 21.2187 12.4193 19.872 12.3594 18.8772C12.4803 19.8169 13.3231 21.0462 15.0121 22.0861C15.0786 22.1272 15.1466 22.1678 15.2158 22.2082C19.6495 24.7939 20.7783 20.9817 16.524 18.3626C16.4846 18.3383 16.4446 18.3141 16.4044 18.29C16.4346 18.3056 16.4656 18.3246 16.4968 18.3427C16.5693 18.3852 16.6403 18.4278 16.7102 18.4708Z" fill="#FFC727"/>
<g opacity="0.1">
<path d="M16.7102 18.4708C21.1438 21.2006 19.9666 25.1738 15.3481 22.4805C15.2747 22.4378 15.2029 22.3947 15.1324 22.3513C13.2926 21.2187 12.4193 19.872 12.3594 18.8772C12.4803 19.8169 13.3231 21.0462 15.0121 22.0861C15.0786 22.1272 15.1466 22.1678 15.2158 22.2082C19.6495 24.7939 20.7783 20.9817 16.524 18.3626C16.4846 18.3383 16.4446 18.3141 16.4044 18.29C16.4346 18.3056 16.4656 18.3246 16.4968 18.3427C16.5693 18.3852 16.6403 18.4278 16.7102 18.4708Z" fill="black"/>
</g>
<path d="M46.5596 18.3002C46.5353 18.3134 46.5106 18.326 46.4884 18.3396L46.1064 17.469C46.1287 17.4555 46.1533 17.4429 46.1777 17.4297C46.2343 17.3992 46.2904 17.3696 46.3464 17.3412C47.0125 17.0017 47.6287 16.8088 48.1663 16.7319C48.2935 17.022 48.4208 17.3122 48.5479 17.6025C48.0103 17.6792 47.3943 17.8722 46.7283 18.2116C46.6723 18.2403 46.6162 18.2697 46.5596 18.3002Z" fill="#FFC727"/>
<path d="M50.5966 18.2778C50.3667 17.7536 49.6105 17.4508 48.5477 17.6026C48.4205 17.3123 48.2933 17.0221 48.166 16.732C49.2288 16.5803 49.9848 16.8831 50.2146 17.4073C50.3293 17.6685 50.482 18.0167 50.5966 18.2778Z" fill="#FFC727"/>
<path d="M49.913 17.4829L50.295 18.3534C49.9627 17.5963 48.486 17.3211 46.5834 18.2907C46.5519 18.3068 46.5201 18.3233 46.4884 18.34L46.1064 17.4695C46.1382 17.4527 46.17 17.4361 46.2015 17.4202C48.1041 16.4505 49.5808 16.7256 49.913 17.4829Z" fill="#FFC727"/>
<path d="M46.8378 18.602C46.8373 18.6022 46.8366 18.6027 46.836 18.6029C46.7088 18.3127 46.5815 18.0226 46.4541 17.7324C46.4547 17.7321 46.4554 17.7319 46.4559 17.7314C46.5706 17.9927 46.7233 18.3409 46.8378 18.602Z" fill="#FFC727"/>
<path d="M46.6115 17.7256L46.9934 18.5961C46.9731 18.5677 46.9014 18.5707 46.838 18.6024L46.4561 17.7319C46.5196 17.7002 46.5913 17.6971 46.6115 17.7256Z" fill="#FFC727"/>
<path d="M46.436 17.9243L46.8178 18.7948L46.7589 18.7118L46.377 17.8413L46.436 17.9243Z" fill="#FFC727"/>
<path d="M46.836 18.6029C46.7774 18.6333 46.7432 18.6778 46.7555 18.7058L46.3736 17.8353C46.3613 17.8073 46.3954 17.7628 46.4541 17.7324C46.5815 18.0226 46.7088 18.3129 46.836 18.6029Z" fill="#FFC727"/>
<path d="M46.755 18.706L46.373 17.8354C46.374 17.8375 46.3751 17.8396 46.3767 17.8416L46.7586 18.7121C46.7571 18.7102 46.7559 18.7081 46.755 18.706Z" fill="#FFC727"/>
<path d="M46.6733 17.8124L47.0551 18.6829L46.9932 18.5961L46.6113 17.7256L46.6733 17.8124Z" fill="#FFC727"/>
<path d="M46.8173 18.7953C46.6283 18.8923 46.4682 18.9975 46.3429 19.1028C46.2156 18.8127 46.0883 18.5225 45.9609 18.2322C46.0862 18.127 46.2464 18.0218 46.4354 17.9248C46.5501 18.186 46.7028 18.5342 46.8173 18.7953Z" fill="#FFC727"/>
<path d="M46.3062 19.035C46.1894 18.769 46.0728 18.5028 45.9561 18.2368C45.958 18.2352 45.96 18.2336 45.9619 18.2319C46.0892 18.522 46.2165 18.8122 46.3439 19.1025C46.3419 19.1041 46.3399 19.1057 46.338 19.1074C46.3369 19.1048 46.3353 19.1013 46.3342 19.0988C46.3331 19.0963 46.3315 19.0928 46.3304 19.0901C46.3278 19.0841 46.3252 19.0782 46.3226 19.0722C46.3171 19.0599 46.3115 19.0474 46.3062 19.035Z" fill="#FFC727"/>
<path d="M47.6506 17.5327L48.0325 18.4032C47.7065 18.4472 47.4156 18.5211 47.0548 18.6828L46.6729 17.8123C47.0336 17.6505 47.3246 17.5767 47.6506 17.5327Z" fill="#FFC727"/>
<path d="M48.136 18.4188C48.1209 18.397 48.0873 18.3958 48.0323 18.4026L47.6504 17.532C47.7054 17.5252 47.739 17.5263 47.7543 17.5483C47.8814 17.8385 48.0086 18.1286 48.136 18.4188Z" fill="#FFC727"/>
<path d="M48.14 18.4251C48.1392 18.4231 48.1381 18.4212 48.1368 18.4193C48.0095 18.1291 47.8823 17.839 47.7549 17.5488C47.7561 17.5506 47.7573 17.5526 47.7581 17.5546C47.8728 17.8158 48.0255 18.164 48.14 18.4251Z" fill="#FFC727"/>
<path d="M47.5688 17.6938L47.9507 18.5644C47.6503 18.5991 47.3845 18.6722 47.1173 18.7879L46.7354 17.9174C47.0026 17.8018 47.2683 17.7286 47.5688 17.6938Z" fill="#FFC727"/>
<path d="M47.7582 17.5547L48.1401 18.4252C48.1536 18.4559 48.1152 18.5033 48.0523 18.5354C48.0203 18.5518 47.9947 18.561 47.9513 18.5649L47.5693 17.6944C47.6127 17.6905 47.6384 17.6812 47.6704 17.6649C47.7331 17.6329 47.7716 17.5855 47.7582 17.5547Z" fill="#FFC727"/>
<path d="M46.3377 19.1073C46.192 19.231 46.0944 19.3546 46.0548 19.4656C45.9275 19.1754 45.8003 18.8853 45.6729 18.5951C45.7125 18.4841 45.8101 18.3604 45.9558 18.2368C46.0832 18.527 46.2105 18.8173 46.3377 19.1073Z" fill="#FFC727"/>
<path d="M46.0475 19.4536C45.9223 19.1681 45.797 18.8828 45.6719 18.5973C45.6722 18.5966 45.6724 18.5959 45.6726 18.5952C45.7998 18.8853 45.9272 19.1755 46.0545 19.4657C46.0542 19.4664 46.0539 19.4671 46.0538 19.4678C46.0517 19.4631 46.0496 19.4583 46.0475 19.4536Z" fill="#FFC727"/>
<path d="M46.303 19.54L45.9211 18.6695C45.8505 18.5088 46.0727 18.2449 46.5165 18.0181L46.8984 18.8886C46.4546 19.1154 46.2324 19.3791 46.303 19.54Z" fill="#FFC727"/>
<path d="M46.0535 19.468C46.0287 19.5387 46.0276 19.6043 46.0525 19.6612L45.6706 18.7909C45.6455 18.7339 45.6468 18.6684 45.6715 18.5977C45.7529 18.7832 45.8342 18.9687 45.9157 19.1542C45.9601 19.2552 46.0045 19.3565 46.0488 19.4575C46.0502 19.4609 46.0533 19.464 46.0535 19.468Z" fill="#FFC727"/>
<path d="M46.5165 18.0181L46.9424 18.614C46.2642 18.8602 46.0432 18.846 45.9371 18.6975C45.8245 18.5407 46.046 18.2586 46.5165 18.0181Z" fill="#FFC727"/>
<path d="M46.9423 18.6139L47.3243 19.4844L46.8984 18.8884L46.5166 18.0181L46.9423 18.6139Z" fill="#FFC727"/>
<path d="M46.3028 19.5399L45.9209 18.6693C45.9251 18.679 45.9304 18.6884 45.9369 18.6972C46.043 18.8457 46.264 18.8599 46.9422 18.6138L47.3241 19.4843C46.646 19.7304 46.4249 19.7163 46.3188 19.5677C46.3125 19.5588 46.3072 19.5495 46.3028 19.5399Z" fill="#FFC727"/>
<path d="M47.1726 18.5282L47.5545 19.3985L47.1173 18.788L46.7354 17.9175L47.1726 18.5282Z" fill="#FFC727"/>
<path d="M48.4054 19.1541C48.1936 19.1817 47.9144 19.2626 47.5548 19.3989L47.1729 18.5286C47.5325 18.3922 47.8117 18.3113 48.0235 18.2837C48.1507 18.5738 48.278 18.8639 48.4054 19.1541Z" fill="#FFC727"/>
<path d="M46.0528 19.6611L45.6709 18.7906C45.6769 18.8043 45.6845 18.8176 45.6937 18.8303C45.85 19.0483 46.2385 19.018 47.0229 18.7246L47.4048 19.5951C46.6202 19.8886 46.2319 19.9188 46.0756 19.7008C46.0664 19.6881 46.0588 19.6748 46.0528 19.6611Z" fill="#FFC727"/>
<path d="M48.4297 19.1508C48.4217 19.1518 48.4135 19.1528 48.4054 19.1537C48.2781 18.8637 48.1508 18.5734 48.0234 18.2832C48.0317 18.2821 48.0398 18.2811 48.0478 18.2803C48.1752 18.5705 48.3025 18.8607 48.4297 19.1508Z" fill="#FFC727"/>
<path d="M48.2685 18.7832C48.195 18.6155 48.1214 18.4479 48.0479 18.2802C48.1373 18.2701 48.2143 18.2699 48.2798 18.2795C48.4071 18.5697 48.5345 18.8598 48.6618 19.15C48.5962 19.1404 48.5192 19.1405 48.4298 19.1507C48.376 19.0282 48.3222 18.9057 48.2685 18.7832Z" fill="#FFC727"/>
<path d="M48.2766 18.5436L48.6585 19.4142C48.5507 19.2634 48.3136 19.2575 47.6339 19.5105L47.252 18.64C47.9317 18.387 48.1688 18.3929 48.2766 18.5436Z" fill="#FFC727"/>
<path d="M48.6612 19.1503C48.534 18.8602 48.4067 18.57 48.2793 18.2798C48.3896 18.296 48.4676 18.34 48.5183 18.4108C48.5281 18.4244 48.5361 18.4387 48.5425 18.4532L48.9244 19.3238C48.918 19.3091 48.9099 19.2949 48.9002 19.2812C48.8495 19.2104 48.7715 19.1664 48.6612 19.1503Z" fill="#FFC727"/>
<path d="M48.2933 18.5733L48.6752 19.4438C48.6707 19.4334 48.665 19.4235 48.6583 19.414L48.2764 18.5435C48.2831 18.553 48.2888 18.5629 48.2933 18.5733Z" fill="#FFC727"/>
<path d="M46.3741 19.6221L46.756 20.4926C46.7361 20.4936 46.701 20.4995 46.6573 20.5209L46.2754 19.6503C46.3189 19.6289 46.3541 19.6231 46.3741 19.6221Z" fill="#FFC727"/>
<path d="M46.657 20.5209C46.5963 20.5519 46.5582 20.6021 46.5709 20.6312L46.189 19.7609C46.1763 19.7319 46.2139 19.6819 46.2741 19.651C46.2744 19.6508 46.2747 19.6507 46.2751 19.6504C46.3898 19.9115 46.5425 20.2597 46.657 20.5209Z" fill="#FFC727"/>
<path d="M48.293 18.5732L48.6749 19.4438C48.749 19.6127 48.5218 19.8789 48.0655 20.1121L47.6836 19.2416C48.1399 19.0084 48.3671 18.7421 48.293 18.5732Z" fill="#FFC727"/>
<path d="M47.6841 19.2415L48.0659 20.112L47.6339 19.5102L47.252 18.6396L47.6841 19.2415Z" fill="#FFC727"/>
<path d="M47.4668 19.3468L47.8487 20.2173L47.4044 19.595L47.0225 18.7246L47.4668 19.3468Z" fill="#FFC727"/>
<path d="M47.467 19.3467L47.8489 20.2172C47.4564 20.3891 47.1104 20.4698 46.7559 20.4926L46.374 19.6221C46.7285 19.5992 47.0744 19.5186 47.467 19.3467Z" fill="#FFC727"/>
<path d="M48.5426 18.4531L48.9246 19.3236C49.027 19.5573 48.713 19.9105 48.1446 20.2052L47.7627 19.3347C48.3311 19.04 48.6451 18.6868 48.5426 18.4531Z" fill="#FFC727"/>
<path d="M46.5714 20.6313L46.1895 19.7609C46.1903 19.7626 46.1911 19.7643 46.1923 19.7658C46.2063 19.7861 46.2357 19.7885 46.2791 19.7846C46.696 19.749 47.093 19.6453 47.5277 19.4497L47.9096 20.3202C47.4751 20.5159 47.0779 20.6195 46.661 20.6551C46.6176 20.659 46.588 20.6566 46.5742 20.6363C46.5731 20.6347 46.5721 20.633 46.5714 20.6313Z" fill="#FFC727"/>
<path d="M47.8852 19.5048L48.2671 20.3752L48.1445 20.2053L47.7627 19.335L47.8852 19.5048Z" fill="#FFC727"/>
<path d="M47.8888 19.5102L48.2707 20.3807C48.2699 20.3789 48.2689 20.3771 48.2677 20.3754L47.8857 19.5049C47.887 19.5067 47.888 19.5084 47.8888 19.5102Z" fill="#FFC727"/>
<path d="M47.6515 19.6213L48.0334 20.4917L47.9093 20.3197L47.5273 19.4492L47.6515 19.6213Z" fill="#FFC727"/>
<path d="M47.8883 19.5098L48.2702 20.3803C48.2829 20.4094 48.2469 20.4559 48.1876 20.4861L47.8057 19.6156C47.8649 19.5855 47.901 19.5389 47.8883 19.5098Z" fill="#FFC727"/>
<path d="M47.8065 19.6162L48.1884 20.4867C48.125 20.5184 48.0546 20.5208 48.0343 20.4923L47.6523 19.6218C47.6726 19.6504 47.7431 19.6479 47.8065 19.6162Z" fill="#FFC727"/>
<path d="M50.8123 17.1562L51.1942 18.0268C51.5245 18.7796 50.9543 19.9115 49.0363 20.9476C48.9682 20.9843 48.9002 21.02 48.8331 21.0543C46.4426 22.2725 44.5873 21.9266 44.17 20.9755L43.7881 20.1049C44.2054 21.0561 46.0607 21.402 48.4512 20.1837C48.5184 20.1496 48.5863 20.1139 48.6543 20.0771C50.5723 19.0411 51.1426 17.909 50.8123 17.1562Z" fill="#FFC727"/>
<g opacity="0.1">
<path d="M50.8123 17.1562L51.1942 18.0268C51.5245 18.7796 50.9543 19.9115 49.0363 20.9476C48.9682 20.9843 48.9002 21.02 48.8331 21.0543C46.4426 22.2725 44.5873 21.9266 44.17 20.9755L43.7881 20.1049C44.2054 21.0561 46.0607 21.402 48.4512 20.1837C48.5184 20.1496 48.5863 20.1139 48.6543 20.0771C50.5723 19.0411 51.1426 17.909 50.8123 17.1562Z" fill="black"/>
</g>
<path d="M46.1498 17.0774C50.432 14.8949 52.9962 17.7313 48.6547 20.0767C48.5867 20.1134 48.5188 20.1491 48.4516 20.1834C44.1692 22.3656 41.6046 19.5289 45.9467 17.1841C46.0146 17.1474 46.0828 17.1117 46.1498 17.0774ZM48.4248 19.8303C52.027 17.8849 49.8989 15.5312 46.3467 17.3413C46.2907 17.3697 46.2345 17.3992 46.178 17.4298C46.1536 17.4429 46.129 17.4555 46.1067 17.4691C46.1385 17.4523 46.1703 17.4358 46.2018 17.4198C49.6101 15.6828 51.6522 17.9408 48.1942 19.8082C48.1402 19.8373 48.0866 19.8655 48.0332 19.8926C46.6801 20.5821 45.5403 20.643 44.8778 20.3475C45.552 20.7049 46.7805 20.6709 48.2544 19.9198C48.3109 19.8911 48.3676 19.8613 48.4248 19.8303ZM46.2754 19.6504C46.2111 19.6832 46.1722 19.7377 46.1921 19.7658C46.2061 19.7861 46.2355 19.7885 46.2789 19.7846C46.6958 19.749 47.0929 19.6453 47.5276 19.4497L47.6517 19.6217C47.672 19.6502 47.7423 19.6476 47.8059 19.6161C47.8689 19.5841 47.9056 19.5334 47.8854 19.505L47.7629 19.3352C48.3669 19.0221 48.6837 18.6427 48.5186 18.4112C48.3653 18.197 47.9641 18.2285 47.1727 18.5285L46.7354 17.9178C47.0027 17.8022 47.2683 17.7289 47.5689 17.6942C47.6123 17.6903 47.6379 17.6811 47.6676 17.6659C47.7369 17.6307 47.7762 17.579 47.7545 17.5488C47.7394 17.5269 47.7058 17.5258 47.6506 17.5325C47.3246 17.5765 47.0336 17.6503 46.6729 17.8122L46.611 17.7254C46.5908 17.697 46.5191 17.7001 46.4557 17.7317C46.3913 17.7645 46.3558 17.8142 46.377 17.8416L46.436 17.9247C45.8452 18.228 45.5358 18.6104 45.6937 18.8305C45.8499 19.0484 46.2384 19.0182 47.0229 18.7248L47.4672 19.3469C47.0747 19.5188 46.7286 19.5996 46.3742 19.6223C46.3542 19.6231 46.3191 19.629 46.2754 19.6504Z" fill="#FFC727"/>
<path d="M48.2766 18.5436C48.3945 18.7097 48.1682 18.9943 47.6841 19.2418L47.252 18.64C47.9317 18.387 48.1688 18.3929 48.2766 18.5436Z" fill="#FFC727"/>
<path d="M47.1724 18.5281C47.9638 18.228 48.3651 18.1966 48.5184 18.4108C48.6836 18.6424 48.3666 19.0218 47.7627 19.3348L47.8852 19.5046C47.9053 19.5331 47.8686 19.5836 47.8056 19.6158C47.7422 19.6474 47.6718 19.6498 47.6515 19.6214L47.5273 19.4493C47.0928 19.6449 46.6957 19.7487 46.2787 19.7842C46.2353 19.7881 46.2057 19.7856 46.1919 19.7655C46.1718 19.7373 46.2108 19.683 46.2731 19.6512C46.3188 19.6287 46.354 19.6229 46.3739 19.6218C46.7283 19.599 47.0743 19.5184 47.4668 19.3464L47.0225 18.7243C46.2379 19.0177 45.8496 19.048 45.6933 18.83C45.5354 18.6099 45.8447 18.2276 46.4356 17.9242L46.3767 17.8412C46.3555 17.8137 46.3911 17.764 46.4532 17.7324C46.5189 17.6996 46.5906 17.6965 46.6107 17.725L46.6726 17.8118C47.0334 17.6499 47.3243 17.576 47.6504 17.532C47.7054 17.5252 47.739 17.5263 47.7543 17.5483C47.776 17.5785 47.7366 17.6302 47.6697 17.6642C47.6376 17.6806 47.612 17.6898 47.5686 17.6937C47.2682 17.7285 47.0025 17.8015 46.7352 17.9173L47.1724 18.5281ZM48.2763 18.5433C48.1685 18.3925 47.9314 18.3866 47.2517 18.6396L47.6838 19.2414C48.168 18.9939 48.3942 18.7093 48.2763 18.5433ZM46.9421 18.6135L46.5162 18.0176C46.0457 18.2581 45.8244 18.5402 45.9368 18.697C46.043 18.8455 46.2641 18.8597 46.9421 18.6135Z" fill="#FFC727"/>
<g opacity="0.1">
<path d="M47.1724 18.5281C47.9638 18.228 48.3651 18.1966 48.5184 18.4108C48.6836 18.6424 48.3666 19.0218 47.7627 19.3348L47.8852 19.5046C47.9053 19.5331 47.8686 19.5836 47.8056 19.6158C47.7422 19.6474 47.6718 19.6498 47.6515 19.6214L47.5273 19.4493C47.0928 19.6449 46.6957 19.7487 46.2787 19.7842C46.2353 19.7881 46.2057 19.7856 46.1919 19.7655C46.1718 19.7373 46.2108 19.683 46.2731 19.6512C46.3188 19.6287 46.354 19.6229 46.3739 19.6218C46.7283 19.599 47.0743 19.5184 47.4668 19.3464L47.0225 18.7243C46.2379 19.0177 45.8496 19.048 45.6933 18.83C45.5354 18.6099 45.8447 18.2276 46.4356 17.9242L46.3767 17.8412C46.3555 17.8137 46.3911 17.764 46.4532 17.7324C46.5189 17.6996 46.5906 17.6965 46.6107 17.725L46.6726 17.8118C47.0334 17.6499 47.3243 17.576 47.6504 17.532C47.7054 17.5252 47.739 17.5263 47.7543 17.5483C47.776 17.5785 47.7366 17.6302 47.6697 17.6642C47.6376 17.6806 47.612 17.6898 47.5686 17.6937C47.2682 17.7285 47.0025 17.8015 46.7352 17.9173L47.1724 18.5281ZM48.2763 18.5433C48.1685 18.3925 47.9314 18.3866 47.2517 18.6396L47.6838 19.2414C48.168 18.9939 48.3942 18.7093 48.2763 18.5433ZM46.9421 18.6135L46.5162 18.0176C46.0457 18.2581 45.8244 18.5402 45.9368 18.697C46.043 18.8455 46.2641 18.8597 46.9421 18.6135Z" fill="black"/>
</g>
<path d="M46.3467 17.3412C49.8989 15.5311 52.027 17.8848 48.425 19.8303C48.3677 19.8612 48.311 19.891 48.2546 19.9197C46.7807 20.6708 45.5522 20.7048 44.8779 20.3474C45.5404 20.643 46.6803 20.5822 48.0334 19.8926C48.0867 19.8654 48.1403 19.8373 48.1944 19.8081C51.6524 17.9407 49.6102 15.6828 46.2019 17.4197C46.1704 17.4358 46.1385 17.4524 46.1068 17.469C46.1291 17.4554 46.1537 17.4428 46.1781 17.4297C46.2347 17.3992 46.2908 17.3698 46.3467 17.3412Z" fill="#FFC727"/>
<g opacity="0.1">
<path d="M46.3467 17.3412C49.8989 15.5311 52.027 17.8848 48.425 19.8303C48.3677 19.8612 48.311 19.891 48.2546 19.9197C46.7807 20.6708 45.5522 20.7048 44.8779 20.3474C45.5404 20.643 46.6803 20.5822 48.0334 19.8926C48.0867 19.8654 48.1403 19.8373 48.1944 19.8081C51.6524 17.9407 49.6102 15.6828 46.2019 17.4197C46.1704 17.4358 46.1385 17.4524 46.1068 17.469C46.1291 17.4554 46.1537 17.4428 46.1781 17.4297C46.2347 17.3992 46.2908 17.3698 46.3467 17.3412Z" fill="black"/>
</g>
<path d="M58.2715 14.2901L57.5625 15.4269C57.932 14.8343 57.1209 13.4998 54.8482 12.0825C54.7782 12.0388 54.7071 11.9953 54.6344 11.9514C54.6032 11.9327 54.5722 11.9134 54.542 11.8966L55.251 10.7598C55.2813 10.7766 55.3123 10.7959 55.3435 10.8146C55.4163 10.8585 55.4874 10.902 55.5573 10.9457C57.8299 12.3629 58.6409 13.6975 58.2715 14.2901Z" fill="#FFC727"/>
<path d="M57.9751 14.0419L57.2661 15.1787C57.6206 14.6103 56.8423 13.3302 54.6618 11.9705C54.6225 11.946 54.5823 11.9212 54.542 11.8966L55.251 10.7598C55.2913 10.7844 55.3315 10.8092 55.3708 10.8337C57.5513 12.1934 58.3294 13.4735 57.9751 14.0419Z" fill="#FFC727"/>
<path d="M54.4925 12.2715C54.4918 12.2711 54.4909 12.2705 54.4902 12.2701C54.7266 11.8911 54.9629 11.5123 55.1992 11.1333C55.1999 11.1339 55.2007 11.1343 55.2014 11.1347C54.9888 11.4757 54.7053 11.9305 54.4925 12.2715Z" fill="#FFC727"/>
<path d="M54.4904 12.27C54.4108 12.2209 54.3326 12.201 54.3154 12.2252L55.0244 11.0884C55.0416 11.0642 55.1197 11.0841 55.1994 11.1332C55.1746 11.173 55.1414 11.2262 55.1167 11.266C55.0903 11.3082 55.0552 11.3645 55.0289 11.4068C55.0016 11.4506 54.965 11.509 54.9377 11.553C54.9099 11.5976 54.8728 11.6571 54.8449 11.7018C54.8171 11.7464 54.78 11.8059 54.7521 11.8506C54.7248 11.8944 54.6884 11.9529 54.6611 11.9968C54.6348 12.039 54.5996 12.0953 54.5733 12.1376C54.5484 12.1771 54.5153 12.2301 54.4904 12.27Z" fill="#FFC727"/>
<path d="M55.3148 11.2708L54.6059 12.4076C54.6217 12.3823 54.5709 12.3206 54.4932 12.2716L55.2021 11.1348C55.2798 11.1838 55.3306 11.2455 55.3148 11.2708Z" fill="#FFC727"/>
<path d="M55.3143 11.2715L54.6054 12.4083L54.5518 12.484L55.2607 11.3471L55.3143 11.2715Z" fill="#FFC727"/>
<path d="M55.314 11.2705L54.6051 12.4073L54.6045 12.4081L55.3135 11.2713L55.314 11.2705Z" fill="#FFC727"/>
<path d="M55.025 11.0879L54.316 12.2248L54.2646 12.2969L54.9736 11.16L55.025 11.0879Z" fill="#FFC727"/>
<path d="M54.2645 12.2973C54.0276 12.1503 53.8018 12.031 53.5996 11.943C53.8359 11.564 54.0722 11.1851 54.3086 10.8062C54.5107 10.8942 54.7366 11.0134 54.9734 11.1605C54.7608 11.5014 54.4771 11.9561 54.2645 12.2973Z" fill="#FFC727"/>
<path d="M53.6458 11.8497C53.8635 11.5006 54.0812 11.1514 54.2991 10.8022C54.302 10.8035 54.3051 10.8049 54.308 10.8062C54.2833 10.8461 54.2501 10.8991 54.2252 10.9389C54.1988 10.9812 54.1637 11.0374 54.1374 11.0797C54.1101 11.1235 54.0735 11.1819 54.0462 11.2257C54.0184 11.2704 53.9813 11.3299 53.9534 11.3746C53.9256 11.4192 53.8885 11.4787 53.8606 11.5234C53.8333 11.5672 53.7968 11.6257 53.7695 11.6695C53.7431 11.7118 53.708 11.7681 53.6817 11.8104C53.6568 11.8503 53.6237 11.9033 53.5988 11.9431C53.5959 11.9418 53.5928 11.9404 53.5898 11.9392C53.6087 11.9094 53.6274 11.8795 53.6458 11.8497Z" fill="#FFC727"/>
<path d="M56.2416 12.1601L55.5326 13.2969C55.26 13.0144 54.9786 12.7704 54.5518 12.484L55.2607 11.3472C55.6876 11.6336 55.9691 11.8778 56.2416 12.1601Z" fill="#FFC727"/>
<path d="M53.5908 11.939C53.3534 11.8364 53.1491 11.7773 52.999 11.7677C53.2353 11.3887 53.4717 11.0097 53.708 10.6309C53.8581 10.6405 54.0623 10.6996 54.2998 10.8022C54.283 10.8291 54.2606 10.8651 54.2438 10.892C54.2349 10.9061 54.2232 10.9249 54.2145 10.939C54.1963 10.9681 54.1721 11.007 54.1539 11.0362C54.1446 11.051 54.1322 11.071 54.1229 11.0859C54.1042 11.116 54.0791 11.1563 54.0602 11.1864C54.0508 11.2015 54.0382 11.2217 54.0289 11.2368C54.0102 11.2667 53.9853 11.3066 53.9666 11.3366C53.9573 11.3513 53.9451 11.3709 53.936 11.3856C53.9183 11.4142 53.8945 11.4522 53.8767 11.4807C53.8681 11.4944 53.8568 11.5126 53.8483 11.5263C53.8371 11.5442 53.8222 11.5682 53.8109 11.5861C53.8078 11.591 53.8039 11.5974 53.8008 11.6023C53.7945 11.6124 53.7862 11.6258 53.7799 11.6358C53.7767 11.641 53.7724 11.6478 53.7692 11.653C53.7626 11.6635 53.7538 11.6776 53.7472 11.6881C53.7438 11.6935 53.7393 11.7006 53.736 11.7059C53.7293 11.7167 53.7203 11.7311 53.7136 11.742C53.7102 11.7475 53.7056 11.7546 53.7022 11.7601C53.6955 11.7709 53.6864 11.7854 53.6797 11.7962C53.6763 11.8017 53.6719 11.8088 53.6685 11.8141C53.6619 11.8248 53.6531 11.8389 53.6465 11.8494C53.6454 11.8511 53.644 11.8536 53.6429 11.8553C53.6406 11.8588 53.6378 11.8634 53.6356 11.8669C53.6345 11.8686 53.6331 11.871 53.632 11.8727C53.6299 11.876 53.6269 11.8806 53.6248 11.8841C53.6238 11.8858 53.6223 11.8881 53.6213 11.8897C53.6192 11.8931 53.6164 11.8976 53.6143 11.9009C53.6133 11.9026 53.6119 11.9049 53.6108 11.9065C53.6089 11.9099 53.6061 11.9142 53.604 11.9175C53.603 11.9191 53.6016 11.9212 53.6006 11.9228C53.5986 11.926 53.596 11.9302 53.5939 11.9334C53.5932 11.9354 53.5918 11.9375 53.5908 11.939Z" fill="#FFC727"/>
<path d="M53.0094 11.7445C53.241 11.3731 53.4725 11.0018 53.7041 10.6304C53.7052 10.6304 53.7065 10.6305 53.7076 10.6307C53.4713 11.0096 53.2349 11.3885 52.9986 11.7675C52.9975 11.7673 52.9962 11.7673 52.9951 11.7672C52.9999 11.7596 53.0046 11.7521 53.0094 11.7445Z" fill="#FFC727"/>
<path d="M56.2961 12.258L55.5871 13.3948C55.5994 13.3752 55.5776 13.3448 55.5322 13.297L56.2412 12.1602C56.2864 12.208 56.3082 12.2384 56.2961 12.258Z" fill="#FFC727"/>
<path d="M56.0061 12.1241L55.2971 13.2609C55.0524 12.9992 54.7906 12.7787 54.4775 12.5645L55.1865 11.4277C55.4995 11.6419 55.7613 11.8624 56.0061 12.1241Z" fill="#FFC727"/>
<path d="M52.9954 11.7675C52.955 11.7651 52.9188 11.7662 52.8867 11.7711C53.123 11.3921 53.3594 11.0131 53.5957 10.6343C53.6276 10.6294 53.664 10.6281 53.7042 10.6307C53.6968 10.6424 53.687 10.6582 53.6797 10.67C53.6759 10.6762 53.6707 10.6844 53.6668 10.6906C53.6588 10.7033 53.6482 10.7204 53.6402 10.7331C53.6361 10.7397 53.6307 10.7484 53.6266 10.755C53.6184 10.7683 53.6074 10.7859 53.5992 10.7991C53.595 10.8057 53.5895 10.8145 53.5853 10.8212C53.5771 10.8344 53.5663 10.8519 53.558 10.865C53.554 10.8715 53.5486 10.88 53.5446 10.8866C53.4473 11.0425 53.35 11.1986 53.2528 11.3546C53.2338 11.385 53.2086 11.4256 53.1895 11.4561C53.1802 11.4712 53.1676 11.4914 53.1582 11.5064C53.1397 11.5359 53.1152 11.5754 53.0967 11.6051C53.0878 11.6195 53.0759 11.6387 53.0669 11.6529C53.0497 11.6805 53.0267 11.7173 53.0095 11.7449C53.0092 11.7453 53.0089 11.7459 53.0087 11.7463C53.0081 11.7472 53.0074 11.7483 53.0068 11.7491C53.0066 11.7495 53.0061 11.7501 53.006 11.7505C53.0054 11.7514 53.0047 11.7525 53.0042 11.7535C53.0039 11.7539 53.0035 11.7544 53.0033 11.7549C53.0028 11.7557 53.0021 11.7568 53.0015 11.7578C53.0012 11.7582 53.001 11.7588 53.0007 11.7592C53.0001 11.76 52.9994 11.7612 52.9989 11.762C52.9986 11.7624 52.9983 11.763 52.998 11.7634C52.9975 11.7642 52.9968 11.7654 52.9963 11.7662C52.9959 11.7665 52.9956 11.7669 52.9954 11.7675Z" fill="#FFC727"/>
<path d="M56.2958 12.2581L55.5868 13.3949C55.5682 13.4214 55.4827 13.3972 55.3989 13.3448C55.3589 13.3198 55.331 13.299 55.2969 13.2608L56.0058 12.124C56.04 12.1621 56.0679 12.183 56.1079 12.208C56.1916 12.2604 56.2772 12.2846 56.2958 12.2581Z" fill="#FFC727"/>
<path d="M52.8864 11.7712C52.8767 11.7726 52.8674 11.7746 52.8584 11.7767C53.0947 11.3977 53.331 11.0187 53.5674 10.6399C53.5763 10.6376 53.5857 10.6358 53.5954 10.6343C53.5706 10.6742 53.5374 10.7272 53.5125 10.767C53.4862 10.8093 53.451 10.8656 53.4247 10.9078C53.3974 10.9517 53.361 11.01 53.3336 11.054C53.3057 11.0987 53.2686 11.1582 53.2407 11.2028C53.1227 11.3922 53.0046 11.5818 52.8864 11.7712Z" fill="#FFC727"/>
<path d="M53.0615 12.0354L53.7705 10.8986C53.772 10.8961 53.7737 10.8936 53.7755 10.8911C53.8717 10.754 54.3359 10.8876 54.9252 11.2544L54.2162 12.3912C53.627 12.0244 53.1627 11.8908 53.0666 12.0279C53.0649 12.0304 53.0632 12.0329 53.0615 12.0354Z" fill="#FFC727"/>
<path d="M52.7532 11.8408C52.751 11.8439 52.749 11.847 52.7471 11.8501L53.456 10.7133C53.458 10.7102 53.4601 10.7071 53.4622 10.704C53.4843 10.6725 53.5197 10.6513 53.5669 10.6396C53.5421 10.6794 53.5089 10.7326 53.4842 10.7724C53.4578 10.8146 53.4227 10.8709 53.3964 10.9131C53.3691 10.9569 53.3326 11.0154 53.3053 11.0592C53.2774 11.1039 53.2403 11.1634 53.2126 11.208C53.1847 11.2527 53.1476 11.3122 53.1197 11.3569C53.0924 11.4007 53.0559 11.4592 53.0286 11.503C53.0023 11.5453 52.9672 11.6016 52.9408 11.6439C52.9161 11.6836 52.8829 11.7368 52.8579 11.7766C52.8109 11.7879 52.7754 11.8093 52.7532 11.8408Z" fill="#FFC727"/>
<path d="M53.062 12.0352L53.7709 10.8984C53.6899 11.0284 53.8363 11.2336 54.5586 11.7739L53.8496 12.9107C53.1273 12.3705 52.981 12.1652 53.062 12.0352Z" fill="#FFC727"/>
<path d="M54.9255 11.2544L54.2165 12.3912L53.8496 12.911L54.5584 11.7741L54.9255 11.2544Z" fill="#FFC727"/>
<path d="M54.9257 11.2543L54.5586 11.7741C53.8222 11.2232 53.6844 11.0206 53.776 10.8911C53.8722 10.7539 54.3364 10.8875 54.9257 11.2543Z" fill="#FFC727"/>
<path d="M55.186 11.4277L54.477 12.5645L54.1016 13.0979L54.8105 11.9611L55.186 11.4277Z" fill="#FFC727"/>
<path d="M52.7475 11.8502L53.4565 10.7134C53.337 10.9048 53.6428 11.2465 54.4909 11.8716L53.782 13.0084C52.9337 12.3833 52.6281 12.0416 52.7475 11.8502Z" fill="#FFC727"/>
<path d="M54.9557 13.8038C54.7797 13.6201 54.4987 13.3887 54.1016 13.0977L54.8105 11.9609C55.2077 12.2517 55.4887 12.4833 55.6647 12.667C55.6399 12.7069 55.6067 12.7599 55.5818 12.7997C55.5555 12.842 55.5203 12.8982 55.494 12.9404C55.4667 12.9842 55.4303 13.0427 55.4029 13.0865C55.375 13.1312 55.3379 13.1907 55.31 13.2354C55.192 13.4248 55.0739 13.6142 54.9557 13.8038Z" fill="#FFC727"/>
<path d="M54.9761 13.8249C54.9695 13.8179 54.9629 13.8109 54.9561 13.8038C55.1924 13.4248 55.4287 13.046 55.665 12.667C55.6719 12.6741 55.6786 12.6811 55.685 12.6881C55.6736 12.7066 55.6583 12.7311 55.6467 12.7496C55.6407 12.7591 55.6327 12.772 55.6268 12.7815C55.6145 12.8013 55.5981 12.8276 55.5858 12.8473C55.5795 12.8574 55.5711 12.871 55.5648 12.8811C55.5519 12.9016 55.5348 12.9291 55.5221 12.9495C55.5156 12.9599 55.507 12.9737 55.5005 12.9841C55.4875 13.005 55.4703 13.0327 55.4573 13.0535C55.4508 13.0639 55.4421 13.0778 55.4357 13.0881C55.4228 13.1087 55.4057 13.1361 55.393 13.1567C55.3867 13.1668 55.3783 13.1804 55.3719 13.1905C55.3642 13.2029 55.3538 13.2196 55.346 13.232C55.3444 13.2346 55.3425 13.2378 55.3409 13.2403C55.3378 13.2452 55.3338 13.2518 55.3307 13.2567C55.3292 13.2591 55.3272 13.2624 55.3257 13.2648C55.3226 13.2696 55.3187 13.2761 55.3156 13.2809C55.314 13.2833 55.3121 13.2865 55.3107 13.2889C55.3077 13.2936 55.3038 13.2999 55.3007 13.3047C55.2993 13.3071 55.2974 13.3102 55.2958 13.3125C55.2929 13.3172 55.2891 13.3233 55.2862 13.3279C55.2848 13.3302 55.2828 13.3333 55.2814 13.3356C55.2786 13.3401 55.2748 13.3461 55.272 13.3508C55.267 13.3589 55.2601 13.3698 55.2551 13.3779C55.2445 13.3951 55.2302 13.418 55.2194 13.4352C55.2138 13.4441 55.2064 13.456 55.2008 13.4649C55.1894 13.4832 55.1742 13.5076 55.1627 13.5258C55.157 13.535 55.1493 13.5475 55.1434 13.5567C55.1318 13.5753 55.1162 13.6002 55.1046 13.6189C55.0987 13.6281 55.0912 13.6406 55.0853 13.6498C55.0738 13.6681 55.0587 13.6925 55.0472 13.7108C55.0416 13.7198 55.0342 13.7316 55.0287 13.7405C55.0181 13.7577 55.0038 13.7806 54.993 13.7978C54.988 13.8059 54.9811 13.8168 54.9761 13.8249Z" fill="#FFC727"/>
<path d="M55.2724 13.351C55.4101 13.13 55.5478 12.9093 55.6855 12.6885C55.7478 12.7551 55.7957 12.8153 55.8299 12.8695C55.8049 12.9094 55.7719 12.9625 55.747 13.0022C55.734 13.0231 55.7166 13.0509 55.7036 13.0718C55.6767 13.1149 55.6409 13.1725 55.614 13.2156C55.6003 13.2377 55.5819 13.2671 55.5681 13.2891C55.419 13.5282 55.2699 13.7672 55.1208 14.0063C55.0866 13.9521 55.0387 13.8919 54.9766 13.8253C55.0751 13.6672 55.1737 13.509 55.2724 13.351Z" fill="#FFC727"/>
<path d="M55.1369 14.0341C55.1317 14.0248 55.1261 14.0155 55.1201 14.0059C55.3564 13.627 55.5928 13.2481 55.8291 12.8691C55.8351 12.8787 55.8407 12.888 55.8459 12.8973C55.8292 12.9239 55.8071 12.9594 55.7904 12.986C55.7728 13.0143 55.7493 13.052 55.7316 13.0803C55.7133 13.1095 55.6889 13.1487 55.6707 13.178C55.6521 13.2078 55.6273 13.2477 55.6087 13.2775C55.5901 13.3073 55.5653 13.3471 55.5467 13.3771C55.5285 13.4065 55.504 13.4455 55.4858 13.4748C55.4682 13.5031 55.4446 13.5407 55.4271 13.569C55.4105 13.5956 55.3884 13.6312 55.3717 13.6579C55.3634 13.6711 55.3525 13.6887 55.3443 13.7019C55.3356 13.7159 55.324 13.7345 55.3153 13.7485C55.3062 13.763 55.2941 13.7824 55.285 13.7968C55.2758 13.8115 55.2635 13.8312 55.2544 13.8461C55.2451 13.8608 55.2328 13.8805 55.2237 13.8953C55.2146 13.9099 55.2026 13.9292 55.1936 13.9438C55.1849 13.9578 55.1733 13.9764 55.1645 13.9904C55.1561 14.0033 55.1452 14.0209 55.1369 14.0341Z" fill="#FFC727"/>
<path d="M55.1377 14.0343C55.374 13.6553 55.6103 13.2764 55.8467 12.8975C55.8814 12.9592 55.8969 13.0128 55.8944 13.0592C55.8696 13.0991 55.8364 13.1521 55.8117 13.192C55.7853 13.2343 55.7502 13.2906 55.7239 13.3329C55.6966 13.3767 55.66 13.4351 55.6327 13.4789C55.6049 13.5235 55.5678 13.583 55.5399 13.6277C55.5121 13.6724 55.475 13.7319 55.4471 13.7765C55.4198 13.8203 55.3833 13.8787 55.356 13.9225C55.3296 13.9648 55.2945 14.0211 55.2682 14.0634C55.2434 14.1033 55.2102 14.1563 55.1854 14.1961C55.1881 14.1496 55.1724 14.096 55.1377 14.0343Z" fill="#FFC727"/>
<path d="M55.1611 14.2709C55.1753 14.2484 55.1833 14.2233 55.1847 14.1959C55.421 13.8169 55.6572 13.4381 55.8936 13.0591C55.8921 13.0867 55.8841 13.1116 55.8701 13.1341C55.6573 13.475 55.3738 13.9297 55.1611 14.2709Z" fill="#FFC727"/>
<path d="M55.5574 12.948L54.8484 14.0848C54.9309 13.9527 54.7672 13.7364 54.0352 13.1954L54.7441 12.0586C55.476 12.5996 55.6397 12.8157 55.5574 12.948Z" fill="#FFC727"/>
<path d="M55.5573 12.9482L54.8484 14.085C54.847 14.0874 54.8454 14.0898 54.8438 14.092L55.5527 12.9552C55.5542 12.9529 55.5558 12.9506 55.5573 12.9482Z" fill="#FFC727"/>
<path d="M53.0522 11.4966L52.3433 12.6334C52.33 12.6167 52.2979 12.5855 52.2441 12.5514L52.9531 11.4146C53.0069 11.4489 53.0389 11.4799 53.0522 11.4966Z" fill="#FFC727"/>
<path d="M52.2442 12.5517C52.1639 12.5016 52.0769 12.4792 52.0596 12.5037L52.7685 11.3669C52.7859 11.3425 52.872 11.3646 52.9521 11.4142C52.7169 11.7914 52.4817 12.1685 52.2466 12.5455C52.4818 12.1684 52.7169 11.7914 52.9521 11.4142C52.9525 11.4145 52.9529 11.4146 52.9532 11.4149C52.7405 11.7559 52.4569 12.2107 52.2442 12.5517Z" fill="#FFC727"/>
<path d="M54.1086 12.4155L53.3996 13.5523C52.9382 13.2387 52.6113 12.9468 52.3428 12.6339L53.0517 11.4971C53.3204 11.81 53.6472 12.1019 54.1086 12.4155Z" fill="#FFC727"/>
<path d="M54.4911 11.8721L53.7822 13.0089L53.4004 13.5522L54.1094 12.4154L54.4911 11.8721Z" fill="#FFC727"/>
<path d="M54.7437 12.0586L54.0348 13.1954L53.6641 13.7212L54.3729 12.5844L54.7437 12.0586Z" fill="#FFC727"/>
<path d="M55.5525 12.9551L54.8436 14.0919C54.7423 14.237 54.2704 14.0986 53.6641 13.7213L54.373 12.5845C54.9794 12.9618 55.4513 13.1002 55.5525 12.9551Z" fill="#FFC727"/>
<path d="M55.5525 12.955C55.4513 13.1002 54.9794 12.9617 54.373 12.5844L54.7439 12.0586C55.4891 12.6092 55.6454 12.8234 55.5525 12.955Z" fill="#FFC727"/>
<path d="M54.0352 12.4923L53.3263 13.6291C52.8113 13.2843 52.4255 12.9528 52.0982 12.5858C52.064 12.5477 52.0479 12.5217 52.0593 12.5035L52.7682 11.3667C52.7569 11.3849 52.773 11.4108 52.8071 11.449C53.1343 11.816 53.5203 12.1475 54.0352 12.4923Z" fill="#FFC727"/>
<path d="M55.8702 13.1339L55.1613 14.2707C55.1596 14.2733 55.1579 14.2758 55.1561 14.2785C55.0147 14.4811 54.3759 14.2834 53.6162 13.8145L54.3252 12.6777C55.0848 13.1466 55.7238 13.3444 55.8652 13.1417C55.8669 13.1392 55.8687 13.1365 55.8702 13.1339Z" fill="#FFC727"/>
<path d="M50.9687 12.3346C50.7111 12.0044 50.5613 11.707 50.5127 11.4581L51.2217 10.3213C51.2701 10.5702 51.42 10.8676 51.6776 11.1978C51.6529 11.2377 51.6197 11.2908 51.5949 11.3305C51.5686 11.3728 51.5334 11.4291 51.5071 11.4714C51.4798 11.5152 51.4433 11.5736 51.416 11.6175C51.3881 11.6622 51.351 11.7217 51.3233 11.7664C51.2954 11.811 51.2583 11.8705 51.2305 11.9152C51.2032 11.959 51.1668 12.0174 51.1393 12.0612C51.113 12.1035 51.0779 12.1598 51.0516 12.202C51.0266 12.2417 50.9936 12.2947 50.9687 12.3346Z" fill="#FFC727"/>
<path d="M54.0356 12.4922L53.3267 13.629L53.2217 13.7803L53.9306 12.6434L54.0356 12.4922Z" fill="#FFC727"/>
<path d="M53.2207 13.7813L53.9297 12.6444L53.9302 12.6436L53.2213 13.7805L53.2207 13.7813Z" fill="#FFC727"/>
<path d="M54.325 12.6777L53.616 13.8145L53.5107 13.9628L54.2197 12.8259L54.325 12.6777Z" fill="#FFC727"/>
<path d="M51.1065 12.5023C51.0575 12.4454 51.0116 12.3896 50.9688 12.3346C51.2051 11.9556 51.4414 11.5766 51.6777 11.1978C51.7207 11.2528 51.7666 11.3088 51.8155 11.3655C51.5791 11.7445 51.343 12.1234 51.1065 12.5023Z" fill="#FFC727"/>
<path d="M53.2207 13.7813L53.9296 12.6445C53.9138 12.6699 53.9646 12.7316 54.0423 12.7806L53.3334 13.9174C53.2557 13.8683 53.2048 13.8065 53.2207 13.7813Z" fill="#FFC727"/>
<path d="M54.2196 12.8261L53.5107 13.9629C53.4932 13.9875 53.412 13.9662 53.333 13.9171L54.042 12.7803C54.1208 12.8296 54.202 12.8508 54.2196 12.8261Z" fill="#FFC727"/>
<path d="M54.8111 11.9609C55.6866 12.6019 55.9969 12.9547 55.8653 13.1418C55.7239 13.3445 55.0851 13.1467 54.3253 12.6778L54.22 12.8261C54.2025 12.8507 54.1213 12.8294 54.0423 12.7803C53.9638 12.7306 53.9127 12.668 53.9302 12.6434L54.0352 12.4922C53.5203 12.1473 53.1344 11.8158 52.8071 11.4489C52.773 11.4108 52.757 11.3848 52.7682 11.3666C52.7856 11.3422 52.8725 11.3645 52.9503 11.413C53.0066 11.4489 53.0387 11.4801 53.052 11.4968C53.3206 11.8097 53.6474 12.1016 54.1088 12.4152L54.4906 11.8717C53.6286 11.2364 53.3269 10.8938 53.4625 10.7042C53.5976 10.5117 54.2315 10.7002 54.9729 11.1603L55.0243 11.0882C55.0417 11.0639 55.1212 11.0843 55.1989 11.1328C55.2802 11.1841 55.3313 11.2469 55.3137 11.2715L55.2601 11.3471C55.6869 11.6335 55.9683 11.8776 56.2409 12.1601C56.2863 12.208 56.3081 12.2383 56.2958 12.2579C56.2772 12.2844 56.1916 12.26 56.1079 12.2078C56.0679 12.1828 56.04 12.162 56.0058 12.1238C55.7611 11.8622 55.4993 11.6417 55.1863 11.4275L54.8111 11.9609ZM55.5522 12.955C55.6451 12.8234 55.4887 12.6092 54.7436 12.0586L54.3727 12.5844C54.9791 12.9617 55.451 13.1002 55.5522 12.955ZM54.5582 11.7738L54.9253 11.254C54.3361 10.8872 53.8718 10.7536 53.7756 10.8907C53.6841 11.0205 53.8218 11.2231 54.5582 11.7738Z" fill="#FFC727"/>
<g opacity="0.1">
<path d="M54.8111 11.9609C55.6866 12.6019 55.9969 12.9547 55.8653 13.1418C55.7239 13.3445 55.0851 13.1467 54.3253 12.6778L54.22 12.8261C54.2025 12.8507 54.1213 12.8294 54.0423 12.7803C53.9638 12.7306 53.9127 12.668 53.9302 12.6434L54.0352 12.4922C53.5203 12.1473 53.1344 11.8158 52.8071 11.4489C52.773 11.4108 52.757 11.3848 52.7682 11.3666C52.7856 11.3422 52.8725 11.3645 52.9503 11.413C53.0066 11.4489 53.0387 11.4801 53.052 11.4968C53.3206 11.8097 53.6474 12.1016 54.1088 12.4152L54.4906 11.8717C53.6286 11.2364 53.3269 10.8938 53.4625 10.7042C53.5976 10.5117 54.2315 10.7002 54.9729 11.1603L55.0243 11.0882C55.0417 11.0639 55.1212 11.0843 55.1989 11.1328C55.2802 11.1841 55.3313 11.2469 55.3137 11.2715L55.2601 11.3471C55.6869 11.6335 55.9683 11.8776 56.2409 12.1601C56.2863 12.208 56.3081 12.2383 56.2958 12.2579C56.2772 12.2844 56.1916 12.26 56.1079 12.2078C56.0679 12.1828 56.04 12.162 56.0058 12.1238C55.7611 11.8622 55.4993 11.6417 55.1863 11.4275L54.8111 11.9609ZM55.5522 12.955C55.6451 12.8234 55.4887 12.6092 54.7436 12.0586L54.3727 12.5844C54.9791 12.9617 55.451 13.1002 55.5522 12.955ZM54.5582 11.7738L54.9253 11.254C54.3361 10.8872 53.8718 10.7536 53.7756 10.8907C53.6841 11.0205 53.8218 11.2231 54.5582 11.7738Z" fill="black"/>
</g>
<path d="M51.2624 12.6749C51.2074 12.6166 51.1554 12.559 51.1064 12.5022C51.1312 12.4624 51.1644 12.4092 51.1892 12.3695C51.2022 12.3486 51.2196 12.3207 51.2326 12.2999C51.2595 12.2568 51.2954 12.1992 51.3222 12.1561C51.3499 12.1117 51.3867 12.0526 51.4143 12.0083C51.4283 11.9859 51.4468 11.956 51.4608 11.9336C51.4886 11.889 51.5257 11.8295 51.5536 11.7848C51.6408 11.645 51.728 11.5051 51.8153 11.3652C51.8643 11.4221 51.9162 11.4796 51.9712 11.538C51.8531 11.7274 51.7349 11.917 51.6167 12.1064C51.5889 12.1511 51.5518 12.2106 51.5239 12.2552C51.4368 12.3952 51.3496 12.5351 51.2624 12.6749Z" fill="#FFC727"/>
<path d="M53.1834 14.1849C52.3379 13.6577 51.7027 13.1419 51.2627 12.6749C51.499 12.296 51.7353 11.9171 51.9717 11.5381C52.4117 12.0051 53.0469 12.5209 53.8923 13.048C53.959 13.0896 54.027 13.1311 54.0962 13.1729C56.2656 14.4782 57.6368 14.5843 57.9753 14.0416L57.2663 15.1784C56.9278 15.7211 55.5566 15.615 53.3872 14.3097C53.318 14.2681 53.25 14.2265 53.1834 14.1849Z" fill="#FFC727"/>
<path d="M55.7142 10.7082C61.0697 14.0476 59.692 17.0037 54.1151 13.6484C54.0277 13.5959 53.9415 13.5432 53.8576 13.4908C48.5022 10.1512 49.8801 7.19472 55.4566 10.5504C55.5439 10.6029 55.6302 10.6557 55.7142 10.7082ZM54.2299 13.3852C58.8577 16.17 59.9996 13.7159 55.5572 10.9456C55.4872 10.9019 55.4161 10.8584 55.3434 10.8146C55.3122 10.7958 55.2813 10.7765 55.2509 10.7597C55.2912 10.7843 55.3314 10.8091 55.3707 10.8336C59.6333 13.4915 58.537 15.8455 54.0959 13.173C54.0267 13.1313 53.9587 13.0897 53.8921 13.0481C52.2011 11.9936 51.3512 10.9848 51.2218 10.3211C51.2893 11.0087 52.1706 12.1034 54.0139 13.2528C54.0844 13.297 54.1564 13.341 54.2299 13.3852ZM52.9531 11.4147C52.8727 11.3646 52.7858 11.3422 52.7684 11.3666C52.7571 11.3848 52.7732 11.4107 52.8073 11.4489C53.1345 11.8158 53.5205 12.1474 54.0354 12.4922L53.9304 12.6434C53.9129 12.668 53.964 12.7307 54.0426 12.7803C54.1214 12.8294 54.2026 12.8507 54.2202 12.8261L54.3255 12.6778C55.0851 13.1467 55.7241 13.3445 55.8655 13.1418C55.9971 12.9547 55.6869 12.6019 54.8113 11.9609L55.1868 11.4275C55.4998 11.6415 55.7616 11.8622 56.0063 12.1238C56.0405 12.1619 56.0684 12.1828 56.1055 12.2059C56.1923 12.2601 56.2778 12.2843 56.2964 12.2578C56.3086 12.2382 56.2868 12.2078 56.2415 12.16C55.969 11.8774 55.6874 11.6334 55.2607 11.347L55.3143 11.2714C55.3318 11.2466 55.2807 11.184 55.2022 11.1343C55.1218 11.0842 55.0423 11.0636 55.0249 11.0881L54.9736 11.1602C54.2321 10.7 53.5982 10.5116 53.4631 10.7041C53.3277 10.8937 53.6294 11.2362 54.4913 11.8716L54.1095 12.415C53.648 12.1014 53.3213 11.8095 53.0526 11.4966C53.0389 11.4801 53.0068 11.449 52.9531 11.4147Z" fill="#FFC727"/>
<path d="M55.5571 10.9457C59.9994 13.716 58.8577 16.1701 54.2297 13.3853C54.1562 13.3411 54.0843 13.2971 54.0137 13.253C52.1705 12.1036 51.2892 11.009 51.2217 10.3213C51.351 10.985 52.2011 11.994 53.8919 13.0483C53.9585 13.0899 54.0266 13.1315 54.0957 13.1732C58.5368 15.8457 59.6332 13.4917 55.3706 10.8338C55.3312 10.8093 55.2911 10.7845 55.2507 10.7599C55.2811 10.7767 55.3121 10.796 55.3433 10.8148C55.4159 10.8585 55.4871 10.902 55.5571 10.9457Z" fill="#FFC727"/>
<g opacity="0.1">
<path d="M55.5571 10.9457C59.9994 13.716 58.8577 16.1701 54.2297 13.3853C54.1562 13.3411 54.0843 13.2971 54.0137 13.253C52.1705 12.1036 51.2892 11.009 51.2217 10.3213C51.351 10.985 52.2011 11.994 53.8919 13.0483C53.9585 13.0899 54.0266 13.1315 54.0957 13.1732C58.5368 15.8457 59.6332 13.4917 55.3706 10.8338C55.3312 10.8093 55.2911 10.7845 55.2507 10.7599C55.2811 10.7767 55.3121 10.796 55.3433 10.8148C55.4159 10.8585 55.4871 10.902 55.5571 10.9457Z" fill="black"/>
</g>
<path d="M58.9862 14.7385L58.2773 15.8753C57.8521 16.5571 56.1299 16.424 53.4061 14.7851C53.3187 14.7326 53.2326 14.6799 53.1486 14.6275C50.409 12.9191 49.4314 11.3109 49.8767 10.5968L50.5857 9.45996C50.1403 10.1741 51.1179 11.7823 53.8576 13.4907C53.9416 13.5431 54.0278 13.5958 54.1151 13.6483C56.8389 15.287 58.561 15.4202 58.9862 14.7385Z" fill="#FFC727"/>
<g opacity="0.1">
<path d="M58.9862 14.7385L58.2773 15.8753C57.8521 16.5571 56.1299 16.424 53.4061 14.7851C53.3187 14.7326 53.2326 14.6799 53.1486 14.6275C50.409 12.9191 49.4314 11.3109 49.8767 10.5968L50.5857 9.45996C50.1403 10.1741 51.1179 11.7823 53.8576 13.4907C53.9416 13.5431 54.0278 13.5958 54.1151 13.6483C56.8389 15.287 58.561 15.4202 58.9862 14.7385Z" fill="black"/>
</g>
<path d="M28.7564 48.6154C33.9706 50.2476 31.5617 57.973 26.3389 56.3381C21.125 54.7059 23.5339 46.9806 28.7564 48.6154Z" fill="#FFC727"/>
<path opacity="0.1" d="M28.7564 48.6154C33.9706 50.2476 31.5617 57.973 26.3389 56.3381C21.125 54.7059 23.5339 46.9806 28.7564 48.6154Z" fill="black"/>
<path d="M28.2665 48.4617C33.2358 50.0173 30.8266 57.7426 25.849 56.1844C20.88 54.629 23.2892 46.9037 28.2665 48.4617Z" fill="#FFC727"/>
<path opacity="0.1" d="M23.8092 52.1011C23.6584 53.5127 24.3056 54.9807 26.0549 55.5283C30.1852 56.8212 32.1854 50.4095 28.0614 49.1185C28.0345 49.1101 28.0075 49.1016 27.9799 49.0947C31.8367 50.3875 29.9174 56.4516 25.9792 55.2187C24.3728 54.7159 23.7336 53.4003 23.8092 52.1011Z" fill="black"/>
<g opacity="0.1">
<path d="M27.8082 49.919C27.8764 49.9455 27.9118 50.0258 27.8854 50.094L27.8038 50.3042C28.1697 50.4824 28.3937 50.7145 28.5959 51.0347C28.6286 51.0898 28.6428 51.1316 28.6225 51.1841C28.5939 51.2576 28.5085 51.2907 28.435 51.2623C28.4035 51.2501 28.3792 51.2347 28.3547 51.1888C28.177 50.8842 27.9656 50.6813 27.6995 50.5417L27.1287 52.012C27.8617 52.49 28.0815 52.9198 27.8817 53.4344C27.6656 53.9911 27.0454 54.2034 26.3808 53.9696L26.2218 54.3793C26.1953 54.4476 26.1151 54.4829 26.0468 54.4564C25.9784 54.4298 25.9432 54.3497 25.9696 54.2814L26.1306 53.8666C25.6881 53.6525 25.3805 53.3398 25.1468 52.8985C25.1223 52.8527 25.1135 52.8131 25.1319 52.7658C25.1585 52.6975 25.246 52.659 25.3141 52.6854C25.3615 52.7038 25.3847 52.7371 25.3945 52.7589C25.5825 53.1463 25.8397 53.4333 26.233 53.6343L26.8141 52.1376C26.0935 51.6585 25.8802 51.2433 26.084 50.7181C26.2899 50.1877 26.909 49.9627 27.5558 50.1958L27.6334 49.9962C27.6598 49.9278 27.7399 49.8924 27.8082 49.919ZM26.9181 51.8698L27.4746 50.4362C26.9611 50.249 26.5068 50.423 26.3601 50.8012C26.2213 51.1582 26.3038 51.444 26.9181 51.8698ZM27.0247 52.2797L26.462 53.7291C26.9913 53.9225 27.4508 53.7504 27.6058 53.3514C27.7465 52.9889 27.6484 52.697 27.0247 52.2797Z" fill="black"/>
</g>
<path d="M63.0169 64.941C45.0676 65.0267 24.9325 65.0274 6.9834 64.941C24.9327 64.8546 45.0677 64.8553 63.0169 64.941Z" fill="#263238"/>
</svg>
