<svg width="116" height="117" viewBox="0 0 116 117" fill="none" xmlns="http://www.w3.org/2000/svg">
<path fill-rule="evenodd" clip-rule="evenodd" d="M112.546 109.943C112.774 111.541 111.406 112.91 109.807 112.682L85.471 109.23C77.294 113.636 67.9387 116.136 58 116.136C25.9672 116.136 0 90.1685 0 58.1357C0 26.1029 25.9672 0.135742 58 0.135742C90.0328 0.135742 116 26.1029 116 58.1357C116 68.0744 113.5 77.4298 109.094 85.6068L112.546 109.943ZM57.0165 75.2297C55.9307 75.2297 55.0146 75.5981 54.2694 76.3326C53.5231 77.0671 53.1505 77.9885 53.1505 79.0968C53.1505 80.1826 53.523 81.0986 54.2694 81.8449C55.0146 82.5911 55.9306 82.9638 57.0165 82.9638C58.1247 82.9638 59.0461 82.5913 59.7807 81.8449C60.5152 81.0986 60.8835 80.1826 60.8835 79.0968C60.8835 77.9886 60.5152 77.0672 59.7807 76.3326C59.0461 75.598 58.1247 75.2297 57.0165 75.2297ZM65.7166 34.9189C67.8754 35.9929 69.5601 37.4513 70.7698 39.2941C71.9795 41.1367 72.5849 43.2346 72.5846 45.5855V45.6196C72.5846 48.2653 71.945 50.5436 70.6682 52.4548C69.3903 54.3659 67.6659 55.977 65.4965 57.288C64.0712 58.1251 62.9576 58.9269 62.1548 59.6956C61.352 60.4643 60.7872 61.2896 60.4594 62.1715C60.1307 63.0532 59.9673 64.0942 59.9673 65.2921V67.4969H54.0324V64.3762C54.0324 62.8847 54.2747 61.534 54.7615 60.3234C55.2472 59.1138 55.9936 58.0002 56.9993 56.9828C58.0051 55.9653 59.2776 54.9927 60.8151 54.066C62.1261 53.2524 63.1842 52.4549 63.987 51.6745C64.7898 50.8951 65.3716 50.041 65.7336 49.1143C66.0945 48.1876 66.2759 47.1242 66.2759 45.9253V45.8911C66.2759 44.4668 65.9311 43.2071 65.2414 42.1095C64.5517 41.0131 63.5844 40.1536 62.3417 39.5322C61.098 38.9109 59.6395 38.5991 57.9666 38.5991C56.2702 38.5991 54.7947 38.9162 53.5402 39.5493C52.2846 40.1824 51.296 41.0589 50.5722 42.1778C49.8483 43.2966 49.4074 44.6141 49.2494 46.1292L49.2162 46.4675H43.4158L43.4499 46.0267C43.6303 43.7206 44.2805 41.6013 45.3994 39.6678C46.5183 37.7342 48.1412 36.1905 50.2668 35.0374C52.3924 33.8844 55.038 33.3079 58.2036 33.3079C61.0521 33.3079 63.5568 33.8449 65.7166 34.9189Z" fill="url(#paint0_linear_574_13222)" fill-opacity="0.38"/>
<defs>
<linearGradient id="paint0_linear_574_13222" x1="116" y1="9.8024" x2="-25.8437" y2="46.2334" gradientUnits="userSpaceOnUse">
<stop stop-color="#1CCFBD"/>
<stop offset="1" stop-color="#2C9BF0"/>
</linearGradient>
</defs>
</svg>
