<svg width="32" height="32" viewBox="0 0 32 32" fill="none" xmlns="http://www.w3.org/2000/svg">
  <path d="M18.667 8.26693V13.3337C14.947 13.4003 13.4003 14.947 13.3337 18.667H8.26699C4.26699 18.667 2.66699 17.0671 2.66699 13.0671V8.26693C2.66699 4.26693 4.26699 2.66699 8.26699 2.66699H13.067C17.067 2.66699 18.667 4.26693 18.667 8.26693Z" stroke="#292D32" stroke-width="1.5" stroke-linecap="round" stroke-linejoin="round"/>
  <path d="M9.27977 7.82645C8.5731 7.34645 7.63977 7.34647 6.93311 7.85314" stroke="#292D32" stroke-width="1.5" stroke-miterlimit="10" stroke-linecap="round" stroke-linejoin="round"/>
  <path d="M14.6133 7.82645C13.9066 7.34645 12.9733 7.34647 12.2666 7.85314" stroke="#292D32" stroke-width="1.5" stroke-miterlimit="10" stroke-linecap="round" stroke-linejoin="round"/>
  <path d="M10.8797 15.2262H7.78641C7.38641 15.2262 7.06641 14.9062 7.06641 14.5062C7.06641 12.5195 8.67974 10.9062 10.6664 10.9062C11.5197 10.9062 12.3064 11.1995 12.9197 11.6929" stroke="#292D32" stroke-width="1.5" stroke-miterlimit="10" stroke-linecap="round" stroke-linejoin="round"/>
  <path d="M29.333 18.9329V23.7331C29.333 27.7331 27.733 29.333 23.733 29.333H18.933C14.933 29.333 13.333 27.7331 13.333 23.7331V18.6663C13.3997 14.9463 14.9463 13.3997 18.6663 13.333H23.733C27.733 13.333 29.333 14.9329 29.333 18.9329Z" stroke="#292D32" stroke-width="1.5" stroke-linecap="round" stroke-linejoin="round"/>
  <path d="M19.9468 18.1595C19.2401 18.6395 18.3068 18.6395 17.6001 18.1328" stroke="#292D32" stroke-width="1.5" stroke-miterlimit="10" stroke-linecap="round" stroke-linejoin="round"/>
  <path d="M25.2803 18.1595C24.5736 18.6395 23.6403 18.6395 22.9336 18.1328" stroke="#292D32" stroke-width="1.5" stroke-miterlimit="10" stroke-linecap="round" stroke-linejoin="round"/>
  <path d="M18.4534 21.5732H24.2134C24.6134 21.5732 24.9334 21.8931 24.9334 22.2931C24.9334 24.2798 23.3201 25.8932 21.3334 25.8932C19.3467 25.8932 17.7334 24.2798 17.7334 22.2931C17.7334 21.8931 18.0534 21.5732 18.4534 21.5732Z" stroke="#292D32" stroke-width="1.5" stroke-miterlimit="10" stroke-linecap="round" stroke-linejoin="round"/>
</svg>
