<svg width="24" height="25" viewBox="0 0 24 25" fill="none" xmlns="http://www.w3.org/2000/svg">
  <path d="M2 9.5V7C2 4.51 4.01 2.5 6.5 2.5H9" stroke="url(#paint0_linear_2113_7952)" stroke-width="1.5" stroke-linecap="round" stroke-linejoin="round"/>
  <path d="M15 2.5H17.5C19.99 2.5 22 4.51 22 7V9.5" stroke="url(#paint1_linear_2113_7952)" stroke-width="1.5" stroke-linecap="round" stroke-linejoin="round"/>
  <path d="M22 16.5V18C22 20.49 19.99 22.5 17.5 22.5H16" stroke="url(#paint2_linear_2113_7952)" stroke-width="1.5" stroke-linecap="round" stroke-linejoin="round"/>
  <path d="M9 22.5H6.5C4.01 22.5 2 20.49 2 18V15.5" stroke="url(#paint3_linear_2113_7952)" stroke-width="1.5" stroke-linecap="round" stroke-linejoin="round"/>
  <path d="M17 18.1978C16.2834 18.4046 15.4365 18.5 14.443 18.5H9.557C8.56352 18.5 7.71661 18.4046 7 18.1978C7.17915 16.1302 9.35342 14.5 12 14.5C14.6466 14.5 16.8208 16.1302 17 18.1978Z" stroke="url(#paint4_linear_2113_7952)" stroke-width="1.5" stroke-linecap="round" stroke-linejoin="round"/>
  <path d="M15 8.49584C15 10.1527 13.6592 11.5 12 11.5C10.3408 11.5 9 10.1527 9 8.49584C9 6.83893 10.3408 5.5 12 5.5C13.6592 5.5 15 6.83893 15 8.49584Z" stroke="url(#paint5_linear_2113_7952)" stroke-width="1.5" stroke-linecap="round" stroke-linejoin="round"/>
  <defs>
    <linearGradient id="paint0_linear_2113_7952" x1="2" y1="3.08333" x2="10.5595" y2="5.28175" gradientUnits="userSpaceOnUse">
      <stop stop-color="#1CCFBD"/>
      <stop offset="1" stop-color="#2C9BF0"/>
    </linearGradient>
    <linearGradient id="paint1_linear_2113_7952" x1="15" y1="3.08333" x2="23.5595" y2="5.28175" gradientUnits="userSpaceOnUse">
      <stop stop-color="#1CCFBD"/>
      <stop offset="1" stop-color="#2C9BF0"/>
    </linearGradient>
    <linearGradient id="paint2_linear_2113_7952" x1="16" y1="17" x2="23.3367" y2="18.8844" gradientUnits="userSpaceOnUse">
      <stop stop-color="#1CCFBD"/>
      <stop offset="1" stop-color="#2C9BF0"/>
    </linearGradient>
    <linearGradient id="paint3_linear_2113_7952" x1="2" y1="16.0833" x2="10.5595" y2="18.2818" gradientUnits="userSpaceOnUse">
      <stop stop-color="#1CCFBD"/>
      <stop offset="1" stop-color="#2C9BF0"/>
    </linearGradient>
    <linearGradient id="paint4_linear_2113_7952" x1="7" y1="14.8333" x2="16.2294" y2="20.7595" gradientUnits="userSpaceOnUse">
      <stop stop-color="#1CCFBD"/>
      <stop offset="1" stop-color="#2C9BF0"/>
    </linearGradient>
    <linearGradient id="paint5_linear_2113_7952" x1="9" y1="6" x2="16.3367" y2="7.88436" gradientUnits="userSpaceOnUse">
      <stop stop-color="#1CCFBD"/>
      <stop offset="1" stop-color="#2C9BF0"/>
    </linearGradient>
  </defs>
</svg>
